<?xml version="1.0" encoding="utf-8" standalone="no"?>
<!DOCTYPE svg PUBLIC "-//W3C//DTD SVG 1.1//EN"
  "http://www.w3.org/Graphics/SVG/1.1/DTD/svg11.dtd">
<svg xmlns:xlink="http://www.w3.org/1999/xlink" width="864pt" height="360pt" viewBox="0 0 864 360" xmlns="http://www.w3.org/2000/svg" version="1.1">
 <metadata>
  <rdf:RDF xmlns:dc="http://purl.org/dc/elements/1.1/" xmlns:cc="http://creativecommons.org/ns#" xmlns:rdf="http://www.w3.org/1999/02/22-rdf-syntax-ns#">
   <cc:Work>
    <dc:type rdf:resource="http://purl.org/dc/dcmitype/StillImage"/>
    <dc:date>2024-10-17T08:14:15.930978</dc:date>
    <dc:format>image/svg+xml</dc:format>
    <dc:creator>
     <cc:Agent>
      <dc:title>Matplotlib v3.9.2, https://matplotlib.org/</dc:title>
     </cc:Agent>
    </dc:creator>
   </cc:Work>
  </rdf:RDF>
 </metadata>
 <defs>
  <style type="text/css">*{stroke-linejoin: round; stroke-linecap: butt}</style>
 </defs>
 <g id="figure_1">
  <g id="patch_1">
   <path d="M 0 360 
L 864 360 
L 864 0 
L 0 0 
L 0 360 
z
" style="fill: none; opacity: 0"/>
  </g>
  <g id="axes_1">
   <g id="patch_2">
    <path d="M 108 320.4 
L 777.6 320.4 
L 777.6 43.2 
L 108 43.2 
L 108 320.4 
z
" style="fill: none; opacity: 0"/>
   </g>
   <g id="matplotlib.axis_1">
    <g id="xtick_1">
     <g id="line2d_1">
      <path d="M 158.53828 320.4 
L 158.53828 43.2 
" clip-path="url(#pb3b8096453)" style="fill: none; stroke-dasharray: 5.12,1.28,0.8,1.28; stroke-dashoffset: 0; stroke: #b0b0b0; stroke-width: 0.8"/>
     </g>
     <g id="line2d_2">
      <defs>
       <path id="mdea673933a" d="M 0 0 
L 0 3.5 
" style="stroke: #a9a9a9; stroke-width: 0.8"/>
      </defs>
      <g>
       <use xlink:href="#mdea673933a" x="158.53828" y="320.4" style="fill: #a9a9a9; stroke: #a9a9a9; stroke-width: 0.8"/>
      </g>
     </g>
     <g id="text_1">
      <!-- 2021-09 -->
      <g style="fill: #a9a9a9" transform="translate(137.646874 334.998438) scale(0.1 -0.1)">
       <defs>
        <path id="DejaVuSans-32" d="M 1228 531 
L 3431 531 
L 3431 0 
L 469 0 
L 469 531 
Q 828 903 1448 1529 
Q 2069 2156 2228 2338 
Q 2531 2678 2651 2914 
Q 2772 3150 2772 3378 
Q 2772 3750 2511 3984 
Q 2250 4219 1831 4219 
Q 1534 4219 1204 4116 
Q 875 4013 500 3803 
L 500 4441 
Q 881 4594 1212 4672 
Q 1544 4750 1819 4750 
Q 2544 4750 2975 4387 
Q 3406 4025 3406 3419 
Q 3406 3131 3298 2873 
Q 3191 2616 2906 2266 
Q 2828 2175 2409 1742 
Q 1991 1309 1228 531 
z
" transform="scale(0.015625)"/>
        <path id="DejaVuSans-30" d="M 2034 4250 
Q 1547 4250 1301 3770 
Q 1056 3291 1056 2328 
Q 1056 1369 1301 889 
Q 1547 409 2034 409 
Q 2525 409 2770 889 
Q 3016 1369 3016 2328 
Q 3016 3291 2770 3770 
Q 2525 4250 2034 4250 
z
M 2034 4750 
Q 2819 4750 3233 4129 
Q 3647 3509 3647 2328 
Q 3647 1150 3233 529 
Q 2819 -91 2034 -91 
Q 1250 -91 836 529 
Q 422 1150 422 2328 
Q 422 3509 836 4129 
Q 1250 4750 2034 4750 
z
" transform="scale(0.015625)"/>
        <path id="DejaVuSans-31" d="M 794 531 
L 1825 531 
L 1825 4091 
L 703 3866 
L 703 4441 
L 1819 4666 
L 2450 4666 
L 2450 531 
L 3481 531 
L 3481 0 
L 794 0 
L 794 531 
z
" transform="scale(0.015625)"/>
        <path id="DejaVuSans-2d" d="M 313 2009 
L 1997 2009 
L 1997 1497 
L 313 1497 
L 313 2009 
z
" transform="scale(0.015625)"/>
        <path id="DejaVuSans-39" d="M 703 97 
L 703 672 
Q 941 559 1184 500 
Q 1428 441 1663 441 
Q 2288 441 2617 861 
Q 2947 1281 2994 2138 
Q 2813 1869 2534 1725 
Q 2256 1581 1919 1581 
Q 1219 1581 811 2004 
Q 403 2428 403 3163 
Q 403 3881 828 4315 
Q 1253 4750 1959 4750 
Q 2769 4750 3195 4129 
Q 3622 3509 3622 2328 
Q 3622 1225 3098 567 
Q 2575 -91 1691 -91 
Q 1453 -91 1209 -44 
Q 966 3 703 97 
z
M 1959 2075 
Q 2384 2075 2632 2365 
Q 2881 2656 2881 3163 
Q 2881 3666 2632 3958 
Q 2384 4250 1959 4250 
Q 1534 4250 1286 3958 
Q 1038 3666 1038 3163 
Q 1038 2656 1286 2365 
Q 1534 2075 1959 2075 
z
" transform="scale(0.015625)"/>
       </defs>
       <use xlink:href="#DejaVuSans-32"/>
       <use xlink:href="#DejaVuSans-30" x="63.623047"/>
       <use xlink:href="#DejaVuSans-32" x="127.246094"/>
       <use xlink:href="#DejaVuSans-31" x="190.869141"/>
       <use xlink:href="#DejaVuSans-2d" x="254.492188"/>
       <use xlink:href="#DejaVuSans-30" x="290.576172"/>
       <use xlink:href="#DejaVuSans-39" x="354.199219"/>
      </g>
     </g>
    </g>
    <g id="xtick_2">
     <g id="line2d_3">
      <path d="M 221.421199 320.4 
L 221.421199 43.2 
" clip-path="url(#pb3b8096453)" style="fill: none; stroke-dasharray: 5.12,1.28,0.8,1.28; stroke-dashoffset: 0; stroke: #b0b0b0; stroke-width: 0.8"/>
     </g>
     <g id="line2d_4">
      <g>
       <use xlink:href="#mdea673933a" x="221.421199" y="320.4" style="fill: #a9a9a9; stroke: #a9a9a9; stroke-width: 0.8"/>
      </g>
     </g>
     <g id="text_2">
      <!-- 2022-01 -->
      <g style="fill: #a9a9a9" transform="translate(200.529793 334.998438) scale(0.1 -0.1)">
       <use xlink:href="#DejaVuSans-32"/>
       <use xlink:href="#DejaVuSans-30" x="63.623047"/>
       <use xlink:href="#DejaVuSans-32" x="127.246094"/>
       <use xlink:href="#DejaVuSans-32" x="190.869141"/>
       <use xlink:href="#DejaVuSans-2d" x="254.492188"/>
       <use xlink:href="#DejaVuSans-30" x="290.576172"/>
       <use xlink:href="#DejaVuSans-31" x="354.199219"/>
      </g>
     </g>
    </g>
    <g id="xtick_3">
     <g id="line2d_5">
      <path d="M 283.273251 320.4 
L 283.273251 43.2 
" clip-path="url(#pb3b8096453)" style="fill: none; stroke-dasharray: 5.12,1.28,0.8,1.28; stroke-dashoffset: 0; stroke: #b0b0b0; stroke-width: 0.8"/>
     </g>
     <g id="line2d_6">
      <g>
       <use xlink:href="#mdea673933a" x="283.273251" y="320.4" style="fill: #a9a9a9; stroke: #a9a9a9; stroke-width: 0.8"/>
      </g>
     </g>
     <g id="text_3">
      <!-- 2022-05 -->
      <g style="fill: #a9a9a9" transform="translate(262.381844 334.998438) scale(0.1 -0.1)">
       <defs>
        <path id="DejaVuSans-35" d="M 691 4666 
L 3169 4666 
L 3169 4134 
L 1269 4134 
L 1269 2991 
Q 1406 3038 1543 3061 
Q 1681 3084 1819 3084 
Q 2600 3084 3056 2656 
Q 3513 2228 3513 1497 
Q 3513 744 3044 326 
Q 2575 -91 1722 -91 
Q 1428 -91 1123 -41 
Q 819 9 494 109 
L 494 744 
Q 775 591 1075 516 
Q 1375 441 1709 441 
Q 2250 441 2565 725 
Q 2881 1009 2881 1497 
Q 2881 1984 2565 2268 
Q 2250 2553 1709 2553 
Q 1456 2553 1204 2497 
Q 953 2441 691 2322 
L 691 4666 
z
" transform="scale(0.015625)"/>
       </defs>
       <use xlink:href="#DejaVuSans-32"/>
       <use xlink:href="#DejaVuSans-30" x="63.623047"/>
       <use xlink:href="#DejaVuSans-32" x="127.246094"/>
       <use xlink:href="#DejaVuSans-32" x="190.869141"/>
       <use xlink:href="#DejaVuSans-2d" x="254.492188"/>
       <use xlink:href="#DejaVuSans-30" x="290.576172"/>
       <use xlink:href="#DejaVuSans-35" x="354.199219"/>
      </g>
     </g>
    </g>
    <g id="xtick_4">
     <g id="line2d_7">
      <path d="M 346.671603 320.4 
L 346.671603 43.2 
" clip-path="url(#pb3b8096453)" style="fill: none; stroke-dasharray: 5.12,1.28,0.8,1.28; stroke-dashoffset: 0; stroke: #b0b0b0; stroke-width: 0.8"/>
     </g>
     <g id="line2d_8">
      <g>
       <use xlink:href="#mdea673933a" x="346.671603" y="320.4" style="fill: #a9a9a9; stroke: #a9a9a9; stroke-width: 0.8"/>
      </g>
     </g>
     <g id="text_4">
      <!-- 2022-09 -->
      <g style="fill: #a9a9a9" transform="translate(325.780197 334.998438) scale(0.1 -0.1)">
       <use xlink:href="#DejaVuSans-32"/>
       <use xlink:href="#DejaVuSans-30" x="63.623047"/>
       <use xlink:href="#DejaVuSans-32" x="127.246094"/>
       <use xlink:href="#DejaVuSans-32" x="190.869141"/>
       <use xlink:href="#DejaVuSans-2d" x="254.492188"/>
       <use xlink:href="#DejaVuSans-30" x="290.576172"/>
       <use xlink:href="#DejaVuSans-39" x="354.199219"/>
      </g>
     </g>
    </g>
    <g id="xtick_5">
     <g id="line2d_9">
      <path d="M 409.554522 320.4 
L 409.554522 43.2 
" clip-path="url(#pb3b8096453)" style="fill: none; stroke-dasharray: 5.12,1.28,0.8,1.28; stroke-dashoffset: 0; stroke: #b0b0b0; stroke-width: 0.8"/>
     </g>
     <g id="line2d_10">
      <g>
       <use xlink:href="#mdea673933a" x="409.554522" y="320.4" style="fill: #a9a9a9; stroke: #a9a9a9; stroke-width: 0.8"/>
      </g>
     </g>
     <g id="text_5">
      <!-- 2023-01 -->
      <g style="fill: #a9a9a9" transform="translate(388.663116 334.998438) scale(0.1 -0.1)">
       <defs>
        <path id="DejaVuSans-33" d="M 2597 2516 
Q 3050 2419 3304 2112 
Q 3559 1806 3559 1356 
Q 3559 666 3084 287 
Q 2609 -91 1734 -91 
Q 1441 -91 1130 -33 
Q 819 25 488 141 
L 488 750 
Q 750 597 1062 519 
Q 1375 441 1716 441 
Q 2309 441 2620 675 
Q 2931 909 2931 1356 
Q 2931 1769 2642 2001 
Q 2353 2234 1838 2234 
L 1294 2234 
L 1294 2753 
L 1863 2753 
Q 2328 2753 2575 2939 
Q 2822 3125 2822 3475 
Q 2822 3834 2567 4026 
Q 2313 4219 1838 4219 
Q 1578 4219 1281 4162 
Q 984 4106 628 3988 
L 628 4550 
Q 988 4650 1302 4700 
Q 1616 4750 1894 4750 
Q 2613 4750 3031 4423 
Q 3450 4097 3450 3541 
Q 3450 3153 3228 2886 
Q 3006 2619 2597 2516 
z
" transform="scale(0.015625)"/>
       </defs>
       <use xlink:href="#DejaVuSans-32"/>
       <use xlink:href="#DejaVuSans-30" x="63.623047"/>
       <use xlink:href="#DejaVuSans-32" x="127.246094"/>
       <use xlink:href="#DejaVuSans-33" x="190.869141"/>
       <use xlink:href="#DejaVuSans-2d" x="254.492188"/>
       <use xlink:href="#DejaVuSans-30" x="290.576172"/>
       <use xlink:href="#DejaVuSans-31" x="354.199219"/>
      </g>
     </g>
    </g>
    <g id="xtick_6">
     <g id="line2d_11">
      <path d="M 471.406574 320.4 
L 471.406574 43.2 
" clip-path="url(#pb3b8096453)" style="fill: none; stroke-dasharray: 5.12,1.28,0.8,1.28; stroke-dashoffset: 0; stroke: #b0b0b0; stroke-width: 0.8"/>
     </g>
     <g id="line2d_12">
      <g>
       <use xlink:href="#mdea673933a" x="471.406574" y="320.4" style="fill: #a9a9a9; stroke: #a9a9a9; stroke-width: 0.8"/>
      </g>
     </g>
     <g id="text_6">
      <!-- 2023-05 -->
      <g style="fill: #a9a9a9" transform="translate(450.515168 334.998438) scale(0.1 -0.1)">
       <use xlink:href="#DejaVuSans-32"/>
       <use xlink:href="#DejaVuSans-30" x="63.623047"/>
       <use xlink:href="#DejaVuSans-32" x="127.246094"/>
       <use xlink:href="#DejaVuSans-33" x="190.869141"/>
       <use xlink:href="#DejaVuSans-2d" x="254.492188"/>
       <use xlink:href="#DejaVuSans-30" x="290.576172"/>
       <use xlink:href="#DejaVuSans-35" x="354.199219"/>
      </g>
     </g>
    </g>
    <g id="xtick_7">
     <g id="line2d_13">
      <path d="M 534.804926 320.4 
L 534.804926 43.2 
" clip-path="url(#pb3b8096453)" style="fill: none; stroke-dasharray: 5.12,1.28,0.8,1.28; stroke-dashoffset: 0; stroke: #b0b0b0; stroke-width: 0.8"/>
     </g>
     <g id="line2d_14">
      <g>
       <use xlink:href="#mdea673933a" x="534.804926" y="320.4" style="fill: #a9a9a9; stroke: #a9a9a9; stroke-width: 0.8"/>
      </g>
     </g>
     <g id="text_7">
      <!-- 2023-09 -->
      <g style="fill: #a9a9a9" transform="translate(513.91352 334.998438) scale(0.1 -0.1)">
       <use xlink:href="#DejaVuSans-32"/>
       <use xlink:href="#DejaVuSans-30" x="63.623047"/>
       <use xlink:href="#DejaVuSans-32" x="127.246094"/>
       <use xlink:href="#DejaVuSans-33" x="190.869141"/>
       <use xlink:href="#DejaVuSans-2d" x="254.492188"/>
       <use xlink:href="#DejaVuSans-30" x="290.576172"/>
       <use xlink:href="#DejaVuSans-39" x="354.199219"/>
      </g>
     </g>
    </g>
    <g id="xtick_8">
     <g id="line2d_15">
      <path d="M 597.687845 320.4 
L 597.687845 43.2 
" clip-path="url(#pb3b8096453)" style="fill: none; stroke-dasharray: 5.12,1.28,0.8,1.28; stroke-dashoffset: 0; stroke: #b0b0b0; stroke-width: 0.8"/>
     </g>
     <g id="line2d_16">
      <g>
       <use xlink:href="#mdea673933a" x="597.687845" y="320.4" style="fill: #a9a9a9; stroke: #a9a9a9; stroke-width: 0.8"/>
      </g>
     </g>
     <g id="text_8">
      <!-- 2024-01 -->
      <g style="fill: #a9a9a9" transform="translate(576.796439 334.998438) scale(0.1 -0.1)">
       <defs>
        <path id="DejaVuSans-34" d="M 2419 4116 
L 825 1625 
L 2419 1625 
L 2419 4116 
z
M 2253 4666 
L 3047 4666 
L 3047 1625 
L 3713 1625 
L 3713 1100 
L 3047 1100 
L 3047 0 
L 2419 0 
L 2419 1100 
L 313 1100 
L 313 1709 
L 2253 4666 
z
" transform="scale(0.015625)"/>
       </defs>
       <use xlink:href="#DejaVuSans-32"/>
       <use xlink:href="#DejaVuSans-30" x="63.623047"/>
       <use xlink:href="#DejaVuSans-32" x="127.246094"/>
       <use xlink:href="#DejaVuSans-34" x="190.869141"/>
       <use xlink:href="#DejaVuSans-2d" x="254.492188"/>
       <use xlink:href="#DejaVuSans-30" x="290.576172"/>
       <use xlink:href="#DejaVuSans-31" x="354.199219"/>
      </g>
     </g>
    </g>
    <g id="xtick_9">
     <g id="line2d_17">
      <path d="M 660.055331 320.4 
L 660.055331 43.2 
" clip-path="url(#pb3b8096453)" style="fill: none; stroke-dasharray: 5.12,1.28,0.8,1.28; stroke-dashoffset: 0; stroke: #b0b0b0; stroke-width: 0.8"/>
     </g>
     <g id="line2d_18">
      <g>
       <use xlink:href="#mdea673933a" x="660.055331" y="320.4" style="fill: #a9a9a9; stroke: #a9a9a9; stroke-width: 0.8"/>
      </g>
     </g>
     <g id="text_9">
      <!-- 2024-05 -->
      <g style="fill: #a9a9a9" transform="translate(639.163924 334.998438) scale(0.1 -0.1)">
       <use xlink:href="#DejaVuSans-32"/>
       <use xlink:href="#DejaVuSans-30" x="63.623047"/>
       <use xlink:href="#DejaVuSans-32" x="127.246094"/>
       <use xlink:href="#DejaVuSans-34" x="190.869141"/>
       <use xlink:href="#DejaVuSans-2d" x="254.492188"/>
       <use xlink:href="#DejaVuSans-30" x="290.576172"/>
       <use xlink:href="#DejaVuSans-35" x="354.199219"/>
      </g>
     </g>
    </g>
    <g id="xtick_10">
     <g id="line2d_19">
      <path d="M 723.453683 320.4 
L 723.453683 43.2 
" clip-path="url(#pb3b8096453)" style="fill: none; stroke-dasharray: 5.12,1.28,0.8,1.28; stroke-dashoffset: 0; stroke: #b0b0b0; stroke-width: 0.8"/>
     </g>
     <g id="line2d_20">
      <g>
       <use xlink:href="#mdea673933a" x="723.453683" y="320.4" style="fill: #a9a9a9; stroke: #a9a9a9; stroke-width: 0.8"/>
      </g>
     </g>
     <g id="text_10">
      <!-- 2024-09 -->
      <g style="fill: #a9a9a9" transform="translate(702.562277 334.998438) scale(0.1 -0.1)">
       <use xlink:href="#DejaVuSans-32"/>
       <use xlink:href="#DejaVuSans-30" x="63.623047"/>
       <use xlink:href="#DejaVuSans-32" x="127.246094"/>
       <use xlink:href="#DejaVuSans-34" x="190.869141"/>
       <use xlink:href="#DejaVuSans-2d" x="254.492188"/>
       <use xlink:href="#DejaVuSans-30" x="290.576172"/>
       <use xlink:href="#DejaVuSans-39" x="354.199219"/>
      </g>
     </g>
    </g>
   </g>
   <g id="matplotlib.axis_2">
    <g id="ytick_1">
     <g id="line2d_21">
      <path d="M 108 307.837004 
L 777.6 307.837004 
" clip-path="url(#pb3b8096453)" style="fill: none; stroke-dasharray: 5.12,1.28,0.8,1.28; stroke-dashoffset: 0; stroke: #b0b0b0; stroke-width: 0.8"/>
     </g>
     <g id="line2d_22">
      <defs>
       <path id="m3a169ce8eb" d="M 0 0 
L -3.5 0 
" style="stroke: #a9a9a9; stroke-width: 0.8"/>
      </defs>
      <g>
       <use xlink:href="#m3a169ce8eb" x="108" y="307.837004" style="fill: #a9a9a9; stroke: #a9a9a9; stroke-width: 0.8"/>
      </g>
     </g>
     <g id="text_11">
      <!-- 0 -->
      <g style="fill: #a9a9a9" transform="translate(94.6375 311.636223) scale(0.1 -0.1)">
       <use xlink:href="#DejaVuSans-30"/>
      </g>
     </g>
    </g>
    <g id="ytick_2">
     <g id="line2d_23">
      <path d="M 108 278.23348 
L 777.6 278.23348 
" clip-path="url(#pb3b8096453)" style="fill: none; stroke-dasharray: 5.12,1.28,0.8,1.28; stroke-dashoffset: 0; stroke: #b0b0b0; stroke-width: 0.8"/>
     </g>
     <g id="line2d_24">
      <g>
       <use xlink:href="#m3a169ce8eb" x="108" y="278.23348" style="fill: #a9a9a9; stroke: #a9a9a9; stroke-width: 0.8"/>
      </g>
     </g>
     <g id="text_12">
      <!-- 800 -->
      <g style="fill: #a9a9a9" transform="translate(81.9125 282.032699) scale(0.1 -0.1)">
       <defs>
        <path id="DejaVuSans-38" d="M 2034 2216 
Q 1584 2216 1326 1975 
Q 1069 1734 1069 1313 
Q 1069 891 1326 650 
Q 1584 409 2034 409 
Q 2484 409 2743 651 
Q 3003 894 3003 1313 
Q 3003 1734 2745 1975 
Q 2488 2216 2034 2216 
z
M 1403 2484 
Q 997 2584 770 2862 
Q 544 3141 544 3541 
Q 544 4100 942 4425 
Q 1341 4750 2034 4750 
Q 2731 4750 3128 4425 
Q 3525 4100 3525 3541 
Q 3525 3141 3298 2862 
Q 3072 2584 2669 2484 
Q 3125 2378 3379 2068 
Q 3634 1759 3634 1313 
Q 3634 634 3220 271 
Q 2806 -91 2034 -91 
Q 1263 -91 848 271 
Q 434 634 434 1313 
Q 434 1759 690 2068 
Q 947 2378 1403 2484 
z
M 1172 3481 
Q 1172 3119 1398 2916 
Q 1625 2713 2034 2713 
Q 2441 2713 2670 2916 
Q 2900 3119 2900 3481 
Q 2900 3844 2670 4047 
Q 2441 4250 2034 4250 
Q 1625 4250 1398 4047 
Q 1172 3844 1172 3481 
z
" transform="scale(0.015625)"/>
       </defs>
       <use xlink:href="#DejaVuSans-38"/>
       <use xlink:href="#DejaVuSans-30" x="63.623047"/>
       <use xlink:href="#DejaVuSans-30" x="127.246094"/>
      </g>
     </g>
    </g>
    <g id="ytick_3">
     <g id="line2d_25">
      <path d="M 108 248.629956 
L 777.6 248.629956 
" clip-path="url(#pb3b8096453)" style="fill: none; stroke-dasharray: 5.12,1.28,0.8,1.28; stroke-dashoffset: 0; stroke: #b0b0b0; stroke-width: 0.8"/>
     </g>
     <g id="line2d_26">
      <g>
       <use xlink:href="#m3a169ce8eb" x="108" y="248.629956" style="fill: #a9a9a9; stroke: #a9a9a9; stroke-width: 0.8"/>
      </g>
     </g>
     <g id="text_13">
      <!-- 1600 -->
      <g style="fill: #a9a9a9" transform="translate(75.55 252.429175) scale(0.1 -0.1)">
       <defs>
        <path id="DejaVuSans-36" d="M 2113 2584 
Q 1688 2584 1439 2293 
Q 1191 2003 1191 1497 
Q 1191 994 1439 701 
Q 1688 409 2113 409 
Q 2538 409 2786 701 
Q 3034 994 3034 1497 
Q 3034 2003 2786 2293 
Q 2538 2584 2113 2584 
z
M 3366 4563 
L 3366 3988 
Q 3128 4100 2886 4159 
Q 2644 4219 2406 4219 
Q 1781 4219 1451 3797 
Q 1122 3375 1075 2522 
Q 1259 2794 1537 2939 
Q 1816 3084 2150 3084 
Q 2853 3084 3261 2657 
Q 3669 2231 3669 1497 
Q 3669 778 3244 343 
Q 2819 -91 2113 -91 
Q 1303 -91 875 529 
Q 447 1150 447 2328 
Q 447 3434 972 4092 
Q 1497 4750 2381 4750 
Q 2619 4750 2861 4703 
Q 3103 4656 3366 4563 
z
" transform="scale(0.015625)"/>
       </defs>
       <use xlink:href="#DejaVuSans-31"/>
       <use xlink:href="#DejaVuSans-36" x="63.623047"/>
       <use xlink:href="#DejaVuSans-30" x="127.246094"/>
       <use xlink:href="#DejaVuSans-30" x="190.869141"/>
      </g>
     </g>
    </g>
    <g id="ytick_4">
     <g id="line2d_27">
      <path d="M 108 219.026432 
L 777.6 219.026432 
" clip-path="url(#pb3b8096453)" style="fill: none; stroke-dasharray: 5.12,1.28,0.8,1.28; stroke-dashoffset: 0; stroke: #b0b0b0; stroke-width: 0.8"/>
     </g>
     <g id="line2d_28">
      <g>
       <use xlink:href="#m3a169ce8eb" x="108" y="219.026432" style="fill: #a9a9a9; stroke: #a9a9a9; stroke-width: 0.8"/>
      </g>
     </g>
     <g id="text_14">
      <!-- 2400 -->
      <g style="fill: #a9a9a9" transform="translate(75.55 222.82565) scale(0.1 -0.1)">
       <use xlink:href="#DejaVuSans-32"/>
       <use xlink:href="#DejaVuSans-34" x="63.623047"/>
       <use xlink:href="#DejaVuSans-30" x="127.246094"/>
       <use xlink:href="#DejaVuSans-30" x="190.869141"/>
      </g>
     </g>
    </g>
    <g id="ytick_5">
     <g id="line2d_29">
      <path d="M 108 189.422907 
L 777.6 189.422907 
" clip-path="url(#pb3b8096453)" style="fill: none; stroke-dasharray: 5.12,1.28,0.8,1.28; stroke-dashoffset: 0; stroke: #b0b0b0; stroke-width: 0.8"/>
     </g>
     <g id="line2d_30">
      <g>
       <use xlink:href="#m3a169ce8eb" x="108" y="189.422907" style="fill: #a9a9a9; stroke: #a9a9a9; stroke-width: 0.8"/>
      </g>
     </g>
     <g id="text_15">
      <!-- 3200 -->
      <g style="fill: #a9a9a9" transform="translate(75.55 193.222126) scale(0.1 -0.1)">
       <use xlink:href="#DejaVuSans-33"/>
       <use xlink:href="#DejaVuSans-32" x="63.623047"/>
       <use xlink:href="#DejaVuSans-30" x="127.246094"/>
       <use xlink:href="#DejaVuSans-30" x="190.869141"/>
      </g>
     </g>
    </g>
    <g id="ytick_6">
     <g id="line2d_31">
      <path d="M 108 159.819383 
L 777.6 159.819383 
" clip-path="url(#pb3b8096453)" style="fill: none; stroke-dasharray: 5.12,1.28,0.8,1.28; stroke-dashoffset: 0; stroke: #b0b0b0; stroke-width: 0.8"/>
     </g>
     <g id="line2d_32">
      <g>
       <use xlink:href="#m3a169ce8eb" x="108" y="159.819383" style="fill: #a9a9a9; stroke: #a9a9a9; stroke-width: 0.8"/>
      </g>
     </g>
     <g id="text_16">
      <!-- 4000 -->
      <g style="fill: #a9a9a9" transform="translate(75.55 163.618602) scale(0.1 -0.1)">
       <use xlink:href="#DejaVuSans-34"/>
       <use xlink:href="#DejaVuSans-30" x="63.623047"/>
       <use xlink:href="#DejaVuSans-30" x="127.246094"/>
       <use xlink:href="#DejaVuSans-30" x="190.869141"/>
      </g>
     </g>
    </g>
    <g id="ytick_7">
     <g id="line2d_33">
      <path d="M 108 130.215859 
L 777.6 130.215859 
" clip-path="url(#pb3b8096453)" style="fill: none; stroke-dasharray: 5.12,1.28,0.8,1.28; stroke-dashoffset: 0; stroke: #b0b0b0; stroke-width: 0.8"/>
     </g>
     <g id="line2d_34">
      <g>
       <use xlink:href="#m3a169ce8eb" x="108" y="130.215859" style="fill: #a9a9a9; stroke: #a9a9a9; stroke-width: 0.8"/>
      </g>
     </g>
     <g id="text_17">
      <!-- 4800 -->
      <g style="fill: #a9a9a9" transform="translate(75.55 134.015078) scale(0.1 -0.1)">
       <use xlink:href="#DejaVuSans-34"/>
       <use xlink:href="#DejaVuSans-38" x="63.623047"/>
       <use xlink:href="#DejaVuSans-30" x="127.246094"/>
       <use xlink:href="#DejaVuSans-30" x="190.869141"/>
      </g>
     </g>
    </g>
    <g id="ytick_8">
     <g id="line2d_35">
      <path d="M 108 100.612335 
L 777.6 100.612335 
" clip-path="url(#pb3b8096453)" style="fill: none; stroke-dasharray: 5.12,1.28,0.8,1.28; stroke-dashoffset: 0; stroke: #b0b0b0; stroke-width: 0.8"/>
     </g>
     <g id="line2d_36">
      <g>
       <use xlink:href="#m3a169ce8eb" x="108" y="100.612335" style="fill: #a9a9a9; stroke: #a9a9a9; stroke-width: 0.8"/>
      </g>
     </g>
     <g id="text_18">
      <!-- 5600 -->
      <g style="fill: #a9a9a9" transform="translate(75.55 104.411554) scale(0.1 -0.1)">
       <use xlink:href="#DejaVuSans-35"/>
       <use xlink:href="#DejaVuSans-36" x="63.623047"/>
       <use xlink:href="#DejaVuSans-30" x="127.246094"/>
       <use xlink:href="#DejaVuSans-30" x="190.869141"/>
      </g>
     </g>
    </g>
    <g id="ytick_9">
     <g id="line2d_37">
      <path d="M 108 71.008811 
L 777.6 71.008811 
" clip-path="url(#pb3b8096453)" style="fill: none; stroke-dasharray: 5.12,1.28,0.8,1.28; stroke-dashoffset: 0; stroke: #b0b0b0; stroke-width: 0.8"/>
     </g>
     <g id="line2d_38">
      <g>
       <use xlink:href="#m3a169ce8eb" x="108" y="71.008811" style="fill: #a9a9a9; stroke: #a9a9a9; stroke-width: 0.8"/>
      </g>
     </g>
     <g id="text_19">
      <!-- 6400 -->
      <g style="fill: #a9a9a9" transform="translate(75.55 74.808029) scale(0.1 -0.1)">
       <use xlink:href="#DejaVuSans-36"/>
       <use xlink:href="#DejaVuSans-34" x="63.623047"/>
       <use xlink:href="#DejaVuSans-30" x="127.246094"/>
       <use xlink:href="#DejaVuSans-30" x="190.869141"/>
      </g>
     </g>
    </g>
   </g>
   <g id="line2d_39">
    <path d="M 138.436364 307.725991 
L 141.528966 307.46696 
L 142.0444 307.244934 
L 144.106135 306.985903 
L 146.16787 306.578855 
L 147.198738 306.430837 
L 149.775906 306.208811 
L 150.806774 305.801762 
L 151.322208 305.135683 
L 151.837641 304.765639 
L 152.353075 303.618502 
L 152.868509 303.544493 
L 153.383943 303.137445 
L 154.41481 302.619383 
L 156.476545 300.991189 
L 158.53828 299.99207 
L 160.084582 299.288987 
L 160.600015 298.47489 
L 161.630883 297.734802 
L 162.146317 297.512775 
L 167.300654 296.772687 
L 167.816088 296.550661 
L 171.424124 296.254626 
L 173.485859 295.773568 
L 177.60933 295.218502 
L 178.124763 294.959471 
L 178.640197 294.885463 
L 179.671065 294.552423 
L 183.279101 293.960352 
L 184.309968 293.664317 
L 188.948872 292.887225 
L 189.97974 292.665198 
L 191.010607 292.628194 
L 193.072342 292.147137 
L 193.587776 291.444053 
L 195.134077 290.851982 
L 196.680379 290.444934 
L 197.195812 290.185903 
L 198.22668 290.000881 
L 200.288415 289.408811 
L 201.319283 289.334802 
L 202.35015 289.075771 
L 204.411885 288.557709 
L 204.927319 288.520705 
L 205.958186 288.039648 
L 206.47362 287.965639 
L 206.989054 287.706608 
L 212.658825 286.781498 
L 214.72056 286.189427 
L 215.235994 285.856388 
L 217.813163 285.005286 
L 218.84403 284.302203 
L 220.390332 284.006167 
L 230.183573 281.156828 
L 231.214441 280.74978 
L 232.245308 280.675771 
L 233.79161 280.231718 
L 234.307043 280.231718 
L 234.822477 280.009692 
L 235.853345 279.898678 
L 236.368778 279.713656 
L 238.430513 279.602643 
L 239.461381 279.417621 
L 240.492248 278.899559 
L 246.677454 276.124229 
L 247.192887 275.569163 
L 248.223755 274.014978 
L 248.739189 273.86696 
L 249.254622 273.86696 
L 250.28549 273.089868 
L 251.831791 272.571806 
L 252.347225 272.090749 
L 253.378093 271.6837 
L 254.40896 271.202643 
L 255.439828 269.722467 
L 255.955261 269.389427 
L 256.470695 268.501322 
L 256.986129 267.946256 
L 260.078731 266.318062 
L 261.109599 265.503965 
L 261.625033 265.170925 
L 262.140466 264.393833 
L 262.6559 263.246696 
L 263.171334 262.469604 
L 263.686768 262.062555 
L 264.202202 261.840529 
L 267.810238 258.806167 
L 268.841105 257.585022 
L 269.871973 256.844934 
L 271.418274 255.808811 
L 271.933708 255.364758 
L 272.964575 255.031718 
L 274.510877 254.143612 
L 276.057178 253.144493 
L 278.118913 251.294273 
L 279.149781 250.887225 
L 280.180648 250.184141 
L 280.696082 249.888106 
L 281.211516 249.814097 
L 284.819552 247.556828 
L 286.881287 246.446696 
L 287.396721 245.965639 
L 295.643661 243.079295 
L 296.674529 242.154185 
L 297.705396 241.673128 
L 298.736264 241.118062 
L 299.251697 240.822026 
L 300.282565 240.525991 
L 300.797999 240.192952 
L 301.313432 240.044934 
L 302.859734 239.045815 
L 305.436902 238.453744 
L 306.983204 237.565639 
L 308.529505 237.232599 
L 309.044939 237.084581 
L 310.59124 235.937445 
L 312.652975 235.382379 
L 313.168409 234.97533 
L 316.261011 233.939207 
L 317.291879 233.754185 
L 318.322747 233.347137 
L 321.930783 232.051982 
L 322.96165 231.903965 
L 324.507952 231.385903 
L 327.08512 230.164758 
L 329.146856 229.054626 
L 333.270326 227.389427 
L 333.785759 227.315419 
L 334.816627 226.686344 
L 335.332061 226.612335 
L 337.393796 225.761233 
L 339.455531 225.465198 
L 340.486398 224.947137 
L 341.001832 224.503084 
L 341.517266 223.577974 
L 343.579001 223.022907 
L 345.125302 222.245815 
L 345.640736 222.134802 
L 349.764206 220.173568 
L 351.310507 219.877533 
L 352.341375 219.359471 
L 352.856809 219.137445 
L 353.372242 219.063436 
L 355.433977 218.138326 
L 356.980279 217.176211 
L 358.52658 216.880176 
L 361.103749 216.251101 
L 361.619183 215.844053 
L 363.165484 215.288987 
L 365.227219 214.47489 
L 365.742653 214.104846 
L 366.258086 213.919824 
L 367.288954 213.364758 
L 369.866123 212.513656 
L 371.412424 211.292511 
L 371.927858 211.181498 
L 372.958725 210.367401 
L 373.474159 210.293392 
L 373.989593 209.479295 
L 374.505027 209.257269 
L 375.02046 208.85022 
L 375.535894 208.776211 
L 376.566762 208.147137 
L 377.597629 207.814097 
L 378.113063 207.407048 
L 378.628497 207.222026 
L 380.174798 206.148899 
L 382.236533 205.075771 
L 382.751967 205.001762 
L 384.298268 204.22467 
L 384.813702 203.373568 
L 385.329136 202.929515 
L 385.844569 202.63348 
L 386.360003 202.522467 
L 387.390871 201.856388 
L 387.906304 201.745374 
L 388.937172 201.227313 
L 390.998907 200.228194 
L 391.514341 199.85815 
L 392.545208 198.859031 
L 393.576076 198.229956 
L 394.09151 197.896916 
L 394.606943 197.34185 
L 396.668678 195.935683 
L 397.184112 195.343612 
L 397.699546 194.936564 
L 398.730413 194.56652 
L 399.761281 193.863436 
L 401.307582 193.086344 
L 401.823016 193.012335 
L 403.369317 192.198238 
L 404.400185 191.569163 
L 409.554522 189.718943 
L 410.069956 189.311894 
L 412.131691 188.534802 
L 412.647125 188.386784 
L 413.162559 187.979736 
L 415.739728 186.573568 
L 416.770595 184.538326 
L 417.801463 183.354185 
L 418.83233 182.72511 
L 420.378631 182.096035 
L 420.894065 182.022026 
L 421.409499 181.725991 
L 423.986668 180.911894 
L 424.502101 180.689868 
L 425.532969 179.986784 
L 427.07927 179.320705 
L 428.110138 178.765639 
L 428.625572 178.395595 
L 429.141005 178.173568 
L 429.656439 177.803524 
L 430.171873 177.248458 
L 431.20274 176.693392 
L 433.779909 175.324229 
L 436.872512 173.807048 
L 437.903379 173.474009 
L 439.449681 172.992952 
L 441.511416 172.067841 
L 442.542283 171.660793 
L 443.057717 171.253744 
L 444.088584 170.920705 
L 447.181187 169.329515 
L 448.212054 168.515419 
L 449.242922 168.145374 
L 449.758356 167.701322 
L 450.27379 167.627313 
L 451.304657 166.85022 
L 452.335525 166.332159 
L 452.850958 166.110132 
L 453.366392 165.59207 
L 456.974428 164.185903 
L 458.005296 163.74185 
L 459.551597 163.260793 
L 460.582465 163.112775 
L 461.097899 162.890749 
L 461.613332 162.81674 
L 462.6442 162.372687 
L 463.159634 162.335683 
L 465.221369 161.55859 
L 466.76767 160.485463 
L 467.283104 160.300441 
L 468.313971 159.745374 
L 468.829405 159.597357 
L 471.922008 157.895154 
L 472.437441 157.784141 
L 473.983743 156.896035 
L 475.530044 156.377974 
L 476.560911 156.044934 
L 478.622646 155.378855 
L 479.653514 155.045815 
L 481.715249 154.638767 
L 482.230683 154.41674 
L 482.746117 154.342731 
L 483.776984 153.898678 
L 484.292418 153.82467 
L 484.807852 153.565639 
L 485.838719 153.380617 
L 487.38502 152.825551 
L 488.415888 152.714537 
L 489.962189 152.381498 
L 492.539358 151.937445 
L 505.940636 148.088987 
L 506.45607 147.570925 
L 507.486937 147.163877 
L 510.57954 146.053744 
L 511.094973 145.720705 
L 511.610407 145.609692 
L 512.125841 145.313656 
L 513.672142 144.869604 
L 514.70301 144.610573 
L 515.218444 144.277533 
L 515.733877 144.16652 
L 516.249311 143.722467 
L 517.795612 143.426432 
L 518.82648 142.945374 
L 519.341914 142.353304 
L 521.403649 141.872247 
L 525.011685 141.132159 
L 525.527119 141.132159 
L 526.042553 140.910132 
L 528.104288 140.540088 
L 528.619721 140.318062 
L 530.681456 139.948018 
L 531.712324 139.503965 
L 532.743191 139.318943 
L 535.32036 138.689868 
L 537.382095 138.060793 
L 537.897529 137.94978 
L 538.412963 137.690749 
L 539.44383 137.431718 
L 539.959264 137.135683 
L 541.505565 136.617621 
L 542.020999 136.247577 
L 543.051867 135.951542 
L 544.082734 135.618502 
L 545.113602 135.211454 
L 546.659903 134.545374 
L 548.721638 134.286344 
L 552.845108 132.843172 
L 553.360542 132.473128 
L 553.875976 132.362115 
L 554.391409 132.103084 
L 554.906843 132.066079 
L 560.576615 130.104846 
L 563.153783 129.438767 
L 564.184651 128.957709 
L 565.730952 128.62467 
L 566.246386 128.217621 
L 566.76182 127.95859 
L 567.277253 127.329515 
L 567.792687 126.959471 
L 568.823555 126.663436 
L 569.338989 126.256388 
L 572.431591 125.109251 
L 572.947025 124.776211 
L 573.977892 124.480176 
L 574.493326 124.147137 
L 577.070495 123.33304 
L 578.616796 122.444934 
L 579.13223 122.333921 
L 581.709399 120.964758 
L 583.2557 120.261674 
L 583.771134 119.89163 
L 584.802001 119.55859 
L 585.832869 118.96652 
L 586.348303 118.781498 
L 586.863736 118.411454 
L 593.564375 116.080176 
L 594.079809 115.969163 
L 594.595243 115.636123 
L 596.656978 115.229075 
L 597.687845 114.822026 
L 598.203279 114.525991 
L 598.718713 114.377974 
L 600.780448 113.304846 
L 601.295882 113.230837 
L 602.842183 112.379736 
L 605.934786 111.15859 
L 607.996521 110.344493 
L 608.511954 110.196476 
L 609.027388 109.863436 
L 610.058256 109.715419 
L 610.573689 109.382379 
L 611.604557 109.197357 
L 612.635425 108.7163 
L 613.150858 108.494273 
L 613.666292 108.420264 
L 616.243461 107.421145 
L 617.789762 107.014097 
L 618.82063 106.755066 
L 620.366931 106.311013 
L 621.397798 105.903965 
L 623.459534 104.793833 
L 624.490401 104.386784 
L 625.005835 104.053744 
L 626.036702 103.831718 
L 626.552136 103.535683 
L 627.06757 103.42467 
L 628.613871 102.573568 
L 629.644739 102.16652 
L 631.19104 101.463436 
L 632.737341 101.056388 
L 635.829944 99.835242 
L 637.891679 99.132159 
L 639.43798 98.577093 
L 639.953414 98.39207 
L 640.984281 97.837004 
L 643.046016 96.911894 
L 648.200354 94.950661 
L 648.715788 94.580617 
L 650.777523 93.877533 
L 651.292957 93.877533 
L 652.323824 93.43348 
L 653.354692 92.50837 
L 653.870125 92.064317 
L 655.416427 91.324229 
L 655.931861 91.213216 
L 656.447294 90.954185 
L 656.962728 90.880176 
L 657.478162 90.510132 
L 657.993596 90.399119 
L 659.024463 89.770044 
L 660.570764 88.992952 
L 661.601632 88.585903 
L 662.117066 88.326872 
L 664.694234 87.697797 
L 665.209668 87.438767 
L 666.75597 86.994714 
L 668.817705 85.995595 
L 669.848572 85.514537 
L 670.87944 85.255507 
L 672.941175 84.330396 
L 673.456608 84.182379 
L 673.972042 83.849339 
L 677.064645 82.739207 
L 678.610946 81.814097 
L 679.12638 81.703084 
L 680.157247 81.185022 
L 681.188115 80.814978 
L 681.703549 80.370925 
L 682.734416 79.963877 
L 684.280717 79.334802 
L 684.796151 78.927753 
L 685.311585 78.890749 
L 686.342452 78.594714 
L 687.37332 78.261674 
L 687.888754 78.002643 
L 688.404188 77.928634 
L 689.950489 77.373568 
L 691.49679 76.818502 
L 692.527658 76.411454 
L 693.043091 76.004405 
L 694.589393 75.597357 
L 695.104826 75.301322 
L 696.135694 75.042291 
L 697.681995 74.191189 
L 698.197429 74.154185 
L 699.74373 73.673128 
L 700.774598 73.562115 
L 701.805465 73.155066 
L 704.898068 72.26696 
L 705.928935 72.229956 
L 709.021538 71.230837 
L 709.536972 71.156828 
L 711.083273 70.342731 
L 711.598707 69.898678 
L 713.145008 69.010573 
L 713.660442 68.603524 
L 714.691309 68.196476 
L 716.237611 67.752423 
L 716.753044 67.456388 
L 717.268478 67.345374 
L 717.783912 66.938326 
L 720.876515 65.680176 
L 722.93825 65.12511 
L 723.969117 64.681057 
L 724.999985 64.274009 
L 726.546286 63.644934 
L 727.577153 63.311894 
L 729.123455 62.719824 
L 730.154322 62.053744 
L 731.700624 61.646696 
L 733.246925 60.610573 
L 733.762359 60.536564 
L 736.339527 59.500441 
L 737.885829 59.130396 
L 738.401262 59.056388 
L 738.916696 58.834361 
L 739.43213 58.797357 
L 740.462997 58.427313 
L 740.978431 58.390308 
L 742.524733 57.798238 
L 744.586468 57.206167 
L 745.617335 56.39207 
L 746.648203 55.8 
L 747.163636 55.8 
L 747.163636 55.8 
" clip-path="url(#pb3b8096453)" style="fill: none; stroke: #1f77b4; stroke-width: 1.5; stroke-linecap: square"/>
   </g>
   <g id="line2d_40">
    <path d="M 138.951797 307.8 
L 143.590701 307.688987 
L 147.714171 307.503965 
L 149.775906 307.503965 
L 150.29134 307.355947 
L 152.868509 307.244934 
L 155.961112 306.911894 
L 159.053714 306.800881 
L 160.084582 306.689868 
L 163.692618 306.54185 
L 167.300654 306.430837 
L 169.877823 306.356828 
L 176.578462 306.245815 
L 179.155631 306.171806 
L 182.763667 306.060793 
L 185.340836 305.986784 
L 191.010607 305.875771 
L 193.072342 305.690749 
L 195.134077 305.653744 
L 198.22668 305.542731 
L 200.288415 305.505727 
L 202.865584 305.431718 
L 204.927319 305.246696 
L 209.566223 305.135683 
L 210.59709 305.061674 
L 212.658825 304.950661 
L 215.751428 304.839648 
L 217.813163 304.728634 
L 227.090971 304.173568 
L 230.699007 304.062555 
L 232.245308 303.914537 
L 234.822477 303.803524 
L 239.976815 303.544493 
L 245.131152 303.470485 
L 247.192887 303.248458 
L 249.254622 303.137445 
L 254.924394 302.619383 
L 258.53243 302.212335 
L 260.078731 302.138326 
L 264.717635 301.58326 
L 267.294804 301.509251 
L 268.841105 301.361233 
L 270.387407 301.25022 
L 275.541744 300.769163 
L 277.088046 300.621145 
L 280.180648 300.510132 
L 284.819552 300.140088 
L 285.85042 299.955066 
L 288.943022 299.844053 
L 297.189962 299.362996 
L 300.797999 299.251982 
L 302.859734 299.029956 
L 305.436902 298.918943 
L 308.529505 298.80793 
L 311.106674 298.696916 
L 313.168409 298.659912 
L 315.745578 298.585903 
L 316.776445 298.437885 
L 323.992518 298.326872 
L 325.023385 298.215859 
L 331.208591 298.104846 
L 335.847494 297.882819 
L 339.455531 297.771806 
L 341.517266 297.54978 
L 345.125302 297.438767 
L 346.15617 297.253744 
L 348.733338 297.179736 
L 353.887676 297.105727 
L 356.464845 296.846696 
L 359.557447 296.735683 
L 361.619183 296.550661 
L 366.77352 296.29163 
L 371.927858 296.180617 
L 376.566762 295.95859 
L 378.113063 295.921586 
L 379.14393 295.773568 
L 381.721099 295.662555 
L 382.751967 295.588546 
L 383.782834 295.514537 
L 384.813702 295.440529 
L 389.452606 295.36652 
L 390.998907 295.255507 
L 404.915619 294.367401 
L 407.492787 294.256388 
L 410.069956 294.182379 
L 417.286029 294.071366 
L 418.316896 293.923348 
L 425.532969 293.812335 
L 430.687307 293.553304 
L 431.718174 293.5163 
L 432.749042 293.405286 
L 435.32621 293.294273 
L 437.903379 293.220264 
L 440.480548 293.109251 
L 443.057717 293.035242 
L 447.696621 292.924229 
L 450.789223 292.813216 
L 458.005296 292.702203 
L 463.675067 292.406167 
L 465.736802 292.332159 
L 467.283104 292.221145 
L 474.499176 292.110132 
L 477.591779 291.999119 
L 486.869587 291.888106 
L 488.931322 291.851101 
L 495.116527 291.777093 
L 496.147394 291.703084 
L 503.363467 291.59207 
L 505.425202 291.555066 
L 518.82648 291.444053 
L 520.372781 291.296035 
L 543.5673 291.185022 
L 546.144469 291.111013 
L 559.545747 291 
L 560.576615 290.925991 
L 563.153783 290.851982 
L 564.700085 290.703965 
L 567.792687 290.592952 
L 571.400724 290.444934 
L 576.039627 290.333921 
L 578.616796 290.259912 
L 582.224833 290.148899 
L 586.348303 289.963877 
L 588.925471 289.852863 
L 592.018074 289.74185 
L 599.74958 289.630837 
L 602.842183 289.519824 
L 608.511954 289.408811 
L 612.119991 289.260793 
L 615.728027 289.186784 
L 616.758895 289.112775 
L 629.129305 289.001762 
L 635.829944 288.631718 
L 638.407113 288.557709 
L 639.43798 288.446696 
L 640.468848 288.372687 
L 644.592318 288.261674 
L 647.68492 288.150661 
L 652.839258 288.039648 
L 655.416427 287.780617 
L 660.570764 287.669604 
L 661.601632 287.55859 
L 666.75597 287.447577 
L 669.333138 287.373568 
L 675.00291 287.336564 
L 676.033777 287.225551 
L 681.703549 287.114537 
L 682.734416 287.040529 
L 694.073959 286.929515 
L 697.166561 286.818502 
L 704.898068 286.707489 
L 706.959803 286.670485 
L 711.598707 286.596476 
L 712.629574 286.485463 
L 718.814779 286.374449 
L 721.907382 286.263436 
L 731.18519 286.152423 
L 732.731491 286.04141 
L 734.277792 285.930396 
L 735.824094 285.819383 
L 743.5556 285.70837 
L 747.163636 285.560352 
L 747.163636 285.560352 
" clip-path="url(#pb3b8096453)" style="fill: none; stroke: #ff7f0e; stroke-width: 1.5; stroke-linecap: square"/>
   </g>
   <g id="patch_3">
    <path d="M 108 320.4 
L 108 43.2 
" style="fill: none; stroke: #a9a9a9; stroke-width: 0.8; stroke-linejoin: miter; stroke-linecap: square"/>
   </g>
   <g id="patch_4">
    <path d="M 777.6 320.4 
L 777.6 43.2 
" style="fill: none"/>
   </g>
   <g id="patch_5">
    <path d="M 108 320.4 
L 777.6 320.4 
" style="fill: none; stroke: #a9a9a9; stroke-width: 0.8; stroke-linejoin: miter; stroke-linecap: square"/>
   </g>
   <g id="patch_6">
    <path d="M 108 43.2 
L 777.6 43.2 
" style="fill: none"/>
   </g>
   <g id="text_20">
    <!-- get_subscribe history -->
    <g style="fill: #a9a9a9" transform="translate(378.6075 37.2) scale(0.12 -0.12)">
     <defs>
      <path id="DejaVuSans-67" d="M 2906 1791 
Q 2906 2416 2648 2759 
Q 2391 3103 1925 3103 
Q 1463 3103 1205 2759 
Q 947 2416 947 1791 
Q 947 1169 1205 825 
Q 1463 481 1925 481 
Q 2391 481 2648 825 
Q 2906 1169 2906 1791 
z
M 3481 434 
Q 3481 -459 3084 -895 
Q 2688 -1331 1869 -1331 
Q 1566 -1331 1297 -1286 
Q 1028 -1241 775 -1147 
L 775 -588 
Q 1028 -725 1275 -790 
Q 1522 -856 1778 -856 
Q 2344 -856 2625 -561 
Q 2906 -266 2906 331 
L 2906 616 
Q 2728 306 2450 153 
Q 2172 0 1784 0 
Q 1141 0 747 490 
Q 353 981 353 1791 
Q 353 2603 747 3093 
Q 1141 3584 1784 3584 
Q 2172 3584 2450 3431 
Q 2728 3278 2906 2969 
L 2906 3500 
L 3481 3500 
L 3481 434 
z
" transform="scale(0.015625)"/>
      <path id="DejaVuSans-65" d="M 3597 1894 
L 3597 1613 
L 953 1613 
Q 991 1019 1311 708 
Q 1631 397 2203 397 
Q 2534 397 2845 478 
Q 3156 559 3463 722 
L 3463 178 
Q 3153 47 2828 -22 
Q 2503 -91 2169 -91 
Q 1331 -91 842 396 
Q 353 884 353 1716 
Q 353 2575 817 3079 
Q 1281 3584 2069 3584 
Q 2775 3584 3186 3129 
Q 3597 2675 3597 1894 
z
M 3022 2063 
Q 3016 2534 2758 2815 
Q 2500 3097 2075 3097 
Q 1594 3097 1305 2825 
Q 1016 2553 972 2059 
L 3022 2063 
z
" transform="scale(0.015625)"/>
      <path id="DejaVuSans-74" d="M 1172 4494 
L 1172 3500 
L 2356 3500 
L 2356 3053 
L 1172 3053 
L 1172 1153 
Q 1172 725 1289 603 
Q 1406 481 1766 481 
L 2356 481 
L 2356 0 
L 1766 0 
Q 1100 0 847 248 
Q 594 497 594 1153 
L 594 3053 
L 172 3053 
L 172 3500 
L 594 3500 
L 594 4494 
L 1172 4494 
z
" transform="scale(0.015625)"/>
      <path id="DejaVuSans-5f" d="M 3263 -1063 
L 3263 -1509 
L -63 -1509 
L -63 -1063 
L 3263 -1063 
z
" transform="scale(0.015625)"/>
      <path id="DejaVuSans-73" d="M 2834 3397 
L 2834 2853 
Q 2591 2978 2328 3040 
Q 2066 3103 1784 3103 
Q 1356 3103 1142 2972 
Q 928 2841 928 2578 
Q 928 2378 1081 2264 
Q 1234 2150 1697 2047 
L 1894 2003 
Q 2506 1872 2764 1633 
Q 3022 1394 3022 966 
Q 3022 478 2636 193 
Q 2250 -91 1575 -91 
Q 1294 -91 989 -36 
Q 684 19 347 128 
L 347 722 
Q 666 556 975 473 
Q 1284 391 1588 391 
Q 1994 391 2212 530 
Q 2431 669 2431 922 
Q 2431 1156 2273 1281 
Q 2116 1406 1581 1522 
L 1381 1569 
Q 847 1681 609 1914 
Q 372 2147 372 2553 
Q 372 3047 722 3315 
Q 1072 3584 1716 3584 
Q 2034 3584 2315 3537 
Q 2597 3491 2834 3397 
z
" transform="scale(0.015625)"/>
      <path id="DejaVuSans-75" d="M 544 1381 
L 544 3500 
L 1119 3500 
L 1119 1403 
Q 1119 906 1312 657 
Q 1506 409 1894 409 
Q 2359 409 2629 706 
Q 2900 1003 2900 1516 
L 2900 3500 
L 3475 3500 
L 3475 0 
L 2900 0 
L 2900 538 
Q 2691 219 2414 64 
Q 2138 -91 1772 -91 
Q 1169 -91 856 284 
Q 544 659 544 1381 
z
M 1991 3584 
L 1991 3584 
z
" transform="scale(0.015625)"/>
      <path id="DejaVuSans-62" d="M 3116 1747 
Q 3116 2381 2855 2742 
Q 2594 3103 2138 3103 
Q 1681 3103 1420 2742 
Q 1159 2381 1159 1747 
Q 1159 1113 1420 752 
Q 1681 391 2138 391 
Q 2594 391 2855 752 
Q 3116 1113 3116 1747 
z
M 1159 2969 
Q 1341 3281 1617 3432 
Q 1894 3584 2278 3584 
Q 2916 3584 3314 3078 
Q 3713 2572 3713 1747 
Q 3713 922 3314 415 
Q 2916 -91 2278 -91 
Q 1894 -91 1617 61 
Q 1341 213 1159 525 
L 1159 0 
L 581 0 
L 581 4863 
L 1159 4863 
L 1159 2969 
z
" transform="scale(0.015625)"/>
      <path id="DejaVuSans-63" d="M 3122 3366 
L 3122 2828 
Q 2878 2963 2633 3030 
Q 2388 3097 2138 3097 
Q 1578 3097 1268 2742 
Q 959 2388 959 1747 
Q 959 1106 1268 751 
Q 1578 397 2138 397 
Q 2388 397 2633 464 
Q 2878 531 3122 666 
L 3122 134 
Q 2881 22 2623 -34 
Q 2366 -91 2075 -91 
Q 1284 -91 818 406 
Q 353 903 353 1747 
Q 353 2603 823 3093 
Q 1294 3584 2113 3584 
Q 2378 3584 2631 3529 
Q 2884 3475 3122 3366 
z
" transform="scale(0.015625)"/>
      <path id="DejaVuSans-72" d="M 2631 2963 
Q 2534 3019 2420 3045 
Q 2306 3072 2169 3072 
Q 1681 3072 1420 2755 
Q 1159 2438 1159 1844 
L 1159 0 
L 581 0 
L 581 3500 
L 1159 3500 
L 1159 2956 
Q 1341 3275 1631 3429 
Q 1922 3584 2338 3584 
Q 2397 3584 2469 3576 
Q 2541 3569 2628 3553 
L 2631 2963 
z
" transform="scale(0.015625)"/>
      <path id="DejaVuSans-69" d="M 603 3500 
L 1178 3500 
L 1178 0 
L 603 0 
L 603 3500 
z
M 603 4863 
L 1178 4863 
L 1178 4134 
L 603 4134 
L 603 4863 
z
" transform="scale(0.015625)"/>
      <path id="DejaVuSans-20" transform="scale(0.015625)"/>
      <path id="DejaVuSans-68" d="M 3513 2113 
L 3513 0 
L 2938 0 
L 2938 2094 
Q 2938 2591 2744 2837 
Q 2550 3084 2163 3084 
Q 1697 3084 1428 2787 
Q 1159 2491 1159 1978 
L 1159 0 
L 581 0 
L 581 4863 
L 1159 4863 
L 1159 2956 
Q 1366 3272 1645 3428 
Q 1925 3584 2291 3584 
Q 2894 3584 3203 3211 
Q 3513 2838 3513 2113 
z
" transform="scale(0.015625)"/>
      <path id="DejaVuSans-6f" d="M 1959 3097 
Q 1497 3097 1228 2736 
Q 959 2375 959 1747 
Q 959 1119 1226 758 
Q 1494 397 1959 397 
Q 2419 397 2687 759 
Q 2956 1122 2956 1747 
Q 2956 2369 2687 2733 
Q 2419 3097 1959 3097 
z
M 1959 3584 
Q 2709 3584 3137 3096 
Q 3566 2609 3566 1747 
Q 3566 888 3137 398 
Q 2709 -91 1959 -91 
Q 1206 -91 779 398 
Q 353 888 353 1747 
Q 353 2609 779 3096 
Q 1206 3584 1959 3584 
z
" transform="scale(0.015625)"/>
      <path id="DejaVuSans-79" d="M 2059 -325 
Q 1816 -950 1584 -1140 
Q 1353 -1331 966 -1331 
L 506 -1331 
L 506 -850 
L 844 -850 
Q 1081 -850 1212 -737 
Q 1344 -625 1503 -206 
L 1606 56 
L 191 3500 
L 800 3500 
L 1894 763 
L 2988 3500 
L 3597 3500 
L 2059 -325 
z
" transform="scale(0.015625)"/>
     </defs>
     <use xlink:href="#DejaVuSans-67"/>
     <use xlink:href="#DejaVuSans-65" x="63.476562"/>
     <use xlink:href="#DejaVuSans-74" x="125"/>
     <use xlink:href="#DejaVuSans-5f" x="164.208984"/>
     <use xlink:href="#DejaVuSans-73" x="214.208984"/>
     <use xlink:href="#DejaVuSans-75" x="266.308594"/>
     <use xlink:href="#DejaVuSans-62" x="329.6875"/>
     <use xlink:href="#DejaVuSans-73" x="393.164062"/>
     <use xlink:href="#DejaVuSans-63" x="445.263672"/>
     <use xlink:href="#DejaVuSans-72" x="500.244141"/>
     <use xlink:href="#DejaVuSans-69" x="541.357422"/>
     <use xlink:href="#DejaVuSans-62" x="569.140625"/>
     <use xlink:href="#DejaVuSans-65" x="632.617188"/>
     <use xlink:href="#DejaVuSans-20" x="694.140625"/>
     <use xlink:href="#DejaVuSans-68" x="725.927734"/>
     <use xlink:href="#DejaVuSans-69" x="789.306641"/>
     <use xlink:href="#DejaVuSans-73" x="817.089844"/>
     <use xlink:href="#DejaVuSans-74" x="869.189453"/>
     <use xlink:href="#DejaVuSans-6f" x="908.398438"/>
     <use xlink:href="#DejaVuSans-72" x="969.580078"/>
     <use xlink:href="#DejaVuSans-79" x="1010.693359"/>
    </g>
   </g>
   <g id="legend_1">
    <g id="line2d_41">
     <path d="M 815.08 328.498438 
L 825.08 328.498438 
L 835.08 328.498438 
" style="fill: none; stroke: #1f77b4; stroke-width: 1.5; stroke-linecap: square"/>
    </g>
    <g id="text_21">
     <!-- star -->
     <g style="fill: #a9a9a9" transform="translate(843.08 331.998438) scale(0.1 -0.1)">
      <defs>
       <path id="DejaVuSans-61" d="M 2194 1759 
Q 1497 1759 1228 1600 
Q 959 1441 959 1056 
Q 959 750 1161 570 
Q 1363 391 1709 391 
Q 2188 391 2477 730 
Q 2766 1069 2766 1631 
L 2766 1759 
L 2194 1759 
z
M 3341 1997 
L 3341 0 
L 2766 0 
L 2766 531 
Q 2569 213 2275 61 
Q 1981 -91 1556 -91 
Q 1019 -91 701 211 
Q 384 513 384 1019 
Q 384 1609 779 1909 
Q 1175 2209 1959 2209 
L 2766 2209 
L 2766 2266 
Q 2766 2663 2505 2880 
Q 2244 3097 1772 3097 
Q 1472 3097 1187 3025 
Q 903 2953 641 2809 
L 641 3341 
Q 956 3463 1253 3523 
Q 1550 3584 1831 3584 
Q 2591 3584 2966 3190 
Q 3341 2797 3341 1997 
z
" transform="scale(0.015625)"/>
      </defs>
      <use xlink:href="#DejaVuSans-73"/>
      <use xlink:href="#DejaVuSans-74" x="52.099609"/>
      <use xlink:href="#DejaVuSans-61" x="91.308594"/>
      <use xlink:href="#DejaVuSans-72" x="152.587891"/>
     </g>
    </g>
    <g id="line2d_42">
     <path d="M 815.08 343.176562 
L 825.08 343.176562 
L 835.08 343.176562 
" style="fill: none; stroke: #ff7f0e; stroke-width: 1.5; stroke-linecap: square"/>
    </g>
    <g id="text_22">
     <!-- fork -->
     <g style="fill: #a9a9a9" transform="translate(843.08 346.676562) scale(0.1 -0.1)">
      <defs>
       <path id="DejaVuSans-66" d="M 2375 4863 
L 2375 4384 
L 1825 4384 
Q 1516 4384 1395 4259 
Q 1275 4134 1275 3809 
L 1275 3500 
L 2222 3500 
L 2222 3053 
L 1275 3053 
L 1275 0 
L 697 0 
L 697 3053 
L 147 3053 
L 147 3500 
L 697 3500 
L 697 3744 
Q 697 4328 969 4595 
Q 1241 4863 1831 4863 
L 2375 4863 
z
" transform="scale(0.015625)"/>
       <path id="DejaVuSans-6b" d="M 581 4863 
L 1159 4863 
L 1159 1991 
L 2875 3500 
L 3609 3500 
L 1753 1863 
L 3688 0 
L 2938 0 
L 1159 1709 
L 1159 0 
L 581 0 
L 581 4863 
z
" transform="scale(0.015625)"/>
      </defs>
      <use xlink:href="#DejaVuSans-66"/>
      <use xlink:href="#DejaVuSans-6f" x="35.205078"/>
      <use xlink:href="#DejaVuSans-72" x="96.386719"/>
      <use xlink:href="#DejaVuSans-6b" x="137.5"/>
     </g>
    </g>
   </g>
  </g>
 </g>
 <defs>
  <clipPath id="pb3b8096453">
   <rect x="108" y="43.2" width="669.6" height="277.2"/>
  </clipPath>
 </defs>
</svg>
