<?xml version="1.0" encoding="utf-8" standalone="no"?>
<!DOCTYPE svg PUBLIC "-//W3C//DTD SVG 1.1//EN"
  "http://www.w3.org/Graphics/SVG/1.1/DTD/svg11.dtd">
<svg xmlns:xlink="http://www.w3.org/1999/xlink" width="864pt" height="360pt" viewBox="0 0 864 360" xmlns="http://www.w3.org/2000/svg" version="1.1">
 <metadata>
  <rdf:RDF xmlns:dc="http://purl.org/dc/elements/1.1/" xmlns:cc="http://creativecommons.org/ns#" xmlns:rdf="http://www.w3.org/1999/02/22-rdf-syntax-ns#">
   <cc:Work>
    <dc:type rdf:resource="http://purl.org/dc/dcmitype/StillImage"/>
    <dc:date>2024-10-19T20:05:50.511806</dc:date>
    <dc:format>image/svg+xml</dc:format>
    <dc:creator>
     <cc:Agent>
      <dc:title>Matplotlib v3.9.2, https://matplotlib.org/</dc:title>
     </cc:Agent>
    </dc:creator>
   </cc:Work>
  </rdf:RDF>
 </metadata>
 <defs>
  <style type="text/css">*{stroke-linejoin: round; stroke-linecap: butt}</style>
 </defs>
 <g id="figure_1">
  <g id="patch_1">
   <path d="M 0 360 
L 864 360 
L 864 0 
L 0 0 
L 0 360 
z
" style="fill: none; opacity: 0"/>
  </g>
  <g id="axes_1">
   <g id="patch_2">
    <path d="M 108 320.4 
L 777.6 320.4 
L 777.6 43.2 
L 108 43.2 
L 108 320.4 
z
" style="fill: none; opacity: 0"/>
   </g>
   <g id="matplotlib.axis_1">
    <g id="xtick_1">
     <g id="line2d_1">
      <path d="M 158.504296 320.4 
L 158.504296 43.2 
" clip-path="url(#pabded010bd)" style="fill: none; stroke-dasharray: 5.12,1.28,0.8,1.28; stroke-dashoffset: 0; stroke: #b0b0b0; stroke-width: 0.8"/>
     </g>
     <g id="line2d_2">
      <defs>
       <path id="m50f6fe0c8c" d="M 0 0 
L 0 3.5 
" style="stroke: #a9a9a9; stroke-width: 0.8"/>
      </defs>
      <g>
       <use xlink:href="#m50f6fe0c8c" x="158.504296" y="320.4" style="fill: #a9a9a9; stroke: #a9a9a9; stroke-width: 0.8"/>
      </g>
     </g>
     <g id="text_1">
      <!-- 2021-09 -->
      <g style="fill: #a9a9a9" transform="translate(137.612889 334.998438) scale(0.1 -0.1)">
       <defs>
        <path id="DejaVuSans-32" d="M 1228 531 
L 3431 531 
L 3431 0 
L 469 0 
L 469 531 
Q 828 903 1448 1529 
Q 2069 2156 2228 2338 
Q 2531 2678 2651 2914 
Q 2772 3150 2772 3378 
Q 2772 3750 2511 3984 
Q 2250 4219 1831 4219 
Q 1534 4219 1204 4116 
Q 875 4013 500 3803 
L 500 4441 
Q 881 4594 1212 4672 
Q 1544 4750 1819 4750 
Q 2544 4750 2975 4387 
Q 3406 4025 3406 3419 
Q 3406 3131 3298 2873 
Q 3191 2616 2906 2266 
Q 2828 2175 2409 1742 
Q 1991 1309 1228 531 
z
" transform="scale(0.015625)"/>
        <path id="DejaVuSans-30" d="M 2034 4250 
Q 1547 4250 1301 3770 
Q 1056 3291 1056 2328 
Q 1056 1369 1301 889 
Q 1547 409 2034 409 
Q 2525 409 2770 889 
Q 3016 1369 3016 2328 
Q 3016 3291 2770 3770 
Q 2525 4250 2034 4250 
z
M 2034 4750 
Q 2819 4750 3233 4129 
Q 3647 3509 3647 2328 
Q 3647 1150 3233 529 
Q 2819 -91 2034 -91 
Q 1250 -91 836 529 
Q 422 1150 422 2328 
Q 422 3509 836 4129 
Q 1250 4750 2034 4750 
z
" transform="scale(0.015625)"/>
        <path id="DejaVuSans-31" d="M 794 531 
L 1825 531 
L 1825 4091 
L 703 3866 
L 703 4441 
L 1819 4666 
L 2450 4666 
L 2450 531 
L 3481 531 
L 3481 0 
L 794 0 
L 794 531 
z
" transform="scale(0.015625)"/>
        <path id="DejaVuSans-2d" d="M 313 2009 
L 1997 2009 
L 1997 1497 
L 313 1497 
L 313 2009 
z
" transform="scale(0.015625)"/>
        <path id="DejaVuSans-39" d="M 703 97 
L 703 672 
Q 941 559 1184 500 
Q 1428 441 1663 441 
Q 2288 441 2617 861 
Q 2947 1281 2994 2138 
Q 2813 1869 2534 1725 
Q 2256 1581 1919 1581 
Q 1219 1581 811 2004 
Q 403 2428 403 3163 
Q 403 3881 828 4315 
Q 1253 4750 1959 4750 
Q 2769 4750 3195 4129 
Q 3622 3509 3622 2328 
Q 3622 1225 3098 567 
Q 2575 -91 1691 -91 
Q 1453 -91 1209 -44 
Q 966 3 703 97 
z
M 1959 2075 
Q 2384 2075 2632 2365 
Q 2881 2656 2881 3163 
Q 2881 3666 2632 3958 
Q 2384 4250 1959 4250 
Q 1534 4250 1286 3958 
Q 1038 3666 1038 3163 
Q 1038 2656 1286 2365 
Q 1534 2075 1959 2075 
z
" transform="scale(0.015625)"/>
       </defs>
       <use xlink:href="#DejaVuSans-32"/>
       <use xlink:href="#DejaVuSans-30" x="63.623047"/>
       <use xlink:href="#DejaVuSans-32" x="127.246094"/>
       <use xlink:href="#DejaVuSans-31" x="190.869141"/>
       <use xlink:href="#DejaVuSans-2d" x="254.492188"/>
       <use xlink:href="#DejaVuSans-30" x="290.576172"/>
       <use xlink:href="#DejaVuSans-39" x="354.199219"/>
      </g>
     </g>
    </g>
    <g id="xtick_2">
     <g id="line2d_3">
      <path d="M 221.280904 320.4 
L 221.280904 43.2 
" clip-path="url(#pabded010bd)" style="fill: none; stroke-dasharray: 5.12,1.28,0.8,1.28; stroke-dashoffset: 0; stroke: #b0b0b0; stroke-width: 0.8"/>
     </g>
     <g id="line2d_4">
      <g>
       <use xlink:href="#m50f6fe0c8c" x="221.280904" y="320.4" style="fill: #a9a9a9; stroke: #a9a9a9; stroke-width: 0.8"/>
      </g>
     </g>
     <g id="text_2">
      <!-- 2022-01 -->
      <g style="fill: #a9a9a9" transform="translate(200.389497 334.998438) scale(0.1 -0.1)">
       <use xlink:href="#DejaVuSans-32"/>
       <use xlink:href="#DejaVuSans-30" x="63.623047"/>
       <use xlink:href="#DejaVuSans-32" x="127.246094"/>
       <use xlink:href="#DejaVuSans-32" x="190.869141"/>
       <use xlink:href="#DejaVuSans-2d" x="254.492188"/>
       <use xlink:href="#DejaVuSans-30" x="290.576172"/>
       <use xlink:href="#DejaVuSans-31" x="354.199219"/>
      </g>
     </g>
    </g>
    <g id="xtick_3">
     <g id="line2d_5">
      <path d="M 283.028387 320.4 
L 283.028387 43.2 
" clip-path="url(#pabded010bd)" style="fill: none; stroke-dasharray: 5.12,1.28,0.8,1.28; stroke-dashoffset: 0; stroke: #b0b0b0; stroke-width: 0.8"/>
     </g>
     <g id="line2d_6">
      <g>
       <use xlink:href="#m50f6fe0c8c" x="283.028387" y="320.4" style="fill: #a9a9a9; stroke: #a9a9a9; stroke-width: 0.8"/>
      </g>
     </g>
     <g id="text_3">
      <!-- 2022-05 -->
      <g style="fill: #a9a9a9" transform="translate(262.136981 334.998438) scale(0.1 -0.1)">
       <defs>
        <path id="DejaVuSans-35" d="M 691 4666 
L 3169 4666 
L 3169 4134 
L 1269 4134 
L 1269 2991 
Q 1406 3038 1543 3061 
Q 1681 3084 1819 3084 
Q 2600 3084 3056 2656 
Q 3513 2228 3513 1497 
Q 3513 744 3044 326 
Q 2575 -91 1722 -91 
Q 1428 -91 1123 -41 
Q 819 9 494 109 
L 494 744 
Q 775 591 1075 516 
Q 1375 441 1709 441 
Q 2250 441 2565 725 
Q 2881 1009 2881 1497 
Q 2881 1984 2565 2268 
Q 2250 2553 1709 2553 
Q 1456 2553 1204 2497 
Q 953 2441 691 2322 
L 691 4666 
z
" transform="scale(0.015625)"/>
       </defs>
       <use xlink:href="#DejaVuSans-32"/>
       <use xlink:href="#DejaVuSans-30" x="63.623047"/>
       <use xlink:href="#DejaVuSans-32" x="127.246094"/>
       <use xlink:href="#DejaVuSans-32" x="190.869141"/>
       <use xlink:href="#DejaVuSans-2d" x="254.492188"/>
       <use xlink:href="#DejaVuSans-30" x="290.576172"/>
       <use xlink:href="#DejaVuSans-35" x="354.199219"/>
      </g>
     </g>
    </g>
    <g id="xtick_4">
     <g id="line2d_7">
      <path d="M 346.319557 320.4 
L 346.319557 43.2 
" clip-path="url(#pabded010bd)" style="fill: none; stroke-dasharray: 5.12,1.28,0.8,1.28; stroke-dashoffset: 0; stroke: #b0b0b0; stroke-width: 0.8"/>
     </g>
     <g id="line2d_8">
      <g>
       <use xlink:href="#m50f6fe0c8c" x="346.319557" y="320.4" style="fill: #a9a9a9; stroke: #a9a9a9; stroke-width: 0.8"/>
      </g>
     </g>
     <g id="text_4">
      <!-- 2022-09 -->
      <g style="fill: #a9a9a9" transform="translate(325.428151 334.998438) scale(0.1 -0.1)">
       <use xlink:href="#DejaVuSans-32"/>
       <use xlink:href="#DejaVuSans-30" x="63.623047"/>
       <use xlink:href="#DejaVuSans-32" x="127.246094"/>
       <use xlink:href="#DejaVuSans-32" x="190.869141"/>
       <use xlink:href="#DejaVuSans-2d" x="254.492188"/>
       <use xlink:href="#DejaVuSans-30" x="290.576172"/>
       <use xlink:href="#DejaVuSans-39" x="354.199219"/>
      </g>
     </g>
    </g>
    <g id="xtick_5">
     <g id="line2d_9">
      <path d="M 409.096165 320.4 
L 409.096165 43.2 
" clip-path="url(#pabded010bd)" style="fill: none; stroke-dasharray: 5.12,1.28,0.8,1.28; stroke-dashoffset: 0; stroke: #b0b0b0; stroke-width: 0.8"/>
     </g>
     <g id="line2d_10">
      <g>
       <use xlink:href="#m50f6fe0c8c" x="409.096165" y="320.4" style="fill: #a9a9a9; stroke: #a9a9a9; stroke-width: 0.8"/>
      </g>
     </g>
     <g id="text_5">
      <!-- 2023-01 -->
      <g style="fill: #a9a9a9" transform="translate(388.204759 334.998438) scale(0.1 -0.1)">
       <defs>
        <path id="DejaVuSans-33" d="M 2597 2516 
Q 3050 2419 3304 2112 
Q 3559 1806 3559 1356 
Q 3559 666 3084 287 
Q 2609 -91 1734 -91 
Q 1441 -91 1130 -33 
Q 819 25 488 141 
L 488 750 
Q 750 597 1062 519 
Q 1375 441 1716 441 
Q 2309 441 2620 675 
Q 2931 909 2931 1356 
Q 2931 1769 2642 2001 
Q 2353 2234 1838 2234 
L 1294 2234 
L 1294 2753 
L 1863 2753 
Q 2328 2753 2575 2939 
Q 2822 3125 2822 3475 
Q 2822 3834 2567 4026 
Q 2313 4219 1838 4219 
Q 1578 4219 1281 4162 
Q 984 4106 628 3988 
L 628 4550 
Q 988 4650 1302 4700 
Q 1616 4750 1894 4750 
Q 2613 4750 3031 4423 
Q 3450 4097 3450 3541 
Q 3450 3153 3228 2886 
Q 3006 2619 2597 2516 
z
" transform="scale(0.015625)"/>
       </defs>
       <use xlink:href="#DejaVuSans-32"/>
       <use xlink:href="#DejaVuSans-30" x="63.623047"/>
       <use xlink:href="#DejaVuSans-32" x="127.246094"/>
       <use xlink:href="#DejaVuSans-33" x="190.869141"/>
       <use xlink:href="#DejaVuSans-2d" x="254.492188"/>
       <use xlink:href="#DejaVuSans-30" x="290.576172"/>
       <use xlink:href="#DejaVuSans-31" x="354.199219"/>
      </g>
     </g>
    </g>
    <g id="xtick_6">
     <g id="line2d_11">
      <path d="M 470.843649 320.4 
L 470.843649 43.2 
" clip-path="url(#pabded010bd)" style="fill: none; stroke-dasharray: 5.12,1.28,0.8,1.28; stroke-dashoffset: 0; stroke: #b0b0b0; stroke-width: 0.8"/>
     </g>
     <g id="line2d_12">
      <g>
       <use xlink:href="#m50f6fe0c8c" x="470.843649" y="320.4" style="fill: #a9a9a9; stroke: #a9a9a9; stroke-width: 0.8"/>
      </g>
     </g>
     <g id="text_6">
      <!-- 2023-05 -->
      <g style="fill: #a9a9a9" transform="translate(449.952242 334.998438) scale(0.1 -0.1)">
       <use xlink:href="#DejaVuSans-32"/>
       <use xlink:href="#DejaVuSans-30" x="63.623047"/>
       <use xlink:href="#DejaVuSans-32" x="127.246094"/>
       <use xlink:href="#DejaVuSans-33" x="190.869141"/>
       <use xlink:href="#DejaVuSans-2d" x="254.492188"/>
       <use xlink:href="#DejaVuSans-30" x="290.576172"/>
       <use xlink:href="#DejaVuSans-35" x="354.199219"/>
      </g>
     </g>
    </g>
    <g id="xtick_7">
     <g id="line2d_13">
      <path d="M 534.134819 320.4 
L 534.134819 43.2 
" clip-path="url(#pabded010bd)" style="fill: none; stroke-dasharray: 5.12,1.28,0.8,1.28; stroke-dashoffset: 0; stroke: #b0b0b0; stroke-width: 0.8"/>
     </g>
     <g id="line2d_14">
      <g>
       <use xlink:href="#m50f6fe0c8c" x="534.134819" y="320.4" style="fill: #a9a9a9; stroke: #a9a9a9; stroke-width: 0.8"/>
      </g>
     </g>
     <g id="text_7">
      <!-- 2023-09 -->
      <g style="fill: #a9a9a9" transform="translate(513.243413 334.998438) scale(0.1 -0.1)">
       <use xlink:href="#DejaVuSans-32"/>
       <use xlink:href="#DejaVuSans-30" x="63.623047"/>
       <use xlink:href="#DejaVuSans-32" x="127.246094"/>
       <use xlink:href="#DejaVuSans-33" x="190.869141"/>
       <use xlink:href="#DejaVuSans-2d" x="254.492188"/>
       <use xlink:href="#DejaVuSans-30" x="290.576172"/>
       <use xlink:href="#DejaVuSans-39" x="354.199219"/>
      </g>
     </g>
    </g>
    <g id="xtick_8">
     <g id="line2d_15">
      <path d="M 596.911427 320.4 
L 596.911427 43.2 
" clip-path="url(#pabded010bd)" style="fill: none; stroke-dasharray: 5.12,1.28,0.8,1.28; stroke-dashoffset: 0; stroke: #b0b0b0; stroke-width: 0.8"/>
     </g>
     <g id="line2d_16">
      <g>
       <use xlink:href="#m50f6fe0c8c" x="596.911427" y="320.4" style="fill: #a9a9a9; stroke: #a9a9a9; stroke-width: 0.8"/>
      </g>
     </g>
     <g id="text_8">
      <!-- 2024-01 -->
      <g style="fill: #a9a9a9" transform="translate(576.020021 334.998438) scale(0.1 -0.1)">
       <defs>
        <path id="DejaVuSans-34" d="M 2419 4116 
L 825 1625 
L 2419 1625 
L 2419 4116 
z
M 2253 4666 
L 3047 4666 
L 3047 1625 
L 3713 1625 
L 3713 1100 
L 3047 1100 
L 3047 0 
L 2419 0 
L 2419 1100 
L 313 1100 
L 313 1709 
L 2253 4666 
z
" transform="scale(0.015625)"/>
       </defs>
       <use xlink:href="#DejaVuSans-32"/>
       <use xlink:href="#DejaVuSans-30" x="63.623047"/>
       <use xlink:href="#DejaVuSans-32" x="127.246094"/>
       <use xlink:href="#DejaVuSans-34" x="190.869141"/>
       <use xlink:href="#DejaVuSans-2d" x="254.492188"/>
       <use xlink:href="#DejaVuSans-30" x="290.576172"/>
       <use xlink:href="#DejaVuSans-31" x="354.199219"/>
      </g>
     </g>
    </g>
    <g id="xtick_9">
     <g id="line2d_17">
      <path d="M 659.173473 320.4 
L 659.173473 43.2 
" clip-path="url(#pabded010bd)" style="fill: none; stroke-dasharray: 5.12,1.28,0.8,1.28; stroke-dashoffset: 0; stroke: #b0b0b0; stroke-width: 0.8"/>
     </g>
     <g id="line2d_18">
      <g>
       <use xlink:href="#m50f6fe0c8c" x="659.173473" y="320.4" style="fill: #a9a9a9; stroke: #a9a9a9; stroke-width: 0.8"/>
      </g>
     </g>
     <g id="text_9">
      <!-- 2024-05 -->
      <g style="fill: #a9a9a9" transform="translate(638.282066 334.998438) scale(0.1 -0.1)">
       <use xlink:href="#DejaVuSans-32"/>
       <use xlink:href="#DejaVuSans-30" x="63.623047"/>
       <use xlink:href="#DejaVuSans-32" x="127.246094"/>
       <use xlink:href="#DejaVuSans-34" x="190.869141"/>
       <use xlink:href="#DejaVuSans-2d" x="254.492188"/>
       <use xlink:href="#DejaVuSans-30" x="290.576172"/>
       <use xlink:href="#DejaVuSans-35" x="354.199219"/>
      </g>
     </g>
    </g>
    <g id="xtick_10">
     <g id="line2d_19">
      <path d="M 722.464643 320.4 
L 722.464643 43.2 
" clip-path="url(#pabded010bd)" style="fill: none; stroke-dasharray: 5.12,1.28,0.8,1.28; stroke-dashoffset: 0; stroke: #b0b0b0; stroke-width: 0.8"/>
     </g>
     <g id="line2d_20">
      <g>
       <use xlink:href="#m50f6fe0c8c" x="722.464643" y="320.4" style="fill: #a9a9a9; stroke: #a9a9a9; stroke-width: 0.8"/>
      </g>
     </g>
     <g id="text_10">
      <!-- 2024-09 -->
      <g style="fill: #a9a9a9" transform="translate(701.573237 334.998438) scale(0.1 -0.1)">
       <use xlink:href="#DejaVuSans-32"/>
       <use xlink:href="#DejaVuSans-30" x="63.623047"/>
       <use xlink:href="#DejaVuSans-32" x="127.246094"/>
       <use xlink:href="#DejaVuSans-34" x="190.869141"/>
       <use xlink:href="#DejaVuSans-2d" x="254.492188"/>
       <use xlink:href="#DejaVuSans-30" x="290.576172"/>
       <use xlink:href="#DejaVuSans-39" x="354.199219"/>
      </g>
     </g>
    </g>
   </g>
   <g id="matplotlib.axis_2">
    <g id="ytick_1">
     <g id="line2d_21">
      <path d="M 108 307.836907 
L 777.6 307.836907 
" clip-path="url(#pabded010bd)" style="fill: none; stroke-dasharray: 5.12,1.28,0.8,1.28; stroke-dashoffset: 0; stroke: #b0b0b0; stroke-width: 0.8"/>
     </g>
     <g id="line2d_22">
      <defs>
       <path id="m33fc368619" d="M 0 0 
L -3.5 0 
" style="stroke: #a9a9a9; stroke-width: 0.8"/>
      </defs>
      <g>
       <use xlink:href="#m33fc368619" x="108" y="307.836907" style="fill: #a9a9a9; stroke: #a9a9a9; stroke-width: 0.8"/>
      </g>
     </g>
     <g id="text_11">
      <!-- 0 -->
      <g style="fill: #a9a9a9" transform="translate(94.6375 311.636126) scale(0.1 -0.1)">
       <use xlink:href="#DejaVuSans-30"/>
      </g>
     </g>
    </g>
    <g id="ytick_2">
     <g id="line2d_23">
      <path d="M 108 278.311424 
L 777.6 278.311424 
" clip-path="url(#pabded010bd)" style="fill: none; stroke-dasharray: 5.12,1.28,0.8,1.28; stroke-dashoffset: 0; stroke: #b0b0b0; stroke-width: 0.8"/>
     </g>
     <g id="line2d_24">
      <g>
       <use xlink:href="#m33fc368619" x="108" y="278.311424" style="fill: #a9a9a9; stroke: #a9a9a9; stroke-width: 0.8"/>
      </g>
     </g>
     <g id="text_12">
      <!-- 800 -->
      <g style="fill: #a9a9a9" transform="translate(81.9125 282.110642) scale(0.1 -0.1)">
       <defs>
        <path id="DejaVuSans-38" d="M 2034 2216 
Q 1584 2216 1326 1975 
Q 1069 1734 1069 1313 
Q 1069 891 1326 650 
Q 1584 409 2034 409 
Q 2484 409 2743 651 
Q 3003 894 3003 1313 
Q 3003 1734 2745 1975 
Q 2488 2216 2034 2216 
z
M 1403 2484 
Q 997 2584 770 2862 
Q 544 3141 544 3541 
Q 544 4100 942 4425 
Q 1341 4750 2034 4750 
Q 2731 4750 3128 4425 
Q 3525 4100 3525 3541 
Q 3525 3141 3298 2862 
Q 3072 2584 2669 2484 
Q 3125 2378 3379 2068 
Q 3634 1759 3634 1313 
Q 3634 634 3220 271 
Q 2806 -91 2034 -91 
Q 1263 -91 848 271 
Q 434 634 434 1313 
Q 434 1759 690 2068 
Q 947 2378 1403 2484 
z
M 1172 3481 
Q 1172 3119 1398 2916 
Q 1625 2713 2034 2713 
Q 2441 2713 2670 2916 
Q 2900 3119 2900 3481 
Q 2900 3844 2670 4047 
Q 2441 4250 2034 4250 
Q 1625 4250 1398 4047 
Q 1172 3844 1172 3481 
z
" transform="scale(0.015625)"/>
       </defs>
       <use xlink:href="#DejaVuSans-38"/>
       <use xlink:href="#DejaVuSans-30" x="63.623047"/>
       <use xlink:href="#DejaVuSans-30" x="127.246094"/>
      </g>
     </g>
    </g>
    <g id="ytick_3">
     <g id="line2d_25">
      <path d="M 108 248.78594 
L 777.6 248.78594 
" clip-path="url(#pabded010bd)" style="fill: none; stroke-dasharray: 5.12,1.28,0.8,1.28; stroke-dashoffset: 0; stroke: #b0b0b0; stroke-width: 0.8"/>
     </g>
     <g id="line2d_26">
      <g>
       <use xlink:href="#m33fc368619" x="108" y="248.78594" style="fill: #a9a9a9; stroke: #a9a9a9; stroke-width: 0.8"/>
      </g>
     </g>
     <g id="text_13">
      <!-- 1600 -->
      <g style="fill: #a9a9a9" transform="translate(75.55 252.585159) scale(0.1 -0.1)">
       <defs>
        <path id="DejaVuSans-36" d="M 2113 2584 
Q 1688 2584 1439 2293 
Q 1191 2003 1191 1497 
Q 1191 994 1439 701 
Q 1688 409 2113 409 
Q 2538 409 2786 701 
Q 3034 994 3034 1497 
Q 3034 2003 2786 2293 
Q 2538 2584 2113 2584 
z
M 3366 4563 
L 3366 3988 
Q 3128 4100 2886 4159 
Q 2644 4219 2406 4219 
Q 1781 4219 1451 3797 
Q 1122 3375 1075 2522 
Q 1259 2794 1537 2939 
Q 1816 3084 2150 3084 
Q 2853 3084 3261 2657 
Q 3669 2231 3669 1497 
Q 3669 778 3244 343 
Q 2819 -91 2113 -91 
Q 1303 -91 875 529 
Q 447 1150 447 2328 
Q 447 3434 972 4092 
Q 1497 4750 2381 4750 
Q 2619 4750 2861 4703 
Q 3103 4656 3366 4563 
z
" transform="scale(0.015625)"/>
       </defs>
       <use xlink:href="#DejaVuSans-31"/>
       <use xlink:href="#DejaVuSans-36" x="63.623047"/>
       <use xlink:href="#DejaVuSans-30" x="127.246094"/>
       <use xlink:href="#DejaVuSans-30" x="190.869141"/>
      </g>
     </g>
    </g>
    <g id="ytick_4">
     <g id="line2d_27">
      <path d="M 108 219.260457 
L 777.6 219.260457 
" clip-path="url(#pabded010bd)" style="fill: none; stroke-dasharray: 5.12,1.28,0.8,1.28; stroke-dashoffset: 0; stroke: #b0b0b0; stroke-width: 0.8"/>
     </g>
     <g id="line2d_28">
      <g>
       <use xlink:href="#m33fc368619" x="108" y="219.260457" style="fill: #a9a9a9; stroke: #a9a9a9; stroke-width: 0.8"/>
      </g>
     </g>
     <g id="text_14">
      <!-- 2400 -->
      <g style="fill: #a9a9a9" transform="translate(75.55 223.059676) scale(0.1 -0.1)">
       <use xlink:href="#DejaVuSans-32"/>
       <use xlink:href="#DejaVuSans-34" x="63.623047"/>
       <use xlink:href="#DejaVuSans-30" x="127.246094"/>
       <use xlink:href="#DejaVuSans-30" x="190.869141"/>
      </g>
     </g>
    </g>
    <g id="ytick_5">
     <g id="line2d_29">
      <path d="M 108 189.734974 
L 777.6 189.734974 
" clip-path="url(#pabded010bd)" style="fill: none; stroke-dasharray: 5.12,1.28,0.8,1.28; stroke-dashoffset: 0; stroke: #b0b0b0; stroke-width: 0.8"/>
     </g>
     <g id="line2d_30">
      <g>
       <use xlink:href="#m33fc368619" x="108" y="189.734974" style="fill: #a9a9a9; stroke: #a9a9a9; stroke-width: 0.8"/>
      </g>
     </g>
     <g id="text_15">
      <!-- 3200 -->
      <g style="fill: #a9a9a9" transform="translate(75.55 193.534192) scale(0.1 -0.1)">
       <use xlink:href="#DejaVuSans-33"/>
       <use xlink:href="#DejaVuSans-32" x="63.623047"/>
       <use xlink:href="#DejaVuSans-30" x="127.246094"/>
       <use xlink:href="#DejaVuSans-30" x="190.869141"/>
      </g>
     </g>
    </g>
    <g id="ytick_6">
     <g id="line2d_31">
      <path d="M 108 160.20949 
L 777.6 160.20949 
" clip-path="url(#pabded010bd)" style="fill: none; stroke-dasharray: 5.12,1.28,0.8,1.28; stroke-dashoffset: 0; stroke: #b0b0b0; stroke-width: 0.8"/>
     </g>
     <g id="line2d_32">
      <g>
       <use xlink:href="#m33fc368619" x="108" y="160.20949" style="fill: #a9a9a9; stroke: #a9a9a9; stroke-width: 0.8"/>
      </g>
     </g>
     <g id="text_16">
      <!-- 4000 -->
      <g style="fill: #a9a9a9" transform="translate(75.55 164.008709) scale(0.1 -0.1)">
       <use xlink:href="#DejaVuSans-34"/>
       <use xlink:href="#DejaVuSans-30" x="63.623047"/>
       <use xlink:href="#DejaVuSans-30" x="127.246094"/>
       <use xlink:href="#DejaVuSans-30" x="190.869141"/>
      </g>
     </g>
    </g>
    <g id="ytick_7">
     <g id="line2d_33">
      <path d="M 108 130.684007 
L 777.6 130.684007 
" clip-path="url(#pabded010bd)" style="fill: none; stroke-dasharray: 5.12,1.28,0.8,1.28; stroke-dashoffset: 0; stroke: #b0b0b0; stroke-width: 0.8"/>
     </g>
     <g id="line2d_34">
      <g>
       <use xlink:href="#m33fc368619" x="108" y="130.684007" style="fill: #a9a9a9; stroke: #a9a9a9; stroke-width: 0.8"/>
      </g>
     </g>
     <g id="text_17">
      <!-- 4800 -->
      <g style="fill: #a9a9a9" transform="translate(75.55 134.483226) scale(0.1 -0.1)">
       <use xlink:href="#DejaVuSans-34"/>
       <use xlink:href="#DejaVuSans-38" x="63.623047"/>
       <use xlink:href="#DejaVuSans-30" x="127.246094"/>
       <use xlink:href="#DejaVuSans-30" x="190.869141"/>
      </g>
     </g>
    </g>
    <g id="ytick_8">
     <g id="line2d_35">
      <path d="M 108 101.158524 
L 777.6 101.158524 
" clip-path="url(#pabded010bd)" style="fill: none; stroke-dasharray: 5.12,1.28,0.8,1.28; stroke-dashoffset: 0; stroke: #b0b0b0; stroke-width: 0.8"/>
     </g>
     <g id="line2d_36">
      <g>
       <use xlink:href="#m33fc368619" x="108" y="101.158524" style="fill: #a9a9a9; stroke: #a9a9a9; stroke-width: 0.8"/>
      </g>
     </g>
     <g id="text_18">
      <!-- 5600 -->
      <g style="fill: #a9a9a9" transform="translate(75.55 104.957742) scale(0.1 -0.1)">
       <use xlink:href="#DejaVuSans-35"/>
       <use xlink:href="#DejaVuSans-36" x="63.623047"/>
       <use xlink:href="#DejaVuSans-30" x="127.246094"/>
       <use xlink:href="#DejaVuSans-30" x="190.869141"/>
      </g>
     </g>
    </g>
    <g id="ytick_9">
     <g id="line2d_37">
      <path d="M 108 71.63304 
L 777.6 71.63304 
" clip-path="url(#pabded010bd)" style="fill: none; stroke-dasharray: 5.12,1.28,0.8,1.28; stroke-dashoffset: 0; stroke: #b0b0b0; stroke-width: 0.8"/>
     </g>
     <g id="line2d_38">
      <g>
       <use xlink:href="#m33fc368619" x="108" y="71.63304" style="fill: #a9a9a9; stroke: #a9a9a9; stroke-width: 0.8"/>
      </g>
     </g>
     <g id="text_19">
      <!-- 6400 -->
      <g style="fill: #a9a9a9" transform="translate(75.55 75.432259) scale(0.1 -0.1)">
       <use xlink:href="#DejaVuSans-36"/>
       <use xlink:href="#DejaVuSans-34" x="63.623047"/>
       <use xlink:href="#DejaVuSans-30" x="127.246094"/>
       <use xlink:href="#DejaVuSans-30" x="190.869141"/>
      </g>
     </g>
    </g>
   </g>
   <g id="line2d_39">
    <path d="M 138.436364 307.726186 
L 141.523738 307.467838 
L 142.0383 307.246397 
L 144.09655 306.988049 
L 146.154799 306.582074 
L 147.183924 306.434446 
L 149.756736 306.213005 
L 150.78586 305.80703 
L 151.300423 305.142707 
L 151.814985 304.773638 
L 152.329547 303.629525 
L 152.84411 303.555712 
L 153.358672 303.149736 
L 154.387797 302.63304 
L 156.446046 301.009139 
L 158.504296 300.012654 
L 160.047983 299.311424 
L 160.562545 298.499473 
L 161.59167 297.761336 
L 162.106232 297.539895 
L 167.251856 296.801757 
L 167.766418 296.580316 
L 171.368355 296.285062 
L 173.426604 295.805272 
L 177.543103 295.25167 
L 178.057665 294.993322 
L 178.572228 294.919508 
L 179.601352 294.587346 
L 183.203289 293.996837 
L 184.232414 293.701582 
L 188.863475 292.926538 
L 189.8926 292.705097 
L 190.921724 292.66819 
L 192.979974 292.188401 
L 193.494536 291.48717 
L 195.038223 290.896661 
L 196.58191 290.490685 
L 197.096473 290.232337 
L 198.125597 290.047803 
L 200.183847 289.457293 
L 201.212972 289.38348 
L 202.242096 289.125132 
L 204.300346 288.608436 
L 204.814908 288.571529 
L 205.844033 288.09174 
L 206.358595 288.017926 
L 206.873158 287.759578 
L 212.533344 286.836907 
L 214.591593 286.246397 
L 215.106155 285.914236 
L 217.678967 285.065378 
L 218.708092 284.364148 
L 220.251779 284.068893 
L 230.028464 281.227065 
L 231.057589 280.82109 
L 232.086713 280.747276 
L 233.6304 280.304394 
L 234.144963 280.304394 
L 234.659525 280.082953 
L 235.68865 279.972232 
L 236.203212 279.787698 
L 238.261462 279.676977 
L 239.290586 279.492443 
L 240.319711 278.975747 
L 246.494459 276.207733 
L 247.009022 275.65413 
L 248.038146 274.104042 
L 248.552709 273.956415 
L 249.067271 273.956415 
L 250.096396 273.181371 
L 251.640083 272.664675 
L 252.154645 272.184886 
L 253.18377 271.77891 
L 254.212895 271.299121 
L 255.24202 269.822847 
L 255.756582 269.490685 
L 256.271144 268.604921 
L 256.785707 268.051318 
L 259.873081 266.427417 
L 260.902205 265.615466 
L 261.416768 265.283304 
L 261.93133 264.50826 
L 262.445893 263.364148 
L 262.960455 262.589104 
L 263.475017 262.183128 
L 263.98958 261.961687 
L 267.591516 258.935325 
L 268.620641 257.717399 
L 269.649766 256.979262 
L 271.193453 255.94587 
L 271.708015 255.502988 
L 272.73714 255.170826 
L 274.280827 254.285062 
L 275.824514 253.288576 
L 277.882763 251.443234 
L 278.911888 251.037258 
L 279.941013 250.336028 
L 280.455575 250.040773 
L 280.970138 249.96696 
L 284.572074 247.715641 
L 286.630324 246.608436 
L 287.144886 246.128647 
L 295.377884 243.249912 
L 296.407008 242.327241 
L 297.436133 241.847452 
L 298.465258 241.293849 
L 298.97982 240.998594 
L 300.008945 240.703339 
L 300.523507 240.371178 
L 301.03807 240.22355 
L 302.581757 239.227065 
L 305.154569 238.636555 
L 306.698256 237.750791 
L 308.241943 237.418629 
L 308.756505 237.271002 
L 310.300192 236.126889 
L 312.358442 235.573286 
L 312.873004 235.167311 
L 315.960378 234.133919 
L 316.989503 233.949385 
L 318.018628 233.543409 
L 321.620564 232.25167 
L 322.649689 232.104042 
L 324.193376 231.587346 
L 326.766188 230.36942 
L 328.824437 229.262214 
L 332.940936 227.601406 
L 333.455498 227.527592 
L 334.484623 226.900176 
L 334.999185 226.826362 
L 337.057435 225.977504 
L 339.115684 225.68225 
L 340.144809 225.165554 
L 340.659371 224.722671 
L 341.173934 223.8 
L 343.232183 223.246397 
L 344.77587 222.471353 
L 345.290433 222.360633 
L 349.406932 220.404569 
L 350.950619 220.109315 
L 351.979743 219.592619 
L 352.494306 219.371178 
L 353.008868 219.297364 
L 355.067117 218.374692 
L 356.610805 217.415114 
L 358.154492 217.119859 
L 360.727303 216.492443 
L 361.241866 216.086467 
L 362.785553 215.532865 
L 364.843802 214.720914 
L 365.358365 214.351845 
L 365.872927 214.167311 
L 366.902052 213.613708 
L 369.474864 212.764851 
L 371.018551 211.546924 
L 371.533113 211.436204 
L 372.562238 210.624253 
L 373.0768 210.550439 
L 373.591362 209.738489 
L 374.105925 209.517047 
L 374.620487 209.111072 
L 375.13505 209.037258 
L 376.164174 208.409842 
L 377.193299 208.07768 
L 377.707861 207.671705 
L 378.222424 207.48717 
L 379.766111 206.416872 
L 381.82436 205.346573 
L 382.338923 205.272759 
L 383.88261 204.497715 
L 384.397172 203.648858 
L 384.911734 203.205975 
L 385.426297 202.910721 
L 385.940859 202.8 
L 386.969984 202.135677 
L 387.484546 202.024956 
L 388.513671 201.50826 
L 390.57192 200.511775 
L 391.086483 200.142707 
L 392.115607 199.146221 
L 393.144732 198.518805 
L 393.659295 198.186643 
L 394.173857 197.63304 
L 396.232106 196.23058 
L 396.746669 195.64007 
L 397.261231 195.234095 
L 398.290356 194.865026 
L 399.319481 194.163796 
L 400.863168 193.388752 
L 401.37773 193.314938 
L 402.921417 192.502988 
L 403.950542 191.875571 
L 409.096165 190.030228 
L 409.610728 189.624253 
L 411.668977 188.849209 
L 412.18354 188.701582 
L 412.698102 188.295606 
L 415.270914 186.893146 
L 416.300038 184.863269 
L 417.329163 183.68225 
L 418.358288 183.054833 
L 419.901975 182.427417 
L 420.416537 182.353603 
L 420.9311 182.058348 
L 423.503911 181.246397 
L 424.018474 181.024956 
L 425.047599 180.323726 
L 426.591286 179.659402 
L 427.62041 179.1058 
L 428.134973 178.736731 
L 428.649535 178.51529 
L 429.164097 178.146221 
L 429.67866 177.592619 
L 430.707785 177.039016 
L 433.280596 175.673462 
L 436.36797 174.160281 
L 437.397095 173.82812 
L 438.940782 173.34833 
L 440.999032 172.425659 
L 442.028156 172.019684 
L 442.542719 171.613708 
L 443.571844 171.281547 
L 446.659218 169.694552 
L 447.688342 168.882601 
L 448.717467 168.513533 
L 449.23203 168.07065 
L 449.746592 167.996837 
L 450.775717 167.221793 
L 451.804841 166.705097 
L 452.319404 166.483656 
L 452.833966 165.96696 
L 456.435903 164.564499 
L 457.465027 164.121617 
L 459.008714 163.641828 
L 460.037839 163.4942 
L 460.552401 163.272759 
L 461.066964 163.198946 
L 462.096089 162.756063 
L 462.610651 162.719156 
L 464.6689 161.944112 
L 466.212587 160.873814 
L 466.72715 160.689279 
L 467.756274 160.135677 
L 468.270837 159.988049 
L 471.358211 158.290334 
L 471.872773 158.179613 
L 473.41646 157.293849 
L 474.960148 156.777153 
L 475.989272 156.444991 
L 478.047522 155.780668 
L 479.076646 155.448506 
L 481.134896 155.042531 
L 481.649458 154.82109 
L 482.164021 154.747276 
L 483.193145 154.304394 
L 483.707708 154.23058 
L 484.22227 153.972232 
L 485.251395 153.787698 
L 486.795082 153.234095 
L 487.824207 153.123374 
L 489.367894 152.791213 
L 491.940705 152.34833 
L 505.319327 148.510018 
L 505.833889 147.993322 
L 506.863014 147.587346 
L 509.950388 146.480141 
L 510.46495 146.147979 
L 510.979513 146.037258 
L 511.494075 145.742004 
L 513.037762 145.299121 
L 514.066887 145.040773 
L 514.581449 144.708612 
L 515.096012 144.597891 
L 515.610574 144.155009 
L 517.154261 143.859754 
L 518.183386 143.379965 
L 518.697948 142.789455 
L 520.756198 142.309666 
L 524.358134 141.571529 
L 524.872697 141.571529 
L 525.387259 141.350088 
L 527.445508 140.981019 
L 527.960071 140.759578 
L 530.01832 140.39051 
L 531.047445 139.947627 
L 532.07657 139.763093 
L 534.649381 139.135677 
L 536.707631 138.50826 
L 537.222193 138.39754 
L 537.736756 138.139192 
L 538.76588 137.880844 
L 539.280443 137.585589 
L 540.82413 137.068893 
L 541.338692 136.699824 
L 542.367817 136.404569 
L 543.396942 136.072408 
L 544.426066 135.666432 
L 545.969753 135.002109 
L 548.028003 134.743761 
L 552.144502 133.304394 
L 552.659064 132.935325 
L 553.173626 132.824605 
L 553.688189 132.566257 
L 554.202751 132.52935 
L 559.862937 130.573286 
L 562.435749 129.908963 
L 563.464874 129.429174 
L 565.008561 129.097012 
L 565.523123 128.691037 
L 566.037685 128.432689 
L 566.552248 127.805272 
L 567.06681 127.436204 
L 568.095935 127.140949 
L 568.610497 126.734974 
L 571.697871 125.590861 
L 572.212434 125.258699 
L 573.241558 124.963445 
L 573.756121 124.631283 
L 576.328933 123.819332 
L 577.87262 122.933568 
L 578.387182 122.822847 
L 580.959994 121.457293 
L 582.503681 120.756063 
L 583.018243 120.386995 
L 584.047368 120.054833 
L 585.076493 119.464323 
L 585.591055 119.279789 
L 586.105617 118.910721 
L 592.794928 116.585589 
L 593.309491 116.474868 
L 593.824053 116.142707 
L 595.882302 115.736731 
L 596.911427 115.330756 
L 597.425989 115.035501 
L 597.940552 114.887873 
L 599.998801 113.817575 
L 600.513364 113.743761 
L 602.057051 112.894903 
L 605.144425 111.676977 
L 607.202674 110.865026 
L 607.717237 110.717399 
L 608.231799 110.385237 
L 609.260924 110.23761 
L 609.775486 109.905448 
L 610.804611 109.720914 
L 611.833735 109.241125 
L 612.348298 109.019684 
L 612.86286 108.94587 
L 615.435672 107.949385 
L 616.979359 107.543409 
L 618.008484 107.285062 
L 619.552171 106.842179 
L 620.581296 106.436204 
L 622.639545 105.328998 
L 623.66867 104.923023 
L 624.183232 104.590861 
L 625.212357 104.36942 
L 625.726919 104.074165 
L 626.241482 103.963445 
L 627.785169 103.114587 
L 628.814293 102.708612 
L 630.35798 102.007381 
L 631.901668 101.601406 
L 634.989042 100.38348 
L 637.047291 99.68225 
L 638.590978 99.128647 
L 639.105541 98.944112 
L 640.134665 98.39051 
L 642.192915 97.467838 
L 647.338538 95.511775 
L 647.853101 95.142707 
L 649.91135 94.441476 
L 650.425913 94.441476 
L 651.455037 93.998594 
L 652.484162 93.075923 
L 652.998724 92.63304 
L 654.542411 91.894903 
L 655.056974 91.784183 
L 655.571536 91.525835 
L 656.086099 91.452021 
L 656.600661 91.082953 
L 657.115223 90.972232 
L 658.144348 90.344815 
L 659.688035 89.569772 
L 660.71716 89.163796 
L 661.231722 88.905448 
L 663.804534 88.278032 
L 664.319096 88.019684 
L 665.862783 87.576801 
L 667.921033 86.580316 
L 668.950158 86.100527 
L 669.979282 85.842179 
L 672.037532 84.919508 
L 672.552094 84.77188 
L 673.066656 84.439719 
L 676.154031 83.332513 
L 677.697718 82.409842 
L 678.21228 82.299121 
L 679.241405 81.782425 
L 680.270529 81.413357 
L 680.785092 80.970475 
L 681.814217 80.564499 
L 683.357904 79.937083 
L 683.872466 79.531107 
L 684.387028 79.4942 
L 685.416153 79.198946 
L 686.445278 78.866784 
L 686.95984 78.608436 
L 687.474403 78.534622 
L 689.01809 77.981019 
L 690.561777 77.427417 
L 691.590901 77.021441 
L 692.105464 76.615466 
L 693.649151 76.20949 
L 694.163713 75.914236 
L 695.192838 75.655888 
L 696.736525 74.80703 
L 697.251087 74.770123 
L 698.794774 74.290334 
L 699.823899 74.179613 
L 700.853024 73.773638 
L 703.940398 72.887873 
L 704.969523 72.850967 
L 708.056897 71.854482 
L 708.571459 71.780668 
L 710.115146 70.968717 
L 710.629709 70.525835 
L 712.173396 69.64007 
L 712.687958 69.234095 
L 713.717083 68.82812 
L 715.26077 68.385237 
L 715.775332 68.089982 
L 716.289895 67.979262 
L 716.804457 67.573286 
L 719.891831 66.318453 
L 721.950081 65.764851 
L 722.979205 65.321968 
L 724.00833 64.915993 
L 725.552017 64.288576 
L 726.581142 63.956415 
L 728.124829 63.365905 
L 729.153954 62.701582 
L 730.697641 62.295606 
L 732.241328 61.262214 
L 732.75589 61.188401 
L 735.328702 60.155009 
L 736.872389 59.78594 
L 737.386952 59.712127 
L 737.901514 59.490685 
L 738.416076 59.453779 
L 739.445201 59.08471 
L 739.959763 59.047803 
L 741.50345 58.457293 
L 743.5617 57.866784 
L 744.590825 57.054833 
L 746.649074 55.873814 
L 747.163636 55.8 
L 747.163636 55.8 
" clip-path="url(#pabded010bd)" style="fill: none; stroke: #1f77b4; stroke-width: 1.5; stroke-linecap: square"/>
   </g>
   <g id="line2d_40">
    <path d="M 138.950926 307.8 
L 143.581987 307.689279 
L 147.698486 307.504745 
L 149.756736 307.504745 
L 150.271298 307.357118 
L 152.84411 307.246397 
L 155.931484 306.914236 
L 159.018858 306.803515 
L 160.047983 306.692794 
L 163.649919 306.545167 
L 167.251856 306.434446 
L 169.824668 306.360633 
L 176.513978 306.249912 
L 179.08679 306.176098 
L 182.688727 306.065378 
L 185.261538 305.991564 
L 190.921724 305.880844 
L 192.979974 305.696309 
L 195.038223 305.659402 
L 198.125597 305.548682 
L 200.183847 305.511775 
L 202.756659 305.437961 
L 204.814908 305.253427 
L 209.445969 305.142707 
L 210.475094 305.068893 
L 212.533344 304.958172 
L 215.620718 304.847452 
L 217.678967 304.736731 
L 226.94109 304.183128 
L 230.543026 304.072408 
L 232.086713 303.92478 
L 234.659525 303.81406 
L 239.805149 303.555712 
L 244.950772 303.481898 
L 247.009022 303.260457 
L 249.067271 303.149736 
L 254.727457 302.63304 
L 258.329394 302.227065 
L 259.873081 302.153251 
L 264.504142 301.599649 
L 267.076954 301.525835 
L 268.620641 301.378207 
L 270.164328 301.267487 
L 275.309952 300.787698 
L 276.853639 300.64007 
L 279.941013 300.52935 
L 284.572074 300.160281 
L 285.601199 299.975747 
L 288.688573 299.865026 
L 296.921571 299.385237 
L 300.523507 299.274517 
L 302.581757 299.053076 
L 305.154569 298.942355 
L 308.241943 298.831634 
L 310.814754 298.720914 
L 312.873004 298.684007 
L 315.445816 298.610193 
L 316.47494 298.462566 
L 323.678813 298.351845 
L 324.707938 298.241125 
L 330.882687 298.130404 
L 335.513748 297.908963 
L 339.115684 297.798243 
L 341.173934 297.576801 
L 344.77587 297.466081 
L 345.804995 297.281547 
L 348.377807 297.207733 
L 353.52343 297.133919 
L 356.096242 296.875571 
L 359.183616 296.764851 
L 361.241866 296.580316 
L 366.387489 296.321968 
L 371.533113 296.211248 
L 376.164174 295.989807 
L 377.707861 295.9529 
L 378.736986 295.805272 
L 381.309798 295.694552 
L 382.338923 295.620738 
L 383.368047 295.546924 
L 384.397172 295.473111 
L 389.028233 295.399297 
L 390.57192 295.288576 
L 404.465104 294.402812 
L 407.037916 294.292091 
L 409.610728 294.218278 
L 416.814601 294.107557 
L 417.843726 293.95993 
L 425.047599 293.849209 
L 430.193222 293.590861 
L 431.222347 293.553954 
L 432.251472 293.443234 
L 434.824283 293.332513 
L 437.397095 293.258699 
L 439.969907 293.147979 
L 442.542719 293.074165 
L 447.17378 292.963445 
L 450.261154 292.852724 
L 457.465027 292.742004 
L 463.125213 292.446749 
L 465.183463 292.372935 
L 466.72715 292.262214 
L 473.931023 292.151494 
L 477.018397 292.040773 
L 486.280519 291.930053 
L 488.338769 291.893146 
L 494.513517 291.819332 
L 495.542642 291.745518 
L 502.746515 291.634798 
L 504.804764 291.597891 
L 518.183386 291.48717 
L 519.727073 291.339543 
L 542.882379 291.228822 
L 545.455191 291.155009 
L 558.833812 291.044288 
L 559.862937 290.970475 
L 562.435749 290.896661 
L 563.979436 290.749033 
L 567.06681 290.638313 
L 570.668747 290.490685 
L 575.299808 290.379965 
L 577.87262 290.306151 
L 581.474556 290.195431 
L 585.591055 290.010896 
L 588.163867 289.900176 
L 591.251241 289.789455 
L 598.969676 289.678735 
L 602.057051 289.568014 
L 607.717237 289.457293 
L 611.319173 289.309666 
L 614.92111 289.235852 
L 615.950234 289.162039 
L 628.299731 289.051318 
L 634.989042 288.68225 
L 637.561854 288.608436 
L 638.590978 288.497715 
L 639.620103 288.423902 
L 643.736602 288.313181 
L 646.823976 288.20246 
L 651.9696 288.09174 
L 654.542411 287.833392 
L 659.688035 287.722671 
L 660.71716 287.611951 
L 665.862783 287.50123 
L 668.435595 287.427417 
L 674.095781 287.39051 
L 675.124906 287.279789 
L 680.785092 287.169069 
L 681.814217 287.095255 
L 693.134588 286.984534 
L 696.221963 286.873814 
L 703.940398 286.763093 
L 705.998648 286.726186 
L 710.629709 286.652373 
L 711.658833 286.541652 
L 717.833582 286.430931 
L 720.920956 286.320211 
L 730.183078 286.20949 
L 731.726766 286.09877 
L 733.270453 285.988049 
L 734.81414 285.877329 
L 742.532575 285.766608 
L 746.134512 285.618981 
L 747.163636 285.618981 
L 747.163636 285.618981 
" clip-path="url(#pabded010bd)" style="fill: none; stroke: #ff7f0e; stroke-width: 1.5; stroke-linecap: square"/>
   </g>
   <g id="patch_3">
    <path d="M 108 320.4 
L 108 43.2 
" style="fill: none; stroke: #a9a9a9; stroke-width: 0.8; stroke-linejoin: miter; stroke-linecap: square"/>
   </g>
   <g id="patch_4">
    <path d="M 777.6 320.4 
L 777.6 43.2 
" style="fill: none"/>
   </g>
   <g id="patch_5">
    <path d="M 108 320.4 
L 777.6 320.4 
" style="fill: none; stroke: #a9a9a9; stroke-width: 0.8; stroke-linejoin: miter; stroke-linecap: square"/>
   </g>
   <g id="patch_6">
    <path d="M 108 43.2 
L 777.6 43.2 
" style="fill: none"/>
   </g>
   <g id="text_20">
    <!-- get_subscribe history -->
    <g style="fill: #a9a9a9" transform="translate(378.6075 37.2) scale(0.12 -0.12)">
     <defs>
      <path id="DejaVuSans-67" d="M 2906 1791 
Q 2906 2416 2648 2759 
Q 2391 3103 1925 3103 
Q 1463 3103 1205 2759 
Q 947 2416 947 1791 
Q 947 1169 1205 825 
Q 1463 481 1925 481 
Q 2391 481 2648 825 
Q 2906 1169 2906 1791 
z
M 3481 434 
Q 3481 -459 3084 -895 
Q 2688 -1331 1869 -1331 
Q 1566 -1331 1297 -1286 
Q 1028 -1241 775 -1147 
L 775 -588 
Q 1028 -725 1275 -790 
Q 1522 -856 1778 -856 
Q 2344 -856 2625 -561 
Q 2906 -266 2906 331 
L 2906 616 
Q 2728 306 2450 153 
Q 2172 0 1784 0 
Q 1141 0 747 490 
Q 353 981 353 1791 
Q 353 2603 747 3093 
Q 1141 3584 1784 3584 
Q 2172 3584 2450 3431 
Q 2728 3278 2906 2969 
L 2906 3500 
L 3481 3500 
L 3481 434 
z
" transform="scale(0.015625)"/>
      <path id="DejaVuSans-65" d="M 3597 1894 
L 3597 1613 
L 953 1613 
Q 991 1019 1311 708 
Q 1631 397 2203 397 
Q 2534 397 2845 478 
Q 3156 559 3463 722 
L 3463 178 
Q 3153 47 2828 -22 
Q 2503 -91 2169 -91 
Q 1331 -91 842 396 
Q 353 884 353 1716 
Q 353 2575 817 3079 
Q 1281 3584 2069 3584 
Q 2775 3584 3186 3129 
Q 3597 2675 3597 1894 
z
M 3022 2063 
Q 3016 2534 2758 2815 
Q 2500 3097 2075 3097 
Q 1594 3097 1305 2825 
Q 1016 2553 972 2059 
L 3022 2063 
z
" transform="scale(0.015625)"/>
      <path id="DejaVuSans-74" d="M 1172 4494 
L 1172 3500 
L 2356 3500 
L 2356 3053 
L 1172 3053 
L 1172 1153 
Q 1172 725 1289 603 
Q 1406 481 1766 481 
L 2356 481 
L 2356 0 
L 1766 0 
Q 1100 0 847 248 
Q 594 497 594 1153 
L 594 3053 
L 172 3053 
L 172 3500 
L 594 3500 
L 594 4494 
L 1172 4494 
z
" transform="scale(0.015625)"/>
      <path id="DejaVuSans-5f" d="M 3263 -1063 
L 3263 -1509 
L -63 -1509 
L -63 -1063 
L 3263 -1063 
z
" transform="scale(0.015625)"/>
      <path id="DejaVuSans-73" d="M 2834 3397 
L 2834 2853 
Q 2591 2978 2328 3040 
Q 2066 3103 1784 3103 
Q 1356 3103 1142 2972 
Q 928 2841 928 2578 
Q 928 2378 1081 2264 
Q 1234 2150 1697 2047 
L 1894 2003 
Q 2506 1872 2764 1633 
Q 3022 1394 3022 966 
Q 3022 478 2636 193 
Q 2250 -91 1575 -91 
Q 1294 -91 989 -36 
Q 684 19 347 128 
L 347 722 
Q 666 556 975 473 
Q 1284 391 1588 391 
Q 1994 391 2212 530 
Q 2431 669 2431 922 
Q 2431 1156 2273 1281 
Q 2116 1406 1581 1522 
L 1381 1569 
Q 847 1681 609 1914 
Q 372 2147 372 2553 
Q 372 3047 722 3315 
Q 1072 3584 1716 3584 
Q 2034 3584 2315 3537 
Q 2597 3491 2834 3397 
z
" transform="scale(0.015625)"/>
      <path id="DejaVuSans-75" d="M 544 1381 
L 544 3500 
L 1119 3500 
L 1119 1403 
Q 1119 906 1312 657 
Q 1506 409 1894 409 
Q 2359 409 2629 706 
Q 2900 1003 2900 1516 
L 2900 3500 
L 3475 3500 
L 3475 0 
L 2900 0 
L 2900 538 
Q 2691 219 2414 64 
Q 2138 -91 1772 -91 
Q 1169 -91 856 284 
Q 544 659 544 1381 
z
M 1991 3584 
L 1991 3584 
z
" transform="scale(0.015625)"/>
      <path id="DejaVuSans-62" d="M 3116 1747 
Q 3116 2381 2855 2742 
Q 2594 3103 2138 3103 
Q 1681 3103 1420 2742 
Q 1159 2381 1159 1747 
Q 1159 1113 1420 752 
Q 1681 391 2138 391 
Q 2594 391 2855 752 
Q 3116 1113 3116 1747 
z
M 1159 2969 
Q 1341 3281 1617 3432 
Q 1894 3584 2278 3584 
Q 2916 3584 3314 3078 
Q 3713 2572 3713 1747 
Q 3713 922 3314 415 
Q 2916 -91 2278 -91 
Q 1894 -91 1617 61 
Q 1341 213 1159 525 
L 1159 0 
L 581 0 
L 581 4863 
L 1159 4863 
L 1159 2969 
z
" transform="scale(0.015625)"/>
      <path id="DejaVuSans-63" d="M 3122 3366 
L 3122 2828 
Q 2878 2963 2633 3030 
Q 2388 3097 2138 3097 
Q 1578 3097 1268 2742 
Q 959 2388 959 1747 
Q 959 1106 1268 751 
Q 1578 397 2138 397 
Q 2388 397 2633 464 
Q 2878 531 3122 666 
L 3122 134 
Q 2881 22 2623 -34 
Q 2366 -91 2075 -91 
Q 1284 -91 818 406 
Q 353 903 353 1747 
Q 353 2603 823 3093 
Q 1294 3584 2113 3584 
Q 2378 3584 2631 3529 
Q 2884 3475 3122 3366 
z
" transform="scale(0.015625)"/>
      <path id="DejaVuSans-72" d="M 2631 2963 
Q 2534 3019 2420 3045 
Q 2306 3072 2169 3072 
Q 1681 3072 1420 2755 
Q 1159 2438 1159 1844 
L 1159 0 
L 581 0 
L 581 3500 
L 1159 3500 
L 1159 2956 
Q 1341 3275 1631 3429 
Q 1922 3584 2338 3584 
Q 2397 3584 2469 3576 
Q 2541 3569 2628 3553 
L 2631 2963 
z
" transform="scale(0.015625)"/>
      <path id="DejaVuSans-69" d="M 603 3500 
L 1178 3500 
L 1178 0 
L 603 0 
L 603 3500 
z
M 603 4863 
L 1178 4863 
L 1178 4134 
L 603 4134 
L 603 4863 
z
" transform="scale(0.015625)"/>
      <path id="DejaVuSans-20" transform="scale(0.015625)"/>
      <path id="DejaVuSans-68" d="M 3513 2113 
L 3513 0 
L 2938 0 
L 2938 2094 
Q 2938 2591 2744 2837 
Q 2550 3084 2163 3084 
Q 1697 3084 1428 2787 
Q 1159 2491 1159 1978 
L 1159 0 
L 581 0 
L 581 4863 
L 1159 4863 
L 1159 2956 
Q 1366 3272 1645 3428 
Q 1925 3584 2291 3584 
Q 2894 3584 3203 3211 
Q 3513 2838 3513 2113 
z
" transform="scale(0.015625)"/>
      <path id="DejaVuSans-6f" d="M 1959 3097 
Q 1497 3097 1228 2736 
Q 959 2375 959 1747 
Q 959 1119 1226 758 
Q 1494 397 1959 397 
Q 2419 397 2687 759 
Q 2956 1122 2956 1747 
Q 2956 2369 2687 2733 
Q 2419 3097 1959 3097 
z
M 1959 3584 
Q 2709 3584 3137 3096 
Q 3566 2609 3566 1747 
Q 3566 888 3137 398 
Q 2709 -91 1959 -91 
Q 1206 -91 779 398 
Q 353 888 353 1747 
Q 353 2609 779 3096 
Q 1206 3584 1959 3584 
z
" transform="scale(0.015625)"/>
      <path id="DejaVuSans-79" d="M 2059 -325 
Q 1816 -950 1584 -1140 
Q 1353 -1331 966 -1331 
L 506 -1331 
L 506 -850 
L 844 -850 
Q 1081 -850 1212 -737 
Q 1344 -625 1503 -206 
L 1606 56 
L 191 3500 
L 800 3500 
L 1894 763 
L 2988 3500 
L 3597 3500 
L 2059 -325 
z
" transform="scale(0.015625)"/>
     </defs>
     <use xlink:href="#DejaVuSans-67"/>
     <use xlink:href="#DejaVuSans-65" x="63.476562"/>
     <use xlink:href="#DejaVuSans-74" x="125"/>
     <use xlink:href="#DejaVuSans-5f" x="164.208984"/>
     <use xlink:href="#DejaVuSans-73" x="214.208984"/>
     <use xlink:href="#DejaVuSans-75" x="266.308594"/>
     <use xlink:href="#DejaVuSans-62" x="329.6875"/>
     <use xlink:href="#DejaVuSans-73" x="393.164062"/>
     <use xlink:href="#DejaVuSans-63" x="445.263672"/>
     <use xlink:href="#DejaVuSans-72" x="500.244141"/>
     <use xlink:href="#DejaVuSans-69" x="541.357422"/>
     <use xlink:href="#DejaVuSans-62" x="569.140625"/>
     <use xlink:href="#DejaVuSans-65" x="632.617188"/>
     <use xlink:href="#DejaVuSans-20" x="694.140625"/>
     <use xlink:href="#DejaVuSans-68" x="725.927734"/>
     <use xlink:href="#DejaVuSans-69" x="789.306641"/>
     <use xlink:href="#DejaVuSans-73" x="817.089844"/>
     <use xlink:href="#DejaVuSans-74" x="869.189453"/>
     <use xlink:href="#DejaVuSans-6f" x="908.398438"/>
     <use xlink:href="#DejaVuSans-72" x="969.580078"/>
     <use xlink:href="#DejaVuSans-79" x="1010.693359"/>
    </g>
   </g>
   <g id="legend_1">
    <g id="line2d_41">
     <path d="M 815.08 328.498438 
L 825.08 328.498438 
L 835.08 328.498438 
" style="fill: none; stroke: #1f77b4; stroke-width: 1.5; stroke-linecap: square"/>
    </g>
    <g id="text_21">
     <!-- star -->
     <g style="fill: #a9a9a9" transform="translate(843.08 331.998438) scale(0.1 -0.1)">
      <defs>
       <path id="DejaVuSans-61" d="M 2194 1759 
Q 1497 1759 1228 1600 
Q 959 1441 959 1056 
Q 959 750 1161 570 
Q 1363 391 1709 391 
Q 2188 391 2477 730 
Q 2766 1069 2766 1631 
L 2766 1759 
L 2194 1759 
z
M 3341 1997 
L 3341 0 
L 2766 0 
L 2766 531 
Q 2569 213 2275 61 
Q 1981 -91 1556 -91 
Q 1019 -91 701 211 
Q 384 513 384 1019 
Q 384 1609 779 1909 
Q 1175 2209 1959 2209 
L 2766 2209 
L 2766 2266 
Q 2766 2663 2505 2880 
Q 2244 3097 1772 3097 
Q 1472 3097 1187 3025 
Q 903 2953 641 2809 
L 641 3341 
Q 956 3463 1253 3523 
Q 1550 3584 1831 3584 
Q 2591 3584 2966 3190 
Q 3341 2797 3341 1997 
z
" transform="scale(0.015625)"/>
      </defs>
      <use xlink:href="#DejaVuSans-73"/>
      <use xlink:href="#DejaVuSans-74" x="52.099609"/>
      <use xlink:href="#DejaVuSans-61" x="91.308594"/>
      <use xlink:href="#DejaVuSans-72" x="152.587891"/>
     </g>
    </g>
    <g id="line2d_42">
     <path d="M 815.08 343.176562 
L 825.08 343.176562 
L 835.08 343.176562 
" style="fill: none; stroke: #ff7f0e; stroke-width: 1.5; stroke-linecap: square"/>
    </g>
    <g id="text_22">
     <!-- fork -->
     <g style="fill: #a9a9a9" transform="translate(843.08 346.676562) scale(0.1 -0.1)">
      <defs>
       <path id="DejaVuSans-66" d="M 2375 4863 
L 2375 4384 
L 1825 4384 
Q 1516 4384 1395 4259 
Q 1275 4134 1275 3809 
L 1275 3500 
L 2222 3500 
L 2222 3053 
L 1275 3053 
L 1275 0 
L 697 0 
L 697 3053 
L 147 3053 
L 147 3500 
L 697 3500 
L 697 3744 
Q 697 4328 969 4595 
Q 1241 4863 1831 4863 
L 2375 4863 
z
" transform="scale(0.015625)"/>
       <path id="DejaVuSans-6b" d="M 581 4863 
L 1159 4863 
L 1159 1991 
L 2875 3500 
L 3609 3500 
L 1753 1863 
L 3688 0 
L 2938 0 
L 1159 1709 
L 1159 0 
L 581 0 
L 581 4863 
z
" transform="scale(0.015625)"/>
      </defs>
      <use xlink:href="#DejaVuSans-66"/>
      <use xlink:href="#DejaVuSans-6f" x="35.205078"/>
      <use xlink:href="#DejaVuSans-72" x="96.386719"/>
      <use xlink:href="#DejaVuSans-6b" x="137.5"/>
     </g>
    </g>
   </g>
  </g>
 </g>
 <defs>
  <clipPath id="pabded010bd">
   <rect x="108" y="43.2" width="669.6" height="277.2"/>
  </clipPath>
 </defs>
</svg>
