<?xml version="1.0" encoding="utf-8" standalone="no"?>
<!DOCTYPE svg PUBLIC "-//W3C//DTD SVG 1.1//EN"
  "http://www.w3.org/Graphics/SVG/1.1/DTD/svg11.dtd">
<svg xmlns:xlink="http://www.w3.org/1999/xlink" width="864pt" height="360pt" viewBox="0 0 864 360" xmlns="http://www.w3.org/2000/svg" version="1.1">
 <metadata>
  <rdf:RDF xmlns:dc="http://purl.org/dc/elements/1.1/" xmlns:cc="http://creativecommons.org/ns#" xmlns:rdf="http://www.w3.org/1999/02/22-rdf-syntax-ns#">
   <cc:Work>
    <dc:type rdf:resource="http://purl.org/dc/dcmitype/StillImage"/>
    <dc:date>2024-10-14T20:06:06.301232</dc:date>
    <dc:format>image/svg+xml</dc:format>
    <dc:creator>
     <cc:Agent>
      <dc:title>Matplotlib v3.9.2, https://matplotlib.org/</dc:title>
     </cc:Agent>
    </dc:creator>
   </cc:Work>
  </rdf:RDF>
 </metadata>
 <defs>
  <style type="text/css">*{stroke-linejoin: round; stroke-linecap: butt}</style>
 </defs>
 <g id="figure_1">
  <g id="patch_1">
   <path d="M 0 360 
L 864 360 
L 864 0 
L 0 0 
L 0 360 
z
" style="fill: none; opacity: 0"/>
  </g>
  <g id="axes_1">
   <g id="patch_2">
    <path d="M 108 320.4 
L 777.6 320.4 
L 777.6 43.2 
L 108 43.2 
L 108 320.4 
z
" style="fill: none; opacity: 0"/>
   </g>
   <g id="matplotlib.axis_1">
    <g id="xtick_1">
     <g id="line2d_1">
      <path d="M 158.589474 320.4 
L 158.589474 43.2 
" clip-path="url(#pe8ae6026a7)" style="fill: none; stroke-dasharray: 5.12,1.28,0.8,1.28; stroke-dashoffset: 0; stroke: #b0b0b0; stroke-width: 0.8"/>
     </g>
     <g id="line2d_2">
      <defs>
       <path id="m198f55aa91" d="M 0 0 
L 0 3.5 
" style="stroke: #a9a9a9; stroke-width: 0.8"/>
      </defs>
      <g>
       <use xlink:href="#m198f55aa91" x="158.589474" y="320.4" style="fill: #a9a9a9; stroke: #a9a9a9; stroke-width: 0.8"/>
      </g>
     </g>
     <g id="text_1">
      <!-- 2021-09 -->
      <g style="fill: #a9a9a9" transform="translate(137.698067 334.998438) scale(0.1 -0.1)">
       <defs>
        <path id="DejaVuSans-32" d="M 1228 531 
L 3431 531 
L 3431 0 
L 469 0 
L 469 531 
Q 828 903 1448 1529 
Q 2069 2156 2228 2338 
Q 2531 2678 2651 2914 
Q 2772 3150 2772 3378 
Q 2772 3750 2511 3984 
Q 2250 4219 1831 4219 
Q 1534 4219 1204 4116 
Q 875 4013 500 3803 
L 500 4441 
Q 881 4594 1212 4672 
Q 1544 4750 1819 4750 
Q 2544 4750 2975 4387 
Q 3406 4025 3406 3419 
Q 3406 3131 3298 2873 
Q 3191 2616 2906 2266 
Q 2828 2175 2409 1742 
Q 1991 1309 1228 531 
z
" transform="scale(0.015625)"/>
        <path id="DejaVuSans-30" d="M 2034 4250 
Q 1547 4250 1301 3770 
Q 1056 3291 1056 2328 
Q 1056 1369 1301 889 
Q 1547 409 2034 409 
Q 2525 409 2770 889 
Q 3016 1369 3016 2328 
Q 3016 3291 2770 3770 
Q 2525 4250 2034 4250 
z
M 2034 4750 
Q 2819 4750 3233 4129 
Q 3647 3509 3647 2328 
Q 3647 1150 3233 529 
Q 2819 -91 2034 -91 
Q 1250 -91 836 529 
Q 422 1150 422 2328 
Q 422 3509 836 4129 
Q 1250 4750 2034 4750 
z
" transform="scale(0.015625)"/>
        <path id="DejaVuSans-31" d="M 794 531 
L 1825 531 
L 1825 4091 
L 703 3866 
L 703 4441 
L 1819 4666 
L 2450 4666 
L 2450 531 
L 3481 531 
L 3481 0 
L 794 0 
L 794 531 
z
" transform="scale(0.015625)"/>
        <path id="DejaVuSans-2d" d="M 313 2009 
L 1997 2009 
L 1997 1497 
L 313 1497 
L 313 2009 
z
" transform="scale(0.015625)"/>
        <path id="DejaVuSans-39" d="M 703 97 
L 703 672 
Q 941 559 1184 500 
Q 1428 441 1663 441 
Q 2288 441 2617 861 
Q 2947 1281 2994 2138 
Q 2813 1869 2534 1725 
Q 2256 1581 1919 1581 
Q 1219 1581 811 2004 
Q 403 2428 403 3163 
Q 403 3881 828 4315 
Q 1253 4750 1959 4750 
Q 2769 4750 3195 4129 
Q 3622 3509 3622 2328 
Q 3622 1225 3098 567 
Q 2575 -91 1691 -91 
Q 1453 -91 1209 -44 
Q 966 3 703 97 
z
M 1959 2075 
Q 2384 2075 2632 2365 
Q 2881 2656 2881 3163 
Q 2881 3666 2632 3958 
Q 2384 4250 1959 4250 
Q 1534 4250 1286 3958 
Q 1038 3666 1038 3163 
Q 1038 2656 1286 2365 
Q 1534 2075 1959 2075 
z
" transform="scale(0.015625)"/>
       </defs>
       <use xlink:href="#DejaVuSans-32"/>
       <use xlink:href="#DejaVuSans-30" x="63.623047"/>
       <use xlink:href="#DejaVuSans-32" x="127.246094"/>
       <use xlink:href="#DejaVuSans-31" x="190.869141"/>
       <use xlink:href="#DejaVuSans-2d" x="254.492188"/>
       <use xlink:href="#DejaVuSans-30" x="290.576172"/>
       <use xlink:href="#DejaVuSans-39" x="354.199219"/>
      </g>
     </g>
    </g>
    <g id="xtick_2">
     <g id="line2d_3">
      <path d="M 221.632536 320.4 
L 221.632536 43.2 
" clip-path="url(#pe8ae6026a7)" style="fill: none; stroke-dasharray: 5.12,1.28,0.8,1.28; stroke-dashoffset: 0; stroke: #b0b0b0; stroke-width: 0.8"/>
     </g>
     <g id="line2d_4">
      <g>
       <use xlink:href="#m198f55aa91" x="221.632536" y="320.4" style="fill: #a9a9a9; stroke: #a9a9a9; stroke-width: 0.8"/>
      </g>
     </g>
     <g id="text_2">
      <!-- 2022-01 -->
      <g style="fill: #a9a9a9" transform="translate(200.74113 334.998438) scale(0.1 -0.1)">
       <use xlink:href="#DejaVuSans-32"/>
       <use xlink:href="#DejaVuSans-30" x="63.623047"/>
       <use xlink:href="#DejaVuSans-32" x="127.246094"/>
       <use xlink:href="#DejaVuSans-32" x="190.869141"/>
       <use xlink:href="#DejaVuSans-2d" x="254.492188"/>
       <use xlink:href="#DejaVuSans-30" x="290.576172"/>
       <use xlink:href="#DejaVuSans-31" x="354.199219"/>
      </g>
     </g>
    </g>
    <g id="xtick_3">
     <g id="line2d_5">
      <path d="M 283.642105 320.4 
L 283.642105 43.2 
" clip-path="url(#pe8ae6026a7)" style="fill: none; stroke-dasharray: 5.12,1.28,0.8,1.28; stroke-dashoffset: 0; stroke: #b0b0b0; stroke-width: 0.8"/>
     </g>
     <g id="line2d_6">
      <g>
       <use xlink:href="#m198f55aa91" x="283.642105" y="320.4" style="fill: #a9a9a9; stroke: #a9a9a9; stroke-width: 0.8"/>
      </g>
     </g>
     <g id="text_3">
      <!-- 2022-05 -->
      <g style="fill: #a9a9a9" transform="translate(262.750699 334.998438) scale(0.1 -0.1)">
       <defs>
        <path id="DejaVuSans-35" d="M 691 4666 
L 3169 4666 
L 3169 4134 
L 1269 4134 
L 1269 2991 
Q 1406 3038 1543 3061 
Q 1681 3084 1819 3084 
Q 2600 3084 3056 2656 
Q 3513 2228 3513 1497 
Q 3513 744 3044 326 
Q 2575 -91 1722 -91 
Q 1428 -91 1123 -41 
Q 819 9 494 109 
L 494 744 
Q 775 591 1075 516 
Q 1375 441 1709 441 
Q 2250 441 2565 725 
Q 2881 1009 2881 1497 
Q 2881 1984 2565 2268 
Q 2250 2553 1709 2553 
Q 1456 2553 1204 2497 
Q 953 2441 691 2322 
L 691 4666 
z
" transform="scale(0.015625)"/>
       </defs>
       <use xlink:href="#DejaVuSans-32"/>
       <use xlink:href="#DejaVuSans-30" x="63.623047"/>
       <use xlink:href="#DejaVuSans-32" x="127.246094"/>
       <use xlink:href="#DejaVuSans-32" x="190.869141"/>
       <use xlink:href="#DejaVuSans-2d" x="254.492188"/>
       <use xlink:href="#DejaVuSans-30" x="290.576172"/>
       <use xlink:href="#DejaVuSans-35" x="354.199219"/>
      </g>
     </g>
    </g>
    <g id="xtick_4">
     <g id="line2d_7">
      <path d="M 347.201914 320.4 
L 347.201914 43.2 
" clip-path="url(#pe8ae6026a7)" style="fill: none; stroke-dasharray: 5.12,1.28,0.8,1.28; stroke-dashoffset: 0; stroke: #b0b0b0; stroke-width: 0.8"/>
     </g>
     <g id="line2d_8">
      <g>
       <use xlink:href="#m198f55aa91" x="347.201914" y="320.4" style="fill: #a9a9a9; stroke: #a9a9a9; stroke-width: 0.8"/>
      </g>
     </g>
     <g id="text_4">
      <!-- 2022-09 -->
      <g style="fill: #a9a9a9" transform="translate(326.310508 334.998438) scale(0.1 -0.1)">
       <use xlink:href="#DejaVuSans-32"/>
       <use xlink:href="#DejaVuSans-30" x="63.623047"/>
       <use xlink:href="#DejaVuSans-32" x="127.246094"/>
       <use xlink:href="#DejaVuSans-32" x="190.869141"/>
       <use xlink:href="#DejaVuSans-2d" x="254.492188"/>
       <use xlink:href="#DejaVuSans-30" x="290.576172"/>
       <use xlink:href="#DejaVuSans-39" x="354.199219"/>
      </g>
     </g>
    </g>
    <g id="xtick_5">
     <g id="line2d_9">
      <path d="M 410.244976 320.4 
L 410.244976 43.2 
" clip-path="url(#pe8ae6026a7)" style="fill: none; stroke-dasharray: 5.12,1.28,0.8,1.28; stroke-dashoffset: 0; stroke: #b0b0b0; stroke-width: 0.8"/>
     </g>
     <g id="line2d_10">
      <g>
       <use xlink:href="#m198f55aa91" x="410.244976" y="320.4" style="fill: #a9a9a9; stroke: #a9a9a9; stroke-width: 0.8"/>
      </g>
     </g>
     <g id="text_5">
      <!-- 2023-01 -->
      <g style="fill: #a9a9a9" transform="translate(389.35357 334.998438) scale(0.1 -0.1)">
       <defs>
        <path id="DejaVuSans-33" d="M 2597 2516 
Q 3050 2419 3304 2112 
Q 3559 1806 3559 1356 
Q 3559 666 3084 287 
Q 2609 -91 1734 -91 
Q 1441 -91 1130 -33 
Q 819 25 488 141 
L 488 750 
Q 750 597 1062 519 
Q 1375 441 1716 441 
Q 2309 441 2620 675 
Q 2931 909 2931 1356 
Q 2931 1769 2642 2001 
Q 2353 2234 1838 2234 
L 1294 2234 
L 1294 2753 
L 1863 2753 
Q 2328 2753 2575 2939 
Q 2822 3125 2822 3475 
Q 2822 3834 2567 4026 
Q 2313 4219 1838 4219 
Q 1578 4219 1281 4162 
Q 984 4106 628 3988 
L 628 4550 
Q 988 4650 1302 4700 
Q 1616 4750 1894 4750 
Q 2613 4750 3031 4423 
Q 3450 4097 3450 3541 
Q 3450 3153 3228 2886 
Q 3006 2619 2597 2516 
z
" transform="scale(0.015625)"/>
       </defs>
       <use xlink:href="#DejaVuSans-32"/>
       <use xlink:href="#DejaVuSans-30" x="63.623047"/>
       <use xlink:href="#DejaVuSans-32" x="127.246094"/>
       <use xlink:href="#DejaVuSans-33" x="190.869141"/>
       <use xlink:href="#DejaVuSans-2d" x="254.492188"/>
       <use xlink:href="#DejaVuSans-30" x="290.576172"/>
       <use xlink:href="#DejaVuSans-31" x="354.199219"/>
      </g>
     </g>
    </g>
    <g id="xtick_6">
     <g id="line2d_11">
      <path d="M 472.254545 320.4 
L 472.254545 43.2 
" clip-path="url(#pe8ae6026a7)" style="fill: none; stroke-dasharray: 5.12,1.28,0.8,1.28; stroke-dashoffset: 0; stroke: #b0b0b0; stroke-width: 0.8"/>
     </g>
     <g id="line2d_12">
      <g>
       <use xlink:href="#m198f55aa91" x="472.254545" y="320.4" style="fill: #a9a9a9; stroke: #a9a9a9; stroke-width: 0.8"/>
      </g>
     </g>
     <g id="text_6">
      <!-- 2023-05 -->
      <g style="fill: #a9a9a9" transform="translate(451.363139 334.998438) scale(0.1 -0.1)">
       <use xlink:href="#DejaVuSans-32"/>
       <use xlink:href="#DejaVuSans-30" x="63.623047"/>
       <use xlink:href="#DejaVuSans-32" x="127.246094"/>
       <use xlink:href="#DejaVuSans-33" x="190.869141"/>
       <use xlink:href="#DejaVuSans-2d" x="254.492188"/>
       <use xlink:href="#DejaVuSans-30" x="290.576172"/>
       <use xlink:href="#DejaVuSans-35" x="354.199219"/>
      </g>
     </g>
    </g>
    <g id="xtick_7">
     <g id="line2d_13">
      <path d="M 535.814354 320.4 
L 535.814354 43.2 
" clip-path="url(#pe8ae6026a7)" style="fill: none; stroke-dasharray: 5.12,1.28,0.8,1.28; stroke-dashoffset: 0; stroke: #b0b0b0; stroke-width: 0.8"/>
     </g>
     <g id="line2d_14">
      <g>
       <use xlink:href="#m198f55aa91" x="535.814354" y="320.4" style="fill: #a9a9a9; stroke: #a9a9a9; stroke-width: 0.8"/>
      </g>
     </g>
     <g id="text_7">
      <!-- 2023-09 -->
      <g style="fill: #a9a9a9" transform="translate(514.922948 334.998438) scale(0.1 -0.1)">
       <use xlink:href="#DejaVuSans-32"/>
       <use xlink:href="#DejaVuSans-30" x="63.623047"/>
       <use xlink:href="#DejaVuSans-32" x="127.246094"/>
       <use xlink:href="#DejaVuSans-33" x="190.869141"/>
       <use xlink:href="#DejaVuSans-2d" x="254.492188"/>
       <use xlink:href="#DejaVuSans-30" x="290.576172"/>
       <use xlink:href="#DejaVuSans-39" x="354.199219"/>
      </g>
     </g>
    </g>
    <g id="xtick_8">
     <g id="line2d_15">
      <path d="M 598.857416 320.4 
L 598.857416 43.2 
" clip-path="url(#pe8ae6026a7)" style="fill: none; stroke-dasharray: 5.12,1.28,0.8,1.28; stroke-dashoffset: 0; stroke: #b0b0b0; stroke-width: 0.8"/>
     </g>
     <g id="line2d_16">
      <g>
       <use xlink:href="#m198f55aa91" x="598.857416" y="320.4" style="fill: #a9a9a9; stroke: #a9a9a9; stroke-width: 0.8"/>
      </g>
     </g>
     <g id="text_8">
      <!-- 2024-01 -->
      <g style="fill: #a9a9a9" transform="translate(577.96601 334.998438) scale(0.1 -0.1)">
       <defs>
        <path id="DejaVuSans-34" d="M 2419 4116 
L 825 1625 
L 2419 1625 
L 2419 4116 
z
M 2253 4666 
L 3047 4666 
L 3047 1625 
L 3713 1625 
L 3713 1100 
L 3047 1100 
L 3047 0 
L 2419 0 
L 2419 1100 
L 313 1100 
L 313 1709 
L 2253 4666 
z
" transform="scale(0.015625)"/>
       </defs>
       <use xlink:href="#DejaVuSans-32"/>
       <use xlink:href="#DejaVuSans-30" x="63.623047"/>
       <use xlink:href="#DejaVuSans-32" x="127.246094"/>
       <use xlink:href="#DejaVuSans-34" x="190.869141"/>
       <use xlink:href="#DejaVuSans-2d" x="254.492188"/>
       <use xlink:href="#DejaVuSans-30" x="290.576172"/>
       <use xlink:href="#DejaVuSans-31" x="354.199219"/>
      </g>
     </g>
    </g>
    <g id="xtick_9">
     <g id="line2d_17">
      <path d="M 661.383732 320.4 
L 661.383732 43.2 
" clip-path="url(#pe8ae6026a7)" style="fill: none; stroke-dasharray: 5.12,1.28,0.8,1.28; stroke-dashoffset: 0; stroke: #b0b0b0; stroke-width: 0.8"/>
     </g>
     <g id="line2d_18">
      <g>
       <use xlink:href="#m198f55aa91" x="661.383732" y="320.4" style="fill: #a9a9a9; stroke: #a9a9a9; stroke-width: 0.8"/>
      </g>
     </g>
     <g id="text_9">
      <!-- 2024-05 -->
      <g style="fill: #a9a9a9" transform="translate(640.492326 334.998438) scale(0.1 -0.1)">
       <use xlink:href="#DejaVuSans-32"/>
       <use xlink:href="#DejaVuSans-30" x="63.623047"/>
       <use xlink:href="#DejaVuSans-32" x="127.246094"/>
       <use xlink:href="#DejaVuSans-34" x="190.869141"/>
       <use xlink:href="#DejaVuSans-2d" x="254.492188"/>
       <use xlink:href="#DejaVuSans-30" x="290.576172"/>
       <use xlink:href="#DejaVuSans-35" x="354.199219"/>
      </g>
     </g>
    </g>
    <g id="xtick_10">
     <g id="line2d_19">
      <path d="M 724.943541 320.4 
L 724.943541 43.2 
" clip-path="url(#pe8ae6026a7)" style="fill: none; stroke-dasharray: 5.12,1.28,0.8,1.28; stroke-dashoffset: 0; stroke: #b0b0b0; stroke-width: 0.8"/>
     </g>
     <g id="line2d_20">
      <g>
       <use xlink:href="#m198f55aa91" x="724.943541" y="320.4" style="fill: #a9a9a9; stroke: #a9a9a9; stroke-width: 0.8"/>
      </g>
     </g>
     <g id="text_10">
      <!-- 2024-09 -->
      <g style="fill: #a9a9a9" transform="translate(704.052134 334.998438) scale(0.1 -0.1)">
       <use xlink:href="#DejaVuSans-32"/>
       <use xlink:href="#DejaVuSans-30" x="63.623047"/>
       <use xlink:href="#DejaVuSans-32" x="127.246094"/>
       <use xlink:href="#DejaVuSans-34" x="190.869141"/>
       <use xlink:href="#DejaVuSans-2d" x="254.492188"/>
       <use xlink:href="#DejaVuSans-30" x="290.576172"/>
       <use xlink:href="#DejaVuSans-39" x="354.199219"/>
      </g>
     </g>
    </g>
   </g>
   <g id="matplotlib.axis_2">
    <g id="ytick_1">
     <g id="line2d_21">
      <path d="M 108 307.837081 
L 777.6 307.837081 
" clip-path="url(#pe8ae6026a7)" style="fill: none; stroke-dasharray: 5.12,1.28,0.8,1.28; stroke-dashoffset: 0; stroke: #b0b0b0; stroke-width: 0.8"/>
     </g>
     <g id="line2d_22">
      <defs>
       <path id="m4e99115687" d="M 0 0 
L -3.5 0 
" style="stroke: #a9a9a9; stroke-width: 0.8"/>
      </defs>
      <g>
       <use xlink:href="#m4e99115687" x="108" y="307.837081" style="fill: #a9a9a9; stroke: #a9a9a9; stroke-width: 0.8"/>
      </g>
     </g>
     <g id="text_11">
      <!-- 0 -->
      <g style="fill: #a9a9a9" transform="translate(94.6375 311.636299) scale(0.1 -0.1)">
       <use xlink:href="#DejaVuSans-30"/>
      </g>
     </g>
    </g>
    <g id="ytick_2">
     <g id="line2d_23">
      <path d="M 108 278.172572 
L 777.6 278.172572 
" clip-path="url(#pe8ae6026a7)" style="fill: none; stroke-dasharray: 5.12,1.28,0.8,1.28; stroke-dashoffset: 0; stroke: #b0b0b0; stroke-width: 0.8"/>
     </g>
     <g id="line2d_24">
      <g>
       <use xlink:href="#m4e99115687" x="108" y="278.172572" style="fill: #a9a9a9; stroke: #a9a9a9; stroke-width: 0.8"/>
      </g>
     </g>
     <g id="text_12">
      <!-- 800 -->
      <g style="fill: #a9a9a9" transform="translate(81.9125 281.971791) scale(0.1 -0.1)">
       <defs>
        <path id="DejaVuSans-38" d="M 2034 2216 
Q 1584 2216 1326 1975 
Q 1069 1734 1069 1313 
Q 1069 891 1326 650 
Q 1584 409 2034 409 
Q 2484 409 2743 651 
Q 3003 894 3003 1313 
Q 3003 1734 2745 1975 
Q 2488 2216 2034 2216 
z
M 1403 2484 
Q 997 2584 770 2862 
Q 544 3141 544 3541 
Q 544 4100 942 4425 
Q 1341 4750 2034 4750 
Q 2731 4750 3128 4425 
Q 3525 4100 3525 3541 
Q 3525 3141 3298 2862 
Q 3072 2584 2669 2484 
Q 3125 2378 3379 2068 
Q 3634 1759 3634 1313 
Q 3634 634 3220 271 
Q 2806 -91 2034 -91 
Q 1263 -91 848 271 
Q 434 634 434 1313 
Q 434 1759 690 2068 
Q 947 2378 1403 2484 
z
M 1172 3481 
Q 1172 3119 1398 2916 
Q 1625 2713 2034 2713 
Q 2441 2713 2670 2916 
Q 2900 3119 2900 3481 
Q 2900 3844 2670 4047 
Q 2441 4250 2034 4250 
Q 1625 4250 1398 4047 
Q 1172 3844 1172 3481 
z
" transform="scale(0.015625)"/>
       </defs>
       <use xlink:href="#DejaVuSans-38"/>
       <use xlink:href="#DejaVuSans-30" x="63.623047"/>
       <use xlink:href="#DejaVuSans-30" x="127.246094"/>
      </g>
     </g>
    </g>
    <g id="ytick_3">
     <g id="line2d_25">
      <path d="M 108 248.508064 
L 777.6 248.508064 
" clip-path="url(#pe8ae6026a7)" style="fill: none; stroke-dasharray: 5.12,1.28,0.8,1.28; stroke-dashoffset: 0; stroke: #b0b0b0; stroke-width: 0.8"/>
     </g>
     <g id="line2d_26">
      <g>
       <use xlink:href="#m4e99115687" x="108" y="248.508064" style="fill: #a9a9a9; stroke: #a9a9a9; stroke-width: 0.8"/>
      </g>
     </g>
     <g id="text_13">
      <!-- 1600 -->
      <g style="fill: #a9a9a9" transform="translate(75.55 252.307282) scale(0.1 -0.1)">
       <defs>
        <path id="DejaVuSans-36" d="M 2113 2584 
Q 1688 2584 1439 2293 
Q 1191 2003 1191 1497 
Q 1191 994 1439 701 
Q 1688 409 2113 409 
Q 2538 409 2786 701 
Q 3034 994 3034 1497 
Q 3034 2003 2786 2293 
Q 2538 2584 2113 2584 
z
M 3366 4563 
L 3366 3988 
Q 3128 4100 2886 4159 
Q 2644 4219 2406 4219 
Q 1781 4219 1451 3797 
Q 1122 3375 1075 2522 
Q 1259 2794 1537 2939 
Q 1816 3084 2150 3084 
Q 2853 3084 3261 2657 
Q 3669 2231 3669 1497 
Q 3669 778 3244 343 
Q 2819 -91 2113 -91 
Q 1303 -91 875 529 
Q 447 1150 447 2328 
Q 447 3434 972 4092 
Q 1497 4750 2381 4750 
Q 2619 4750 2861 4703 
Q 3103 4656 3366 4563 
z
" transform="scale(0.015625)"/>
       </defs>
       <use xlink:href="#DejaVuSans-31"/>
       <use xlink:href="#DejaVuSans-36" x="63.623047"/>
       <use xlink:href="#DejaVuSans-30" x="127.246094"/>
       <use xlink:href="#DejaVuSans-30" x="190.869141"/>
      </g>
     </g>
    </g>
    <g id="ytick_4">
     <g id="line2d_27">
      <path d="M 108 218.843555 
L 777.6 218.843555 
" clip-path="url(#pe8ae6026a7)" style="fill: none; stroke-dasharray: 5.12,1.28,0.8,1.28; stroke-dashoffset: 0; stroke: #b0b0b0; stroke-width: 0.8"/>
     </g>
     <g id="line2d_28">
      <g>
       <use xlink:href="#m4e99115687" x="108" y="218.843555" style="fill: #a9a9a9; stroke: #a9a9a9; stroke-width: 0.8"/>
      </g>
     </g>
     <g id="text_14">
      <!-- 2400 -->
      <g style="fill: #a9a9a9" transform="translate(75.55 222.642774) scale(0.1 -0.1)">
       <use xlink:href="#DejaVuSans-32"/>
       <use xlink:href="#DejaVuSans-34" x="63.623047"/>
       <use xlink:href="#DejaVuSans-30" x="127.246094"/>
       <use xlink:href="#DejaVuSans-30" x="190.869141"/>
      </g>
     </g>
    </g>
    <g id="ytick_5">
     <g id="line2d_29">
      <path d="M 108 189.179046 
L 777.6 189.179046 
" clip-path="url(#pe8ae6026a7)" style="fill: none; stroke-dasharray: 5.12,1.28,0.8,1.28; stroke-dashoffset: 0; stroke: #b0b0b0; stroke-width: 0.8"/>
     </g>
     <g id="line2d_30">
      <g>
       <use xlink:href="#m4e99115687" x="108" y="189.179046" style="fill: #a9a9a9; stroke: #a9a9a9; stroke-width: 0.8"/>
      </g>
     </g>
     <g id="text_15">
      <!-- 3200 -->
      <g style="fill: #a9a9a9" transform="translate(75.55 192.978265) scale(0.1 -0.1)">
       <use xlink:href="#DejaVuSans-33"/>
       <use xlink:href="#DejaVuSans-32" x="63.623047"/>
       <use xlink:href="#DejaVuSans-30" x="127.246094"/>
       <use xlink:href="#DejaVuSans-30" x="190.869141"/>
      </g>
     </g>
    </g>
    <g id="ytick_6">
     <g id="line2d_31">
      <path d="M 108 159.514538 
L 777.6 159.514538 
" clip-path="url(#pe8ae6026a7)" style="fill: none; stroke-dasharray: 5.12,1.28,0.8,1.28; stroke-dashoffset: 0; stroke: #b0b0b0; stroke-width: 0.8"/>
     </g>
     <g id="line2d_32">
      <g>
       <use xlink:href="#m4e99115687" x="108" y="159.514538" style="fill: #a9a9a9; stroke: #a9a9a9; stroke-width: 0.8"/>
      </g>
     </g>
     <g id="text_16">
      <!-- 4000 -->
      <g style="fill: #a9a9a9" transform="translate(75.55 163.313757) scale(0.1 -0.1)">
       <use xlink:href="#DejaVuSans-34"/>
       <use xlink:href="#DejaVuSans-30" x="63.623047"/>
       <use xlink:href="#DejaVuSans-30" x="127.246094"/>
       <use xlink:href="#DejaVuSans-30" x="190.869141"/>
      </g>
     </g>
    </g>
    <g id="ytick_7">
     <g id="line2d_33">
      <path d="M 108 129.850029 
L 777.6 129.850029 
" clip-path="url(#pe8ae6026a7)" style="fill: none; stroke-dasharray: 5.12,1.28,0.8,1.28; stroke-dashoffset: 0; stroke: #b0b0b0; stroke-width: 0.8"/>
     </g>
     <g id="line2d_34">
      <g>
       <use xlink:href="#m4e99115687" x="108" y="129.850029" style="fill: #a9a9a9; stroke: #a9a9a9; stroke-width: 0.8"/>
      </g>
     </g>
     <g id="text_17">
      <!-- 4800 -->
      <g style="fill: #a9a9a9" transform="translate(75.55 133.649248) scale(0.1 -0.1)">
       <use xlink:href="#DejaVuSans-34"/>
       <use xlink:href="#DejaVuSans-38" x="63.623047"/>
       <use xlink:href="#DejaVuSans-30" x="127.246094"/>
       <use xlink:href="#DejaVuSans-30" x="190.869141"/>
      </g>
     </g>
    </g>
    <g id="ytick_8">
     <g id="line2d_35">
      <path d="M 108 100.185521 
L 777.6 100.185521 
" clip-path="url(#pe8ae6026a7)" style="fill: none; stroke-dasharray: 5.12,1.28,0.8,1.28; stroke-dashoffset: 0; stroke: #b0b0b0; stroke-width: 0.8"/>
     </g>
     <g id="line2d_36">
      <g>
       <use xlink:href="#m4e99115687" x="108" y="100.185521" style="fill: #a9a9a9; stroke: #a9a9a9; stroke-width: 0.8"/>
      </g>
     </g>
     <g id="text_18">
      <!-- 5600 -->
      <g style="fill: #a9a9a9" transform="translate(75.55 103.98474) scale(0.1 -0.1)">
       <use xlink:href="#DejaVuSans-35"/>
       <use xlink:href="#DejaVuSans-36" x="63.623047"/>
       <use xlink:href="#DejaVuSans-30" x="127.246094"/>
       <use xlink:href="#DejaVuSans-30" x="190.869141"/>
      </g>
     </g>
    </g>
    <g id="ytick_9">
     <g id="line2d_37">
      <path d="M 108 70.521012 
L 777.6 70.521012 
" clip-path="url(#pe8ae6026a7)" style="fill: none; stroke-dasharray: 5.12,1.28,0.8,1.28; stroke-dashoffset: 0; stroke: #b0b0b0; stroke-width: 0.8"/>
     </g>
     <g id="line2d_38">
      <g>
       <use xlink:href="#m4e99115687" x="108" y="70.521012" style="fill: #a9a9a9; stroke: #a9a9a9; stroke-width: 0.8"/>
      </g>
     </g>
     <g id="text_19">
      <!-- 6400 -->
      <g style="fill: #a9a9a9" transform="translate(75.55 74.320231) scale(0.1 -0.1)">
       <use xlink:href="#DejaVuSans-36"/>
       <use xlink:href="#DejaVuSans-34" x="63.623047"/>
       <use xlink:href="#DejaVuSans-30" x="127.246094"/>
       <use xlink:href="#DejaVuSans-30" x="190.869141"/>
      </g>
     </g>
    </g>
   </g>
   <g id="line2d_39">
    <path d="M 138.436364 307.725839 
L 141.536842 307.466274 
L 142.053589 307.24379 
L 144.120574 306.984226 
L 146.18756 306.576339 
L 147.221053 306.428016 
L 149.804785 306.205533 
L 150.838278 305.797646 
L 151.355024 305.130194 
L 151.87177 304.759388 
L 152.388517 303.609888 
L 152.905263 303.535727 
L 153.42201 303.12784 
L 154.455502 302.608711 
L 156.522488 300.977163 
L 158.589474 299.975986 
L 160.139713 299.271454 
L 160.656459 298.45568 
L 161.689952 297.714067 
L 162.206699 297.491583 
L 167.374163 296.749971 
L 167.890909 296.527487 
L 171.508134 296.230842 
L 173.57512 295.748793 
L 177.709091 295.192584 
L 178.225837 294.933019 
L 178.742584 294.858858 
L 179.776077 294.525132 
L 183.393301 293.931842 
L 184.426794 293.635197 
L 189.077512 292.856504 
L 190.111005 292.63402 
L 191.144498 292.596939 
L 193.211483 292.114891 
L 193.72823 291.410359 
L 195.278469 290.817069 
L 196.828708 290.409182 
L 197.345455 290.149617 
L 198.378947 289.964214 
L 200.445933 289.370924 
L 201.479426 289.296763 
L 202.512919 289.037198 
L 204.579904 288.518069 
L 205.096651 288.480989 
L 206.130144 287.998941 
L 206.64689 287.924779 
L 207.163636 287.665215 
L 212.847847 286.738199 
L 214.914833 286.144909 
L 215.431579 285.811183 
L 218.015311 284.958328 
L 219.048804 284.253796 
L 220.599043 283.957151 
L 230.417225 281.101942 
L 231.450718 280.694055 
L 232.484211 280.619894 
L 234.03445 280.174926 
L 234.551196 280.174926 
L 235.067943 279.952443 
L 236.101435 279.841201 
L 236.618182 279.655798 
L 237.651675 279.618717 
L 239.71866 279.359152 
L 240.752153 278.840024 
L 246.95311 276.058976 
L 247.469856 275.502766 
L 248.503349 273.94538 
L 249.020096 273.797057 
L 249.536842 273.797057 
L 250.570335 273.018364 
L 252.120574 272.499235 
L 252.637321 272.017187 
L 253.670813 271.6093 
L 254.704306 271.127251 
L 255.737799 269.644026 
L 256.254545 269.3103 
L 256.771292 268.420365 
L 257.288038 267.864155 
L 260.388517 266.232607 
L 261.42201 265.416833 
L 261.938756 265.083108 
L 262.455502 264.304414 
L 262.972249 263.154915 
L 263.488995 262.376221 
L 264.005742 261.968334 
L 264.522488 261.745851 
L 268.139713 258.705238 
L 269.173206 257.481577 
L 270.206699 256.739965 
L 271.756938 255.701707 
L 272.273684 255.256739 
L 273.307177 254.923014 
L 274.857416 254.033078 
L 276.407656 253.031901 
L 278.474641 251.177869 
L 279.508134 250.769982 
L 280.541627 250.06545 
L 281.058373 249.768805 
L 281.57512 249.694644 
L 285.192344 247.432725 
L 287.25933 246.320306 
L 287.776077 245.838258 
L 296.044019 242.945968 
L 297.077512 242.018952 
L 298.111005 241.536904 
L 299.144498 240.980695 
L 299.661244 240.684049 
L 300.694737 240.387404 
L 301.211483 240.053679 
L 301.72823 239.905356 
L 303.278469 238.904179 
L 305.862201 238.310889 
L 307.41244 237.420954 
L 308.962679 237.087228 
L 309.479426 236.938905 
L 311.029665 235.752325 
L 313.096651 235.196115 
L 313.613397 234.788228 
L 316.713876 233.749971 
L 317.747368 233.564567 
L 318.780861 233.15668 
L 322.398086 231.858858 
L 323.431579 231.710536 
L 324.981818 231.191407 
L 327.56555 229.967746 
L 329.632536 228.855327 
L 333.766507 227.186698 
L 334.283254 227.112537 
L 335.316746 226.482166 
L 335.833493 226.408005 
L 337.900478 225.55515 
L 339.967464 225.258505 
L 341.000957 224.739376 
L 341.517703 224.294408 
L 342.03445 223.367393 
L 344.101435 222.811183 
L 345.651675 222.03249 
L 346.168421 221.921248 
L 350.302392 219.955974 
L 351.852632 219.659329 
L 352.886124 219.1402 
L 353.402871 218.917716 
L 353.919617 218.843555 
L 355.986603 217.916539 
L 357.536842 216.952443 
L 359.087081 216.655798 
L 361.670813 216.025427 
L 362.18756 215.61754 
L 363.737799 215.06133 
L 365.804785 214.245556 
L 366.321531 213.87475 
L 366.838278 213.689347 
L 367.87177 213.133137 
L 370.455502 212.280283 
L 372.005742 211.056622 
L 372.522488 210.94538 
L 373.555981 210.129606 
L 374.072727 210.055444 
L 374.589474 209.23967 
L 375.10622 209.017187 
L 375.622967 208.6093 
L 376.139713 208.535138 
L 377.173206 207.904768 
L 378.206699 207.571042 
L 378.723445 207.163155 
L 379.240191 206.977752 
L 380.790431 205.902413 
L 382.857416 204.827075 
L 383.374163 204.752913 
L 384.924402 203.97422 
L 385.441148 203.121366 
L 385.957895 202.676398 
L 386.474641 202.379753 
L 386.991388 202.268511 
L 388.02488 201.601059 
L 388.541627 201.489818 
L 389.57512 200.970689 
L 391.642105 199.969511 
L 392.158852 199.598705 
L 393.192344 198.597528 
L 394.225837 197.967157 
L 394.742584 197.633431 
L 395.25933 197.077222 
L 397.326316 195.668158 
L 397.843062 195.074868 
L 398.359809 194.666981 
L 399.393301 194.296174 
L 400.426794 193.591642 
L 401.977033 192.812949 
L 402.49378 192.738788 
L 404.044019 191.923014 
L 405.077512 191.292643 
L 410.244976 189.438611 
L 410.761722 189.030724 
L 412.828708 188.252031 
L 413.345455 188.103708 
L 413.862201 187.695821 
L 416.445933 186.286757 
L 417.479426 184.247322 
L 418.512919 183.060742 
L 419.546411 182.430371 
L 421.096651 181.8 
L 421.613397 181.725839 
L 422.130144 181.429194 
L 424.713876 180.61342 
L 425.230622 180.390936 
L 426.264115 179.686404 
L 427.814354 179.018952 
L 428.847847 178.462743 
L 429.364593 178.091936 
L 429.88134 177.869453 
L 430.398086 177.498646 
L 430.914833 176.942437 
L 431.948325 176.386227 
L 434.532057 175.014244 
L 437.632536 173.493938 
L 438.666029 173.160212 
L 440.216268 172.678164 
L 442.283254 171.751148 
L 443.316746 171.343261 
L 443.833493 170.935374 
L 444.866986 170.601648 
L 447.967464 169.007181 
L 449.000957 168.191407 
L 450.03445 167.8206 
L 450.551196 167.375633 
L 451.067943 167.301471 
L 452.101435 166.522778 
L 453.134928 166.003649 
L 453.651675 165.781165 
L 454.168421 165.262036 
L 457.785646 163.852972 
L 458.819139 163.408005 
L 460.369378 162.925956 
L 461.402871 162.777634 
L 461.919617 162.55515 
L 462.436364 162.480989 
L 463.469856 162.036021 
L 463.986603 161.998941 
L 466.053589 161.220247 
L 467.603828 160.144909 
L 468.120574 159.959506 
L 469.154067 159.403296 
L 469.670813 159.254974 
L 472.771292 157.549264 
L 473.288038 157.438022 
L 474.838278 156.548087 
L 476.388517 156.028958 
L 477.42201 155.695232 
L 479.488995 155.027781 
L 480.522488 154.694055 
L 482.589474 154.286168 
L 483.10622 154.063685 
L 483.622967 153.989523 
L 484.656459 153.544556 
L 485.173206 153.470394 
L 485.689952 153.21083 
L 486.723445 153.025427 
L 488.273684 152.469217 
L 489.307177 152.357975 
L 490.857416 152.02425 
L 493.441148 151.579282 
L 506.876555 147.722896 
L 507.393301 147.203767 
L 508.426794 146.79588 
L 511.527273 145.683461 
L 512.044019 145.349735 
L 512.560766 145.238493 
L 513.077512 144.941848 
L 514.627751 144.496881 
L 515.661244 144.237316 
L 516.17799 143.90359 
L 516.694737 143.792348 
L 517.211483 143.347381 
L 518.761722 143.050736 
L 519.795215 142.568687 
L 520.311962 141.975397 
L 522.378947 141.493349 
L 525.996172 140.751736 
L 526.512919 140.751736 
L 527.029665 140.529253 
L 529.096651 140.158446 
L 529.613397 139.935962 
L 531.680383 139.565156 
L 532.713876 139.120188 
L 533.747368 138.934785 
L 536.3311 138.304414 
L 538.398086 137.674044 
L 538.914833 137.562802 
L 539.431579 137.303237 
L 540.465072 137.043673 
L 540.981818 136.747028 
L 542.532057 136.227899 
L 543.048804 135.857092 
L 544.082297 135.560447 
L 545.115789 135.226722 
L 546.149282 134.818835 
L 547.699522 134.151383 
L 549.766507 133.891819 
L 553.900478 132.445674 
L 554.417225 132.074868 
L 554.933971 131.963626 
L 555.450718 131.704061 
L 555.967464 131.666981 
L 561.651675 129.701707 
L 564.235407 129.034255 
L 565.2689 128.552207 
L 566.819139 128.218481 
L 567.335885 127.810594 
L 567.852632 127.55103 
L 568.369378 126.920659 
L 568.886124 126.549853 
L 569.919617 126.253208 
L 570.436364 125.845321 
L 573.536842 124.695821 
L 574.053589 124.362095 
L 575.087081 124.06545 
L 575.603828 123.731725 
L 578.18756 122.915951 
L 579.737799 122.026015 
L 580.254545 121.914773 
L 582.838278 120.54279 
L 584.388517 119.838258 
L 584.905263 119.467451 
L 585.938756 119.133726 
L 586.972249 118.540436 
L 587.488995 118.355032 
L 588.005742 117.984226 
L 594.723445 115.648146 
L 595.240191 115.536904 
L 595.756938 115.203178 
L 597.823923 114.795291 
L 598.857416 114.387404 
L 599.374163 114.090759 
L 599.890909 113.942437 
L 601.957895 112.867098 
L 602.474641 112.792937 
L 604.02488 111.940082 
L 607.125359 110.716421 
L 609.192344 109.900647 
L 609.709091 109.752325 
L 610.225837 109.418599 
L 611.25933 109.270277 
L 611.776077 108.936551 
L 612.809569 108.751148 
L 613.843062 108.269099 
L 614.359809 108.046616 
L 614.876555 107.972454 
L 617.460287 106.971277 
L 619.010526 106.56339 
L 620.044019 106.303826 
L 621.594258 105.858858 
L 622.627751 105.450971 
L 624.694737 104.338552 
L 625.72823 103.930665 
L 626.244976 103.596939 
L 627.278469 103.374456 
L 627.795215 103.07781 
L 628.311962 102.966569 
L 629.862201 102.113714 
L 630.895694 101.705827 
L 632.445933 101.001295 
L 633.996172 100.593408 
L 637.096651 99.369747 
L 639.163636 98.665215 
L 640.713876 98.109005 
L 641.230622 97.923602 
L 642.264115 97.367393 
L 644.3311 96.440377 
L 649.498565 94.475103 
L 650.015311 94.104297 
L 652.082297 93.399765 
L 652.599043 93.399765 
L 653.632536 92.954797 
L 654.666029 92.027781 
L 655.182775 91.582813 
L 656.733014 90.841201 
L 657.249761 90.729959 
L 657.766507 90.470394 
L 658.283254 90.396233 
L 658.8 90.025427 
L 659.316746 89.914185 
L 660.350239 89.283814 
L 661.900478 88.505121 
L 662.933971 88.097234 
L 663.450718 87.837669 
L 666.03445 87.207298 
L 666.551196 86.947734 
L 668.101435 86.502766 
L 670.168421 85.501589 
L 671.201914 85.019541 
L 672.235407 84.759976 
L 674.302392 83.832961 
L 674.819139 83.684638 
L 675.335885 83.350912 
L 678.436364 82.238493 
L 679.986603 81.311477 
L 680.503349 81.200235 
L 681.536842 80.681107 
L 682.570335 80.3103 
L 683.087081 79.865333 
L 684.120574 79.457446 
L 685.670813 78.827075 
L 686.18756 78.419188 
L 686.704306 78.382107 
L 687.737799 78.085462 
L 688.771292 77.751736 
L 689.288038 77.492172 
L 689.804785 77.418011 
L 691.355024 76.861801 
L 692.905263 76.305592 
L 693.938756 75.897705 
L 694.455502 75.489818 
L 696.005742 75.081931 
L 696.522488 74.785285 
L 697.555981 74.525721 
L 699.10622 73.672866 
L 699.622967 73.635786 
L 701.173206 73.153737 
L 702.206699 73.042496 
L 703.240191 72.634609 
L 706.34067 71.744673 
L 707.374163 71.707593 
L 710.474641 70.706416 
L 710.991388 70.632254 
L 712.541627 69.81648 
L 713.058373 69.371513 
L 714.608612 68.481577 
L 715.125359 68.07369 
L 716.158852 67.665803 
L 717.709091 67.220836 
L 718.225837 66.924191 
L 718.742584 66.812949 
L 719.25933 66.405062 
L 722.359809 65.14432 
L 724.426794 64.588111 
L 727.010526 63.438611 
L 727.527273 63.104885 
L 728.560766 62.919482 
L 731.144498 61.732902 
L 731.661244 61.436257 
L 733.211483 61.02837 
L 734.761722 59.990112 
L 735.278469 59.915951 
L 737.862201 58.877693 
L 739.41244 58.506886 
L 739.929187 58.432725 
L 740.445933 58.210241 
L 740.962679 58.173161 
L 741.996172 57.802354 
L 742.512919 57.765274 
L 744.063158 57.171984 
L 746.130144 56.578693 
L 746.64689 56.096645 
L 747.163636 55.8 
L 747.163636 55.8 
" clip-path="url(#pe8ae6026a7)" style="fill: none; stroke: #1f77b4; stroke-width: 1.5; stroke-linecap: square"/>
   </g>
   <g id="line2d_40">
    <path d="M 138.95311 307.8 
L 140.503349 307.725839 
L 142.570335 307.688758 
L 145.154067 307.614597 
L 148.254545 307.503355 
L 149.804785 307.503355 
L 150.321531 307.355032 
L 152.388517 307.280871 
L 165.307177 306.465097 
L 168.407656 306.390936 
L 170.474641 306.353855 
L 175.642105 306.279694 
L 178.742584 306.168452 
L 181.326316 306.094291 
L 184.426794 305.983049 
L 190.111005 305.908888 
L 195.278469 305.649323 
L 197.345455 305.575162 
L 199.929187 305.501001 
L 203.029665 305.426839 
L 205.096651 305.241436 
L 207.680383 305.167275 
L 210.780861 305.056033 
L 212.3311 304.981872 
L 215.948325 304.833549 
L 217.498565 304.796469 
L 220.082297 304.499823 
L 222.666029 304.425662 
L 224.216268 304.31442 
L 227.833493 304.166098 
L 229.383732 304.091936 
L 236.618182 303.684049 
L 238.685167 303.609888 
L 242.302392 303.461566 
L 245.919617 303.387404 
L 246.95311 303.276162 
L 256.254545 302.497469 
L 257.288038 302.237905 
L 262.972249 301.718776 
L 264.522488 301.570453 
L 267.622967 301.496292 
L 269.173206 301.347969 
L 270.206699 301.310889 
L 271.756938 301.199647 
L 272.790431 301.125486 
L 274.34067 300.903002 
L 274.857416 300.903002 
L 276.407656 300.680518 
L 281.058373 300.458034 
L 282.608612 300.383873 
L 285.192344 300.124308 
L 286.225837 299.938905 
L 287.776077 299.901825 
L 288.809569 299.827663 
L 291.393301 299.753502 
L 298.627751 299.345615 
L 299.661244 299.271454 
L 306.895694 298.863567 
L 309.996172 298.789406 
L 311.029665 298.678164 
L 314.64689 298.604002 
L 318.780861 298.418599 
L 323.948325 298.344438 
L 328.082297 298.159035 
L 331.699522 298.084873 
L 336.350239 297.86239 
L 339.450718 297.788228 
L 349.785646 297.157858 
L 354.436364 297.083696 
L 357.020096 296.824132 
L 359.603828 296.787051 
L 362.18756 296.527487 
L 367.355024 296.267922 
L 369.938756 296.193761 
L 372.005742 296.15668 
L 373.039234 296.1196 
L 374.589474 295.971277 
L 378.723445 295.897116 
L 379.756938 295.748793 
L 380.790431 295.674632 
L 386.474641 295.377987 
L 390.091866 295.340906 
L 391.642105 295.229665 
L 405.594258 294.339729 
L 407.144498 294.265568 
L 410.244976 294.154326 
L 416.962679 294.080165 
L 421.096651 293.894762 
L 424.713876 293.8206 
L 427.814354 293.709358 
L 429.364593 293.635197 
L 435.048804 293.338552 
L 436.082297 293.264391 
L 438.666029 293.19023 
L 440.733014 293.116068 
L 443.833493 293.004826 
L 446.933971 292.930665 
L 449.517703 292.856504 
L 455.201914 292.782343 
L 458.302392 292.671101 
L 460.886124 292.596939 
L 462.95311 292.411536 
L 465.020096 292.374456 
L 466.570335 292.300294 
L 468.120574 292.189052 
L 473.804785 292.114891 
L 477.42201 291.966569 
L 486.723445 291.929488 
L 488.273684 291.818246 
L 496.02488 291.744085 
L 497.058373 291.669923 
L 502.742584 291.595762 
L 505.326316 291.521601 
L 514.627751 291.44744 
L 516.694737 291.410359 
L 520.828708 291.336198 
L 521.862201 291.262036 
L 534.264115 291.187875 
L 536.3311 291.150795 
L 549.766507 291.076633 
L 551.833493 291.039553 
L 560.618182 290.965391 
L 561.651675 290.89123 
L 564.235407 290.817069 
L 565.785646 290.668746 
L 568.369378 290.594585 
L 572.503349 290.409182 
L 575.603828 290.372101 
L 576.637321 290.29794 
L 580.771292 290.223779 
L 584.905263 290.038376 
L 586.972249 289.964214 
L 591.10622 289.778811 
L 593.689952 289.70465 
L 596.273684 289.630489 
L 602.474641 289.556327 
L 605.058373 289.482166 
L 608.675598 289.408005 
L 612.809569 289.222602 
L 616.943541 289.14844 
L 617.977033 289.074279 
L 627.278469 289.000118 
L 629.345455 288.963037 
L 631.41244 288.925956 
L 633.996172 288.666392 
L 638.130144 288.592231 
L 643.814354 288.295586 
L 645.88134 288.221424 
L 648.981818 288.110182 
L 653.632536 288.073102 
L 656.733014 287.739376 
L 660.350239 287.665215 
L 663.967464 287.516892 
L 667.067943 287.442731 
L 670.168421 287.331489 
L 676.369378 287.294408 
L 677.402871 287.183167 
L 681.020096 287.109005 
L 684.120574 286.997763 
L 692.388517 286.960683 
L 693.42201 286.886521 
L 697.555981 286.81236 
L 699.622967 286.77528 
L 705.307177 286.701118 
L 707.890909 286.626957 
L 713.058373 286.552796 
L 714.091866 286.441554 
L 718.742584 286.404473 
L 719.776077 286.330312 
L 722.359809 286.256151 
L 724.426794 286.21907 
L 730.627751 286.144909 
L 734.244976 285.996586 
L 735.278469 285.996586 
L 736.311962 285.811183 
L 743.029665 285.737022 
L 747.163636 285.551619 
L 747.163636 285.551619 
" clip-path="url(#pe8ae6026a7)" style="fill: none; stroke: #ff7f0e; stroke-width: 1.5; stroke-linecap: square"/>
   </g>
   <g id="patch_3">
    <path d="M 108 320.4 
L 108 43.2 
" style="fill: none; stroke: #a9a9a9; stroke-width: 0.8; stroke-linejoin: miter; stroke-linecap: square"/>
   </g>
   <g id="patch_4">
    <path d="M 777.6 320.4 
L 777.6 43.2 
" style="fill: none"/>
   </g>
   <g id="patch_5">
    <path d="M 108 320.4 
L 777.6 320.4 
" style="fill: none; stroke: #a9a9a9; stroke-width: 0.8; stroke-linejoin: miter; stroke-linecap: square"/>
   </g>
   <g id="patch_6">
    <path d="M 108 43.2 
L 777.6 43.2 
" style="fill: none"/>
   </g>
   <g id="text_20">
    <!-- get_subscribe history -->
    <g style="fill: #a9a9a9" transform="translate(378.6075 37.2) scale(0.12 -0.12)">
     <defs>
      <path id="DejaVuSans-67" d="M 2906 1791 
Q 2906 2416 2648 2759 
Q 2391 3103 1925 3103 
Q 1463 3103 1205 2759 
Q 947 2416 947 1791 
Q 947 1169 1205 825 
Q 1463 481 1925 481 
Q 2391 481 2648 825 
Q 2906 1169 2906 1791 
z
M 3481 434 
Q 3481 -459 3084 -895 
Q 2688 -1331 1869 -1331 
Q 1566 -1331 1297 -1286 
Q 1028 -1241 775 -1147 
L 775 -588 
Q 1028 -725 1275 -790 
Q 1522 -856 1778 -856 
Q 2344 -856 2625 -561 
Q 2906 -266 2906 331 
L 2906 616 
Q 2728 306 2450 153 
Q 2172 0 1784 0 
Q 1141 0 747 490 
Q 353 981 353 1791 
Q 353 2603 747 3093 
Q 1141 3584 1784 3584 
Q 2172 3584 2450 3431 
Q 2728 3278 2906 2969 
L 2906 3500 
L 3481 3500 
L 3481 434 
z
" transform="scale(0.015625)"/>
      <path id="DejaVuSans-65" d="M 3597 1894 
L 3597 1613 
L 953 1613 
Q 991 1019 1311 708 
Q 1631 397 2203 397 
Q 2534 397 2845 478 
Q 3156 559 3463 722 
L 3463 178 
Q 3153 47 2828 -22 
Q 2503 -91 2169 -91 
Q 1331 -91 842 396 
Q 353 884 353 1716 
Q 353 2575 817 3079 
Q 1281 3584 2069 3584 
Q 2775 3584 3186 3129 
Q 3597 2675 3597 1894 
z
M 3022 2063 
Q 3016 2534 2758 2815 
Q 2500 3097 2075 3097 
Q 1594 3097 1305 2825 
Q 1016 2553 972 2059 
L 3022 2063 
z
" transform="scale(0.015625)"/>
      <path id="DejaVuSans-74" d="M 1172 4494 
L 1172 3500 
L 2356 3500 
L 2356 3053 
L 1172 3053 
L 1172 1153 
Q 1172 725 1289 603 
Q 1406 481 1766 481 
L 2356 481 
L 2356 0 
L 1766 0 
Q 1100 0 847 248 
Q 594 497 594 1153 
L 594 3053 
L 172 3053 
L 172 3500 
L 594 3500 
L 594 4494 
L 1172 4494 
z
" transform="scale(0.015625)"/>
      <path id="DejaVuSans-5f" d="M 3263 -1063 
L 3263 -1509 
L -63 -1509 
L -63 -1063 
L 3263 -1063 
z
" transform="scale(0.015625)"/>
      <path id="DejaVuSans-73" d="M 2834 3397 
L 2834 2853 
Q 2591 2978 2328 3040 
Q 2066 3103 1784 3103 
Q 1356 3103 1142 2972 
Q 928 2841 928 2578 
Q 928 2378 1081 2264 
Q 1234 2150 1697 2047 
L 1894 2003 
Q 2506 1872 2764 1633 
Q 3022 1394 3022 966 
Q 3022 478 2636 193 
Q 2250 -91 1575 -91 
Q 1294 -91 989 -36 
Q 684 19 347 128 
L 347 722 
Q 666 556 975 473 
Q 1284 391 1588 391 
Q 1994 391 2212 530 
Q 2431 669 2431 922 
Q 2431 1156 2273 1281 
Q 2116 1406 1581 1522 
L 1381 1569 
Q 847 1681 609 1914 
Q 372 2147 372 2553 
Q 372 3047 722 3315 
Q 1072 3584 1716 3584 
Q 2034 3584 2315 3537 
Q 2597 3491 2834 3397 
z
" transform="scale(0.015625)"/>
      <path id="DejaVuSans-75" d="M 544 1381 
L 544 3500 
L 1119 3500 
L 1119 1403 
Q 1119 906 1312 657 
Q 1506 409 1894 409 
Q 2359 409 2629 706 
Q 2900 1003 2900 1516 
L 2900 3500 
L 3475 3500 
L 3475 0 
L 2900 0 
L 2900 538 
Q 2691 219 2414 64 
Q 2138 -91 1772 -91 
Q 1169 -91 856 284 
Q 544 659 544 1381 
z
M 1991 3584 
L 1991 3584 
z
" transform="scale(0.015625)"/>
      <path id="DejaVuSans-62" d="M 3116 1747 
Q 3116 2381 2855 2742 
Q 2594 3103 2138 3103 
Q 1681 3103 1420 2742 
Q 1159 2381 1159 1747 
Q 1159 1113 1420 752 
Q 1681 391 2138 391 
Q 2594 391 2855 752 
Q 3116 1113 3116 1747 
z
M 1159 2969 
Q 1341 3281 1617 3432 
Q 1894 3584 2278 3584 
Q 2916 3584 3314 3078 
Q 3713 2572 3713 1747 
Q 3713 922 3314 415 
Q 2916 -91 2278 -91 
Q 1894 -91 1617 61 
Q 1341 213 1159 525 
L 1159 0 
L 581 0 
L 581 4863 
L 1159 4863 
L 1159 2969 
z
" transform="scale(0.015625)"/>
      <path id="DejaVuSans-63" d="M 3122 3366 
L 3122 2828 
Q 2878 2963 2633 3030 
Q 2388 3097 2138 3097 
Q 1578 3097 1268 2742 
Q 959 2388 959 1747 
Q 959 1106 1268 751 
Q 1578 397 2138 397 
Q 2388 397 2633 464 
Q 2878 531 3122 666 
L 3122 134 
Q 2881 22 2623 -34 
Q 2366 -91 2075 -91 
Q 1284 -91 818 406 
Q 353 903 353 1747 
Q 353 2603 823 3093 
Q 1294 3584 2113 3584 
Q 2378 3584 2631 3529 
Q 2884 3475 3122 3366 
z
" transform="scale(0.015625)"/>
      <path id="DejaVuSans-72" d="M 2631 2963 
Q 2534 3019 2420 3045 
Q 2306 3072 2169 3072 
Q 1681 3072 1420 2755 
Q 1159 2438 1159 1844 
L 1159 0 
L 581 0 
L 581 3500 
L 1159 3500 
L 1159 2956 
Q 1341 3275 1631 3429 
Q 1922 3584 2338 3584 
Q 2397 3584 2469 3576 
Q 2541 3569 2628 3553 
L 2631 2963 
z
" transform="scale(0.015625)"/>
      <path id="DejaVuSans-69" d="M 603 3500 
L 1178 3500 
L 1178 0 
L 603 0 
L 603 3500 
z
M 603 4863 
L 1178 4863 
L 1178 4134 
L 603 4134 
L 603 4863 
z
" transform="scale(0.015625)"/>
      <path id="DejaVuSans-20" transform="scale(0.015625)"/>
      <path id="DejaVuSans-68" d="M 3513 2113 
L 3513 0 
L 2938 0 
L 2938 2094 
Q 2938 2591 2744 2837 
Q 2550 3084 2163 3084 
Q 1697 3084 1428 2787 
Q 1159 2491 1159 1978 
L 1159 0 
L 581 0 
L 581 4863 
L 1159 4863 
L 1159 2956 
Q 1366 3272 1645 3428 
Q 1925 3584 2291 3584 
Q 2894 3584 3203 3211 
Q 3513 2838 3513 2113 
z
" transform="scale(0.015625)"/>
      <path id="DejaVuSans-6f" d="M 1959 3097 
Q 1497 3097 1228 2736 
Q 959 2375 959 1747 
Q 959 1119 1226 758 
Q 1494 397 1959 397 
Q 2419 397 2687 759 
Q 2956 1122 2956 1747 
Q 2956 2369 2687 2733 
Q 2419 3097 1959 3097 
z
M 1959 3584 
Q 2709 3584 3137 3096 
Q 3566 2609 3566 1747 
Q 3566 888 3137 398 
Q 2709 -91 1959 -91 
Q 1206 -91 779 398 
Q 353 888 353 1747 
Q 353 2609 779 3096 
Q 1206 3584 1959 3584 
z
" transform="scale(0.015625)"/>
      <path id="DejaVuSans-79" d="M 2059 -325 
Q 1816 -950 1584 -1140 
Q 1353 -1331 966 -1331 
L 506 -1331 
L 506 -850 
L 844 -850 
Q 1081 -850 1212 -737 
Q 1344 -625 1503 -206 
L 1606 56 
L 191 3500 
L 800 3500 
L 1894 763 
L 2988 3500 
L 3597 3500 
L 2059 -325 
z
" transform="scale(0.015625)"/>
     </defs>
     <use xlink:href="#DejaVuSans-67"/>
     <use xlink:href="#DejaVuSans-65" x="63.476562"/>
     <use xlink:href="#DejaVuSans-74" x="125"/>
     <use xlink:href="#DejaVuSans-5f" x="164.208984"/>
     <use xlink:href="#DejaVuSans-73" x="214.208984"/>
     <use xlink:href="#DejaVuSans-75" x="266.308594"/>
     <use xlink:href="#DejaVuSans-62" x="329.6875"/>
     <use xlink:href="#DejaVuSans-73" x="393.164062"/>
     <use xlink:href="#DejaVuSans-63" x="445.263672"/>
     <use xlink:href="#DejaVuSans-72" x="500.244141"/>
     <use xlink:href="#DejaVuSans-69" x="541.357422"/>
     <use xlink:href="#DejaVuSans-62" x="569.140625"/>
     <use xlink:href="#DejaVuSans-65" x="632.617188"/>
     <use xlink:href="#DejaVuSans-20" x="694.140625"/>
     <use xlink:href="#DejaVuSans-68" x="725.927734"/>
     <use xlink:href="#DejaVuSans-69" x="789.306641"/>
     <use xlink:href="#DejaVuSans-73" x="817.089844"/>
     <use xlink:href="#DejaVuSans-74" x="869.189453"/>
     <use xlink:href="#DejaVuSans-6f" x="908.398438"/>
     <use xlink:href="#DejaVuSans-72" x="969.580078"/>
     <use xlink:href="#DejaVuSans-79" x="1010.693359"/>
    </g>
   </g>
   <g id="legend_1">
    <g id="line2d_41">
     <path d="M 815.08 328.498438 
L 825.08 328.498438 
L 835.08 328.498438 
" style="fill: none; stroke: #1f77b4; stroke-width: 1.5; stroke-linecap: square"/>
    </g>
    <g id="text_21">
     <!-- star -->
     <g style="fill: #a9a9a9" transform="translate(843.08 331.998438) scale(0.1 -0.1)">
      <defs>
       <path id="DejaVuSans-61" d="M 2194 1759 
Q 1497 1759 1228 1600 
Q 959 1441 959 1056 
Q 959 750 1161 570 
Q 1363 391 1709 391 
Q 2188 391 2477 730 
Q 2766 1069 2766 1631 
L 2766 1759 
L 2194 1759 
z
M 3341 1997 
L 3341 0 
L 2766 0 
L 2766 531 
Q 2569 213 2275 61 
Q 1981 -91 1556 -91 
Q 1019 -91 701 211 
Q 384 513 384 1019 
Q 384 1609 779 1909 
Q 1175 2209 1959 2209 
L 2766 2209 
L 2766 2266 
Q 2766 2663 2505 2880 
Q 2244 3097 1772 3097 
Q 1472 3097 1187 3025 
Q 903 2953 641 2809 
L 641 3341 
Q 956 3463 1253 3523 
Q 1550 3584 1831 3584 
Q 2591 3584 2966 3190 
Q 3341 2797 3341 1997 
z
" transform="scale(0.015625)"/>
      </defs>
      <use xlink:href="#DejaVuSans-73"/>
      <use xlink:href="#DejaVuSans-74" x="52.099609"/>
      <use xlink:href="#DejaVuSans-61" x="91.308594"/>
      <use xlink:href="#DejaVuSans-72" x="152.587891"/>
     </g>
    </g>
    <g id="line2d_42">
     <path d="M 815.08 343.176562 
L 825.08 343.176562 
L 835.08 343.176562 
" style="fill: none; stroke: #ff7f0e; stroke-width: 1.5; stroke-linecap: square"/>
    </g>
    <g id="text_22">
     <!-- fork -->
     <g style="fill: #a9a9a9" transform="translate(843.08 346.676562) scale(0.1 -0.1)">
      <defs>
       <path id="DejaVuSans-66" d="M 2375 4863 
L 2375 4384 
L 1825 4384 
Q 1516 4384 1395 4259 
Q 1275 4134 1275 3809 
L 1275 3500 
L 2222 3500 
L 2222 3053 
L 1275 3053 
L 1275 0 
L 697 0 
L 697 3053 
L 147 3053 
L 147 3500 
L 697 3500 
L 697 3744 
Q 697 4328 969 4595 
Q 1241 4863 1831 4863 
L 2375 4863 
z
" transform="scale(0.015625)"/>
       <path id="DejaVuSans-6b" d="M 581 4863 
L 1159 4863 
L 1159 1991 
L 2875 3500 
L 3609 3500 
L 1753 1863 
L 3688 0 
L 2938 0 
L 1159 1709 
L 1159 0 
L 581 0 
L 581 4863 
z
" transform="scale(0.015625)"/>
      </defs>
      <use xlink:href="#DejaVuSans-66"/>
      <use xlink:href="#DejaVuSans-6f" x="35.205078"/>
      <use xlink:href="#DejaVuSans-72" x="96.386719"/>
      <use xlink:href="#DejaVuSans-6b" x="137.5"/>
     </g>
    </g>
   </g>
  </g>
 </g>
 <defs>
  <clipPath id="pe8ae6026a7">
   <rect x="108" y="43.2" width="669.6" height="277.2"/>
  </clipPath>
 </defs>
</svg>
