<?xml version="1.0" encoding="utf-8" standalone="no"?>
<!DOCTYPE svg PUBLIC "-//W3C//DTD SVG 1.1//EN"
  "http://www.w3.org/Graphics/SVG/1.1/DTD/svg11.dtd">
<svg xmlns:xlink="http://www.w3.org/1999/xlink" width="864pt" height="360pt" viewBox="0 0 864 360" xmlns="http://www.w3.org/2000/svg" version="1.1">
 <metadata>
  <rdf:RDF xmlns:dc="http://purl.org/dc/elements/1.1/" xmlns:cc="http://creativecommons.org/ns#" xmlns:rdf="http://www.w3.org/1999/02/22-rdf-syntax-ns#">
   <cc:Work>
    <dc:type rdf:resource="http://purl.org/dc/dcmitype/StillImage"/>
    <dc:date>2024-10-19T08:13:23.818010</dc:date>
    <dc:format>image/svg+xml</dc:format>
    <dc:creator>
     <cc:Agent>
      <dc:title>Matplotlib v3.9.2, https://matplotlib.org/</dc:title>
     </cc:Agent>
    </dc:creator>
   </cc:Work>
  </rdf:RDF>
 </metadata>
 <defs>
  <style type="text/css">*{stroke-linejoin: round; stroke-linecap: butt}</style>
 </defs>
 <g id="figure_1">
  <g id="patch_1">
   <path d="M 0 360 
L 864 360 
L 864 0 
L 0 0 
L 0 360 
z
" style="fill: none; opacity: 0"/>
  </g>
  <g id="axes_1">
   <g id="patch_2">
    <path d="M 108 320.4 
L 777.6 320.4 
L 777.6 43.2 
L 108 43.2 
L 108 320.4 
z
" style="fill: none; opacity: 0"/>
   </g>
   <g id="matplotlib.axis_1">
    <g id="xtick_1">
     <g id="line2d_1">
      <path d="M 158.504296 320.4 
L 158.504296 43.2 
" clip-path="url(#p0291ef7e5f)" style="fill: none; stroke-dasharray: 5.12,1.28,0.8,1.28; stroke-dashoffset: 0; stroke: #b0b0b0; stroke-width: 0.8"/>
     </g>
     <g id="line2d_2">
      <defs>
       <path id="m19dd60fa0b" d="M 0 0 
L 0 3.5 
" style="stroke: #a9a9a9; stroke-width: 0.8"/>
      </defs>
      <g>
       <use xlink:href="#m19dd60fa0b" x="158.504296" y="320.4" style="fill: #a9a9a9; stroke: #a9a9a9; stroke-width: 0.8"/>
      </g>
     </g>
     <g id="text_1">
      <!-- 2021-09 -->
      <g style="fill: #a9a9a9" transform="translate(137.612889 334.998438) scale(0.1 -0.1)">
       <defs>
        <path id="DejaVuSans-32" d="M 1228 531 
L 3431 531 
L 3431 0 
L 469 0 
L 469 531 
Q 828 903 1448 1529 
Q 2069 2156 2228 2338 
Q 2531 2678 2651 2914 
Q 2772 3150 2772 3378 
Q 2772 3750 2511 3984 
Q 2250 4219 1831 4219 
Q 1534 4219 1204 4116 
Q 875 4013 500 3803 
L 500 4441 
Q 881 4594 1212 4672 
Q 1544 4750 1819 4750 
Q 2544 4750 2975 4387 
Q 3406 4025 3406 3419 
Q 3406 3131 3298 2873 
Q 3191 2616 2906 2266 
Q 2828 2175 2409 1742 
Q 1991 1309 1228 531 
z
" transform="scale(0.015625)"/>
        <path id="DejaVuSans-30" d="M 2034 4250 
Q 1547 4250 1301 3770 
Q 1056 3291 1056 2328 
Q 1056 1369 1301 889 
Q 1547 409 2034 409 
Q 2525 409 2770 889 
Q 3016 1369 3016 2328 
Q 3016 3291 2770 3770 
Q 2525 4250 2034 4250 
z
M 2034 4750 
Q 2819 4750 3233 4129 
Q 3647 3509 3647 2328 
Q 3647 1150 3233 529 
Q 2819 -91 2034 -91 
Q 1250 -91 836 529 
Q 422 1150 422 2328 
Q 422 3509 836 4129 
Q 1250 4750 2034 4750 
z
" transform="scale(0.015625)"/>
        <path id="DejaVuSans-31" d="M 794 531 
L 1825 531 
L 1825 4091 
L 703 3866 
L 703 4441 
L 1819 4666 
L 2450 4666 
L 2450 531 
L 3481 531 
L 3481 0 
L 794 0 
L 794 531 
z
" transform="scale(0.015625)"/>
        <path id="DejaVuSans-2d" d="M 313 2009 
L 1997 2009 
L 1997 1497 
L 313 1497 
L 313 2009 
z
" transform="scale(0.015625)"/>
        <path id="DejaVuSans-39" d="M 703 97 
L 703 672 
Q 941 559 1184 500 
Q 1428 441 1663 441 
Q 2288 441 2617 861 
Q 2947 1281 2994 2138 
Q 2813 1869 2534 1725 
Q 2256 1581 1919 1581 
Q 1219 1581 811 2004 
Q 403 2428 403 3163 
Q 403 3881 828 4315 
Q 1253 4750 1959 4750 
Q 2769 4750 3195 4129 
Q 3622 3509 3622 2328 
Q 3622 1225 3098 567 
Q 2575 -91 1691 -91 
Q 1453 -91 1209 -44 
Q 966 3 703 97 
z
M 1959 2075 
Q 2384 2075 2632 2365 
Q 2881 2656 2881 3163 
Q 2881 3666 2632 3958 
Q 2384 4250 1959 4250 
Q 1534 4250 1286 3958 
Q 1038 3666 1038 3163 
Q 1038 2656 1286 2365 
Q 1534 2075 1959 2075 
z
" transform="scale(0.015625)"/>
       </defs>
       <use xlink:href="#DejaVuSans-32"/>
       <use xlink:href="#DejaVuSans-30" x="63.623047"/>
       <use xlink:href="#DejaVuSans-32" x="127.246094"/>
       <use xlink:href="#DejaVuSans-31" x="190.869141"/>
       <use xlink:href="#DejaVuSans-2d" x="254.492188"/>
       <use xlink:href="#DejaVuSans-30" x="290.576172"/>
       <use xlink:href="#DejaVuSans-39" x="354.199219"/>
      </g>
     </g>
    </g>
    <g id="xtick_2">
     <g id="line2d_3">
      <path d="M 221.280904 320.4 
L 221.280904 43.2 
" clip-path="url(#p0291ef7e5f)" style="fill: none; stroke-dasharray: 5.12,1.28,0.8,1.28; stroke-dashoffset: 0; stroke: #b0b0b0; stroke-width: 0.8"/>
     </g>
     <g id="line2d_4">
      <g>
       <use xlink:href="#m19dd60fa0b" x="221.280904" y="320.4" style="fill: #a9a9a9; stroke: #a9a9a9; stroke-width: 0.8"/>
      </g>
     </g>
     <g id="text_2">
      <!-- 2022-01 -->
      <g style="fill: #a9a9a9" transform="translate(200.389497 334.998438) scale(0.1 -0.1)">
       <use xlink:href="#DejaVuSans-32"/>
       <use xlink:href="#DejaVuSans-30" x="63.623047"/>
       <use xlink:href="#DejaVuSans-32" x="127.246094"/>
       <use xlink:href="#DejaVuSans-32" x="190.869141"/>
       <use xlink:href="#DejaVuSans-2d" x="254.492188"/>
       <use xlink:href="#DejaVuSans-30" x="290.576172"/>
       <use xlink:href="#DejaVuSans-31" x="354.199219"/>
      </g>
     </g>
    </g>
    <g id="xtick_3">
     <g id="line2d_5">
      <path d="M 283.028387 320.4 
L 283.028387 43.2 
" clip-path="url(#p0291ef7e5f)" style="fill: none; stroke-dasharray: 5.12,1.28,0.8,1.28; stroke-dashoffset: 0; stroke: #b0b0b0; stroke-width: 0.8"/>
     </g>
     <g id="line2d_6">
      <g>
       <use xlink:href="#m19dd60fa0b" x="283.028387" y="320.4" style="fill: #a9a9a9; stroke: #a9a9a9; stroke-width: 0.8"/>
      </g>
     </g>
     <g id="text_3">
      <!-- 2022-05 -->
      <g style="fill: #a9a9a9" transform="translate(262.136981 334.998438) scale(0.1 -0.1)">
       <defs>
        <path id="DejaVuSans-35" d="M 691 4666 
L 3169 4666 
L 3169 4134 
L 1269 4134 
L 1269 2991 
Q 1406 3038 1543 3061 
Q 1681 3084 1819 3084 
Q 2600 3084 3056 2656 
Q 3513 2228 3513 1497 
Q 3513 744 3044 326 
Q 2575 -91 1722 -91 
Q 1428 -91 1123 -41 
Q 819 9 494 109 
L 494 744 
Q 775 591 1075 516 
Q 1375 441 1709 441 
Q 2250 441 2565 725 
Q 2881 1009 2881 1497 
Q 2881 1984 2565 2268 
Q 2250 2553 1709 2553 
Q 1456 2553 1204 2497 
Q 953 2441 691 2322 
L 691 4666 
z
" transform="scale(0.015625)"/>
       </defs>
       <use xlink:href="#DejaVuSans-32"/>
       <use xlink:href="#DejaVuSans-30" x="63.623047"/>
       <use xlink:href="#DejaVuSans-32" x="127.246094"/>
       <use xlink:href="#DejaVuSans-32" x="190.869141"/>
       <use xlink:href="#DejaVuSans-2d" x="254.492188"/>
       <use xlink:href="#DejaVuSans-30" x="290.576172"/>
       <use xlink:href="#DejaVuSans-35" x="354.199219"/>
      </g>
     </g>
    </g>
    <g id="xtick_4">
     <g id="line2d_7">
      <path d="M 346.319557 320.4 
L 346.319557 43.2 
" clip-path="url(#p0291ef7e5f)" style="fill: none; stroke-dasharray: 5.12,1.28,0.8,1.28; stroke-dashoffset: 0; stroke: #b0b0b0; stroke-width: 0.8"/>
     </g>
     <g id="line2d_8">
      <g>
       <use xlink:href="#m19dd60fa0b" x="346.319557" y="320.4" style="fill: #a9a9a9; stroke: #a9a9a9; stroke-width: 0.8"/>
      </g>
     </g>
     <g id="text_4">
      <!-- 2022-09 -->
      <g style="fill: #a9a9a9" transform="translate(325.428151 334.998438) scale(0.1 -0.1)">
       <use xlink:href="#DejaVuSans-32"/>
       <use xlink:href="#DejaVuSans-30" x="63.623047"/>
       <use xlink:href="#DejaVuSans-32" x="127.246094"/>
       <use xlink:href="#DejaVuSans-32" x="190.869141"/>
       <use xlink:href="#DejaVuSans-2d" x="254.492188"/>
       <use xlink:href="#DejaVuSans-30" x="290.576172"/>
       <use xlink:href="#DejaVuSans-39" x="354.199219"/>
      </g>
     </g>
    </g>
    <g id="xtick_5">
     <g id="line2d_9">
      <path d="M 409.096165 320.4 
L 409.096165 43.2 
" clip-path="url(#p0291ef7e5f)" style="fill: none; stroke-dasharray: 5.12,1.28,0.8,1.28; stroke-dashoffset: 0; stroke: #b0b0b0; stroke-width: 0.8"/>
     </g>
     <g id="line2d_10">
      <g>
       <use xlink:href="#m19dd60fa0b" x="409.096165" y="320.4" style="fill: #a9a9a9; stroke: #a9a9a9; stroke-width: 0.8"/>
      </g>
     </g>
     <g id="text_5">
      <!-- 2023-01 -->
      <g style="fill: #a9a9a9" transform="translate(388.204759 334.998438) scale(0.1 -0.1)">
       <defs>
        <path id="DejaVuSans-33" d="M 2597 2516 
Q 3050 2419 3304 2112 
Q 3559 1806 3559 1356 
Q 3559 666 3084 287 
Q 2609 -91 1734 -91 
Q 1441 -91 1130 -33 
Q 819 25 488 141 
L 488 750 
Q 750 597 1062 519 
Q 1375 441 1716 441 
Q 2309 441 2620 675 
Q 2931 909 2931 1356 
Q 2931 1769 2642 2001 
Q 2353 2234 1838 2234 
L 1294 2234 
L 1294 2753 
L 1863 2753 
Q 2328 2753 2575 2939 
Q 2822 3125 2822 3475 
Q 2822 3834 2567 4026 
Q 2313 4219 1838 4219 
Q 1578 4219 1281 4162 
Q 984 4106 628 3988 
L 628 4550 
Q 988 4650 1302 4700 
Q 1616 4750 1894 4750 
Q 2613 4750 3031 4423 
Q 3450 4097 3450 3541 
Q 3450 3153 3228 2886 
Q 3006 2619 2597 2516 
z
" transform="scale(0.015625)"/>
       </defs>
       <use xlink:href="#DejaVuSans-32"/>
       <use xlink:href="#DejaVuSans-30" x="63.623047"/>
       <use xlink:href="#DejaVuSans-32" x="127.246094"/>
       <use xlink:href="#DejaVuSans-33" x="190.869141"/>
       <use xlink:href="#DejaVuSans-2d" x="254.492188"/>
       <use xlink:href="#DejaVuSans-30" x="290.576172"/>
       <use xlink:href="#DejaVuSans-31" x="354.199219"/>
      </g>
     </g>
    </g>
    <g id="xtick_6">
     <g id="line2d_11">
      <path d="M 470.843649 320.4 
L 470.843649 43.2 
" clip-path="url(#p0291ef7e5f)" style="fill: none; stroke-dasharray: 5.12,1.28,0.8,1.28; stroke-dashoffset: 0; stroke: #b0b0b0; stroke-width: 0.8"/>
     </g>
     <g id="line2d_12">
      <g>
       <use xlink:href="#m19dd60fa0b" x="470.843649" y="320.4" style="fill: #a9a9a9; stroke: #a9a9a9; stroke-width: 0.8"/>
      </g>
     </g>
     <g id="text_6">
      <!-- 2023-05 -->
      <g style="fill: #a9a9a9" transform="translate(449.952242 334.998438) scale(0.1 -0.1)">
       <use xlink:href="#DejaVuSans-32"/>
       <use xlink:href="#DejaVuSans-30" x="63.623047"/>
       <use xlink:href="#DejaVuSans-32" x="127.246094"/>
       <use xlink:href="#DejaVuSans-33" x="190.869141"/>
       <use xlink:href="#DejaVuSans-2d" x="254.492188"/>
       <use xlink:href="#DejaVuSans-30" x="290.576172"/>
       <use xlink:href="#DejaVuSans-35" x="354.199219"/>
      </g>
     </g>
    </g>
    <g id="xtick_7">
     <g id="line2d_13">
      <path d="M 534.134819 320.4 
L 534.134819 43.2 
" clip-path="url(#p0291ef7e5f)" style="fill: none; stroke-dasharray: 5.12,1.28,0.8,1.28; stroke-dashoffset: 0; stroke: #b0b0b0; stroke-width: 0.8"/>
     </g>
     <g id="line2d_14">
      <g>
       <use xlink:href="#m19dd60fa0b" x="534.134819" y="320.4" style="fill: #a9a9a9; stroke: #a9a9a9; stroke-width: 0.8"/>
      </g>
     </g>
     <g id="text_7">
      <!-- 2023-09 -->
      <g style="fill: #a9a9a9" transform="translate(513.243413 334.998438) scale(0.1 -0.1)">
       <use xlink:href="#DejaVuSans-32"/>
       <use xlink:href="#DejaVuSans-30" x="63.623047"/>
       <use xlink:href="#DejaVuSans-32" x="127.246094"/>
       <use xlink:href="#DejaVuSans-33" x="190.869141"/>
       <use xlink:href="#DejaVuSans-2d" x="254.492188"/>
       <use xlink:href="#DejaVuSans-30" x="290.576172"/>
       <use xlink:href="#DejaVuSans-39" x="354.199219"/>
      </g>
     </g>
    </g>
    <g id="xtick_8">
     <g id="line2d_15">
      <path d="M 596.911427 320.4 
L 596.911427 43.2 
" clip-path="url(#p0291ef7e5f)" style="fill: none; stroke-dasharray: 5.12,1.28,0.8,1.28; stroke-dashoffset: 0; stroke: #b0b0b0; stroke-width: 0.8"/>
     </g>
     <g id="line2d_16">
      <g>
       <use xlink:href="#m19dd60fa0b" x="596.911427" y="320.4" style="fill: #a9a9a9; stroke: #a9a9a9; stroke-width: 0.8"/>
      </g>
     </g>
     <g id="text_8">
      <!-- 2024-01 -->
      <g style="fill: #a9a9a9" transform="translate(576.020021 334.998438) scale(0.1 -0.1)">
       <defs>
        <path id="DejaVuSans-34" d="M 2419 4116 
L 825 1625 
L 2419 1625 
L 2419 4116 
z
M 2253 4666 
L 3047 4666 
L 3047 1625 
L 3713 1625 
L 3713 1100 
L 3047 1100 
L 3047 0 
L 2419 0 
L 2419 1100 
L 313 1100 
L 313 1709 
L 2253 4666 
z
" transform="scale(0.015625)"/>
       </defs>
       <use xlink:href="#DejaVuSans-32"/>
       <use xlink:href="#DejaVuSans-30" x="63.623047"/>
       <use xlink:href="#DejaVuSans-32" x="127.246094"/>
       <use xlink:href="#DejaVuSans-34" x="190.869141"/>
       <use xlink:href="#DejaVuSans-2d" x="254.492188"/>
       <use xlink:href="#DejaVuSans-30" x="290.576172"/>
       <use xlink:href="#DejaVuSans-31" x="354.199219"/>
      </g>
     </g>
    </g>
    <g id="xtick_9">
     <g id="line2d_17">
      <path d="M 659.173473 320.4 
L 659.173473 43.2 
" clip-path="url(#p0291ef7e5f)" style="fill: none; stroke-dasharray: 5.12,1.28,0.8,1.28; stroke-dashoffset: 0; stroke: #b0b0b0; stroke-width: 0.8"/>
     </g>
     <g id="line2d_18">
      <g>
       <use xlink:href="#m19dd60fa0b" x="659.173473" y="320.4" style="fill: #a9a9a9; stroke: #a9a9a9; stroke-width: 0.8"/>
      </g>
     </g>
     <g id="text_9">
      <!-- 2024-05 -->
      <g style="fill: #a9a9a9" transform="translate(638.282066 334.998438) scale(0.1 -0.1)">
       <use xlink:href="#DejaVuSans-32"/>
       <use xlink:href="#DejaVuSans-30" x="63.623047"/>
       <use xlink:href="#DejaVuSans-32" x="127.246094"/>
       <use xlink:href="#DejaVuSans-34" x="190.869141"/>
       <use xlink:href="#DejaVuSans-2d" x="254.492188"/>
       <use xlink:href="#DejaVuSans-30" x="290.576172"/>
       <use xlink:href="#DejaVuSans-35" x="354.199219"/>
      </g>
     </g>
    </g>
    <g id="xtick_10">
     <g id="line2d_19">
      <path d="M 722.464643 320.4 
L 722.464643 43.2 
" clip-path="url(#p0291ef7e5f)" style="fill: none; stroke-dasharray: 5.12,1.28,0.8,1.28; stroke-dashoffset: 0; stroke: #b0b0b0; stroke-width: 0.8"/>
     </g>
     <g id="line2d_20">
      <g>
       <use xlink:href="#m19dd60fa0b" x="722.464643" y="320.4" style="fill: #a9a9a9; stroke: #a9a9a9; stroke-width: 0.8"/>
      </g>
     </g>
     <g id="text_10">
      <!-- 2024-09 -->
      <g style="fill: #a9a9a9" transform="translate(701.573237 334.998438) scale(0.1 -0.1)">
       <use xlink:href="#DejaVuSans-32"/>
       <use xlink:href="#DejaVuSans-30" x="63.623047"/>
       <use xlink:href="#DejaVuSans-32" x="127.246094"/>
       <use xlink:href="#DejaVuSans-34" x="190.869141"/>
       <use xlink:href="#DejaVuSans-2d" x="254.492188"/>
       <use xlink:href="#DejaVuSans-30" x="290.576172"/>
       <use xlink:href="#DejaVuSans-39" x="354.199219"/>
      </g>
     </g>
    </g>
   </g>
   <g id="matplotlib.axis_2">
    <g id="ytick_1">
     <g id="line2d_21">
      <path d="M 108 307.836918 
L 777.6 307.836918 
" clip-path="url(#p0291ef7e5f)" style="fill: none; stroke-dasharray: 5.12,1.28,0.8,1.28; stroke-dashoffset: 0; stroke: #b0b0b0; stroke-width: 0.8"/>
     </g>
     <g id="line2d_22">
      <defs>
       <path id="m3e705833eb" d="M 0 0 
L -3.5 0 
" style="stroke: #a9a9a9; stroke-width: 0.8"/>
      </defs>
      <g>
       <use xlink:href="#m3e705833eb" x="108" y="307.836918" style="fill: #a9a9a9; stroke: #a9a9a9; stroke-width: 0.8"/>
      </g>
     </g>
     <g id="text_11">
      <!-- 0 -->
      <g style="fill: #a9a9a9" transform="translate(94.6375 311.636136) scale(0.1 -0.1)">
       <use xlink:href="#DejaVuSans-30"/>
      </g>
     </g>
    </g>
    <g id="ytick_2">
     <g id="line2d_23">
      <path d="M 108 278.302783 
L 777.6 278.302783 
" clip-path="url(#p0291ef7e5f)" style="fill: none; stroke-dasharray: 5.12,1.28,0.8,1.28; stroke-dashoffset: 0; stroke: #b0b0b0; stroke-width: 0.8"/>
     </g>
     <g id="line2d_24">
      <g>
       <use xlink:href="#m3e705833eb" x="108" y="278.302783" style="fill: #a9a9a9; stroke: #a9a9a9; stroke-width: 0.8"/>
      </g>
     </g>
     <g id="text_12">
      <!-- 800 -->
      <g style="fill: #a9a9a9" transform="translate(81.9125 282.102002) scale(0.1 -0.1)">
       <defs>
        <path id="DejaVuSans-38" d="M 2034 2216 
Q 1584 2216 1326 1975 
Q 1069 1734 1069 1313 
Q 1069 891 1326 650 
Q 1584 409 2034 409 
Q 2484 409 2743 651 
Q 3003 894 3003 1313 
Q 3003 1734 2745 1975 
Q 2488 2216 2034 2216 
z
M 1403 2484 
Q 997 2584 770 2862 
Q 544 3141 544 3541 
Q 544 4100 942 4425 
Q 1341 4750 2034 4750 
Q 2731 4750 3128 4425 
Q 3525 4100 3525 3541 
Q 3525 3141 3298 2862 
Q 3072 2584 2669 2484 
Q 3125 2378 3379 2068 
Q 3634 1759 3634 1313 
Q 3634 634 3220 271 
Q 2806 -91 2034 -91 
Q 1263 -91 848 271 
Q 434 634 434 1313 
Q 434 1759 690 2068 
Q 947 2378 1403 2484 
z
M 1172 3481 
Q 1172 3119 1398 2916 
Q 1625 2713 2034 2713 
Q 2441 2713 2670 2916 
Q 2900 3119 2900 3481 
Q 2900 3844 2670 4047 
Q 2441 4250 2034 4250 
Q 1625 4250 1398 4047 
Q 1172 3844 1172 3481 
z
" transform="scale(0.015625)"/>
       </defs>
       <use xlink:href="#DejaVuSans-38"/>
       <use xlink:href="#DejaVuSans-30" x="63.623047"/>
       <use xlink:href="#DejaVuSans-30" x="127.246094"/>
      </g>
     </g>
    </g>
    <g id="ytick_3">
     <g id="line2d_25">
      <path d="M 108 248.768649 
L 777.6 248.768649 
" clip-path="url(#p0291ef7e5f)" style="fill: none; stroke-dasharray: 5.12,1.28,0.8,1.28; stroke-dashoffset: 0; stroke: #b0b0b0; stroke-width: 0.8"/>
     </g>
     <g id="line2d_26">
      <g>
       <use xlink:href="#m3e705833eb" x="108" y="248.768649" style="fill: #a9a9a9; stroke: #a9a9a9; stroke-width: 0.8"/>
      </g>
     </g>
     <g id="text_13">
      <!-- 1600 -->
      <g style="fill: #a9a9a9" transform="translate(75.55 252.567868) scale(0.1 -0.1)">
       <defs>
        <path id="DejaVuSans-36" d="M 2113 2584 
Q 1688 2584 1439 2293 
Q 1191 2003 1191 1497 
Q 1191 994 1439 701 
Q 1688 409 2113 409 
Q 2538 409 2786 701 
Q 3034 994 3034 1497 
Q 3034 2003 2786 2293 
Q 2538 2584 2113 2584 
z
M 3366 4563 
L 3366 3988 
Q 3128 4100 2886 4159 
Q 2644 4219 2406 4219 
Q 1781 4219 1451 3797 
Q 1122 3375 1075 2522 
Q 1259 2794 1537 2939 
Q 1816 3084 2150 3084 
Q 2853 3084 3261 2657 
Q 3669 2231 3669 1497 
Q 3669 778 3244 343 
Q 2819 -91 2113 -91 
Q 1303 -91 875 529 
Q 447 1150 447 2328 
Q 447 3434 972 4092 
Q 1497 4750 2381 4750 
Q 2619 4750 2861 4703 
Q 3103 4656 3366 4563 
z
" transform="scale(0.015625)"/>
       </defs>
       <use xlink:href="#DejaVuSans-31"/>
       <use xlink:href="#DejaVuSans-36" x="63.623047"/>
       <use xlink:href="#DejaVuSans-30" x="127.246094"/>
       <use xlink:href="#DejaVuSans-30" x="190.869141"/>
      </g>
     </g>
    </g>
    <g id="ytick_4">
     <g id="line2d_27">
      <path d="M 108 219.234515 
L 777.6 219.234515 
" clip-path="url(#p0291ef7e5f)" style="fill: none; stroke-dasharray: 5.12,1.28,0.8,1.28; stroke-dashoffset: 0; stroke: #b0b0b0; stroke-width: 0.8"/>
     </g>
     <g id="line2d_28">
      <g>
       <use xlink:href="#m3e705833eb" x="108" y="219.234515" style="fill: #a9a9a9; stroke: #a9a9a9; stroke-width: 0.8"/>
      </g>
     </g>
     <g id="text_14">
      <!-- 2400 -->
      <g style="fill: #a9a9a9" transform="translate(75.55 223.033734) scale(0.1 -0.1)">
       <use xlink:href="#DejaVuSans-32"/>
       <use xlink:href="#DejaVuSans-34" x="63.623047"/>
       <use xlink:href="#DejaVuSans-30" x="127.246094"/>
       <use xlink:href="#DejaVuSans-30" x="190.869141"/>
      </g>
     </g>
    </g>
    <g id="ytick_5">
     <g id="line2d_29">
      <path d="M 108 189.700381 
L 777.6 189.700381 
" clip-path="url(#p0291ef7e5f)" style="fill: none; stroke-dasharray: 5.12,1.28,0.8,1.28; stroke-dashoffset: 0; stroke: #b0b0b0; stroke-width: 0.8"/>
     </g>
     <g id="line2d_30">
      <g>
       <use xlink:href="#m3e705833eb" x="108" y="189.700381" style="fill: #a9a9a9; stroke: #a9a9a9; stroke-width: 0.8"/>
      </g>
     </g>
     <g id="text_15">
      <!-- 3200 -->
      <g style="fill: #a9a9a9" transform="translate(75.55 193.4996) scale(0.1 -0.1)">
       <use xlink:href="#DejaVuSans-33"/>
       <use xlink:href="#DejaVuSans-32" x="63.623047"/>
       <use xlink:href="#DejaVuSans-30" x="127.246094"/>
       <use xlink:href="#DejaVuSans-30" x="190.869141"/>
      </g>
     </g>
    </g>
    <g id="ytick_6">
     <g id="line2d_31">
      <path d="M 108 160.166247 
L 777.6 160.166247 
" clip-path="url(#p0291ef7e5f)" style="fill: none; stroke-dasharray: 5.12,1.28,0.8,1.28; stroke-dashoffset: 0; stroke: #b0b0b0; stroke-width: 0.8"/>
     </g>
     <g id="line2d_32">
      <g>
       <use xlink:href="#m3e705833eb" x="108" y="160.166247" style="fill: #a9a9a9; stroke: #a9a9a9; stroke-width: 0.8"/>
      </g>
     </g>
     <g id="text_16">
      <!-- 4000 -->
      <g style="fill: #a9a9a9" transform="translate(75.55 163.965465) scale(0.1 -0.1)">
       <use xlink:href="#DejaVuSans-34"/>
       <use xlink:href="#DejaVuSans-30" x="63.623047"/>
       <use xlink:href="#DejaVuSans-30" x="127.246094"/>
       <use xlink:href="#DejaVuSans-30" x="190.869141"/>
      </g>
     </g>
    </g>
    <g id="ytick_7">
     <g id="line2d_33">
      <path d="M 108 130.632113 
L 777.6 130.632113 
" clip-path="url(#p0291ef7e5f)" style="fill: none; stroke-dasharray: 5.12,1.28,0.8,1.28; stroke-dashoffset: 0; stroke: #b0b0b0; stroke-width: 0.8"/>
     </g>
     <g id="line2d_34">
      <g>
       <use xlink:href="#m3e705833eb" x="108" y="130.632113" style="fill: #a9a9a9; stroke: #a9a9a9; stroke-width: 0.8"/>
      </g>
     </g>
     <g id="text_17">
      <!-- 4800 -->
      <g style="fill: #a9a9a9" transform="translate(75.55 134.431331) scale(0.1 -0.1)">
       <use xlink:href="#DejaVuSans-34"/>
       <use xlink:href="#DejaVuSans-38" x="63.623047"/>
       <use xlink:href="#DejaVuSans-30" x="127.246094"/>
       <use xlink:href="#DejaVuSans-30" x="190.869141"/>
      </g>
     </g>
    </g>
    <g id="ytick_8">
     <g id="line2d_35">
      <path d="M 108 101.097978 
L 777.6 101.097978 
" clip-path="url(#p0291ef7e5f)" style="fill: none; stroke-dasharray: 5.12,1.28,0.8,1.28; stroke-dashoffset: 0; stroke: #b0b0b0; stroke-width: 0.8"/>
     </g>
     <g id="line2d_36">
      <g>
       <use xlink:href="#m3e705833eb" x="108" y="101.097978" style="fill: #a9a9a9; stroke: #a9a9a9; stroke-width: 0.8"/>
      </g>
     </g>
     <g id="text_18">
      <!-- 5600 -->
      <g style="fill: #a9a9a9" transform="translate(75.55 104.897197) scale(0.1 -0.1)">
       <use xlink:href="#DejaVuSans-35"/>
       <use xlink:href="#DejaVuSans-36" x="63.623047"/>
       <use xlink:href="#DejaVuSans-30" x="127.246094"/>
       <use xlink:href="#DejaVuSans-30" x="190.869141"/>
      </g>
     </g>
    </g>
    <g id="ytick_9">
     <g id="line2d_37">
      <path d="M 108 71.563844 
L 777.6 71.563844 
" clip-path="url(#p0291ef7e5f)" style="fill: none; stroke-dasharray: 5.12,1.28,0.8,1.28; stroke-dashoffset: 0; stroke: #b0b0b0; stroke-width: 0.8"/>
     </g>
     <g id="line2d_38">
      <g>
       <use xlink:href="#m3e705833eb" x="108" y="71.563844" style="fill: #a9a9a9; stroke: #a9a9a9; stroke-width: 0.8"/>
      </g>
     </g>
     <g id="text_19">
      <!-- 6400 -->
      <g style="fill: #a9a9a9" transform="translate(75.55 75.363063) scale(0.1 -0.1)">
       <use xlink:href="#DejaVuSans-36"/>
       <use xlink:href="#DejaVuSans-34" x="63.623047"/>
       <use xlink:href="#DejaVuSans-30" x="127.246094"/>
       <use xlink:href="#DejaVuSans-30" x="190.869141"/>
      </g>
     </g>
    </g>
   </g>
   <g id="line2d_39">
    <path d="M 138.436364 307.726165 
L 141.523738 307.467741 
L 142.0383 307.246235 
L 144.09655 306.987811 
L 146.154799 306.581717 
L 147.183924 306.434046 
L 149.756736 306.21254 
L 150.78586 305.806446 
L 151.300423 305.141928 
L 151.814985 304.772751 
L 152.329547 303.628304 
L 152.84411 303.554468 
L 153.358672 303.148374 
L 154.387797 302.631527 
L 156.446046 301.007149 
L 158.504296 300.010372 
L 160.047983 299.308936 
L 160.562545 298.496748 
L 161.59167 297.758394 
L 162.106232 297.536888 
L 167.251856 296.798535 
L 167.766418 296.577029 
L 171.368355 296.281688 
L 173.426604 295.801758 
L 177.543103 295.247993 
L 178.057665 294.989569 
L 178.572228 294.915734 
L 179.601352 294.583475 
L 183.203289 293.992792 
L 184.232414 293.697451 
L 188.863475 292.92218 
L 189.8926 292.700674 
L 190.921724 292.663756 
L 192.979974 292.183827 
L 193.494536 291.482391 
L 195.038223 290.891708 
L 196.58191 290.485614 
L 197.096473 290.22719 
L 198.125597 290.042602 
L 200.183847 289.451919 
L 201.212972 289.378084 
L 202.242096 289.11966 
L 204.300346 288.602813 
L 204.814908 288.565895 
L 205.844033 288.085965 
L 206.358595 288.01213 
L 206.873158 287.753706 
L 212.533344 286.830765 
L 214.591593 286.240082 
L 215.106155 285.907823 
L 217.678967 285.058717 
L 218.708092 284.357281 
L 220.251779 284.06194 
L 230.028464 281.219279 
L 231.057589 280.813185 
L 232.086713 280.73935 
L 233.6304 280.296338 
L 234.144963 280.296338 
L 234.659525 280.074832 
L 235.68865 279.964079 
L 236.203212 279.77949 
L 238.261462 279.668737 
L 239.290586 279.484149 
L 240.319711 278.967301 
L 246.494459 276.198476 
L 247.009022 275.644711 
L 248.038146 274.094169 
L 248.552709 273.946499 
L 249.067271 273.946499 
L 250.096396 273.171228 
L 251.640083 272.65438 
L 252.154645 272.174451 
L 253.18377 271.768356 
L 254.212895 271.288427 
L 255.24202 269.81172 
L 255.756582 269.479461 
L 256.271144 268.593437 
L 256.785707 268.039672 
L 259.873081 266.415294 
L 260.902205 265.603106 
L 261.416768 265.270847 
L 261.93133 264.495576 
L 262.445893 263.351128 
L 262.960455 262.575857 
L 263.475017 262.169763 
L 263.98958 261.948257 
L 267.591516 258.921008 
L 268.620641 257.702725 
L 269.649766 256.964372 
L 271.193453 255.930677 
L 271.708015 255.487665 
L 272.73714 255.155406 
L 274.280827 254.269382 
L 275.824514 253.272605 
L 277.882763 251.426721 
L 278.911888 251.020627 
L 279.941013 250.319191 
L 280.455575 250.02385 
L 280.970138 249.950015 
L 284.572074 247.698037 
L 286.630324 246.590507 
L 287.144886 246.110577 
L 295.377884 243.230999 
L 296.407008 242.308057 
L 297.436133 241.828128 
L 298.465258 241.274363 
L 298.97982 240.979021 
L 300.008945 240.68368 
L 300.523507 240.351421 
L 301.03807 240.20375 
L 302.581757 239.206973 
L 305.154569 238.616291 
L 306.698256 237.730267 
L 308.241943 237.398008 
L 308.756505 237.250337 
L 310.300192 236.105889 
L 312.358442 235.552124 
L 312.873004 235.14603 
L 315.960378 234.112335 
L 316.989503 233.927747 
L 318.018628 233.521653 
L 321.620564 232.229534 
L 322.649689 232.081863 
L 324.193376 231.565016 
L 326.766188 230.346733 
L 328.824437 229.239203 
L 332.940936 227.577908 
L 333.455498 227.504073 
L 334.484623 226.876472 
L 334.999185 226.802637 
L 337.057435 225.953531 
L 339.115684 225.658189 
L 340.144809 225.141342 
L 340.659371 224.69833 
L 341.173934 223.775388 
L 343.232183 223.221623 
L 344.77587 222.446352 
L 345.290433 222.335599 
L 349.406932 220.378963 
L 350.950619 220.083621 
L 351.979743 219.566774 
L 352.494306 219.345268 
L 353.008868 219.271433 
L 355.067117 218.348491 
L 356.610805 217.388632 
L 358.154492 217.09329 
L 360.727303 216.46569 
L 361.241866 216.059596 
L 362.785553 215.505831 
L 364.843802 214.693642 
L 365.358365 214.324465 
L 365.872927 214.139877 
L 366.902052 213.586112 
L 369.474864 212.737006 
L 371.018551 211.518723 
L 371.533113 211.40797 
L 372.562238 210.595781 
L 373.0768 210.521946 
L 373.591362 209.709757 
L 374.105925 209.488251 
L 374.620487 209.082156 
L 375.13505 209.008321 
L 376.164174 208.380721 
L 377.193299 208.048462 
L 377.707861 207.642367 
L 378.222424 207.457779 
L 379.766111 206.387167 
L 381.82436 205.316554 
L 382.338923 205.242719 
L 383.88261 204.467448 
L 384.397172 203.618342 
L 384.911734 203.17533 
L 385.426297 202.879988 
L 385.940859 202.769235 
L 386.969984 202.104717 
L 387.484546 201.993964 
L 388.513671 201.477117 
L 390.57192 200.48034 
L 391.086483 200.111163 
L 392.115607 199.114386 
L 393.144732 198.486786 
L 393.659295 198.154527 
L 394.173857 197.600762 
L 396.232106 196.19789 
L 396.746669 195.607208 
L 397.261231 195.201113 
L 398.290356 194.831937 
L 399.319481 194.130501 
L 400.863168 193.35523 
L 401.37773 193.281395 
L 402.921417 192.469206 
L 403.950542 191.841606 
L 409.096165 189.995722 
L 409.610728 189.589628 
L 411.668977 188.814357 
L 412.18354 188.666686 
L 412.698102 188.260592 
L 415.270914 186.85772 
L 416.300038 184.827249 
L 417.329163 183.645883 
L 418.358288 183.018283 
L 419.901975 182.390683 
L 420.416537 182.316847 
L 420.9311 182.021506 
L 423.503911 181.209317 
L 424.018474 180.987811 
L 425.047599 180.286376 
L 426.591286 179.621858 
L 427.62041 179.068093 
L 428.134973 178.698916 
L 428.649535 178.47741 
L 429.164097 178.108233 
L 429.67866 177.554468 
L 430.707785 177.000703 
L 433.280596 175.634749 
L 436.36797 174.121125 
L 437.397095 173.788866 
L 438.940782 173.308936 
L 440.999032 172.385995 
L 442.028156 171.9799 
L 442.542719 171.573806 
L 443.571844 171.241547 
L 446.659218 169.654087 
L 447.688342 168.841899 
L 448.717467 168.472722 
L 449.23203 168.02971 
L 449.746592 167.955875 
L 450.775717 167.180604 
L 451.804841 166.663756 
L 452.319404 166.44225 
L 452.833966 165.925403 
L 456.435903 164.522531 
L 457.465027 164.079519 
L 459.008714 163.59959 
L 460.037839 163.451919 
L 460.552401 163.230413 
L 461.066964 163.156578 
L 462.096089 162.713566 
L 462.610651 162.676648 
L 464.6689 161.901377 
L 466.212587 160.830765 
L 466.72715 160.646176 
L 467.756274 160.092411 
L 468.270837 159.944741 
L 471.358211 158.246528 
L 471.872773 158.135775 
L 473.41646 157.249751 
L 474.960148 156.732904 
L 475.989272 156.400645 
L 478.047522 155.736127 
L 479.076646 155.403868 
L 481.134896 154.997773 
L 481.649458 154.776267 
L 482.164021 154.702432 
L 483.193145 154.25942 
L 483.707708 154.185585 
L 484.22227 153.927161 
L 485.251395 153.742573 
L 486.795082 153.188808 
L 487.824207 153.078054 
L 489.367894 152.745795 
L 491.940705 152.302783 
L 505.319327 148.463346 
L 505.833889 147.946499 
L 506.863014 147.540404 
L 509.950388 146.432874 
L 510.46495 146.100615 
L 510.979513 145.989862 
L 511.494075 145.694521 
L 513.037762 145.251509 
L 514.066887 144.993085 
L 514.581449 144.660826 
L 515.096012 144.550073 
L 515.610574 144.107061 
L 517.154261 143.81172 
L 518.183386 143.33179 
L 518.697948 142.741108 
L 520.756198 142.261178 
L 524.358134 141.522824 
L 524.872697 141.522824 
L 525.387259 141.301318 
L 527.445508 140.932142 
L 527.960071 140.710636 
L 530.01832 140.341459 
L 531.047445 139.898447 
L 532.07657 139.713859 
L 534.649381 139.086258 
L 536.707631 138.458658 
L 537.222193 138.347905 
L 537.736756 138.089481 
L 538.76588 137.831058 
L 539.280443 137.535716 
L 540.82413 137.018869 
L 541.338692 136.649692 
L 542.367817 136.354351 
L 543.396942 136.022092 
L 544.426066 135.615998 
L 545.969753 134.95148 
L 548.028003 134.693056 
L 552.144502 133.253267 
L 552.659064 132.88409 
L 553.173626 132.773337 
L 553.688189 132.514914 
L 554.202751 132.477996 
L 559.862937 130.52136 
L 562.435749 129.856841 
L 563.464874 129.376912 
L 565.008561 129.044653 
L 565.523123 128.638558 
L 566.037685 128.380135 
L 566.552248 127.752534 
L 567.06681 127.383358 
L 568.095935 127.088016 
L 568.610497 126.681922 
L 571.697871 125.537474 
L 572.212434 125.205215 
L 573.241558 124.909874 
L 573.756121 124.577615 
L 576.328933 123.765426 
L 577.87262 122.879402 
L 578.387182 122.768649 
L 580.959994 121.402696 
L 582.503681 120.70126 
L 583.018243 120.332083 
L 584.047368 119.999824 
L 585.076493 119.409142 
L 585.591055 119.224553 
L 586.105617 118.855377 
L 592.794928 116.529563 
L 593.309491 116.41881 
L 593.824053 116.086551 
L 595.882302 115.680457 
L 596.911427 115.274363 
L 597.425989 114.979021 
L 597.940552 114.831351 
L 599.998801 113.760738 
L 600.513364 113.686903 
L 602.057051 112.837797 
L 605.144425 111.619514 
L 607.202674 110.807325 
L 607.717237 110.659654 
L 608.231799 110.327395 
L 609.260924 110.179725 
L 609.775486 109.847466 
L 610.804611 109.662877 
L 611.833735 109.182948 
L 612.348298 108.961442 
L 612.86286 108.887606 
L 615.435672 107.890829 
L 616.979359 107.484735 
L 618.008484 107.226311 
L 619.552171 106.783299 
L 620.581296 106.377205 
L 622.639545 105.269675 
L 623.66867 104.86358 
L 624.183232 104.531321 
L 625.212357 104.309815 
L 625.726919 104.014474 
L 626.241482 103.903721 
L 627.785169 103.054615 
L 628.814293 102.64852 
L 630.35798 101.947085 
L 631.901668 101.54099 
L 634.989042 100.322707 
L 637.047291 99.621272 
L 638.590978 99.067507 
L 639.105541 98.882918 
L 640.134665 98.329153 
L 642.192915 97.406212 
L 647.338538 95.449575 
L 647.853101 95.080398 
L 649.91135 94.378963 
L 650.425913 94.378963 
L 651.455037 93.935951 
L 652.484162 93.013009 
L 652.998724 92.569997 
L 654.542411 91.831644 
L 655.056974 91.720891 
L 655.571536 91.462467 
L 656.086099 91.388632 
L 656.600661 91.019455 
L 657.115223 90.908702 
L 658.144348 90.281102 
L 659.688035 89.505831 
L 660.71716 89.099736 
L 661.231722 88.841313 
L 663.804534 88.213712 
L 664.319096 87.955289 
L 665.862783 87.512277 
L 667.921033 86.5155 
L 668.950158 86.03557 
L 669.979282 85.777146 
L 672.037532 84.854205 
L 672.552094 84.706534 
L 673.066656 84.374275 
L 676.154031 83.266745 
L 677.697718 82.343803 
L 678.21228 82.23305 
L 679.241405 81.716203 
L 680.270529 81.347026 
L 680.785092 80.904014 
L 681.814217 80.49792 
L 683.357904 79.870319 
L 683.872466 79.464225 
L 684.387028 79.427307 
L 685.416153 79.131966 
L 686.445278 78.799707 
L 686.95984 78.541283 
L 687.474403 78.467448 
L 689.01809 77.913683 
L 690.561777 77.359918 
L 691.590901 76.953824 
L 692.105464 76.547729 
L 693.649151 76.141635 
L 694.163713 75.846294 
L 695.192838 75.58787 
L 696.736525 74.738764 
L 697.251087 74.701846 
L 698.794774 74.221916 
L 699.823899 74.111163 
L 700.853024 73.705069 
L 703.940398 72.819045 
L 704.969523 72.782127 
L 708.056897 71.78535 
L 708.571459 71.711515 
L 710.115146 70.899326 
L 710.629709 70.456314 
L 712.173396 69.57029 
L 712.687958 69.164196 
L 713.717083 68.758101 
L 715.26077 68.315089 
L 715.775332 68.019748 
L 716.289895 67.908995 
L 716.804457 67.502901 
L 719.891831 66.2477 
L 721.950081 65.693935 
L 722.979205 65.250923 
L 724.00833 64.844829 
L 725.552017 64.217228 
L 726.581142 63.884969 
L 728.124829 63.294287 
L 729.153954 62.629769 
L 730.697641 62.223674 
L 732.241328 61.189979 
L 732.75589 61.116144 
L 735.328702 60.082449 
L 736.872389 59.713273 
L 737.386952 59.639437 
L 737.901514 59.417931 
L 738.416076 59.381014 
L 739.445201 59.011837 
L 739.959763 58.974919 
L 741.50345 58.384237 
L 743.5617 57.793554 
L 744.590825 56.981365 
L 746.649074 55.8 
L 747.163636 55.8 
L 747.163636 55.8 
" clip-path="url(#p0291ef7e5f)" style="fill: none; stroke: #1f77b4; stroke-width: 1.5; stroke-linecap: square"/>
   </g>
   <g id="line2d_40">
    <path d="M 138.950926 307.8 
L 143.581987 307.689247 
L 147.698486 307.504659 
L 149.756736 307.504659 
L 150.271298 307.356988 
L 152.84411 307.246235 
L 155.931484 306.913976 
L 159.018858 306.803223 
L 160.047983 306.69247 
L 163.649919 306.544799 
L 167.251856 306.434046 
L 169.824668 306.360211 
L 176.513978 306.249458 
L 179.08679 306.175623 
L 182.688727 306.06487 
L 185.261538 305.991034 
L 190.921724 305.880281 
L 192.979974 305.695693 
L 195.038223 305.658775 
L 198.125597 305.548022 
L 200.183847 305.511105 
L 202.756659 305.437269 
L 204.814908 305.252681 
L 209.445969 305.141928 
L 210.475094 305.068093 
L 212.533344 304.95734 
L 215.620718 304.846587 
L 217.678967 304.735834 
L 226.94109 304.182069 
L 230.543026 304.071316 
L 232.086713 303.923645 
L 234.659525 303.812892 
L 239.805149 303.554468 
L 244.950772 303.480633 
L 247.009022 303.259127 
L 249.067271 303.148374 
L 254.727457 302.631527 
L 258.329394 302.225432 
L 259.873081 302.151597 
L 264.504142 301.597832 
L 267.076954 301.523996 
L 268.620641 301.376326 
L 270.164328 301.265573 
L 275.309952 300.785643 
L 276.853639 300.637972 
L 279.941013 300.527219 
L 284.572074 300.158043 
L 285.601199 299.973454 
L 288.688573 299.862701 
L 296.921571 299.382772 
L 300.523507 299.272019 
L 302.581757 299.050513 
L 305.154569 298.93976 
L 308.241943 298.829007 
L 310.814754 298.718254 
L 312.873004 298.681336 
L 315.445816 298.607501 
L 316.47494 298.45983 
L 323.678813 298.349077 
L 324.707938 298.238324 
L 330.882687 298.127571 
L 335.513748 297.906065 
L 339.115684 297.795312 
L 341.173934 297.573806 
L 344.77587 297.463053 
L 345.804995 297.278465 
L 348.377807 297.204629 
L 353.52343 297.130794 
L 356.096242 296.87237 
L 359.183616 296.761617 
L 361.241866 296.577029 
L 366.387489 296.318605 
L 371.533113 296.207852 
L 376.164174 295.986346 
L 377.707861 295.949429 
L 378.736986 295.801758 
L 381.309798 295.691005 
L 382.338923 295.61717 
L 383.368047 295.543334 
L 384.397172 295.469499 
L 389.028233 295.395664 
L 390.57192 295.284911 
L 404.465104 294.398887 
L 407.037916 294.288134 
L 409.610728 294.214298 
L 416.814601 294.103545 
L 417.843726 293.955875 
L 425.047599 293.845122 
L 430.193222 293.586698 
L 431.222347 293.54978 
L 432.251472 293.439027 
L 434.824283 293.328274 
L 437.397095 293.254439 
L 439.969907 293.143686 
L 442.542719 293.069851 
L 447.17378 292.959098 
L 450.261154 292.848345 
L 457.465027 292.737592 
L 463.125213 292.44225 
L 465.183463 292.368415 
L 466.72715 292.257662 
L 473.931023 292.146909 
L 477.018397 292.036156 
L 486.280519 291.925403 
L 488.338769 291.888485 
L 494.513517 291.81465 
L 495.542642 291.740815 
L 502.746515 291.630062 
L 504.804764 291.593144 
L 518.183386 291.482391 
L 519.727073 291.33472 
L 542.882379 291.223967 
L 545.455191 291.150132 
L 558.833812 291.039379 
L 559.862937 290.965544 
L 562.435749 290.891708 
L 563.979436 290.744038 
L 567.06681 290.633285 
L 570.668747 290.485614 
L 575.299808 290.374861 
L 577.87262 290.301025 
L 581.474556 290.190272 
L 585.591055 290.005684 
L 588.163867 289.894931 
L 591.251241 289.784178 
L 598.969676 289.673425 
L 602.057051 289.562672 
L 607.717237 289.451919 
L 611.319173 289.304248 
L 614.92111 289.230413 
L 615.950234 289.156578 
L 628.299731 289.045825 
L 634.989042 288.676648 
L 637.561854 288.602813 
L 638.590978 288.49206 
L 639.620103 288.418224 
L 643.736602 288.307471 
L 646.823976 288.196718 
L 651.9696 288.085965 
L 654.542411 287.827542 
L 659.688035 287.716789 
L 660.71716 287.606036 
L 665.862783 287.495283 
L 668.435595 287.421447 
L 674.095781 287.38453 
L 675.124906 287.273777 
L 680.785092 287.163024 
L 681.814217 287.089188 
L 693.134588 286.978435 
L 696.221963 286.867682 
L 703.940398 286.756929 
L 705.998648 286.720012 
L 710.629709 286.646176 
L 711.658833 286.535423 
L 717.833582 286.42467 
L 720.920956 286.313917 
L 730.183078 286.203164 
L 731.726766 286.092411 
L 733.270453 285.981658 
L 734.81414 285.870905 
L 742.532575 285.760152 
L 746.134512 285.612482 
L 747.163636 285.612482 
L 747.163636 285.612482 
" clip-path="url(#p0291ef7e5f)" style="fill: none; stroke: #ff7f0e; stroke-width: 1.5; stroke-linecap: square"/>
   </g>
   <g id="patch_3">
    <path d="M 108 320.4 
L 108 43.2 
" style="fill: none; stroke: #a9a9a9; stroke-width: 0.8; stroke-linejoin: miter; stroke-linecap: square"/>
   </g>
   <g id="patch_4">
    <path d="M 777.6 320.4 
L 777.6 43.2 
" style="fill: none"/>
   </g>
   <g id="patch_5">
    <path d="M 108 320.4 
L 777.6 320.4 
" style="fill: none; stroke: #a9a9a9; stroke-width: 0.8; stroke-linejoin: miter; stroke-linecap: square"/>
   </g>
   <g id="patch_6">
    <path d="M 108 43.2 
L 777.6 43.2 
" style="fill: none"/>
   </g>
   <g id="text_20">
    <!-- get_subscribe history -->
    <g style="fill: #a9a9a9" transform="translate(378.6075 37.2) scale(0.12 -0.12)">
     <defs>
      <path id="DejaVuSans-67" d="M 2906 1791 
Q 2906 2416 2648 2759 
Q 2391 3103 1925 3103 
Q 1463 3103 1205 2759 
Q 947 2416 947 1791 
Q 947 1169 1205 825 
Q 1463 481 1925 481 
Q 2391 481 2648 825 
Q 2906 1169 2906 1791 
z
M 3481 434 
Q 3481 -459 3084 -895 
Q 2688 -1331 1869 -1331 
Q 1566 -1331 1297 -1286 
Q 1028 -1241 775 -1147 
L 775 -588 
Q 1028 -725 1275 -790 
Q 1522 -856 1778 -856 
Q 2344 -856 2625 -561 
Q 2906 -266 2906 331 
L 2906 616 
Q 2728 306 2450 153 
Q 2172 0 1784 0 
Q 1141 0 747 490 
Q 353 981 353 1791 
Q 353 2603 747 3093 
Q 1141 3584 1784 3584 
Q 2172 3584 2450 3431 
Q 2728 3278 2906 2969 
L 2906 3500 
L 3481 3500 
L 3481 434 
z
" transform="scale(0.015625)"/>
      <path id="DejaVuSans-65" d="M 3597 1894 
L 3597 1613 
L 953 1613 
Q 991 1019 1311 708 
Q 1631 397 2203 397 
Q 2534 397 2845 478 
Q 3156 559 3463 722 
L 3463 178 
Q 3153 47 2828 -22 
Q 2503 -91 2169 -91 
Q 1331 -91 842 396 
Q 353 884 353 1716 
Q 353 2575 817 3079 
Q 1281 3584 2069 3584 
Q 2775 3584 3186 3129 
Q 3597 2675 3597 1894 
z
M 3022 2063 
Q 3016 2534 2758 2815 
Q 2500 3097 2075 3097 
Q 1594 3097 1305 2825 
Q 1016 2553 972 2059 
L 3022 2063 
z
" transform="scale(0.015625)"/>
      <path id="DejaVuSans-74" d="M 1172 4494 
L 1172 3500 
L 2356 3500 
L 2356 3053 
L 1172 3053 
L 1172 1153 
Q 1172 725 1289 603 
Q 1406 481 1766 481 
L 2356 481 
L 2356 0 
L 1766 0 
Q 1100 0 847 248 
Q 594 497 594 1153 
L 594 3053 
L 172 3053 
L 172 3500 
L 594 3500 
L 594 4494 
L 1172 4494 
z
" transform="scale(0.015625)"/>
      <path id="DejaVuSans-5f" d="M 3263 -1063 
L 3263 -1509 
L -63 -1509 
L -63 -1063 
L 3263 -1063 
z
" transform="scale(0.015625)"/>
      <path id="DejaVuSans-73" d="M 2834 3397 
L 2834 2853 
Q 2591 2978 2328 3040 
Q 2066 3103 1784 3103 
Q 1356 3103 1142 2972 
Q 928 2841 928 2578 
Q 928 2378 1081 2264 
Q 1234 2150 1697 2047 
L 1894 2003 
Q 2506 1872 2764 1633 
Q 3022 1394 3022 966 
Q 3022 478 2636 193 
Q 2250 -91 1575 -91 
Q 1294 -91 989 -36 
Q 684 19 347 128 
L 347 722 
Q 666 556 975 473 
Q 1284 391 1588 391 
Q 1994 391 2212 530 
Q 2431 669 2431 922 
Q 2431 1156 2273 1281 
Q 2116 1406 1581 1522 
L 1381 1569 
Q 847 1681 609 1914 
Q 372 2147 372 2553 
Q 372 3047 722 3315 
Q 1072 3584 1716 3584 
Q 2034 3584 2315 3537 
Q 2597 3491 2834 3397 
z
" transform="scale(0.015625)"/>
      <path id="DejaVuSans-75" d="M 544 1381 
L 544 3500 
L 1119 3500 
L 1119 1403 
Q 1119 906 1312 657 
Q 1506 409 1894 409 
Q 2359 409 2629 706 
Q 2900 1003 2900 1516 
L 2900 3500 
L 3475 3500 
L 3475 0 
L 2900 0 
L 2900 538 
Q 2691 219 2414 64 
Q 2138 -91 1772 -91 
Q 1169 -91 856 284 
Q 544 659 544 1381 
z
M 1991 3584 
L 1991 3584 
z
" transform="scale(0.015625)"/>
      <path id="DejaVuSans-62" d="M 3116 1747 
Q 3116 2381 2855 2742 
Q 2594 3103 2138 3103 
Q 1681 3103 1420 2742 
Q 1159 2381 1159 1747 
Q 1159 1113 1420 752 
Q 1681 391 2138 391 
Q 2594 391 2855 752 
Q 3116 1113 3116 1747 
z
M 1159 2969 
Q 1341 3281 1617 3432 
Q 1894 3584 2278 3584 
Q 2916 3584 3314 3078 
Q 3713 2572 3713 1747 
Q 3713 922 3314 415 
Q 2916 -91 2278 -91 
Q 1894 -91 1617 61 
Q 1341 213 1159 525 
L 1159 0 
L 581 0 
L 581 4863 
L 1159 4863 
L 1159 2969 
z
" transform="scale(0.015625)"/>
      <path id="DejaVuSans-63" d="M 3122 3366 
L 3122 2828 
Q 2878 2963 2633 3030 
Q 2388 3097 2138 3097 
Q 1578 3097 1268 2742 
Q 959 2388 959 1747 
Q 959 1106 1268 751 
Q 1578 397 2138 397 
Q 2388 397 2633 464 
Q 2878 531 3122 666 
L 3122 134 
Q 2881 22 2623 -34 
Q 2366 -91 2075 -91 
Q 1284 -91 818 406 
Q 353 903 353 1747 
Q 353 2603 823 3093 
Q 1294 3584 2113 3584 
Q 2378 3584 2631 3529 
Q 2884 3475 3122 3366 
z
" transform="scale(0.015625)"/>
      <path id="DejaVuSans-72" d="M 2631 2963 
Q 2534 3019 2420 3045 
Q 2306 3072 2169 3072 
Q 1681 3072 1420 2755 
Q 1159 2438 1159 1844 
L 1159 0 
L 581 0 
L 581 3500 
L 1159 3500 
L 1159 2956 
Q 1341 3275 1631 3429 
Q 1922 3584 2338 3584 
Q 2397 3584 2469 3576 
Q 2541 3569 2628 3553 
L 2631 2963 
z
" transform="scale(0.015625)"/>
      <path id="DejaVuSans-69" d="M 603 3500 
L 1178 3500 
L 1178 0 
L 603 0 
L 603 3500 
z
M 603 4863 
L 1178 4863 
L 1178 4134 
L 603 4134 
L 603 4863 
z
" transform="scale(0.015625)"/>
      <path id="DejaVuSans-20" transform="scale(0.015625)"/>
      <path id="DejaVuSans-68" d="M 3513 2113 
L 3513 0 
L 2938 0 
L 2938 2094 
Q 2938 2591 2744 2837 
Q 2550 3084 2163 3084 
Q 1697 3084 1428 2787 
Q 1159 2491 1159 1978 
L 1159 0 
L 581 0 
L 581 4863 
L 1159 4863 
L 1159 2956 
Q 1366 3272 1645 3428 
Q 1925 3584 2291 3584 
Q 2894 3584 3203 3211 
Q 3513 2838 3513 2113 
z
" transform="scale(0.015625)"/>
      <path id="DejaVuSans-6f" d="M 1959 3097 
Q 1497 3097 1228 2736 
Q 959 2375 959 1747 
Q 959 1119 1226 758 
Q 1494 397 1959 397 
Q 2419 397 2687 759 
Q 2956 1122 2956 1747 
Q 2956 2369 2687 2733 
Q 2419 3097 1959 3097 
z
M 1959 3584 
Q 2709 3584 3137 3096 
Q 3566 2609 3566 1747 
Q 3566 888 3137 398 
Q 2709 -91 1959 -91 
Q 1206 -91 779 398 
Q 353 888 353 1747 
Q 353 2609 779 3096 
Q 1206 3584 1959 3584 
z
" transform="scale(0.015625)"/>
      <path id="DejaVuSans-79" d="M 2059 -325 
Q 1816 -950 1584 -1140 
Q 1353 -1331 966 -1331 
L 506 -1331 
L 506 -850 
L 844 -850 
Q 1081 -850 1212 -737 
Q 1344 -625 1503 -206 
L 1606 56 
L 191 3500 
L 800 3500 
L 1894 763 
L 2988 3500 
L 3597 3500 
L 2059 -325 
z
" transform="scale(0.015625)"/>
     </defs>
     <use xlink:href="#DejaVuSans-67"/>
     <use xlink:href="#DejaVuSans-65" x="63.476562"/>
     <use xlink:href="#DejaVuSans-74" x="125"/>
     <use xlink:href="#DejaVuSans-5f" x="164.208984"/>
     <use xlink:href="#DejaVuSans-73" x="214.208984"/>
     <use xlink:href="#DejaVuSans-75" x="266.308594"/>
     <use xlink:href="#DejaVuSans-62" x="329.6875"/>
     <use xlink:href="#DejaVuSans-73" x="393.164062"/>
     <use xlink:href="#DejaVuSans-63" x="445.263672"/>
     <use xlink:href="#DejaVuSans-72" x="500.244141"/>
     <use xlink:href="#DejaVuSans-69" x="541.357422"/>
     <use xlink:href="#DejaVuSans-62" x="569.140625"/>
     <use xlink:href="#DejaVuSans-65" x="632.617188"/>
     <use xlink:href="#DejaVuSans-20" x="694.140625"/>
     <use xlink:href="#DejaVuSans-68" x="725.927734"/>
     <use xlink:href="#DejaVuSans-69" x="789.306641"/>
     <use xlink:href="#DejaVuSans-73" x="817.089844"/>
     <use xlink:href="#DejaVuSans-74" x="869.189453"/>
     <use xlink:href="#DejaVuSans-6f" x="908.398438"/>
     <use xlink:href="#DejaVuSans-72" x="969.580078"/>
     <use xlink:href="#DejaVuSans-79" x="1010.693359"/>
    </g>
   </g>
   <g id="legend_1">
    <g id="line2d_41">
     <path d="M 815.08 328.498438 
L 825.08 328.498438 
L 835.08 328.498438 
" style="fill: none; stroke: #1f77b4; stroke-width: 1.5; stroke-linecap: square"/>
    </g>
    <g id="text_21">
     <!-- star -->
     <g style="fill: #a9a9a9" transform="translate(843.08 331.998438) scale(0.1 -0.1)">
      <defs>
       <path id="DejaVuSans-61" d="M 2194 1759 
Q 1497 1759 1228 1600 
Q 959 1441 959 1056 
Q 959 750 1161 570 
Q 1363 391 1709 391 
Q 2188 391 2477 730 
Q 2766 1069 2766 1631 
L 2766 1759 
L 2194 1759 
z
M 3341 1997 
L 3341 0 
L 2766 0 
L 2766 531 
Q 2569 213 2275 61 
Q 1981 -91 1556 -91 
Q 1019 -91 701 211 
Q 384 513 384 1019 
Q 384 1609 779 1909 
Q 1175 2209 1959 2209 
L 2766 2209 
L 2766 2266 
Q 2766 2663 2505 2880 
Q 2244 3097 1772 3097 
Q 1472 3097 1187 3025 
Q 903 2953 641 2809 
L 641 3341 
Q 956 3463 1253 3523 
Q 1550 3584 1831 3584 
Q 2591 3584 2966 3190 
Q 3341 2797 3341 1997 
z
" transform="scale(0.015625)"/>
      </defs>
      <use xlink:href="#DejaVuSans-73"/>
      <use xlink:href="#DejaVuSans-74" x="52.099609"/>
      <use xlink:href="#DejaVuSans-61" x="91.308594"/>
      <use xlink:href="#DejaVuSans-72" x="152.587891"/>
     </g>
    </g>
    <g id="line2d_42">
     <path d="M 815.08 343.176562 
L 825.08 343.176562 
L 835.08 343.176562 
" style="fill: none; stroke: #ff7f0e; stroke-width: 1.5; stroke-linecap: square"/>
    </g>
    <g id="text_22">
     <!-- fork -->
     <g style="fill: #a9a9a9" transform="translate(843.08 346.676562) scale(0.1 -0.1)">
      <defs>
       <path id="DejaVuSans-66" d="M 2375 4863 
L 2375 4384 
L 1825 4384 
Q 1516 4384 1395 4259 
Q 1275 4134 1275 3809 
L 1275 3500 
L 2222 3500 
L 2222 3053 
L 1275 3053 
L 1275 0 
L 697 0 
L 697 3053 
L 147 3053 
L 147 3500 
L 697 3500 
L 697 3744 
Q 697 4328 969 4595 
Q 1241 4863 1831 4863 
L 2375 4863 
z
" transform="scale(0.015625)"/>
       <path id="DejaVuSans-6b" d="M 581 4863 
L 1159 4863 
L 1159 1991 
L 2875 3500 
L 3609 3500 
L 1753 1863 
L 3688 0 
L 2938 0 
L 1159 1709 
L 1159 0 
L 581 0 
L 581 4863 
z
" transform="scale(0.015625)"/>
      </defs>
      <use xlink:href="#DejaVuSans-66"/>
      <use xlink:href="#DejaVuSans-6f" x="35.205078"/>
      <use xlink:href="#DejaVuSans-72" x="96.386719"/>
      <use xlink:href="#DejaVuSans-6b" x="137.5"/>
     </g>
    </g>
   </g>
  </g>
 </g>
 <defs>
  <clipPath id="p0291ef7e5f">
   <rect x="108" y="43.2" width="669.6" height="277.2"/>
  </clipPath>
 </defs>
</svg>
