<?xml version="1.0" encoding="utf-8" standalone="no"?>
<!DOCTYPE svg PUBLIC "-//W3C//DTD SVG 1.1//EN"
  "http://www.w3.org/Graphics/SVG/1.1/DTD/svg11.dtd">
<svg xmlns:xlink="http://www.w3.org/1999/xlink" width="864pt" height="360pt" viewBox="0 0 864 360" xmlns="http://www.w3.org/2000/svg" version="1.1">
 <metadata>
  <rdf:RDF xmlns:dc="http://purl.org/dc/elements/1.1/" xmlns:cc="http://creativecommons.org/ns#" xmlns:rdf="http://www.w3.org/1999/02/22-rdf-syntax-ns#">
   <cc:Work>
    <dc:type rdf:resource="http://purl.org/dc/dcmitype/StillImage"/>
    <dc:date>2024-10-18T08:13:15.136072</dc:date>
    <dc:format>image/svg+xml</dc:format>
    <dc:creator>
     <cc:Agent>
      <dc:title>Matplotlib v3.9.2, https://matplotlib.org/</dc:title>
     </cc:Agent>
    </dc:creator>
   </cc:Work>
  </rdf:RDF>
 </metadata>
 <defs>
  <style type="text/css">*{stroke-linejoin: round; stroke-linecap: butt}</style>
 </defs>
 <g id="figure_1">
  <g id="patch_1">
   <path d="M 0 360 
L 864 360 
L 864 0 
L 0 0 
L 0 360 
z
" style="fill: none; opacity: 0"/>
  </g>
  <g id="axes_1">
   <g id="patch_2">
    <path d="M 108 320.4 
L 777.6 320.4 
L 777.6 43.2 
L 108 43.2 
L 108 320.4 
z
" style="fill: none; opacity: 0"/>
   </g>
   <g id="matplotlib.axis_1">
    <g id="xtick_1">
     <g id="line2d_1">
      <path d="M 158.521274 320.4 
L 158.521274 43.2 
" clip-path="url(#pa2315a0ff4)" style="fill: none; stroke-dasharray: 5.12,1.28,0.8,1.28; stroke-dashoffset: 0; stroke: #b0b0b0; stroke-width: 0.8"/>
     </g>
     <g id="line2d_2">
      <defs>
       <path id="mcc4ecb7cce" d="M 0 0 
L 0 3.5 
" style="stroke: #a9a9a9; stroke-width: 0.8"/>
      </defs>
      <g>
       <use xlink:href="#mcc4ecb7cce" x="158.521274" y="320.4" style="fill: #a9a9a9; stroke: #a9a9a9; stroke-width: 0.8"/>
      </g>
     </g>
     <g id="text_1">
      <!-- 2021-09 -->
      <g style="fill: #a9a9a9" transform="translate(137.629867 334.998438) scale(0.1 -0.1)">
       <defs>
        <path id="DejaVuSans-32" d="M 1228 531 
L 3431 531 
L 3431 0 
L 469 0 
L 469 531 
Q 828 903 1448 1529 
Q 2069 2156 2228 2338 
Q 2531 2678 2651 2914 
Q 2772 3150 2772 3378 
Q 2772 3750 2511 3984 
Q 2250 4219 1831 4219 
Q 1534 4219 1204 4116 
Q 875 4013 500 3803 
L 500 4441 
Q 881 4594 1212 4672 
Q 1544 4750 1819 4750 
Q 2544 4750 2975 4387 
Q 3406 4025 3406 3419 
Q 3406 3131 3298 2873 
Q 3191 2616 2906 2266 
Q 2828 2175 2409 1742 
Q 1991 1309 1228 531 
z
" transform="scale(0.015625)"/>
        <path id="DejaVuSans-30" d="M 2034 4250 
Q 1547 4250 1301 3770 
Q 1056 3291 1056 2328 
Q 1056 1369 1301 889 
Q 1547 409 2034 409 
Q 2525 409 2770 889 
Q 3016 1369 3016 2328 
Q 3016 3291 2770 3770 
Q 2525 4250 2034 4250 
z
M 2034 4750 
Q 2819 4750 3233 4129 
Q 3647 3509 3647 2328 
Q 3647 1150 3233 529 
Q 2819 -91 2034 -91 
Q 1250 -91 836 529 
Q 422 1150 422 2328 
Q 422 3509 836 4129 
Q 1250 4750 2034 4750 
z
" transform="scale(0.015625)"/>
        <path id="DejaVuSans-31" d="M 794 531 
L 1825 531 
L 1825 4091 
L 703 3866 
L 703 4441 
L 1819 4666 
L 2450 4666 
L 2450 531 
L 3481 531 
L 3481 0 
L 794 0 
L 794 531 
z
" transform="scale(0.015625)"/>
        <path id="DejaVuSans-2d" d="M 313 2009 
L 1997 2009 
L 1997 1497 
L 313 1497 
L 313 2009 
z
" transform="scale(0.015625)"/>
        <path id="DejaVuSans-39" d="M 703 97 
L 703 672 
Q 941 559 1184 500 
Q 1428 441 1663 441 
Q 2288 441 2617 861 
Q 2947 1281 2994 2138 
Q 2813 1869 2534 1725 
Q 2256 1581 1919 1581 
Q 1219 1581 811 2004 
Q 403 2428 403 3163 
Q 403 3881 828 4315 
Q 1253 4750 1959 4750 
Q 2769 4750 3195 4129 
Q 3622 3509 3622 2328 
Q 3622 1225 3098 567 
Q 2575 -91 1691 -91 
Q 1453 -91 1209 -44 
Q 966 3 703 97 
z
M 1959 2075 
Q 2384 2075 2632 2365 
Q 2881 2656 2881 3163 
Q 2881 3666 2632 3958 
Q 2384 4250 1959 4250 
Q 1534 4250 1286 3958 
Q 1038 3666 1038 3163 
Q 1038 2656 1286 2365 
Q 1534 2075 1959 2075 
z
" transform="scale(0.015625)"/>
       </defs>
       <use xlink:href="#DejaVuSans-32"/>
       <use xlink:href="#DejaVuSans-30" x="63.623047"/>
       <use xlink:href="#DejaVuSans-32" x="127.246094"/>
       <use xlink:href="#DejaVuSans-31" x="190.869141"/>
       <use xlink:href="#DejaVuSans-2d" x="254.492188"/>
       <use xlink:href="#DejaVuSans-30" x="290.576172"/>
       <use xlink:href="#DejaVuSans-39" x="354.199219"/>
      </g>
     </g>
    </g>
    <g id="xtick_2">
     <g id="line2d_3">
      <path d="M 221.350992 320.4 
L 221.350992 43.2 
" clip-path="url(#pa2315a0ff4)" style="fill: none; stroke-dasharray: 5.12,1.28,0.8,1.28; stroke-dashoffset: 0; stroke: #b0b0b0; stroke-width: 0.8"/>
     </g>
     <g id="line2d_4">
      <g>
       <use xlink:href="#mcc4ecb7cce" x="221.350992" y="320.4" style="fill: #a9a9a9; stroke: #a9a9a9; stroke-width: 0.8"/>
      </g>
     </g>
     <g id="text_2">
      <!-- 2022-01 -->
      <g style="fill: #a9a9a9" transform="translate(200.459586 334.998438) scale(0.1 -0.1)">
       <use xlink:href="#DejaVuSans-32"/>
       <use xlink:href="#DejaVuSans-30" x="63.623047"/>
       <use xlink:href="#DejaVuSans-32" x="127.246094"/>
       <use xlink:href="#DejaVuSans-32" x="190.869141"/>
       <use xlink:href="#DejaVuSans-2d" x="254.492188"/>
       <use xlink:href="#DejaVuSans-30" x="290.576172"/>
       <use xlink:href="#DejaVuSans-31" x="354.199219"/>
      </g>
     </g>
    </g>
    <g id="xtick_3">
     <g id="line2d_5">
      <path d="M 283.150715 320.4 
L 283.150715 43.2 
" clip-path="url(#pa2315a0ff4)" style="fill: none; stroke-dasharray: 5.12,1.28,0.8,1.28; stroke-dashoffset: 0; stroke: #b0b0b0; stroke-width: 0.8"/>
     </g>
     <g id="line2d_6">
      <g>
       <use xlink:href="#mcc4ecb7cce" x="283.150715" y="320.4" style="fill: #a9a9a9; stroke: #a9a9a9; stroke-width: 0.8"/>
      </g>
     </g>
     <g id="text_3">
      <!-- 2022-05 -->
      <g style="fill: #a9a9a9" transform="translate(262.259309 334.998438) scale(0.1 -0.1)">
       <defs>
        <path id="DejaVuSans-35" d="M 691 4666 
L 3169 4666 
L 3169 4134 
L 1269 4134 
L 1269 2991 
Q 1406 3038 1543 3061 
Q 1681 3084 1819 3084 
Q 2600 3084 3056 2656 
Q 3513 2228 3513 1497 
Q 3513 744 3044 326 
Q 2575 -91 1722 -91 
Q 1428 -91 1123 -41 
Q 819 9 494 109 
L 494 744 
Q 775 591 1075 516 
Q 1375 441 1709 441 
Q 2250 441 2565 725 
Q 2881 1009 2881 1497 
Q 2881 1984 2565 2268 
Q 2250 2553 1709 2553 
Q 1456 2553 1204 2497 
Q 953 2441 691 2322 
L 691 4666 
z
" transform="scale(0.015625)"/>
       </defs>
       <use xlink:href="#DejaVuSans-32"/>
       <use xlink:href="#DejaVuSans-30" x="63.623047"/>
       <use xlink:href="#DejaVuSans-32" x="127.246094"/>
       <use xlink:href="#DejaVuSans-32" x="190.869141"/>
       <use xlink:href="#DejaVuSans-2d" x="254.492188"/>
       <use xlink:href="#DejaVuSans-30" x="290.576172"/>
       <use xlink:href="#DejaVuSans-35" x="354.199219"/>
      </g>
     </g>
    </g>
    <g id="xtick_4">
     <g id="line2d_7">
      <path d="M 346.495431 320.4 
L 346.495431 43.2 
" clip-path="url(#pa2315a0ff4)" style="fill: none; stroke-dasharray: 5.12,1.28,0.8,1.28; stroke-dashoffset: 0; stroke: #b0b0b0; stroke-width: 0.8"/>
     </g>
     <g id="line2d_8">
      <g>
       <use xlink:href="#mcc4ecb7cce" x="346.495431" y="320.4" style="fill: #a9a9a9; stroke: #a9a9a9; stroke-width: 0.8"/>
      </g>
     </g>
     <g id="text_4">
      <!-- 2022-09 -->
      <g style="fill: #a9a9a9" transform="translate(325.604025 334.998438) scale(0.1 -0.1)">
       <use xlink:href="#DejaVuSans-32"/>
       <use xlink:href="#DejaVuSans-30" x="63.623047"/>
       <use xlink:href="#DejaVuSans-32" x="127.246094"/>
       <use xlink:href="#DejaVuSans-32" x="190.869141"/>
       <use xlink:href="#DejaVuSans-2d" x="254.492188"/>
       <use xlink:href="#DejaVuSans-30" x="290.576172"/>
       <use xlink:href="#DejaVuSans-39" x="354.199219"/>
      </g>
     </g>
    </g>
    <g id="xtick_5">
     <g id="line2d_9">
      <path d="M 409.32515 320.4 
L 409.32515 43.2 
" clip-path="url(#pa2315a0ff4)" style="fill: none; stroke-dasharray: 5.12,1.28,0.8,1.28; stroke-dashoffset: 0; stroke: #b0b0b0; stroke-width: 0.8"/>
     </g>
     <g id="line2d_10">
      <g>
       <use xlink:href="#mcc4ecb7cce" x="409.32515" y="320.4" style="fill: #a9a9a9; stroke: #a9a9a9; stroke-width: 0.8"/>
      </g>
     </g>
     <g id="text_5">
      <!-- 2023-01 -->
      <g style="fill: #a9a9a9" transform="translate(388.433744 334.998438) scale(0.1 -0.1)">
       <defs>
        <path id="DejaVuSans-33" d="M 2597 2516 
Q 3050 2419 3304 2112 
Q 3559 1806 3559 1356 
Q 3559 666 3084 287 
Q 2609 -91 1734 -91 
Q 1441 -91 1130 -33 
Q 819 25 488 141 
L 488 750 
Q 750 597 1062 519 
Q 1375 441 1716 441 
Q 2309 441 2620 675 
Q 2931 909 2931 1356 
Q 2931 1769 2642 2001 
Q 2353 2234 1838 2234 
L 1294 2234 
L 1294 2753 
L 1863 2753 
Q 2328 2753 2575 2939 
Q 2822 3125 2822 3475 
Q 2822 3834 2567 4026 
Q 2313 4219 1838 4219 
Q 1578 4219 1281 4162 
Q 984 4106 628 3988 
L 628 4550 
Q 988 4650 1302 4700 
Q 1616 4750 1894 4750 
Q 2613 4750 3031 4423 
Q 3450 4097 3450 3541 
Q 3450 3153 3228 2886 
Q 3006 2619 2597 2516 
z
" transform="scale(0.015625)"/>
       </defs>
       <use xlink:href="#DejaVuSans-32"/>
       <use xlink:href="#DejaVuSans-30" x="63.623047"/>
       <use xlink:href="#DejaVuSans-32" x="127.246094"/>
       <use xlink:href="#DejaVuSans-33" x="190.869141"/>
       <use xlink:href="#DejaVuSans-2d" x="254.492188"/>
       <use xlink:href="#DejaVuSans-30" x="290.576172"/>
       <use xlink:href="#DejaVuSans-31" x="354.199219"/>
      </g>
     </g>
    </g>
    <g id="xtick_6">
     <g id="line2d_11">
      <path d="M 471.124873 320.4 
L 471.124873 43.2 
" clip-path="url(#pa2315a0ff4)" style="fill: none; stroke-dasharray: 5.12,1.28,0.8,1.28; stroke-dashoffset: 0; stroke: #b0b0b0; stroke-width: 0.8"/>
     </g>
     <g id="line2d_12">
      <g>
       <use xlink:href="#mcc4ecb7cce" x="471.124873" y="320.4" style="fill: #a9a9a9; stroke: #a9a9a9; stroke-width: 0.8"/>
      </g>
     </g>
     <g id="text_6">
      <!-- 2023-05 -->
      <g style="fill: #a9a9a9" transform="translate(450.233467 334.998438) scale(0.1 -0.1)">
       <use xlink:href="#DejaVuSans-32"/>
       <use xlink:href="#DejaVuSans-30" x="63.623047"/>
       <use xlink:href="#DejaVuSans-32" x="127.246094"/>
       <use xlink:href="#DejaVuSans-33" x="190.869141"/>
       <use xlink:href="#DejaVuSans-2d" x="254.492188"/>
       <use xlink:href="#DejaVuSans-30" x="290.576172"/>
       <use xlink:href="#DejaVuSans-35" x="354.199219"/>
      </g>
     </g>
    </g>
    <g id="xtick_7">
     <g id="line2d_13">
      <path d="M 534.469589 320.4 
L 534.469589 43.2 
" clip-path="url(#pa2315a0ff4)" style="fill: none; stroke-dasharray: 5.12,1.28,0.8,1.28; stroke-dashoffset: 0; stroke: #b0b0b0; stroke-width: 0.8"/>
     </g>
     <g id="line2d_14">
      <g>
       <use xlink:href="#mcc4ecb7cce" x="534.469589" y="320.4" style="fill: #a9a9a9; stroke: #a9a9a9; stroke-width: 0.8"/>
      </g>
     </g>
     <g id="text_7">
      <!-- 2023-09 -->
      <g style="fill: #a9a9a9" transform="translate(513.578183 334.998438) scale(0.1 -0.1)">
       <use xlink:href="#DejaVuSans-32"/>
       <use xlink:href="#DejaVuSans-30" x="63.623047"/>
       <use xlink:href="#DejaVuSans-32" x="127.246094"/>
       <use xlink:href="#DejaVuSans-33" x="190.869141"/>
       <use xlink:href="#DejaVuSans-2d" x="254.492188"/>
       <use xlink:href="#DejaVuSans-30" x="290.576172"/>
       <use xlink:href="#DejaVuSans-39" x="354.199219"/>
      </g>
     </g>
    </g>
    <g id="xtick_8">
     <g id="line2d_15">
      <path d="M 597.299308 320.4 
L 597.299308 43.2 
" clip-path="url(#pa2315a0ff4)" style="fill: none; stroke-dasharray: 5.12,1.28,0.8,1.28; stroke-dashoffset: 0; stroke: #b0b0b0; stroke-width: 0.8"/>
     </g>
     <g id="line2d_16">
      <g>
       <use xlink:href="#mcc4ecb7cce" x="597.299308" y="320.4" style="fill: #a9a9a9; stroke: #a9a9a9; stroke-width: 0.8"/>
      </g>
     </g>
     <g id="text_8">
      <!-- 2024-01 -->
      <g style="fill: #a9a9a9" transform="translate(576.407902 334.998438) scale(0.1 -0.1)">
       <defs>
        <path id="DejaVuSans-34" d="M 2419 4116 
L 825 1625 
L 2419 1625 
L 2419 4116 
z
M 2253 4666 
L 3047 4666 
L 3047 1625 
L 3713 1625 
L 3713 1100 
L 3047 1100 
L 3047 0 
L 2419 0 
L 2419 1100 
L 313 1100 
L 313 1709 
L 2253 4666 
z
" transform="scale(0.015625)"/>
       </defs>
       <use xlink:href="#DejaVuSans-32"/>
       <use xlink:href="#DejaVuSans-30" x="63.623047"/>
       <use xlink:href="#DejaVuSans-32" x="127.246094"/>
       <use xlink:href="#DejaVuSans-34" x="190.869141"/>
       <use xlink:href="#DejaVuSans-2d" x="254.492188"/>
       <use xlink:href="#DejaVuSans-30" x="290.576172"/>
       <use xlink:href="#DejaVuSans-31" x="354.199219"/>
      </g>
     </g>
    </g>
    <g id="xtick_9">
     <g id="line2d_17">
      <path d="M 659.614029 320.4 
L 659.614029 43.2 
" clip-path="url(#pa2315a0ff4)" style="fill: none; stroke-dasharray: 5.12,1.28,0.8,1.28; stroke-dashoffset: 0; stroke: #b0b0b0; stroke-width: 0.8"/>
     </g>
     <g id="line2d_18">
      <g>
       <use xlink:href="#mcc4ecb7cce" x="659.614029" y="320.4" style="fill: #a9a9a9; stroke: #a9a9a9; stroke-width: 0.8"/>
      </g>
     </g>
     <g id="text_9">
      <!-- 2024-05 -->
      <g style="fill: #a9a9a9" transform="translate(638.722622 334.998438) scale(0.1 -0.1)">
       <use xlink:href="#DejaVuSans-32"/>
       <use xlink:href="#DejaVuSans-30" x="63.623047"/>
       <use xlink:href="#DejaVuSans-32" x="127.246094"/>
       <use xlink:href="#DejaVuSans-34" x="190.869141"/>
       <use xlink:href="#DejaVuSans-2d" x="254.492188"/>
       <use xlink:href="#DejaVuSans-30" x="290.576172"/>
       <use xlink:href="#DejaVuSans-35" x="354.199219"/>
      </g>
     </g>
    </g>
    <g id="xtick_10">
     <g id="line2d_19">
      <path d="M 722.958745 320.4 
L 722.958745 43.2 
" clip-path="url(#pa2315a0ff4)" style="fill: none; stroke-dasharray: 5.12,1.28,0.8,1.28; stroke-dashoffset: 0; stroke: #b0b0b0; stroke-width: 0.8"/>
     </g>
     <g id="line2d_20">
      <g>
       <use xlink:href="#mcc4ecb7cce" x="722.958745" y="320.4" style="fill: #a9a9a9; stroke: #a9a9a9; stroke-width: 0.8"/>
      </g>
     </g>
     <g id="text_10">
      <!-- 2024-09 -->
      <g style="fill: #a9a9a9" transform="translate(702.067339 334.998438) scale(0.1 -0.1)">
       <use xlink:href="#DejaVuSans-32"/>
       <use xlink:href="#DejaVuSans-30" x="63.623047"/>
       <use xlink:href="#DejaVuSans-32" x="127.246094"/>
       <use xlink:href="#DejaVuSans-34" x="190.869141"/>
       <use xlink:href="#DejaVuSans-2d" x="254.492188"/>
       <use xlink:href="#DejaVuSans-30" x="290.576172"/>
       <use xlink:href="#DejaVuSans-39" x="354.199219"/>
      </g>
     </g>
    </g>
   </g>
   <g id="matplotlib.axis_2">
    <g id="ytick_1">
     <g id="line2d_21">
      <path d="M 108 307.836972 
L 777.6 307.836972 
" clip-path="url(#pa2315a0ff4)" style="fill: none; stroke-dasharray: 5.12,1.28,0.8,1.28; stroke-dashoffset: 0; stroke: #b0b0b0; stroke-width: 0.8"/>
     </g>
     <g id="line2d_22">
      <defs>
       <path id="ma0f0938dc6" d="M 0 0 
L -3.5 0 
" style="stroke: #a9a9a9; stroke-width: 0.8"/>
      </defs>
      <g>
       <use xlink:href="#ma0f0938dc6" x="108" y="307.836972" style="fill: #a9a9a9; stroke: #a9a9a9; stroke-width: 0.8"/>
      </g>
     </g>
     <g id="text_11">
      <!-- 0 -->
      <g style="fill: #a9a9a9" transform="translate(94.6375 311.636191) scale(0.1 -0.1)">
       <use xlink:href="#DejaVuSans-30"/>
      </g>
     </g>
    </g>
    <g id="ytick_2">
     <g id="line2d_23">
      <path d="M 108 278.259507 
L 777.6 278.259507 
" clip-path="url(#pa2315a0ff4)" style="fill: none; stroke-dasharray: 5.12,1.28,0.8,1.28; stroke-dashoffset: 0; stroke: #b0b0b0; stroke-width: 0.8"/>
     </g>
     <g id="line2d_24">
      <g>
       <use xlink:href="#ma0f0938dc6" x="108" y="278.259507" style="fill: #a9a9a9; stroke: #a9a9a9; stroke-width: 0.8"/>
      </g>
     </g>
     <g id="text_12">
      <!-- 800 -->
      <g style="fill: #a9a9a9" transform="translate(81.9125 282.058726) scale(0.1 -0.1)">
       <defs>
        <path id="DejaVuSans-38" d="M 2034 2216 
Q 1584 2216 1326 1975 
Q 1069 1734 1069 1313 
Q 1069 891 1326 650 
Q 1584 409 2034 409 
Q 2484 409 2743 651 
Q 3003 894 3003 1313 
Q 3003 1734 2745 1975 
Q 2488 2216 2034 2216 
z
M 1403 2484 
Q 997 2584 770 2862 
Q 544 3141 544 3541 
Q 544 4100 942 4425 
Q 1341 4750 2034 4750 
Q 2731 4750 3128 4425 
Q 3525 4100 3525 3541 
Q 3525 3141 3298 2862 
Q 3072 2584 2669 2484 
Q 3125 2378 3379 2068 
Q 3634 1759 3634 1313 
Q 3634 634 3220 271 
Q 2806 -91 2034 -91 
Q 1263 -91 848 271 
Q 434 634 434 1313 
Q 434 1759 690 2068 
Q 947 2378 1403 2484 
z
M 1172 3481 
Q 1172 3119 1398 2916 
Q 1625 2713 2034 2713 
Q 2441 2713 2670 2916 
Q 2900 3119 2900 3481 
Q 2900 3844 2670 4047 
Q 2441 4250 2034 4250 
Q 1625 4250 1398 4047 
Q 1172 3844 1172 3481 
z
" transform="scale(0.015625)"/>
       </defs>
       <use xlink:href="#DejaVuSans-38"/>
       <use xlink:href="#DejaVuSans-30" x="63.623047"/>
       <use xlink:href="#DejaVuSans-30" x="127.246094"/>
      </g>
     </g>
    </g>
    <g id="ytick_3">
     <g id="line2d_25">
      <path d="M 108 248.682042 
L 777.6 248.682042 
" clip-path="url(#pa2315a0ff4)" style="fill: none; stroke-dasharray: 5.12,1.28,0.8,1.28; stroke-dashoffset: 0; stroke: #b0b0b0; stroke-width: 0.8"/>
     </g>
     <g id="line2d_26">
      <g>
       <use xlink:href="#ma0f0938dc6" x="108" y="248.682042" style="fill: #a9a9a9; stroke: #a9a9a9; stroke-width: 0.8"/>
      </g>
     </g>
     <g id="text_13">
      <!-- 1600 -->
      <g style="fill: #a9a9a9" transform="translate(75.55 252.481261) scale(0.1 -0.1)">
       <defs>
        <path id="DejaVuSans-36" d="M 2113 2584 
Q 1688 2584 1439 2293 
Q 1191 2003 1191 1497 
Q 1191 994 1439 701 
Q 1688 409 2113 409 
Q 2538 409 2786 701 
Q 3034 994 3034 1497 
Q 3034 2003 2786 2293 
Q 2538 2584 2113 2584 
z
M 3366 4563 
L 3366 3988 
Q 3128 4100 2886 4159 
Q 2644 4219 2406 4219 
Q 1781 4219 1451 3797 
Q 1122 3375 1075 2522 
Q 1259 2794 1537 2939 
Q 1816 3084 2150 3084 
Q 2853 3084 3261 2657 
Q 3669 2231 3669 1497 
Q 3669 778 3244 343 
Q 2819 -91 2113 -91 
Q 1303 -91 875 529 
Q 447 1150 447 2328 
Q 447 3434 972 4092 
Q 1497 4750 2381 4750 
Q 2619 4750 2861 4703 
Q 3103 4656 3366 4563 
z
" transform="scale(0.015625)"/>
       </defs>
       <use xlink:href="#DejaVuSans-31"/>
       <use xlink:href="#DejaVuSans-36" x="63.623047"/>
       <use xlink:href="#DejaVuSans-30" x="127.246094"/>
       <use xlink:href="#DejaVuSans-30" x="190.869141"/>
      </g>
     </g>
    </g>
    <g id="ytick_4">
     <g id="line2d_27">
      <path d="M 108 219.104577 
L 777.6 219.104577 
" clip-path="url(#pa2315a0ff4)" style="fill: none; stroke-dasharray: 5.12,1.28,0.8,1.28; stroke-dashoffset: 0; stroke: #b0b0b0; stroke-width: 0.8"/>
     </g>
     <g id="line2d_28">
      <g>
       <use xlink:href="#ma0f0938dc6" x="108" y="219.104577" style="fill: #a9a9a9; stroke: #a9a9a9; stroke-width: 0.8"/>
      </g>
     </g>
     <g id="text_14">
      <!-- 2400 -->
      <g style="fill: #a9a9a9" transform="translate(75.55 222.903796) scale(0.1 -0.1)">
       <use xlink:href="#DejaVuSans-32"/>
       <use xlink:href="#DejaVuSans-34" x="63.623047"/>
       <use xlink:href="#DejaVuSans-30" x="127.246094"/>
       <use xlink:href="#DejaVuSans-30" x="190.869141"/>
      </g>
     </g>
    </g>
    <g id="ytick_5">
     <g id="line2d_29">
      <path d="M 108 189.527113 
L 777.6 189.527113 
" clip-path="url(#pa2315a0ff4)" style="fill: none; stroke-dasharray: 5.12,1.28,0.8,1.28; stroke-dashoffset: 0; stroke: #b0b0b0; stroke-width: 0.8"/>
     </g>
     <g id="line2d_30">
      <g>
       <use xlink:href="#ma0f0938dc6" x="108" y="189.527113" style="fill: #a9a9a9; stroke: #a9a9a9; stroke-width: 0.8"/>
      </g>
     </g>
     <g id="text_15">
      <!-- 3200 -->
      <g style="fill: #a9a9a9" transform="translate(75.55 193.326331) scale(0.1 -0.1)">
       <use xlink:href="#DejaVuSans-33"/>
       <use xlink:href="#DejaVuSans-32" x="63.623047"/>
       <use xlink:href="#DejaVuSans-30" x="127.246094"/>
       <use xlink:href="#DejaVuSans-30" x="190.869141"/>
      </g>
     </g>
    </g>
    <g id="ytick_6">
     <g id="line2d_31">
      <path d="M 108 159.949648 
L 777.6 159.949648 
" clip-path="url(#pa2315a0ff4)" style="fill: none; stroke-dasharray: 5.12,1.28,0.8,1.28; stroke-dashoffset: 0; stroke: #b0b0b0; stroke-width: 0.8"/>
     </g>
     <g id="line2d_32">
      <g>
       <use xlink:href="#ma0f0938dc6" x="108" y="159.949648" style="fill: #a9a9a9; stroke: #a9a9a9; stroke-width: 0.8"/>
      </g>
     </g>
     <g id="text_16">
      <!-- 4000 -->
      <g style="fill: #a9a9a9" transform="translate(75.55 163.748867) scale(0.1 -0.1)">
       <use xlink:href="#DejaVuSans-34"/>
       <use xlink:href="#DejaVuSans-30" x="63.623047"/>
       <use xlink:href="#DejaVuSans-30" x="127.246094"/>
       <use xlink:href="#DejaVuSans-30" x="190.869141"/>
      </g>
     </g>
    </g>
    <g id="ytick_7">
     <g id="line2d_33">
      <path d="M 108 130.372183 
L 777.6 130.372183 
" clip-path="url(#pa2315a0ff4)" style="fill: none; stroke-dasharray: 5.12,1.28,0.8,1.28; stroke-dashoffset: 0; stroke: #b0b0b0; stroke-width: 0.8"/>
     </g>
     <g id="line2d_34">
      <g>
       <use xlink:href="#ma0f0938dc6" x="108" y="130.372183" style="fill: #a9a9a9; stroke: #a9a9a9; stroke-width: 0.8"/>
      </g>
     </g>
     <g id="text_17">
      <!-- 4800 -->
      <g style="fill: #a9a9a9" transform="translate(75.55 134.171402) scale(0.1 -0.1)">
       <use xlink:href="#DejaVuSans-34"/>
       <use xlink:href="#DejaVuSans-38" x="63.623047"/>
       <use xlink:href="#DejaVuSans-30" x="127.246094"/>
       <use xlink:href="#DejaVuSans-30" x="190.869141"/>
      </g>
     </g>
    </g>
    <g id="ytick_8">
     <g id="line2d_35">
      <path d="M 108 100.794718 
L 777.6 100.794718 
" clip-path="url(#pa2315a0ff4)" style="fill: none; stroke-dasharray: 5.12,1.28,0.8,1.28; stroke-dashoffset: 0; stroke: #b0b0b0; stroke-width: 0.8"/>
     </g>
     <g id="line2d_36">
      <g>
       <use xlink:href="#ma0f0938dc6" x="108" y="100.794718" style="fill: #a9a9a9; stroke: #a9a9a9; stroke-width: 0.8"/>
      </g>
     </g>
     <g id="text_18">
      <!-- 5600 -->
      <g style="fill: #a9a9a9" transform="translate(75.55 104.593937) scale(0.1 -0.1)">
       <use xlink:href="#DejaVuSans-35"/>
       <use xlink:href="#DejaVuSans-36" x="63.623047"/>
       <use xlink:href="#DejaVuSans-30" x="127.246094"/>
       <use xlink:href="#DejaVuSans-30" x="190.869141"/>
      </g>
     </g>
    </g>
    <g id="ytick_9">
     <g id="line2d_37">
      <path d="M 108 71.217254 
L 777.6 71.217254 
" clip-path="url(#pa2315a0ff4)" style="fill: none; stroke-dasharray: 5.12,1.28,0.8,1.28; stroke-dashoffset: 0; stroke: #b0b0b0; stroke-width: 0.8"/>
     </g>
     <g id="line2d_38">
      <g>
       <use xlink:href="#ma0f0938dc6" x="108" y="71.217254" style="fill: #a9a9a9; stroke: #a9a9a9; stroke-width: 0.8"/>
      </g>
     </g>
     <g id="text_19">
      <!-- 6400 -->
      <g style="fill: #a9a9a9" transform="translate(75.55 75.016472) scale(0.1 -0.1)">
       <use xlink:href="#DejaVuSans-36"/>
       <use xlink:href="#DejaVuSans-34" x="63.623047"/>
       <use xlink:href="#DejaVuSans-30" x="127.246094"/>
       <use xlink:href="#DejaVuSans-30" x="190.869141"/>
      </g>
     </g>
    </g>
   </g>
   <g id="line2d_39">
    <path d="M 138.436364 307.726056 
L 141.52635 307.467254 
L 142.041347 307.245423 
L 144.101338 306.98662 
L 146.161329 306.57993 
L 147.191324 306.432042 
L 149.766313 306.210211 
L 150.796308 305.803521 
L 151.311306 305.138028 
L 151.826304 304.76831 
L 152.341301 303.622183 
L 152.856299 303.548239 
L 153.371297 303.141549 
L 154.401292 302.623944 
L 156.461283 300.997183 
L 158.521274 299.998944 
L 160.066267 299.296479 
L 160.581264 298.483099 
L 161.61126 297.743662 
L 162.126257 297.521831 
L 167.276234 296.782394 
L 167.791232 296.560563 
L 171.396216 296.264789 
L 173.456207 295.784155 
L 177.576188 295.229577 
L 178.091186 294.970775 
L 178.606184 294.896831 
L 179.636179 294.564085 
L 183.241163 293.972535 
L 184.271158 293.676761 
L 188.906138 292.900352 
L 189.936133 292.678521 
L 190.966128 292.641549 
L 193.026119 292.160915 
L 193.541117 291.458451 
L 195.08611 290.866901 
L 196.631103 290.460211 
L 197.146101 290.201408 
L 198.176096 290.016549 
L 200.236087 289.425 
L 201.266082 289.351056 
L 202.296078 289.092254 
L 204.356068 288.574648 
L 204.871066 288.537676 
L 205.901061 288.057042 
L 206.416059 287.983099 
L 206.931057 287.724296 
L 212.596031 286.8 
L 214.656022 286.208451 
L 215.17102 285.875704 
L 217.746008 285.025352 
L 218.776004 284.322887 
L 220.320997 284.027113 
L 230.105953 281.180282 
L 231.135948 280.773592 
L 232.165944 280.699648 
L 233.710937 280.255986 
L 234.225934 280.255986 
L 234.740932 280.034155 
L 235.770928 279.923239 
L 236.285925 279.73838 
L 238.345916 279.627465 
L 239.375911 279.442606 
L 240.405907 278.925 
L 246.585879 276.152113 
L 247.100877 275.597535 
L 248.130872 274.044718 
L 248.64587 273.896831 
L 249.160868 273.896831 
L 250.190863 273.120423 
L 251.735856 272.602817 
L 252.250854 272.122183 
L 253.280849 271.715493 
L 254.310844 271.234859 
L 255.34084 269.755986 
L 255.855838 269.423239 
L 256.370835 268.535915 
L 256.885833 267.981338 
L 259.975819 266.354577 
L 261.005814 265.541197 
L 261.520812 265.208451 
L 262.03581 264.432042 
L 262.550808 263.285915 
L 263.065805 262.509507 
L 263.580803 262.102817 
L 264.095801 261.880986 
L 267.700784 258.849296 
L 268.73078 257.629225 
L 269.760775 256.889789 
L 271.305768 255.854577 
L 271.820766 255.410915 
L 272.850761 255.078169 
L 274.395754 254.190845 
L 275.940748 253.192606 
L 278.000738 251.344014 
L 279.030734 250.937324 
L 280.060729 250.234859 
L 280.575727 249.939085 
L 281.090725 249.865141 
L 284.695708 247.609859 
L 286.755699 246.500704 
L 287.270697 246.02007 
L 295.51066 243.136268 
L 296.540655 242.211972 
L 297.570651 241.731338 
L 298.600646 241.176761 
L 299.115644 240.880986 
L 300.145639 240.585211 
L 300.660637 240.252465 
L 301.175635 240.104577 
L 302.720628 239.106338 
L 305.295616 238.514789 
L 306.840609 237.627465 
L 308.385602 237.294718 
L 308.9006 237.146831 
L 310.445593 236.000704 
L 312.505584 235.446127 
L 313.020581 235.039437 
L 316.110568 234.004225 
L 317.140563 233.819366 
L 318.170558 233.412676 
L 321.775542 232.118662 
L 322.805538 231.970775 
L 324.350531 231.453169 
L 326.925519 230.233099 
L 328.98551 229.123944 
L 333.105491 227.460211 
L 333.620489 227.386268 
L 334.650485 226.757746 
L 335.165482 226.683803 
L 337.225473 225.833451 
L 339.285464 225.537676 
L 340.315459 225.02007 
L 340.830457 224.576408 
L 341.345455 223.652113 
L 343.405445 223.097535 
L 344.950438 222.321127 
L 345.465436 222.210211 
L 349.585418 220.250704 
L 351.130411 219.95493 
L 352.160406 219.437324 
L 352.675404 219.215493 
L 353.190401 219.141549 
L 355.250392 218.217254 
L 356.795385 217.255986 
L 358.340378 216.960211 
L 360.915367 216.33169 
L 361.430365 215.925 
L 362.975358 215.370423 
L 365.035348 214.557042 
L 365.550346 214.187324 
L 366.065344 214.002465 
L 367.095339 213.447887 
L 369.670328 212.597535 
L 371.215321 211.377465 
L 371.730318 211.266549 
L 372.760314 210.453169 
L 373.275311 210.379225 
L 373.790309 209.565845 
L 374.305307 209.344014 
L 374.820305 208.937324 
L 375.335302 208.86338 
L 376.365298 208.234859 
L 377.395293 207.902113 
L 377.910291 207.495423 
L 378.425288 207.310563 
L 379.970281 206.23838 
L 382.030272 205.166197 
L 382.54527 205.092254 
L 384.090263 204.315845 
L 384.605261 203.465493 
L 385.120258 203.021831 
L 385.635256 202.726056 
L 386.150254 202.615141 
L 387.180249 201.949648 
L 387.695247 201.838732 
L 388.725242 201.321127 
L 390.785233 200.322887 
L 391.300231 199.953169 
L 392.330226 198.95493 
L 393.360222 198.326408 
L 393.875219 197.993662 
L 394.390217 197.439085 
L 396.450208 196.034155 
L 396.965205 195.442606 
L 397.480203 195.035915 
L 398.510198 194.666197 
L 399.540194 193.963732 
L 401.085187 193.187324 
L 401.600185 193.11338 
L 403.145178 192.3 
L 404.175173 191.671479 
L 409.32515 189.822887 
L 409.840148 189.416197 
L 411.900138 188.639789 
L 412.415136 188.491901 
L 412.930134 188.085211 
L 415.505122 186.680282 
L 416.535118 184.646831 
L 417.565113 183.463732 
L 418.595108 182.835211 
L 420.140102 182.20669 
L 420.655099 182.132746 
L 421.170097 181.836972 
L 423.745085 181.023592 
L 424.260083 180.801761 
L 425.290078 180.099296 
L 426.835072 179.433803 
L 427.865067 178.879225 
L 428.380065 178.509507 
L 428.895062 178.287676 
L 429.41006 177.917958 
L 429.925058 177.36338 
L 430.955053 176.808803 
L 433.530042 175.440845 
L 436.620028 173.925 
L 437.650023 173.592254 
L 439.195016 173.11162 
L 441.255007 172.187324 
L 442.285002 171.780634 
L 442.8 171.373944 
L 443.829995 171.041197 
L 446.919982 169.451408 
L 447.949977 168.638028 
L 448.979972 168.26831 
L 449.49497 167.824648 
L 450.009968 167.750704 
L 451.039963 166.974296 
L 452.069958 166.45669 
L 452.584956 166.234859 
L 453.099954 165.717254 
L 456.704938 164.312324 
L 457.734933 163.868662 
L 459.279926 163.388028 
L 460.309922 163.240141 
L 460.824919 163.01831 
L 461.339917 162.944366 
L 462.369912 162.500704 
L 462.88491 162.463732 
L 464.944901 161.687324 
L 466.489894 160.615141 
L 467.004892 160.430282 
L 468.034887 159.875704 
L 468.549885 159.727817 
L 471.639871 158.027113 
L 472.154868 157.916197 
L 473.699862 157.028873 
L 475.244855 156.511268 
L 476.27485 156.178521 
L 478.334841 155.513028 
L 479.364836 155.180282 
L 481.424827 154.773592 
L 481.939825 154.551761 
L 482.454822 154.477817 
L 483.484818 154.034155 
L 483.999815 153.960211 
L 484.514813 153.701408 
L 485.544808 153.516549 
L 487.089802 152.961972 
L 488.119797 152.851056 
L 489.66479 152.51831 
L 492.239778 152.074648 
L 505.629719 148.229577 
L 506.144716 147.711972 
L 507.174712 147.305282 
L 510.264698 146.196127 
L 510.779695 145.86338 
L 511.294693 145.752465 
L 511.809691 145.45669 
L 513.354684 145.013028 
L 514.384679 144.754225 
L 514.899677 144.421479 
L 515.414675 144.310563 
L 515.929672 143.866901 
L 517.474665 143.571127 
L 518.504661 143.090493 
L 519.019659 142.498944 
L 521.079649 142.01831 
L 524.684633 141.278873 
L 525.199631 141.278873 
L 525.714629 141.057042 
L 527.774619 140.687324 
L 528.289617 140.465493 
L 530.349608 140.095775 
L 531.379603 139.652113 
L 532.409599 139.467254 
L 534.984587 138.838732 
L 537.044578 138.210211 
L 537.559575 138.099296 
L 538.074573 137.840493 
L 539.104569 137.58169 
L 539.619566 137.285915 
L 541.164559 136.76831 
L 541.679557 136.398592 
L 542.709552 136.102817 
L 543.739548 135.77007 
L 544.769543 135.36338 
L 546.314536 134.697887 
L 548.374527 134.439085 
L 552.494509 132.997183 
L 553.009506 132.627465 
L 553.524504 132.516549 
L 554.039502 132.257746 
L 554.554499 132.220775 
L 560.219474 130.261268 
L 562.794462 129.595775 
L 563.824458 129.115141 
L 565.369451 128.782394 
L 565.884449 128.375704 
L 566.399446 128.116901 
L 566.914444 127.48838 
L 567.429442 127.118662 
L 568.459437 126.822887 
L 568.974435 126.416197 
L 572.064421 125.27007 
L 572.579419 124.937324 
L 573.609414 124.641549 
L 574.124412 124.308803 
L 576.6994 123.495423 
L 578.244393 122.608099 
L 578.759391 122.497183 
L 581.334379 121.129225 
L 582.879372 120.426761 
L 583.39437 120.057042 
L 584.424365 119.724296 
L 585.454361 119.132746 
L 585.969359 118.947887 
L 586.484356 118.578169 
L 593.179326 116.248944 
L 593.694324 116.138028 
L 594.209322 115.805282 
L 596.269312 115.398592 
L 597.299308 114.991901 
L 597.814305 114.696127 
L 598.329303 114.548239 
L 600.389294 113.476056 
L 600.904292 113.402113 
L 602.449285 112.551761 
L 605.539271 111.33169 
L 607.599262 110.51831 
L 608.114259 110.370423 
L 608.629257 110.037676 
L 609.659252 109.889789 
L 610.17425 109.557042 
L 611.204246 109.372183 
L 612.234241 108.891549 
L 612.749239 108.669718 
L 613.264236 108.595775 
L 615.839225 107.597535 
L 617.384218 107.190845 
L 618.414213 106.932042 
L 619.959206 106.48838 
L 620.989202 106.08169 
L 623.049192 104.972535 
L 624.079188 104.565845 
L 624.594186 104.233099 
L 625.624181 104.011268 
L 626.139179 103.715493 
L 626.654176 103.604577 
L 628.199169 102.754225 
L 629.229165 102.347535 
L 630.774158 101.64507 
L 632.319151 101.23838 
L 635.409137 100.01831 
L 637.469128 99.315845 
L 639.014121 98.761268 
L 639.529119 98.576408 
L 640.559114 98.021831 
L 642.619105 97.097535 
L 647.769082 95.138028 
L 648.284079 94.76831 
L 650.34407 94.065845 
L 650.859068 94.065845 
L 651.889063 93.622183 
L 652.919059 92.697887 
L 653.434056 92.254225 
L 654.979049 91.514789 
L 655.494047 91.403873 
L 656.009045 91.14507 
L 656.524042 91.071127 
L 657.03904 90.701408 
L 657.554038 90.590493 
L 658.584033 89.961972 
L 660.129026 89.185563 
L 661.159022 88.778873 
L 661.674019 88.52007 
L 664.249008 87.891549 
L 664.764006 87.632746 
L 666.308999 87.189085 
L 668.368989 86.190845 
L 669.398985 85.710211 
L 670.42898 85.451408 
L 672.488971 84.527113 
L 673.003969 84.379225 
L 673.518966 84.046479 
L 676.608952 82.937324 
L 678.153946 82.013028 
L 678.668943 81.902113 
L 679.698939 81.384507 
L 680.728934 81.014789 
L 681.243932 80.571127 
L 682.273927 80.164437 
L 683.81892 79.535915 
L 684.333918 79.129225 
L 684.848916 79.092254 
L 685.878911 78.796479 
L 686.908906 78.463732 
L 687.423904 78.20493 
L 687.938902 78.130986 
L 689.483895 77.576408 
L 691.028888 77.021831 
L 692.058883 76.615141 
L 692.573881 76.208451 
L 694.118874 75.801761 
L 694.633872 75.505986 
L 695.663867 75.247183 
L 697.20886 74.396831 
L 697.723858 74.359859 
L 699.268851 73.879225 
L 700.298846 73.76831 
L 701.328842 73.36162 
L 704.418828 72.474296 
L 705.448823 72.437324 
L 708.538809 71.439085 
L 709.053807 71.365141 
L 710.5988 70.551761 
L 711.113798 70.108099 
L 712.658791 69.220775 
L 713.173789 68.814085 
L 714.203784 68.407394 
L 715.748777 67.963732 
L 716.263775 67.667958 
L 716.778772 67.557042 
L 717.29377 67.150352 
L 720.383756 65.89331 
L 722.443747 65.338732 
L 723.473743 64.89507 
L 724.503738 64.48838 
L 726.048731 63.859859 
L 727.078726 63.527113 
L 728.623719 62.935563 
L 729.653715 62.27007 
L 731.198708 61.86338 
L 732.743701 60.828169 
L 733.258699 60.754225 
L 735.833687 59.719014 
L 737.37868 59.349296 
L 737.893678 59.275352 
L 738.408676 59.053521 
L 738.923673 59.016549 
L 739.953669 58.646831 
L 740.468666 58.609859 
L 742.013659 58.01831 
L 744.07365 57.426761 
L 745.103646 56.61338 
L 746.648639 55.8 
L 747.163636 55.8 
L 747.163636 55.8 
" clip-path="url(#pa2315a0ff4)" style="fill: none; stroke: #1f77b4; stroke-width: 1.5; stroke-linecap: square"/>
   </g>
   <g id="line2d_40">
    <path d="M 138.951361 307.8 
L 143.586341 307.689085 
L 147.706322 307.504225 
L 149.766313 307.504225 
L 150.281311 307.356338 
L 152.856299 307.245423 
L 155.946285 306.912676 
L 159.036271 306.801761 
L 160.066267 306.690845 
L 163.671251 306.542958 
L 167.276234 306.432042 
L 169.851223 306.358099 
L 176.546193 306.247183 
L 179.121181 306.173239 
L 182.726165 306.062324 
L 185.301154 305.98838 
L 190.966128 305.877465 
L 193.026119 305.692606 
L 195.08611 305.655634 
L 198.176096 305.544718 
L 200.236087 305.507746 
L 202.811075 305.433803 
L 204.871066 305.248944 
L 209.506045 305.138028 
L 210.536041 305.064085 
L 212.596031 304.953169 
L 215.686018 304.842254 
L 217.746008 304.731338 
L 227.015967 304.176761 
L 230.620951 304.065845 
L 232.165944 303.917958 
L 234.740932 303.807042 
L 239.890909 303.548239 
L 245.040886 303.474296 
L 247.100877 303.252465 
L 249.160868 303.141549 
L 254.825842 302.623944 
L 258.430826 302.217254 
L 259.975819 302.14331 
L 264.610798 301.588732 
L 267.185787 301.514789 
L 268.73078 301.366901 
L 270.275773 301.255986 
L 275.42575 300.775352 
L 276.970743 300.627465 
L 280.060729 300.516549 
L 284.695708 300.146831 
L 285.725704 299.961972 
L 288.81569 299.851056 
L 297.055653 299.370423 
L 300.660637 299.259507 
L 302.720628 299.037676 
L 305.295616 298.926761 
L 308.385602 298.815845 
L 310.960591 298.70493 
L 313.020581 298.667958 
L 315.59557 298.594014 
L 316.625565 298.446127 
L 323.835533 298.335211 
L 324.865528 298.224296 
L 331.045501 298.11338 
L 335.68048 297.891549 
L 339.285464 297.780634 
L 341.345455 297.558803 
L 344.950438 297.447887 
L 345.980434 297.263028 
L 348.555422 297.189085 
L 353.705399 297.115141 
L 356.280388 296.856338 
L 359.370374 296.745423 
L 361.430365 296.560563 
L 366.580341 296.301761 
L 371.730318 296.190845 
L 376.365298 295.969014 
L 377.910291 295.932042 
L 378.940286 295.784155 
L 381.515275 295.673239 
L 382.54527 295.599296 
L 383.575265 295.525352 
L 384.605261 295.451408 
L 389.24024 295.377465 
L 390.785233 295.266549 
L 404.690171 294.379225 
L 407.265159 294.26831 
L 409.840148 294.194366 
L 417.050115 294.083451 
L 418.080111 293.935563 
L 425.290078 293.824648 
L 430.440055 293.565845 
L 431.470051 293.528873 
L 432.500046 293.417958 
L 435.075035 293.307042 
L 437.650023 293.233099 
L 440.225012 293.122183 
L 442.8 293.048239 
L 447.434979 292.937324 
L 450.524965 292.826408 
L 457.734933 292.715493 
L 463.399908 292.419718 
L 465.459898 292.345775 
L 467.004892 292.234859 
L 474.214859 292.123944 
L 477.304845 292.013028 
L 486.574804 291.902113 
L 488.634795 291.865141 
L 494.814767 291.791197 
L 495.844762 291.717254 
L 503.05473 291.606338 
L 505.114721 291.569366 
L 518.504661 291.458451 
L 520.049654 291.310563 
L 543.22455 291.199648 
L 545.799539 291.125704 
L 559.189479 291.014789 
L 560.219474 290.940845 
L 562.794462 290.866901 
L 564.339455 290.719014 
L 567.429442 290.608099 
L 571.034425 290.460211 
L 575.669405 290.349296 
L 578.244393 290.275352 
L 581.849377 290.164437 
L 585.969359 289.979577 
L 588.544347 289.868662 
L 591.634333 289.757746 
L 599.359299 289.646831 
L 602.449285 289.535915 
L 608.114259 289.425 
L 611.719243 289.277113 
L 615.324227 289.203169 
L 616.354222 289.129225 
L 628.714167 289.01831 
L 635.409137 288.648592 
L 637.984126 288.574648 
L 639.014121 288.463732 
L 640.044116 288.389789 
L 644.164098 288.278873 
L 647.254084 288.167958 
L 652.404061 288.057042 
L 654.979049 287.798239 
L 660.129026 287.687324 
L 661.159022 287.576408 
L 666.308999 287.465493 
L 668.883987 287.391549 
L 674.548962 287.354577 
L 675.578957 287.243662 
L 681.243932 287.132746 
L 682.273927 287.058803 
L 693.603876 286.947887 
L 696.693862 286.836972 
L 704.418828 286.726056 
L 706.478819 286.689085 
L 711.113798 286.615141 
L 712.143793 286.504225 
L 718.323766 286.39331 
L 721.413752 286.282394 
L 730.68371 286.171479 
L 732.228703 286.060563 
L 733.773696 285.949648 
L 735.318689 285.838732 
L 743.043655 285.727817 
L 746.648639 285.57993 
L 747.163636 285.57993 
L 747.163636 285.57993 
" clip-path="url(#pa2315a0ff4)" style="fill: none; stroke: #ff7f0e; stroke-width: 1.5; stroke-linecap: square"/>
   </g>
   <g id="patch_3">
    <path d="M 108 320.4 
L 108 43.2 
" style="fill: none; stroke: #a9a9a9; stroke-width: 0.8; stroke-linejoin: miter; stroke-linecap: square"/>
   </g>
   <g id="patch_4">
    <path d="M 777.6 320.4 
L 777.6 43.2 
" style="fill: none"/>
   </g>
   <g id="patch_5">
    <path d="M 108 320.4 
L 777.6 320.4 
" style="fill: none; stroke: #a9a9a9; stroke-width: 0.8; stroke-linejoin: miter; stroke-linecap: square"/>
   </g>
   <g id="patch_6">
    <path d="M 108 43.2 
L 777.6 43.2 
" style="fill: none"/>
   </g>
   <g id="text_20">
    <!-- get_subscribe history -->
    <g style="fill: #a9a9a9" transform="translate(378.6075 37.2) scale(0.12 -0.12)">
     <defs>
      <path id="DejaVuSans-67" d="M 2906 1791 
Q 2906 2416 2648 2759 
Q 2391 3103 1925 3103 
Q 1463 3103 1205 2759 
Q 947 2416 947 1791 
Q 947 1169 1205 825 
Q 1463 481 1925 481 
Q 2391 481 2648 825 
Q 2906 1169 2906 1791 
z
M 3481 434 
Q 3481 -459 3084 -895 
Q 2688 -1331 1869 -1331 
Q 1566 -1331 1297 -1286 
Q 1028 -1241 775 -1147 
L 775 -588 
Q 1028 -725 1275 -790 
Q 1522 -856 1778 -856 
Q 2344 -856 2625 -561 
Q 2906 -266 2906 331 
L 2906 616 
Q 2728 306 2450 153 
Q 2172 0 1784 0 
Q 1141 0 747 490 
Q 353 981 353 1791 
Q 353 2603 747 3093 
Q 1141 3584 1784 3584 
Q 2172 3584 2450 3431 
Q 2728 3278 2906 2969 
L 2906 3500 
L 3481 3500 
L 3481 434 
z
" transform="scale(0.015625)"/>
      <path id="DejaVuSans-65" d="M 3597 1894 
L 3597 1613 
L 953 1613 
Q 991 1019 1311 708 
Q 1631 397 2203 397 
Q 2534 397 2845 478 
Q 3156 559 3463 722 
L 3463 178 
Q 3153 47 2828 -22 
Q 2503 -91 2169 -91 
Q 1331 -91 842 396 
Q 353 884 353 1716 
Q 353 2575 817 3079 
Q 1281 3584 2069 3584 
Q 2775 3584 3186 3129 
Q 3597 2675 3597 1894 
z
M 3022 2063 
Q 3016 2534 2758 2815 
Q 2500 3097 2075 3097 
Q 1594 3097 1305 2825 
Q 1016 2553 972 2059 
L 3022 2063 
z
" transform="scale(0.015625)"/>
      <path id="DejaVuSans-74" d="M 1172 4494 
L 1172 3500 
L 2356 3500 
L 2356 3053 
L 1172 3053 
L 1172 1153 
Q 1172 725 1289 603 
Q 1406 481 1766 481 
L 2356 481 
L 2356 0 
L 1766 0 
Q 1100 0 847 248 
Q 594 497 594 1153 
L 594 3053 
L 172 3053 
L 172 3500 
L 594 3500 
L 594 4494 
L 1172 4494 
z
" transform="scale(0.015625)"/>
      <path id="DejaVuSans-5f" d="M 3263 -1063 
L 3263 -1509 
L -63 -1509 
L -63 -1063 
L 3263 -1063 
z
" transform="scale(0.015625)"/>
      <path id="DejaVuSans-73" d="M 2834 3397 
L 2834 2853 
Q 2591 2978 2328 3040 
Q 2066 3103 1784 3103 
Q 1356 3103 1142 2972 
Q 928 2841 928 2578 
Q 928 2378 1081 2264 
Q 1234 2150 1697 2047 
L 1894 2003 
Q 2506 1872 2764 1633 
Q 3022 1394 3022 966 
Q 3022 478 2636 193 
Q 2250 -91 1575 -91 
Q 1294 -91 989 -36 
Q 684 19 347 128 
L 347 722 
Q 666 556 975 473 
Q 1284 391 1588 391 
Q 1994 391 2212 530 
Q 2431 669 2431 922 
Q 2431 1156 2273 1281 
Q 2116 1406 1581 1522 
L 1381 1569 
Q 847 1681 609 1914 
Q 372 2147 372 2553 
Q 372 3047 722 3315 
Q 1072 3584 1716 3584 
Q 2034 3584 2315 3537 
Q 2597 3491 2834 3397 
z
" transform="scale(0.015625)"/>
      <path id="DejaVuSans-75" d="M 544 1381 
L 544 3500 
L 1119 3500 
L 1119 1403 
Q 1119 906 1312 657 
Q 1506 409 1894 409 
Q 2359 409 2629 706 
Q 2900 1003 2900 1516 
L 2900 3500 
L 3475 3500 
L 3475 0 
L 2900 0 
L 2900 538 
Q 2691 219 2414 64 
Q 2138 -91 1772 -91 
Q 1169 -91 856 284 
Q 544 659 544 1381 
z
M 1991 3584 
L 1991 3584 
z
" transform="scale(0.015625)"/>
      <path id="DejaVuSans-62" d="M 3116 1747 
Q 3116 2381 2855 2742 
Q 2594 3103 2138 3103 
Q 1681 3103 1420 2742 
Q 1159 2381 1159 1747 
Q 1159 1113 1420 752 
Q 1681 391 2138 391 
Q 2594 391 2855 752 
Q 3116 1113 3116 1747 
z
M 1159 2969 
Q 1341 3281 1617 3432 
Q 1894 3584 2278 3584 
Q 2916 3584 3314 3078 
Q 3713 2572 3713 1747 
Q 3713 922 3314 415 
Q 2916 -91 2278 -91 
Q 1894 -91 1617 61 
Q 1341 213 1159 525 
L 1159 0 
L 581 0 
L 581 4863 
L 1159 4863 
L 1159 2969 
z
" transform="scale(0.015625)"/>
      <path id="DejaVuSans-63" d="M 3122 3366 
L 3122 2828 
Q 2878 2963 2633 3030 
Q 2388 3097 2138 3097 
Q 1578 3097 1268 2742 
Q 959 2388 959 1747 
Q 959 1106 1268 751 
Q 1578 397 2138 397 
Q 2388 397 2633 464 
Q 2878 531 3122 666 
L 3122 134 
Q 2881 22 2623 -34 
Q 2366 -91 2075 -91 
Q 1284 -91 818 406 
Q 353 903 353 1747 
Q 353 2603 823 3093 
Q 1294 3584 2113 3584 
Q 2378 3584 2631 3529 
Q 2884 3475 3122 3366 
z
" transform="scale(0.015625)"/>
      <path id="DejaVuSans-72" d="M 2631 2963 
Q 2534 3019 2420 3045 
Q 2306 3072 2169 3072 
Q 1681 3072 1420 2755 
Q 1159 2438 1159 1844 
L 1159 0 
L 581 0 
L 581 3500 
L 1159 3500 
L 1159 2956 
Q 1341 3275 1631 3429 
Q 1922 3584 2338 3584 
Q 2397 3584 2469 3576 
Q 2541 3569 2628 3553 
L 2631 2963 
z
" transform="scale(0.015625)"/>
      <path id="DejaVuSans-69" d="M 603 3500 
L 1178 3500 
L 1178 0 
L 603 0 
L 603 3500 
z
M 603 4863 
L 1178 4863 
L 1178 4134 
L 603 4134 
L 603 4863 
z
" transform="scale(0.015625)"/>
      <path id="DejaVuSans-20" transform="scale(0.015625)"/>
      <path id="DejaVuSans-68" d="M 3513 2113 
L 3513 0 
L 2938 0 
L 2938 2094 
Q 2938 2591 2744 2837 
Q 2550 3084 2163 3084 
Q 1697 3084 1428 2787 
Q 1159 2491 1159 1978 
L 1159 0 
L 581 0 
L 581 4863 
L 1159 4863 
L 1159 2956 
Q 1366 3272 1645 3428 
Q 1925 3584 2291 3584 
Q 2894 3584 3203 3211 
Q 3513 2838 3513 2113 
z
" transform="scale(0.015625)"/>
      <path id="DejaVuSans-6f" d="M 1959 3097 
Q 1497 3097 1228 2736 
Q 959 2375 959 1747 
Q 959 1119 1226 758 
Q 1494 397 1959 397 
Q 2419 397 2687 759 
Q 2956 1122 2956 1747 
Q 2956 2369 2687 2733 
Q 2419 3097 1959 3097 
z
M 1959 3584 
Q 2709 3584 3137 3096 
Q 3566 2609 3566 1747 
Q 3566 888 3137 398 
Q 2709 -91 1959 -91 
Q 1206 -91 779 398 
Q 353 888 353 1747 
Q 353 2609 779 3096 
Q 1206 3584 1959 3584 
z
" transform="scale(0.015625)"/>
      <path id="DejaVuSans-79" d="M 2059 -325 
Q 1816 -950 1584 -1140 
Q 1353 -1331 966 -1331 
L 506 -1331 
L 506 -850 
L 844 -850 
Q 1081 -850 1212 -737 
Q 1344 -625 1503 -206 
L 1606 56 
L 191 3500 
L 800 3500 
L 1894 763 
L 2988 3500 
L 3597 3500 
L 2059 -325 
z
" transform="scale(0.015625)"/>
     </defs>
     <use xlink:href="#DejaVuSans-67"/>
     <use xlink:href="#DejaVuSans-65" x="63.476562"/>
     <use xlink:href="#DejaVuSans-74" x="125"/>
     <use xlink:href="#DejaVuSans-5f" x="164.208984"/>
     <use xlink:href="#DejaVuSans-73" x="214.208984"/>
     <use xlink:href="#DejaVuSans-75" x="266.308594"/>
     <use xlink:href="#DejaVuSans-62" x="329.6875"/>
     <use xlink:href="#DejaVuSans-73" x="393.164062"/>
     <use xlink:href="#DejaVuSans-63" x="445.263672"/>
     <use xlink:href="#DejaVuSans-72" x="500.244141"/>
     <use xlink:href="#DejaVuSans-69" x="541.357422"/>
     <use xlink:href="#DejaVuSans-62" x="569.140625"/>
     <use xlink:href="#DejaVuSans-65" x="632.617188"/>
     <use xlink:href="#DejaVuSans-20" x="694.140625"/>
     <use xlink:href="#DejaVuSans-68" x="725.927734"/>
     <use xlink:href="#DejaVuSans-69" x="789.306641"/>
     <use xlink:href="#DejaVuSans-73" x="817.089844"/>
     <use xlink:href="#DejaVuSans-74" x="869.189453"/>
     <use xlink:href="#DejaVuSans-6f" x="908.398438"/>
     <use xlink:href="#DejaVuSans-72" x="969.580078"/>
     <use xlink:href="#DejaVuSans-79" x="1010.693359"/>
    </g>
   </g>
   <g id="legend_1">
    <g id="line2d_41">
     <path d="M 815.08 328.498438 
L 825.08 328.498438 
L 835.08 328.498438 
" style="fill: none; stroke: #1f77b4; stroke-width: 1.5; stroke-linecap: square"/>
    </g>
    <g id="text_21">
     <!-- star -->
     <g style="fill: #a9a9a9" transform="translate(843.08 331.998438) scale(0.1 -0.1)">
      <defs>
       <path id="DejaVuSans-61" d="M 2194 1759 
Q 1497 1759 1228 1600 
Q 959 1441 959 1056 
Q 959 750 1161 570 
Q 1363 391 1709 391 
Q 2188 391 2477 730 
Q 2766 1069 2766 1631 
L 2766 1759 
L 2194 1759 
z
M 3341 1997 
L 3341 0 
L 2766 0 
L 2766 531 
Q 2569 213 2275 61 
Q 1981 -91 1556 -91 
Q 1019 -91 701 211 
Q 384 513 384 1019 
Q 384 1609 779 1909 
Q 1175 2209 1959 2209 
L 2766 2209 
L 2766 2266 
Q 2766 2663 2505 2880 
Q 2244 3097 1772 3097 
Q 1472 3097 1187 3025 
Q 903 2953 641 2809 
L 641 3341 
Q 956 3463 1253 3523 
Q 1550 3584 1831 3584 
Q 2591 3584 2966 3190 
Q 3341 2797 3341 1997 
z
" transform="scale(0.015625)"/>
      </defs>
      <use xlink:href="#DejaVuSans-73"/>
      <use xlink:href="#DejaVuSans-74" x="52.099609"/>
      <use xlink:href="#DejaVuSans-61" x="91.308594"/>
      <use xlink:href="#DejaVuSans-72" x="152.587891"/>
     </g>
    </g>
    <g id="line2d_42">
     <path d="M 815.08 343.176562 
L 825.08 343.176562 
L 835.08 343.176562 
" style="fill: none; stroke: #ff7f0e; stroke-width: 1.5; stroke-linecap: square"/>
    </g>
    <g id="text_22">
     <!-- fork -->
     <g style="fill: #a9a9a9" transform="translate(843.08 346.676562) scale(0.1 -0.1)">
      <defs>
       <path id="DejaVuSans-66" d="M 2375 4863 
L 2375 4384 
L 1825 4384 
Q 1516 4384 1395 4259 
Q 1275 4134 1275 3809 
L 1275 3500 
L 2222 3500 
L 2222 3053 
L 1275 3053 
L 1275 0 
L 697 0 
L 697 3053 
L 147 3053 
L 147 3500 
L 697 3500 
L 697 3744 
Q 697 4328 969 4595 
Q 1241 4863 1831 4863 
L 2375 4863 
z
" transform="scale(0.015625)"/>
       <path id="DejaVuSans-6b" d="M 581 4863 
L 1159 4863 
L 1159 1991 
L 2875 3500 
L 3609 3500 
L 1753 1863 
L 3688 0 
L 2938 0 
L 1159 1709 
L 1159 0 
L 581 0 
L 581 4863 
z
" transform="scale(0.015625)"/>
      </defs>
      <use xlink:href="#DejaVuSans-66"/>
      <use xlink:href="#DejaVuSans-6f" x="35.205078"/>
      <use xlink:href="#DejaVuSans-72" x="96.386719"/>
      <use xlink:href="#DejaVuSans-6b" x="137.5"/>
     </g>
    </g>
   </g>
  </g>
 </g>
 <defs>
  <clipPath id="pa2315a0ff4">
   <rect x="108" y="43.2" width="669.6" height="277.2"/>
  </clipPath>
 </defs>
</svg>
