<?xml version="1.0" encoding="utf-8" standalone="no"?>
<!DOCTYPE svg PUBLIC "-//W3C//DTD SVG 1.1//EN"
  "http://www.w3.org/Graphics/SVG/1.1/DTD/svg11.dtd">
<svg xmlns:xlink="http://www.w3.org/1999/xlink" width="864pt" height="360pt" viewBox="0 0 864 360" xmlns="http://www.w3.org/2000/svg" version="1.1">
 <metadata>
  <rdf:RDF xmlns:dc="http://purl.org/dc/elements/1.1/" xmlns:cc="http://creativecommons.org/ns#" xmlns:rdf="http://www.w3.org/1999/02/22-rdf-syntax-ns#">
   <cc:Work>
    <dc:type rdf:resource="http://purl.org/dc/dcmitype/StillImage"/>
    <dc:date>2024-10-17T20:06:02.853407</dc:date>
    <dc:format>image/svg+xml</dc:format>
    <dc:creator>
     <cc:Agent>
      <dc:title>Matplotlib v3.9.2, https://matplotlib.org/</dc:title>
     </cc:Agent>
    </dc:creator>
   </cc:Work>
  </rdf:RDF>
 </metadata>
 <defs>
  <style type="text/css">*{stroke-linejoin: round; stroke-linecap: butt}</style>
 </defs>
 <g id="figure_1">
  <g id="patch_1">
   <path d="M 0 360 
L 864 360 
L 864 0 
L 0 0 
L 0 360 
z
" style="fill: none; opacity: 0"/>
  </g>
  <g id="axes_1">
   <g id="patch_2">
    <path d="M 108 320.4 
L 777.6 320.4 
L 777.6 43.2 
L 108 43.2 
L 108 320.4 
z
" style="fill: none; opacity: 0"/>
   </g>
   <g id="matplotlib.axis_1">
    <g id="xtick_1">
     <g id="line2d_1">
      <path d="M 158.53828 320.4 
L 158.53828 43.2 
" clip-path="url(#pd72a27112f)" style="fill: none; stroke-dasharray: 5.12,1.28,0.8,1.28; stroke-dashoffset: 0; stroke: #b0b0b0; stroke-width: 0.8"/>
     </g>
     <g id="line2d_2">
      <defs>
       <path id="m696f19e7db" d="M 0 0 
L 0 3.5 
" style="stroke: #a9a9a9; stroke-width: 0.8"/>
      </defs>
      <g>
       <use xlink:href="#m696f19e7db" x="158.53828" y="320.4" style="fill: #a9a9a9; stroke: #a9a9a9; stroke-width: 0.8"/>
      </g>
     </g>
     <g id="text_1">
      <!-- 2021-09 -->
      <g style="fill: #a9a9a9" transform="translate(137.646874 334.998438) scale(0.1 -0.1)">
       <defs>
        <path id="DejaVuSans-32" d="M 1228 531 
L 3431 531 
L 3431 0 
L 469 0 
L 469 531 
Q 828 903 1448 1529 
Q 2069 2156 2228 2338 
Q 2531 2678 2651 2914 
Q 2772 3150 2772 3378 
Q 2772 3750 2511 3984 
Q 2250 4219 1831 4219 
Q 1534 4219 1204 4116 
Q 875 4013 500 3803 
L 500 4441 
Q 881 4594 1212 4672 
Q 1544 4750 1819 4750 
Q 2544 4750 2975 4387 
Q 3406 4025 3406 3419 
Q 3406 3131 3298 2873 
Q 3191 2616 2906 2266 
Q 2828 2175 2409 1742 
Q 1991 1309 1228 531 
z
" transform="scale(0.015625)"/>
        <path id="DejaVuSans-30" d="M 2034 4250 
Q 1547 4250 1301 3770 
Q 1056 3291 1056 2328 
Q 1056 1369 1301 889 
Q 1547 409 2034 409 
Q 2525 409 2770 889 
Q 3016 1369 3016 2328 
Q 3016 3291 2770 3770 
Q 2525 4250 2034 4250 
z
M 2034 4750 
Q 2819 4750 3233 4129 
Q 3647 3509 3647 2328 
Q 3647 1150 3233 529 
Q 2819 -91 2034 -91 
Q 1250 -91 836 529 
Q 422 1150 422 2328 
Q 422 3509 836 4129 
Q 1250 4750 2034 4750 
z
" transform="scale(0.015625)"/>
        <path id="DejaVuSans-31" d="M 794 531 
L 1825 531 
L 1825 4091 
L 703 3866 
L 703 4441 
L 1819 4666 
L 2450 4666 
L 2450 531 
L 3481 531 
L 3481 0 
L 794 0 
L 794 531 
z
" transform="scale(0.015625)"/>
        <path id="DejaVuSans-2d" d="M 313 2009 
L 1997 2009 
L 1997 1497 
L 313 1497 
L 313 2009 
z
" transform="scale(0.015625)"/>
        <path id="DejaVuSans-39" d="M 703 97 
L 703 672 
Q 941 559 1184 500 
Q 1428 441 1663 441 
Q 2288 441 2617 861 
Q 2947 1281 2994 2138 
Q 2813 1869 2534 1725 
Q 2256 1581 1919 1581 
Q 1219 1581 811 2004 
Q 403 2428 403 3163 
Q 403 3881 828 4315 
Q 1253 4750 1959 4750 
Q 2769 4750 3195 4129 
Q 3622 3509 3622 2328 
Q 3622 1225 3098 567 
Q 2575 -91 1691 -91 
Q 1453 -91 1209 -44 
Q 966 3 703 97 
z
M 1959 2075 
Q 2384 2075 2632 2365 
Q 2881 2656 2881 3163 
Q 2881 3666 2632 3958 
Q 2384 4250 1959 4250 
Q 1534 4250 1286 3958 
Q 1038 3666 1038 3163 
Q 1038 2656 1286 2365 
Q 1534 2075 1959 2075 
z
" transform="scale(0.015625)"/>
       </defs>
       <use xlink:href="#DejaVuSans-32"/>
       <use xlink:href="#DejaVuSans-30" x="63.623047"/>
       <use xlink:href="#DejaVuSans-32" x="127.246094"/>
       <use xlink:href="#DejaVuSans-31" x="190.869141"/>
       <use xlink:href="#DejaVuSans-2d" x="254.492188"/>
       <use xlink:href="#DejaVuSans-30" x="290.576172"/>
       <use xlink:href="#DejaVuSans-39" x="354.199219"/>
      </g>
     </g>
    </g>
    <g id="xtick_2">
     <g id="line2d_3">
      <path d="M 221.421199 320.4 
L 221.421199 43.2 
" clip-path="url(#pd72a27112f)" style="fill: none; stroke-dasharray: 5.12,1.28,0.8,1.28; stroke-dashoffset: 0; stroke: #b0b0b0; stroke-width: 0.8"/>
     </g>
     <g id="line2d_4">
      <g>
       <use xlink:href="#m696f19e7db" x="221.421199" y="320.4" style="fill: #a9a9a9; stroke: #a9a9a9; stroke-width: 0.8"/>
      </g>
     </g>
     <g id="text_2">
      <!-- 2022-01 -->
      <g style="fill: #a9a9a9" transform="translate(200.529793 334.998438) scale(0.1 -0.1)">
       <use xlink:href="#DejaVuSans-32"/>
       <use xlink:href="#DejaVuSans-30" x="63.623047"/>
       <use xlink:href="#DejaVuSans-32" x="127.246094"/>
       <use xlink:href="#DejaVuSans-32" x="190.869141"/>
       <use xlink:href="#DejaVuSans-2d" x="254.492188"/>
       <use xlink:href="#DejaVuSans-30" x="290.576172"/>
       <use xlink:href="#DejaVuSans-31" x="354.199219"/>
      </g>
     </g>
    </g>
    <g id="xtick_3">
     <g id="line2d_5">
      <path d="M 283.273251 320.4 
L 283.273251 43.2 
" clip-path="url(#pd72a27112f)" style="fill: none; stroke-dasharray: 5.12,1.28,0.8,1.28; stroke-dashoffset: 0; stroke: #b0b0b0; stroke-width: 0.8"/>
     </g>
     <g id="line2d_6">
      <g>
       <use xlink:href="#m696f19e7db" x="283.273251" y="320.4" style="fill: #a9a9a9; stroke: #a9a9a9; stroke-width: 0.8"/>
      </g>
     </g>
     <g id="text_3">
      <!-- 2022-05 -->
      <g style="fill: #a9a9a9" transform="translate(262.381844 334.998438) scale(0.1 -0.1)">
       <defs>
        <path id="DejaVuSans-35" d="M 691 4666 
L 3169 4666 
L 3169 4134 
L 1269 4134 
L 1269 2991 
Q 1406 3038 1543 3061 
Q 1681 3084 1819 3084 
Q 2600 3084 3056 2656 
Q 3513 2228 3513 1497 
Q 3513 744 3044 326 
Q 2575 -91 1722 -91 
Q 1428 -91 1123 -41 
Q 819 9 494 109 
L 494 744 
Q 775 591 1075 516 
Q 1375 441 1709 441 
Q 2250 441 2565 725 
Q 2881 1009 2881 1497 
Q 2881 1984 2565 2268 
Q 2250 2553 1709 2553 
Q 1456 2553 1204 2497 
Q 953 2441 691 2322 
L 691 4666 
z
" transform="scale(0.015625)"/>
       </defs>
       <use xlink:href="#DejaVuSans-32"/>
       <use xlink:href="#DejaVuSans-30" x="63.623047"/>
       <use xlink:href="#DejaVuSans-32" x="127.246094"/>
       <use xlink:href="#DejaVuSans-32" x="190.869141"/>
       <use xlink:href="#DejaVuSans-2d" x="254.492188"/>
       <use xlink:href="#DejaVuSans-30" x="290.576172"/>
       <use xlink:href="#DejaVuSans-35" x="354.199219"/>
      </g>
     </g>
    </g>
    <g id="xtick_4">
     <g id="line2d_7">
      <path d="M 346.671603 320.4 
L 346.671603 43.2 
" clip-path="url(#pd72a27112f)" style="fill: none; stroke-dasharray: 5.12,1.28,0.8,1.28; stroke-dashoffset: 0; stroke: #b0b0b0; stroke-width: 0.8"/>
     </g>
     <g id="line2d_8">
      <g>
       <use xlink:href="#m696f19e7db" x="346.671603" y="320.4" style="fill: #a9a9a9; stroke: #a9a9a9; stroke-width: 0.8"/>
      </g>
     </g>
     <g id="text_4">
      <!-- 2022-09 -->
      <g style="fill: #a9a9a9" transform="translate(325.780197 334.998438) scale(0.1 -0.1)">
       <use xlink:href="#DejaVuSans-32"/>
       <use xlink:href="#DejaVuSans-30" x="63.623047"/>
       <use xlink:href="#DejaVuSans-32" x="127.246094"/>
       <use xlink:href="#DejaVuSans-32" x="190.869141"/>
       <use xlink:href="#DejaVuSans-2d" x="254.492188"/>
       <use xlink:href="#DejaVuSans-30" x="290.576172"/>
       <use xlink:href="#DejaVuSans-39" x="354.199219"/>
      </g>
     </g>
    </g>
    <g id="xtick_5">
     <g id="line2d_9">
      <path d="M 409.554522 320.4 
L 409.554522 43.2 
" clip-path="url(#pd72a27112f)" style="fill: none; stroke-dasharray: 5.12,1.28,0.8,1.28; stroke-dashoffset: 0; stroke: #b0b0b0; stroke-width: 0.8"/>
     </g>
     <g id="line2d_10">
      <g>
       <use xlink:href="#m696f19e7db" x="409.554522" y="320.4" style="fill: #a9a9a9; stroke: #a9a9a9; stroke-width: 0.8"/>
      </g>
     </g>
     <g id="text_5">
      <!-- 2023-01 -->
      <g style="fill: #a9a9a9" transform="translate(388.663116 334.998438) scale(0.1 -0.1)">
       <defs>
        <path id="DejaVuSans-33" d="M 2597 2516 
Q 3050 2419 3304 2112 
Q 3559 1806 3559 1356 
Q 3559 666 3084 287 
Q 2609 -91 1734 -91 
Q 1441 -91 1130 -33 
Q 819 25 488 141 
L 488 750 
Q 750 597 1062 519 
Q 1375 441 1716 441 
Q 2309 441 2620 675 
Q 2931 909 2931 1356 
Q 2931 1769 2642 2001 
Q 2353 2234 1838 2234 
L 1294 2234 
L 1294 2753 
L 1863 2753 
Q 2328 2753 2575 2939 
Q 2822 3125 2822 3475 
Q 2822 3834 2567 4026 
Q 2313 4219 1838 4219 
Q 1578 4219 1281 4162 
Q 984 4106 628 3988 
L 628 4550 
Q 988 4650 1302 4700 
Q 1616 4750 1894 4750 
Q 2613 4750 3031 4423 
Q 3450 4097 3450 3541 
Q 3450 3153 3228 2886 
Q 3006 2619 2597 2516 
z
" transform="scale(0.015625)"/>
       </defs>
       <use xlink:href="#DejaVuSans-32"/>
       <use xlink:href="#DejaVuSans-30" x="63.623047"/>
       <use xlink:href="#DejaVuSans-32" x="127.246094"/>
       <use xlink:href="#DejaVuSans-33" x="190.869141"/>
       <use xlink:href="#DejaVuSans-2d" x="254.492188"/>
       <use xlink:href="#DejaVuSans-30" x="290.576172"/>
       <use xlink:href="#DejaVuSans-31" x="354.199219"/>
      </g>
     </g>
    </g>
    <g id="xtick_6">
     <g id="line2d_11">
      <path d="M 471.406574 320.4 
L 471.406574 43.2 
" clip-path="url(#pd72a27112f)" style="fill: none; stroke-dasharray: 5.12,1.28,0.8,1.28; stroke-dashoffset: 0; stroke: #b0b0b0; stroke-width: 0.8"/>
     </g>
     <g id="line2d_12">
      <g>
       <use xlink:href="#m696f19e7db" x="471.406574" y="320.4" style="fill: #a9a9a9; stroke: #a9a9a9; stroke-width: 0.8"/>
      </g>
     </g>
     <g id="text_6">
      <!-- 2023-05 -->
      <g style="fill: #a9a9a9" transform="translate(450.515168 334.998438) scale(0.1 -0.1)">
       <use xlink:href="#DejaVuSans-32"/>
       <use xlink:href="#DejaVuSans-30" x="63.623047"/>
       <use xlink:href="#DejaVuSans-32" x="127.246094"/>
       <use xlink:href="#DejaVuSans-33" x="190.869141"/>
       <use xlink:href="#DejaVuSans-2d" x="254.492188"/>
       <use xlink:href="#DejaVuSans-30" x="290.576172"/>
       <use xlink:href="#DejaVuSans-35" x="354.199219"/>
      </g>
     </g>
    </g>
    <g id="xtick_7">
     <g id="line2d_13">
      <path d="M 534.804926 320.4 
L 534.804926 43.2 
" clip-path="url(#pd72a27112f)" style="fill: none; stroke-dasharray: 5.12,1.28,0.8,1.28; stroke-dashoffset: 0; stroke: #b0b0b0; stroke-width: 0.8"/>
     </g>
     <g id="line2d_14">
      <g>
       <use xlink:href="#m696f19e7db" x="534.804926" y="320.4" style="fill: #a9a9a9; stroke: #a9a9a9; stroke-width: 0.8"/>
      </g>
     </g>
     <g id="text_7">
      <!-- 2023-09 -->
      <g style="fill: #a9a9a9" transform="translate(513.91352 334.998438) scale(0.1 -0.1)">
       <use xlink:href="#DejaVuSans-32"/>
       <use xlink:href="#DejaVuSans-30" x="63.623047"/>
       <use xlink:href="#DejaVuSans-32" x="127.246094"/>
       <use xlink:href="#DejaVuSans-33" x="190.869141"/>
       <use xlink:href="#DejaVuSans-2d" x="254.492188"/>
       <use xlink:href="#DejaVuSans-30" x="290.576172"/>
       <use xlink:href="#DejaVuSans-39" x="354.199219"/>
      </g>
     </g>
    </g>
    <g id="xtick_8">
     <g id="line2d_15">
      <path d="M 597.687845 320.4 
L 597.687845 43.2 
" clip-path="url(#pd72a27112f)" style="fill: none; stroke-dasharray: 5.12,1.28,0.8,1.28; stroke-dashoffset: 0; stroke: #b0b0b0; stroke-width: 0.8"/>
     </g>
     <g id="line2d_16">
      <g>
       <use xlink:href="#m696f19e7db" x="597.687845" y="320.4" style="fill: #a9a9a9; stroke: #a9a9a9; stroke-width: 0.8"/>
      </g>
     </g>
     <g id="text_8">
      <!-- 2024-01 -->
      <g style="fill: #a9a9a9" transform="translate(576.796439 334.998438) scale(0.1 -0.1)">
       <defs>
        <path id="DejaVuSans-34" d="M 2419 4116 
L 825 1625 
L 2419 1625 
L 2419 4116 
z
M 2253 4666 
L 3047 4666 
L 3047 1625 
L 3713 1625 
L 3713 1100 
L 3047 1100 
L 3047 0 
L 2419 0 
L 2419 1100 
L 313 1100 
L 313 1709 
L 2253 4666 
z
" transform="scale(0.015625)"/>
       </defs>
       <use xlink:href="#DejaVuSans-32"/>
       <use xlink:href="#DejaVuSans-30" x="63.623047"/>
       <use xlink:href="#DejaVuSans-32" x="127.246094"/>
       <use xlink:href="#DejaVuSans-34" x="190.869141"/>
       <use xlink:href="#DejaVuSans-2d" x="254.492188"/>
       <use xlink:href="#DejaVuSans-30" x="290.576172"/>
       <use xlink:href="#DejaVuSans-31" x="354.199219"/>
      </g>
     </g>
    </g>
    <g id="xtick_9">
     <g id="line2d_17">
      <path d="M 660.055331 320.4 
L 660.055331 43.2 
" clip-path="url(#pd72a27112f)" style="fill: none; stroke-dasharray: 5.12,1.28,0.8,1.28; stroke-dashoffset: 0; stroke: #b0b0b0; stroke-width: 0.8"/>
     </g>
     <g id="line2d_18">
      <g>
       <use xlink:href="#m696f19e7db" x="660.055331" y="320.4" style="fill: #a9a9a9; stroke: #a9a9a9; stroke-width: 0.8"/>
      </g>
     </g>
     <g id="text_9">
      <!-- 2024-05 -->
      <g style="fill: #a9a9a9" transform="translate(639.163924 334.998438) scale(0.1 -0.1)">
       <use xlink:href="#DejaVuSans-32"/>
       <use xlink:href="#DejaVuSans-30" x="63.623047"/>
       <use xlink:href="#DejaVuSans-32" x="127.246094"/>
       <use xlink:href="#DejaVuSans-34" x="190.869141"/>
       <use xlink:href="#DejaVuSans-2d" x="254.492188"/>
       <use xlink:href="#DejaVuSans-30" x="290.576172"/>
       <use xlink:href="#DejaVuSans-35" x="354.199219"/>
      </g>
     </g>
    </g>
    <g id="xtick_10">
     <g id="line2d_19">
      <path d="M 723.453683 320.4 
L 723.453683 43.2 
" clip-path="url(#pd72a27112f)" style="fill: none; stroke-dasharray: 5.12,1.28,0.8,1.28; stroke-dashoffset: 0; stroke: #b0b0b0; stroke-width: 0.8"/>
     </g>
     <g id="line2d_20">
      <g>
       <use xlink:href="#m696f19e7db" x="723.453683" y="320.4" style="fill: #a9a9a9; stroke: #a9a9a9; stroke-width: 0.8"/>
      </g>
     </g>
     <g id="text_10">
      <!-- 2024-09 -->
      <g style="fill: #a9a9a9" transform="translate(702.562277 334.998438) scale(0.1 -0.1)">
       <use xlink:href="#DejaVuSans-32"/>
       <use xlink:href="#DejaVuSans-30" x="63.623047"/>
       <use xlink:href="#DejaVuSans-32" x="127.246094"/>
       <use xlink:href="#DejaVuSans-34" x="190.869141"/>
       <use xlink:href="#DejaVuSans-2d" x="254.492188"/>
       <use xlink:href="#DejaVuSans-30" x="290.576172"/>
       <use xlink:href="#DejaVuSans-39" x="354.199219"/>
      </g>
     </g>
    </g>
   </g>
   <g id="matplotlib.axis_2">
    <g id="ytick_1">
     <g id="line2d_21">
      <path d="M 108 307.836999 
L 777.6 307.836999 
" clip-path="url(#pd72a27112f)" style="fill: none; stroke-dasharray: 5.12,1.28,0.8,1.28; stroke-dashoffset: 0; stroke: #b0b0b0; stroke-width: 0.8"/>
     </g>
     <g id="line2d_22">
      <defs>
       <path id="m5f34362352" d="M 0 0 
L -3.5 0 
" style="stroke: #a9a9a9; stroke-width: 0.8"/>
      </defs>
      <g>
       <use xlink:href="#m5f34362352" x="108" y="307.836999" style="fill: #a9a9a9; stroke: #a9a9a9; stroke-width: 0.8"/>
      </g>
     </g>
     <g id="text_11">
      <!-- 0 -->
      <g style="fill: #a9a9a9" transform="translate(94.6375 311.636218) scale(0.1 -0.1)">
       <use xlink:href="#DejaVuSans-30"/>
      </g>
     </g>
    </g>
    <g id="ytick_2">
     <g id="line2d_23">
      <path d="M 108 278.237821 
L 777.6 278.237821 
" clip-path="url(#pd72a27112f)" style="fill: none; stroke-dasharray: 5.12,1.28,0.8,1.28; stroke-dashoffset: 0; stroke: #b0b0b0; stroke-width: 0.8"/>
     </g>
     <g id="line2d_24">
      <g>
       <use xlink:href="#m5f34362352" x="108" y="278.237821" style="fill: #a9a9a9; stroke: #a9a9a9; stroke-width: 0.8"/>
      </g>
     </g>
     <g id="text_12">
      <!-- 800 -->
      <g style="fill: #a9a9a9" transform="translate(81.9125 282.03704) scale(0.1 -0.1)">
       <defs>
        <path id="DejaVuSans-38" d="M 2034 2216 
Q 1584 2216 1326 1975 
Q 1069 1734 1069 1313 
Q 1069 891 1326 650 
Q 1584 409 2034 409 
Q 2484 409 2743 651 
Q 3003 894 3003 1313 
Q 3003 1734 2745 1975 
Q 2488 2216 2034 2216 
z
M 1403 2484 
Q 997 2584 770 2862 
Q 544 3141 544 3541 
Q 544 4100 942 4425 
Q 1341 4750 2034 4750 
Q 2731 4750 3128 4425 
Q 3525 4100 3525 3541 
Q 3525 3141 3298 2862 
Q 3072 2584 2669 2484 
Q 3125 2378 3379 2068 
Q 3634 1759 3634 1313 
Q 3634 634 3220 271 
Q 2806 -91 2034 -91 
Q 1263 -91 848 271 
Q 434 634 434 1313 
Q 434 1759 690 2068 
Q 947 2378 1403 2484 
z
M 1172 3481 
Q 1172 3119 1398 2916 
Q 1625 2713 2034 2713 
Q 2441 2713 2670 2916 
Q 2900 3119 2900 3481 
Q 2900 3844 2670 4047 
Q 2441 4250 2034 4250 
Q 1625 4250 1398 4047 
Q 1172 3844 1172 3481 
z
" transform="scale(0.015625)"/>
       </defs>
       <use xlink:href="#DejaVuSans-38"/>
       <use xlink:href="#DejaVuSans-30" x="63.623047"/>
       <use xlink:href="#DejaVuSans-30" x="127.246094"/>
      </g>
     </g>
    </g>
    <g id="ytick_3">
     <g id="line2d_25">
      <path d="M 108 248.638643 
L 777.6 248.638643 
" clip-path="url(#pd72a27112f)" style="fill: none; stroke-dasharray: 5.12,1.28,0.8,1.28; stroke-dashoffset: 0; stroke: #b0b0b0; stroke-width: 0.8"/>
     </g>
     <g id="line2d_26">
      <g>
       <use xlink:href="#m5f34362352" x="108" y="248.638643" style="fill: #a9a9a9; stroke: #a9a9a9; stroke-width: 0.8"/>
      </g>
     </g>
     <g id="text_13">
      <!-- 1600 -->
      <g style="fill: #a9a9a9" transform="translate(75.55 252.437862) scale(0.1 -0.1)">
       <defs>
        <path id="DejaVuSans-36" d="M 2113 2584 
Q 1688 2584 1439 2293 
Q 1191 2003 1191 1497 
Q 1191 994 1439 701 
Q 1688 409 2113 409 
Q 2538 409 2786 701 
Q 3034 994 3034 1497 
Q 3034 2003 2786 2293 
Q 2538 2584 2113 2584 
z
M 3366 4563 
L 3366 3988 
Q 3128 4100 2886 4159 
Q 2644 4219 2406 4219 
Q 1781 4219 1451 3797 
Q 1122 3375 1075 2522 
Q 1259 2794 1537 2939 
Q 1816 3084 2150 3084 
Q 2853 3084 3261 2657 
Q 3669 2231 3669 1497 
Q 3669 778 3244 343 
Q 2819 -91 2113 -91 
Q 1303 -91 875 529 
Q 447 1150 447 2328 
Q 447 3434 972 4092 
Q 1497 4750 2381 4750 
Q 2619 4750 2861 4703 
Q 3103 4656 3366 4563 
z
" transform="scale(0.015625)"/>
       </defs>
       <use xlink:href="#DejaVuSans-31"/>
       <use xlink:href="#DejaVuSans-36" x="63.623047"/>
       <use xlink:href="#DejaVuSans-30" x="127.246094"/>
       <use xlink:href="#DejaVuSans-30" x="190.869141"/>
      </g>
     </g>
    </g>
    <g id="ytick_4">
     <g id="line2d_27">
      <path d="M 108 219.039466 
L 777.6 219.039466 
" clip-path="url(#pd72a27112f)" style="fill: none; stroke-dasharray: 5.12,1.28,0.8,1.28; stroke-dashoffset: 0; stroke: #b0b0b0; stroke-width: 0.8"/>
     </g>
     <g id="line2d_28">
      <g>
       <use xlink:href="#m5f34362352" x="108" y="219.039466" style="fill: #a9a9a9; stroke: #a9a9a9; stroke-width: 0.8"/>
      </g>
     </g>
     <g id="text_14">
      <!-- 2400 -->
      <g style="fill: #a9a9a9" transform="translate(75.55 222.838684) scale(0.1 -0.1)">
       <use xlink:href="#DejaVuSans-32"/>
       <use xlink:href="#DejaVuSans-34" x="63.623047"/>
       <use xlink:href="#DejaVuSans-30" x="127.246094"/>
       <use xlink:href="#DejaVuSans-30" x="190.869141"/>
      </g>
     </g>
    </g>
    <g id="ytick_5">
     <g id="line2d_29">
      <path d="M 108 189.440288 
L 777.6 189.440288 
" clip-path="url(#pd72a27112f)" style="fill: none; stroke-dasharray: 5.12,1.28,0.8,1.28; stroke-dashoffset: 0; stroke: #b0b0b0; stroke-width: 0.8"/>
     </g>
     <g id="line2d_30">
      <g>
       <use xlink:href="#m5f34362352" x="108" y="189.440288" style="fill: #a9a9a9; stroke: #a9a9a9; stroke-width: 0.8"/>
      </g>
     </g>
     <g id="text_15">
      <!-- 3200 -->
      <g style="fill: #a9a9a9" transform="translate(75.55 193.239507) scale(0.1 -0.1)">
       <use xlink:href="#DejaVuSans-33"/>
       <use xlink:href="#DejaVuSans-32" x="63.623047"/>
       <use xlink:href="#DejaVuSans-30" x="127.246094"/>
       <use xlink:href="#DejaVuSans-30" x="190.869141"/>
      </g>
     </g>
    </g>
    <g id="ytick_6">
     <g id="line2d_31">
      <path d="M 108 159.84111 
L 777.6 159.84111 
" clip-path="url(#pd72a27112f)" style="fill: none; stroke-dasharray: 5.12,1.28,0.8,1.28; stroke-dashoffset: 0; stroke: #b0b0b0; stroke-width: 0.8"/>
     </g>
     <g id="line2d_32">
      <g>
       <use xlink:href="#m5f34362352" x="108" y="159.84111" style="fill: #a9a9a9; stroke: #a9a9a9; stroke-width: 0.8"/>
      </g>
     </g>
     <g id="text_16">
      <!-- 4000 -->
      <g style="fill: #a9a9a9" transform="translate(75.55 163.640329) scale(0.1 -0.1)">
       <use xlink:href="#DejaVuSans-34"/>
       <use xlink:href="#DejaVuSans-30" x="63.623047"/>
       <use xlink:href="#DejaVuSans-30" x="127.246094"/>
       <use xlink:href="#DejaVuSans-30" x="190.869141"/>
      </g>
     </g>
    </g>
    <g id="ytick_7">
     <g id="line2d_33">
      <path d="M 108 130.241932 
L 777.6 130.241932 
" clip-path="url(#pd72a27112f)" style="fill: none; stroke-dasharray: 5.12,1.28,0.8,1.28; stroke-dashoffset: 0; stroke: #b0b0b0; stroke-width: 0.8"/>
     </g>
     <g id="line2d_34">
      <g>
       <use xlink:href="#m5f34362352" x="108" y="130.241932" style="fill: #a9a9a9; stroke: #a9a9a9; stroke-width: 0.8"/>
      </g>
     </g>
     <g id="text_17">
      <!-- 4800 -->
      <g style="fill: #a9a9a9" transform="translate(75.55 134.041151) scale(0.1 -0.1)">
       <use xlink:href="#DejaVuSans-34"/>
       <use xlink:href="#DejaVuSans-38" x="63.623047"/>
       <use xlink:href="#DejaVuSans-30" x="127.246094"/>
       <use xlink:href="#DejaVuSans-30" x="190.869141"/>
      </g>
     </g>
    </g>
    <g id="ytick_8">
     <g id="line2d_35">
      <path d="M 108 100.642754 
L 777.6 100.642754 
" clip-path="url(#pd72a27112f)" style="fill: none; stroke-dasharray: 5.12,1.28,0.8,1.28; stroke-dashoffset: 0; stroke: #b0b0b0; stroke-width: 0.8"/>
     </g>
     <g id="line2d_36">
      <g>
       <use xlink:href="#m5f34362352" x="108" y="100.642754" style="fill: #a9a9a9; stroke: #a9a9a9; stroke-width: 0.8"/>
      </g>
     </g>
     <g id="text_18">
      <!-- 5600 -->
      <g style="fill: #a9a9a9" transform="translate(75.55 104.441973) scale(0.1 -0.1)">
       <use xlink:href="#DejaVuSans-35"/>
       <use xlink:href="#DejaVuSans-36" x="63.623047"/>
       <use xlink:href="#DejaVuSans-30" x="127.246094"/>
       <use xlink:href="#DejaVuSans-30" x="190.869141"/>
      </g>
     </g>
    </g>
    <g id="ytick_9">
     <g id="line2d_37">
      <path d="M 108 71.043577 
L 777.6 71.043577 
" clip-path="url(#pd72a27112f)" style="fill: none; stroke-dasharray: 5.12,1.28,0.8,1.28; stroke-dashoffset: 0; stroke: #b0b0b0; stroke-width: 0.8"/>
     </g>
     <g id="line2d_38">
      <g>
       <use xlink:href="#m5f34362352" x="108" y="71.043577" style="fill: #a9a9a9; stroke: #a9a9a9; stroke-width: 0.8"/>
      </g>
     </g>
     <g id="text_19">
      <!-- 6400 -->
      <g style="fill: #a9a9a9" transform="translate(75.55 74.842795) scale(0.1 -0.1)">
       <use xlink:href="#DejaVuSans-36"/>
       <use xlink:href="#DejaVuSans-34" x="63.623047"/>
       <use xlink:href="#DejaVuSans-30" x="127.246094"/>
       <use xlink:href="#DejaVuSans-30" x="190.869141"/>
      </g>
     </g>
    </g>
   </g>
   <g id="line2d_39">
    <path d="M 138.436364 307.726002 
L 141.528966 307.467009 
L 142.0444 307.245015 
L 144.106135 306.986023 
L 146.16787 306.579034 
L 147.198738 306.431038 
L 149.775906 306.209044 
L 150.806774 305.802055 
L 151.322208 305.136074 
L 151.837641 304.766084 
L 152.353075 303.619116 
L 152.868509 303.545118 
L 153.383943 303.138129 
L 154.41481 302.620144 
L 156.476545 300.992189 
L 158.53828 299.993217 
L 160.084582 299.290236 
L 160.600015 298.476259 
L 161.630883 297.73628 
L 162.146317 297.514286 
L 167.300654 296.774306 
L 167.816088 296.552312 
L 171.424124 296.256321 
L 173.485859 295.775334 
L 177.60933 295.220349 
L 178.124763 294.961357 
L 178.640197 294.887359 
L 179.671065 294.554368 
L 183.279101 293.962384 
L 184.309968 293.666393 
L 188.948872 292.889414 
L 189.97974 292.66742 
L 191.010607 292.630421 
L 193.072342 292.149435 
L 193.587776 291.446454 
L 195.134077 290.854471 
L 196.680379 290.447482 
L 197.195812 290.188489 
L 198.22668 290.003494 
L 200.288415 289.411511 
L 201.319283 289.337513 
L 202.35015 289.07852 
L 204.411885 288.560534 
L 204.927319 288.523535 
L 205.958186 288.042549 
L 206.47362 287.968551 
L 206.989054 287.709558 
L 212.658825 286.784584 
L 214.72056 286.1926 
L 215.235994 285.859609 
L 217.813163 285.008633 
L 218.84403 284.305653 
L 220.390332 284.009661 
L 230.183573 281.16074 
L 231.214441 280.753751 
L 232.245308 280.679753 
L 233.79161 280.235766 
L 234.307043 280.235766 
L 234.822477 280.013772 
L 235.853345 279.902775 
L 236.368778 279.71778 
L 238.430513 279.606783 
L 239.461381 279.421788 
L 240.492248 278.903803 
L 246.677454 276.12888 
L 247.192887 275.573895 
L 248.223755 274.019938 
L 248.739189 273.871942 
L 249.254622 273.871942 
L 250.28549 273.094964 
L 251.831791 272.576978 
L 252.347225 272.095992 
L 253.378093 271.689003 
L 254.40896 271.208016 
L 255.439828 269.728058 
L 255.955261 269.395067 
L 256.470695 268.507091 
L 256.986129 267.952107 
L 260.078731 266.324152 
L 261.109599 265.510175 
L 261.625033 265.177184 
L 262.140466 264.400206 
L 262.6559 263.253237 
L 263.171334 262.476259 
L 263.686768 262.06927 
L 264.202202 261.847276 
L 267.810238 258.813361 
L 268.841105 257.592395 
L 269.871973 256.852415 
L 271.418274 255.816444 
L 271.933708 255.372456 
L 272.964575 255.039466 
L 274.510877 254.15149 
L 276.057178 253.152518 
L 278.118913 251.302569 
L 279.149781 250.895581 
L 280.180648 250.1926 
L 280.696082 249.896608 
L 281.211516 249.82261 
L 284.819552 247.565673 
L 286.881287 246.455704 
L 287.396721 245.974717 
L 295.643661 243.088798 
L 296.674529 242.163823 
L 297.705396 241.682837 
L 298.736264 241.127852 
L 299.251697 240.83186 
L 300.282565 240.535868 
L 300.797999 240.202878 
L 301.313432 240.054882 
L 302.859734 239.05591 
L 305.436902 238.463926 
L 306.983204 237.575951 
L 308.529505 237.24296 
L 309.044939 237.094964 
L 310.59124 235.947996 
L 312.652975 235.393011 
L 313.168409 234.986023 
L 316.261011 233.950051 
L 317.291879 233.765057 
L 318.322747 233.358068 
L 321.930783 232.063104 
L 322.96165 231.915108 
L 324.507952 231.397122 
L 327.08512 230.176156 
L 329.146856 229.066187 
L 333.270326 227.401233 
L 333.785759 227.327235 
L 334.816627 226.698253 
L 335.332061 226.624255 
L 337.393796 225.773279 
L 339.455531 225.477287 
L 340.486398 224.959301 
L 341.001832 224.515313 
L 341.517266 223.590339 
L 343.579001 223.035355 
L 345.125302 222.258376 
L 345.640736 222.147379 
L 349.764206 220.186434 
L 351.310507 219.890442 
L 352.341375 219.372456 
L 352.856809 219.150462 
L 353.372242 219.076465 
L 355.433977 218.15149 
L 356.980279 217.189517 
L 358.52658 216.893525 
L 361.103749 216.264543 
L 361.619183 215.857554 
L 363.165484 215.302569 
L 365.227219 214.488592 
L 365.742653 214.118602 
L 366.258086 213.933607 
L 367.288954 213.378623 
L 369.866123 212.527646 
L 371.412424 211.30668 
L 371.927858 211.195683 
L 372.958725 210.381706 
L 373.474159 210.307708 
L 373.989593 209.493731 
L 374.505027 209.271737 
L 375.02046 208.864748 
L 375.535894 208.79075 
L 376.566762 208.161768 
L 377.597629 207.828777 
L 378.113063 207.421788 
L 378.628497 207.236793 
L 380.174798 206.163823 
L 382.236533 205.090853 
L 382.751967 205.016855 
L 384.298268 204.239877 
L 384.813702 203.3889 
L 385.329136 202.944913 
L 385.844569 202.648921 
L 386.360003 202.537924 
L 387.390871 201.871942 
L 387.906304 201.760946 
L 388.937172 201.24296 
L 390.998907 200.243988 
L 391.514341 199.873998 
L 392.545208 198.875026 
L 393.576076 198.246043 
L 394.09151 197.913052 
L 394.606943 197.358068 
L 396.668678 195.952107 
L 397.184112 195.360123 
L 397.699546 194.953135 
L 398.730413 194.583145 
L 399.761281 193.880164 
L 401.307582 193.103186 
L 401.823016 193.029188 
L 403.369317 192.215211 
L 404.400185 191.586228 
L 409.554522 189.73628 
L 410.069956 189.329291 
L 412.131691 188.552312 
L 412.647125 188.404317 
L 413.162559 187.997328 
L 415.739728 186.591367 
L 416.770595 184.556423 
L 417.801463 183.372456 
L 418.83233 182.743474 
L 420.378631 182.114491 
L 420.894065 182.040493 
L 421.409499 181.744502 
L 423.986668 180.930524 
L 424.502101 180.70853 
L 425.532969 180.00555 
L 427.07927 179.339568 
L 428.110138 178.784584 
L 428.625572 178.414594 
L 429.141005 178.1926 
L 429.656439 177.82261 
L 430.171873 177.267626 
L 431.20274 176.712641 
L 433.779909 175.343679 
L 436.872512 173.826721 
L 437.903379 173.493731 
L 439.449681 173.012744 
L 441.511416 172.08777 
L 442.542283 171.680781 
L 443.057717 171.273792 
L 444.088584 170.940802 
L 447.181187 169.349846 
L 448.212054 168.535868 
L 449.242922 168.165879 
L 449.758356 167.721891 
L 450.27379 167.647893 
L 451.304657 166.870915 
L 452.335525 166.352929 
L 452.850958 166.130935 
L 453.366392 165.61295 
L 456.974428 164.206989 
L 458.005296 163.763001 
L 459.551597 163.282014 
L 460.582465 163.134018 
L 461.097899 162.912025 
L 461.613332 162.838027 
L 462.6442 162.394039 
L 463.159634 162.35704 
L 465.221369 161.580062 
L 466.76767 160.507091 
L 467.283104 160.322097 
L 468.313971 159.767112 
L 468.829405 159.619116 
L 471.922008 157.917163 
L 472.437441 157.806166 
L 473.983743 156.918191 
L 475.530044 156.400206 
L 476.560911 156.067215 
L 478.622646 155.401233 
L 479.653514 155.068243 
L 481.715249 154.661254 
L 482.230683 154.43926 
L 482.746117 154.365262 
L 483.776984 153.921274 
L 484.292418 153.847276 
L 484.807852 153.588284 
L 485.838719 153.403289 
L 487.38502 152.848304 
L 488.415888 152.737307 
L 489.962189 152.404317 
L 492.539358 151.960329 
L 505.940636 148.112436 
L 506.45607 147.59445 
L 507.486937 147.187461 
L 510.57954 146.077492 
L 511.094973 145.744502 
L 511.610407 145.633505 
L 512.125841 145.337513 
L 513.672142 144.893525 
L 514.70301 144.634532 
L 515.218444 144.301542 
L 515.733877 144.190545 
L 516.249311 143.746557 
L 517.795612 143.450565 
L 518.82648 142.969579 
L 519.341914 142.377595 
L 521.403649 141.896608 
L 525.011685 141.156629 
L 525.527119 141.156629 
L 526.042553 140.934635 
L 528.104288 140.564645 
L 528.619721 140.342652 
L 530.681456 139.972662 
L 531.712324 139.528674 
L 532.743191 139.343679 
L 535.32036 138.714697 
L 537.382095 138.085714 
L 537.897529 137.974717 
L 538.412963 137.715725 
L 539.44383 137.456732 
L 539.959264 137.16074 
L 541.505565 136.642754 
L 542.020999 136.272765 
L 543.051867 135.976773 
L 544.082734 135.643782 
L 545.113602 135.236793 
L 546.659903 134.570812 
L 548.721638 134.311819 
L 552.845108 132.868859 
L 553.360542 132.498869 
L 553.875976 132.387873 
L 554.391409 132.12888 
L 554.906843 132.091881 
L 560.576615 130.130935 
L 563.153783 129.464954 
L 564.184651 128.983967 
L 565.730952 128.650976 
L 566.246386 128.243988 
L 566.76182 127.984995 
L 567.277253 127.356012 
L 567.792687 126.986023 
L 568.823555 126.690031 
L 569.338989 126.283042 
L 572.431591 125.136074 
L 572.947025 124.803083 
L 573.977892 124.507091 
L 574.493326 124.174101 
L 577.070495 123.360123 
L 578.616796 122.472148 
L 579.13223 122.361151 
L 581.709399 120.992189 
L 583.2557 120.289209 
L 583.771134 119.919219 
L 584.802001 119.586228 
L 585.832869 118.994245 
L 586.348303 118.80925 
L 586.863736 118.43926 
L 593.564375 116.108325 
L 594.079809 115.997328 
L 594.595243 115.664337 
L 596.656978 115.257348 
L 597.687845 114.85036 
L 598.203279 114.554368 
L 598.718713 114.406372 
L 600.780448 113.333402 
L 601.295882 113.259404 
L 602.842183 112.408428 
L 605.934786 111.187461 
L 607.996521 110.373484 
L 608.511954 110.225488 
L 609.027388 109.892497 
L 610.058256 109.744502 
L 610.573689 109.411511 
L 611.604557 109.226516 
L 612.635425 108.745529 
L 613.150858 108.523535 
L 613.666292 108.449538 
L 616.243461 107.450565 
L 617.789762 107.043577 
L 618.82063 106.784584 
L 620.366931 106.340596 
L 621.397798 105.933607 
L 623.459534 104.823638 
L 624.490401 104.41665 
L 625.005835 104.083659 
L 626.036702 103.861665 
L 626.552136 103.565673 
L 627.06757 103.454676 
L 628.613871 102.6037 
L 629.644739 102.196711 
L 631.19104 101.493731 
L 632.737341 101.086742 
L 635.829944 99.865776 
L 637.891679 99.162795 
L 639.43798 98.607811 
L 639.953414 98.422816 
L 640.984281 97.867831 
L 643.046016 96.942857 
L 648.200354 94.981912 
L 648.715788 94.611922 
L 650.777523 93.908941 
L 651.292957 93.908941 
L 652.323824 93.464954 
L 653.354692 92.539979 
L 653.870125 92.095992 
L 655.416427 91.356012 
L 655.931861 91.245015 
L 656.447294 90.986023 
L 656.962728 90.912025 
L 657.478162 90.542035 
L 657.993596 90.431038 
L 659.024463 89.802055 
L 660.570764 89.025077 
L 661.601632 88.618088 
L 662.117066 88.359096 
L 664.694234 87.730113 
L 665.209668 87.47112 
L 666.75597 87.027133 
L 668.817705 86.02816 
L 669.848572 85.547174 
L 670.87944 85.288181 
L 672.941175 84.363207 
L 673.456608 84.215211 
L 673.972042 83.88222 
L 677.064645 82.772251 
L 678.610946 81.847276 
L 679.12638 81.73628 
L 680.157247 81.218294 
L 681.188115 80.848304 
L 681.703549 80.404317 
L 682.734416 79.997328 
L 684.280717 79.368345 
L 684.796151 78.961357 
L 685.311585 78.924358 
L 686.342452 78.628366 
L 687.37332 78.295375 
L 687.888754 78.036382 
L 688.404188 77.962384 
L 689.950489 77.4074 
L 691.49679 76.852415 
L 692.527658 76.445427 
L 693.043091 76.038438 
L 694.589393 75.631449 
L 695.104826 75.335457 
L 696.135694 75.076465 
L 697.681995 74.225488 
L 698.197429 74.188489 
L 699.74373 73.707503 
L 700.774598 73.596506 
L 701.805465 73.189517 
L 704.898068 72.301542 
L 705.928935 72.264543 
L 709.021538 71.26557 
L 709.536972 71.191572 
L 711.083273 70.377595 
L 711.598707 69.933607 
L 713.145008 69.045632 
L 713.660442 68.638643 
L 714.691309 68.231655 
L 716.237611 67.787667 
L 716.753044 67.491675 
L 717.268478 67.380678 
L 717.783912 66.97369 
L 720.876515 65.715725 
L 722.93825 65.16074 
L 723.969117 64.716752 
L 724.999985 64.309764 
L 726.546286 63.680781 
L 727.577153 63.34779 
L 729.123455 62.755807 
L 730.154322 62.089825 
L 731.700624 61.682837 
L 733.246925 60.646865 
L 733.762359 60.572867 
L 736.339527 59.536896 
L 737.885829 59.166906 
L 738.401262 59.092909 
L 738.916696 58.870915 
L 739.43213 58.833916 
L 740.462997 58.463926 
L 740.978431 58.426927 
L 742.524733 57.834943 
L 744.586468 57.24296 
L 745.617335 56.428983 
L 746.648203 55.836999 
L 747.163636 55.8 
L 747.163636 55.8 
" clip-path="url(#pd72a27112f)" style="fill: none; stroke: #1f77b4; stroke-width: 1.5; stroke-linecap: square"/>
   </g>
   <g id="line2d_40">
    <path d="M 138.951797 307.8 
L 143.590701 307.689003 
L 147.714171 307.504008 
L 149.775906 307.504008 
L 150.29134 307.356012 
L 152.868509 307.245015 
L 155.961112 306.912025 
L 159.053714 306.801028 
L 160.084582 306.690031 
L 163.692618 306.542035 
L 167.300654 306.431038 
L 169.877823 306.35704 
L 176.578462 306.246043 
L 179.155631 306.172045 
L 182.763667 306.061048 
L 185.340836 305.98705 
L 191.010607 305.876053 
L 193.072342 305.691059 
L 195.134077 305.65406 
L 198.22668 305.543063 
L 200.288415 305.506064 
L 202.865584 305.432066 
L 204.927319 305.247071 
L 209.566223 305.136074 
L 210.59709 305.062076 
L 212.658825 304.951079 
L 215.751428 304.840082 
L 217.813163 304.729085 
L 227.090971 304.174101 
L 230.699007 304.063104 
L 232.245308 303.915108 
L 234.822477 303.804111 
L 239.976815 303.545118 
L 245.131152 303.47112 
L 247.192887 303.249126 
L 249.254622 303.138129 
L 254.924394 302.620144 
L 258.53243 302.213155 
L 260.078731 302.139157 
L 264.717635 301.584173 
L 267.294804 301.510175 
L 268.841105 301.362179 
L 270.387407 301.251182 
L 275.541744 300.770195 
L 277.088046 300.622199 
L 280.180648 300.511202 
L 284.819552 300.141213 
L 285.85042 299.956218 
L 288.943022 299.845221 
L 297.189962 299.364234 
L 300.797999 299.253237 
L 302.859734 299.031244 
L 305.436902 298.920247 
L 308.529505 298.80925 
L 311.106674 298.698253 
L 313.168409 298.661254 
L 315.745578 298.587256 
L 316.776445 298.43926 
L 323.992518 298.328263 
L 325.023385 298.217266 
L 331.208591 298.106269 
L 335.847494 297.884275 
L 339.455531 297.773279 
L 341.517266 297.551285 
L 345.125302 297.440288 
L 346.15617 297.255293 
L 348.733338 297.181295 
L 353.887676 297.107297 
L 356.464845 296.848304 
L 359.557447 296.737307 
L 361.619183 296.552312 
L 366.77352 296.29332 
L 371.927858 296.182323 
L 376.566762 295.960329 
L 378.113063 295.92333 
L 379.14393 295.775334 
L 381.721099 295.664337 
L 382.751967 295.590339 
L 383.782834 295.516341 
L 384.813702 295.442343 
L 389.452606 295.368345 
L 390.998907 295.257348 
L 404.915619 294.369373 
L 407.492787 294.258376 
L 410.069956 294.184378 
L 417.286029 294.073381 
L 418.316896 293.925385 
L 425.532969 293.814388 
L 430.687307 293.555396 
L 431.718174 293.518397 
L 432.749042 293.4074 
L 435.32621 293.296403 
L 437.903379 293.222405 
L 440.480548 293.111408 
L 443.057717 293.03741 
L 447.696621 292.926413 
L 450.789223 292.815416 
L 458.005296 292.704419 
L 463.675067 292.408428 
L 465.736802 292.33443 
L 467.283104 292.223433 
L 474.499176 292.112436 
L 477.591779 292.001439 
L 486.869587 291.890442 
L 488.931322 291.853443 
L 495.116527 291.779445 
L 496.147394 291.705447 
L 503.363467 291.59445 
L 505.425202 291.557451 
L 518.82648 291.446454 
L 520.372781 291.298458 
L 543.5673 291.187461 
L 546.144469 291.113464 
L 559.545747 291.002467 
L 560.576615 290.928469 
L 563.153783 290.854471 
L 564.700085 290.706475 
L 567.792687 290.595478 
L 571.400724 290.447482 
L 576.039627 290.336485 
L 578.616796 290.262487 
L 582.224833 290.15149 
L 586.348303 289.966495 
L 588.925471 289.855498 
L 592.018074 289.744502 
L 599.74958 289.633505 
L 602.842183 289.522508 
L 608.511954 289.411511 
L 612.119991 289.263515 
L 615.728027 289.189517 
L 616.758895 289.115519 
L 629.129305 289.004522 
L 635.829944 288.634532 
L 638.407113 288.560534 
L 639.43798 288.449538 
L 640.468848 288.37554 
L 644.592318 288.264543 
L 647.68492 288.153546 
L 652.839258 288.042549 
L 655.416427 287.783556 
L 660.570764 287.672559 
L 661.601632 287.561562 
L 666.75597 287.450565 
L 669.333138 287.376567 
L 675.00291 287.339568 
L 676.033777 287.228571 
L 681.703549 287.117575 
L 682.734416 287.043577 
L 694.073959 286.93258 
L 697.166561 286.821583 
L 704.898068 286.710586 
L 706.959803 286.673587 
L 711.598707 286.599589 
L 712.629574 286.488592 
L 718.814779 286.377595 
L 721.907382 286.266598 
L 731.18519 286.155601 
L 732.731491 286.044604 
L 734.277792 285.933607 
L 735.824094 285.82261 
L 743.5556 285.711614 
L 747.163636 285.563618 
L 747.163636 285.563618 
" clip-path="url(#pd72a27112f)" style="fill: none; stroke: #ff7f0e; stroke-width: 1.5; stroke-linecap: square"/>
   </g>
   <g id="patch_3">
    <path d="M 108 320.4 
L 108 43.2 
" style="fill: none; stroke: #a9a9a9; stroke-width: 0.8; stroke-linejoin: miter; stroke-linecap: square"/>
   </g>
   <g id="patch_4">
    <path d="M 777.6 320.4 
L 777.6 43.2 
" style="fill: none"/>
   </g>
   <g id="patch_5">
    <path d="M 108 320.4 
L 777.6 320.4 
" style="fill: none; stroke: #a9a9a9; stroke-width: 0.8; stroke-linejoin: miter; stroke-linecap: square"/>
   </g>
   <g id="patch_6">
    <path d="M 108 43.2 
L 777.6 43.2 
" style="fill: none"/>
   </g>
   <g id="text_20">
    <!-- get_subscribe history -->
    <g style="fill: #a9a9a9" transform="translate(378.6075 37.2) scale(0.12 -0.12)">
     <defs>
      <path id="DejaVuSans-67" d="M 2906 1791 
Q 2906 2416 2648 2759 
Q 2391 3103 1925 3103 
Q 1463 3103 1205 2759 
Q 947 2416 947 1791 
Q 947 1169 1205 825 
Q 1463 481 1925 481 
Q 2391 481 2648 825 
Q 2906 1169 2906 1791 
z
M 3481 434 
Q 3481 -459 3084 -895 
Q 2688 -1331 1869 -1331 
Q 1566 -1331 1297 -1286 
Q 1028 -1241 775 -1147 
L 775 -588 
Q 1028 -725 1275 -790 
Q 1522 -856 1778 -856 
Q 2344 -856 2625 -561 
Q 2906 -266 2906 331 
L 2906 616 
Q 2728 306 2450 153 
Q 2172 0 1784 0 
Q 1141 0 747 490 
Q 353 981 353 1791 
Q 353 2603 747 3093 
Q 1141 3584 1784 3584 
Q 2172 3584 2450 3431 
Q 2728 3278 2906 2969 
L 2906 3500 
L 3481 3500 
L 3481 434 
z
" transform="scale(0.015625)"/>
      <path id="DejaVuSans-65" d="M 3597 1894 
L 3597 1613 
L 953 1613 
Q 991 1019 1311 708 
Q 1631 397 2203 397 
Q 2534 397 2845 478 
Q 3156 559 3463 722 
L 3463 178 
Q 3153 47 2828 -22 
Q 2503 -91 2169 -91 
Q 1331 -91 842 396 
Q 353 884 353 1716 
Q 353 2575 817 3079 
Q 1281 3584 2069 3584 
Q 2775 3584 3186 3129 
Q 3597 2675 3597 1894 
z
M 3022 2063 
Q 3016 2534 2758 2815 
Q 2500 3097 2075 3097 
Q 1594 3097 1305 2825 
Q 1016 2553 972 2059 
L 3022 2063 
z
" transform="scale(0.015625)"/>
      <path id="DejaVuSans-74" d="M 1172 4494 
L 1172 3500 
L 2356 3500 
L 2356 3053 
L 1172 3053 
L 1172 1153 
Q 1172 725 1289 603 
Q 1406 481 1766 481 
L 2356 481 
L 2356 0 
L 1766 0 
Q 1100 0 847 248 
Q 594 497 594 1153 
L 594 3053 
L 172 3053 
L 172 3500 
L 594 3500 
L 594 4494 
L 1172 4494 
z
" transform="scale(0.015625)"/>
      <path id="DejaVuSans-5f" d="M 3263 -1063 
L 3263 -1509 
L -63 -1509 
L -63 -1063 
L 3263 -1063 
z
" transform="scale(0.015625)"/>
      <path id="DejaVuSans-73" d="M 2834 3397 
L 2834 2853 
Q 2591 2978 2328 3040 
Q 2066 3103 1784 3103 
Q 1356 3103 1142 2972 
Q 928 2841 928 2578 
Q 928 2378 1081 2264 
Q 1234 2150 1697 2047 
L 1894 2003 
Q 2506 1872 2764 1633 
Q 3022 1394 3022 966 
Q 3022 478 2636 193 
Q 2250 -91 1575 -91 
Q 1294 -91 989 -36 
Q 684 19 347 128 
L 347 722 
Q 666 556 975 473 
Q 1284 391 1588 391 
Q 1994 391 2212 530 
Q 2431 669 2431 922 
Q 2431 1156 2273 1281 
Q 2116 1406 1581 1522 
L 1381 1569 
Q 847 1681 609 1914 
Q 372 2147 372 2553 
Q 372 3047 722 3315 
Q 1072 3584 1716 3584 
Q 2034 3584 2315 3537 
Q 2597 3491 2834 3397 
z
" transform="scale(0.015625)"/>
      <path id="DejaVuSans-75" d="M 544 1381 
L 544 3500 
L 1119 3500 
L 1119 1403 
Q 1119 906 1312 657 
Q 1506 409 1894 409 
Q 2359 409 2629 706 
Q 2900 1003 2900 1516 
L 2900 3500 
L 3475 3500 
L 3475 0 
L 2900 0 
L 2900 538 
Q 2691 219 2414 64 
Q 2138 -91 1772 -91 
Q 1169 -91 856 284 
Q 544 659 544 1381 
z
M 1991 3584 
L 1991 3584 
z
" transform="scale(0.015625)"/>
      <path id="DejaVuSans-62" d="M 3116 1747 
Q 3116 2381 2855 2742 
Q 2594 3103 2138 3103 
Q 1681 3103 1420 2742 
Q 1159 2381 1159 1747 
Q 1159 1113 1420 752 
Q 1681 391 2138 391 
Q 2594 391 2855 752 
Q 3116 1113 3116 1747 
z
M 1159 2969 
Q 1341 3281 1617 3432 
Q 1894 3584 2278 3584 
Q 2916 3584 3314 3078 
Q 3713 2572 3713 1747 
Q 3713 922 3314 415 
Q 2916 -91 2278 -91 
Q 1894 -91 1617 61 
Q 1341 213 1159 525 
L 1159 0 
L 581 0 
L 581 4863 
L 1159 4863 
L 1159 2969 
z
" transform="scale(0.015625)"/>
      <path id="DejaVuSans-63" d="M 3122 3366 
L 3122 2828 
Q 2878 2963 2633 3030 
Q 2388 3097 2138 3097 
Q 1578 3097 1268 2742 
Q 959 2388 959 1747 
Q 959 1106 1268 751 
Q 1578 397 2138 397 
Q 2388 397 2633 464 
Q 2878 531 3122 666 
L 3122 134 
Q 2881 22 2623 -34 
Q 2366 -91 2075 -91 
Q 1284 -91 818 406 
Q 353 903 353 1747 
Q 353 2603 823 3093 
Q 1294 3584 2113 3584 
Q 2378 3584 2631 3529 
Q 2884 3475 3122 3366 
z
" transform="scale(0.015625)"/>
      <path id="DejaVuSans-72" d="M 2631 2963 
Q 2534 3019 2420 3045 
Q 2306 3072 2169 3072 
Q 1681 3072 1420 2755 
Q 1159 2438 1159 1844 
L 1159 0 
L 581 0 
L 581 3500 
L 1159 3500 
L 1159 2956 
Q 1341 3275 1631 3429 
Q 1922 3584 2338 3584 
Q 2397 3584 2469 3576 
Q 2541 3569 2628 3553 
L 2631 2963 
z
" transform="scale(0.015625)"/>
      <path id="DejaVuSans-69" d="M 603 3500 
L 1178 3500 
L 1178 0 
L 603 0 
L 603 3500 
z
M 603 4863 
L 1178 4863 
L 1178 4134 
L 603 4134 
L 603 4863 
z
" transform="scale(0.015625)"/>
      <path id="DejaVuSans-20" transform="scale(0.015625)"/>
      <path id="DejaVuSans-68" d="M 3513 2113 
L 3513 0 
L 2938 0 
L 2938 2094 
Q 2938 2591 2744 2837 
Q 2550 3084 2163 3084 
Q 1697 3084 1428 2787 
Q 1159 2491 1159 1978 
L 1159 0 
L 581 0 
L 581 4863 
L 1159 4863 
L 1159 2956 
Q 1366 3272 1645 3428 
Q 1925 3584 2291 3584 
Q 2894 3584 3203 3211 
Q 3513 2838 3513 2113 
z
" transform="scale(0.015625)"/>
      <path id="DejaVuSans-6f" d="M 1959 3097 
Q 1497 3097 1228 2736 
Q 959 2375 959 1747 
Q 959 1119 1226 758 
Q 1494 397 1959 397 
Q 2419 397 2687 759 
Q 2956 1122 2956 1747 
Q 2956 2369 2687 2733 
Q 2419 3097 1959 3097 
z
M 1959 3584 
Q 2709 3584 3137 3096 
Q 3566 2609 3566 1747 
Q 3566 888 3137 398 
Q 2709 -91 1959 -91 
Q 1206 -91 779 398 
Q 353 888 353 1747 
Q 353 2609 779 3096 
Q 1206 3584 1959 3584 
z
" transform="scale(0.015625)"/>
      <path id="DejaVuSans-79" d="M 2059 -325 
Q 1816 -950 1584 -1140 
Q 1353 -1331 966 -1331 
L 506 -1331 
L 506 -850 
L 844 -850 
Q 1081 -850 1212 -737 
Q 1344 -625 1503 -206 
L 1606 56 
L 191 3500 
L 800 3500 
L 1894 763 
L 2988 3500 
L 3597 3500 
L 2059 -325 
z
" transform="scale(0.015625)"/>
     </defs>
     <use xlink:href="#DejaVuSans-67"/>
     <use xlink:href="#DejaVuSans-65" x="63.476562"/>
     <use xlink:href="#DejaVuSans-74" x="125"/>
     <use xlink:href="#DejaVuSans-5f" x="164.208984"/>
     <use xlink:href="#DejaVuSans-73" x="214.208984"/>
     <use xlink:href="#DejaVuSans-75" x="266.308594"/>
     <use xlink:href="#DejaVuSans-62" x="329.6875"/>
     <use xlink:href="#DejaVuSans-73" x="393.164062"/>
     <use xlink:href="#DejaVuSans-63" x="445.263672"/>
     <use xlink:href="#DejaVuSans-72" x="500.244141"/>
     <use xlink:href="#DejaVuSans-69" x="541.357422"/>
     <use xlink:href="#DejaVuSans-62" x="569.140625"/>
     <use xlink:href="#DejaVuSans-65" x="632.617188"/>
     <use xlink:href="#DejaVuSans-20" x="694.140625"/>
     <use xlink:href="#DejaVuSans-68" x="725.927734"/>
     <use xlink:href="#DejaVuSans-69" x="789.306641"/>
     <use xlink:href="#DejaVuSans-73" x="817.089844"/>
     <use xlink:href="#DejaVuSans-74" x="869.189453"/>
     <use xlink:href="#DejaVuSans-6f" x="908.398438"/>
     <use xlink:href="#DejaVuSans-72" x="969.580078"/>
     <use xlink:href="#DejaVuSans-79" x="1010.693359"/>
    </g>
   </g>
   <g id="legend_1">
    <g id="line2d_41">
     <path d="M 815.08 328.498438 
L 825.08 328.498438 
L 835.08 328.498438 
" style="fill: none; stroke: #1f77b4; stroke-width: 1.5; stroke-linecap: square"/>
    </g>
    <g id="text_21">
     <!-- star -->
     <g style="fill: #a9a9a9" transform="translate(843.08 331.998438) scale(0.1 -0.1)">
      <defs>
       <path id="DejaVuSans-61" d="M 2194 1759 
Q 1497 1759 1228 1600 
Q 959 1441 959 1056 
Q 959 750 1161 570 
Q 1363 391 1709 391 
Q 2188 391 2477 730 
Q 2766 1069 2766 1631 
L 2766 1759 
L 2194 1759 
z
M 3341 1997 
L 3341 0 
L 2766 0 
L 2766 531 
Q 2569 213 2275 61 
Q 1981 -91 1556 -91 
Q 1019 -91 701 211 
Q 384 513 384 1019 
Q 384 1609 779 1909 
Q 1175 2209 1959 2209 
L 2766 2209 
L 2766 2266 
Q 2766 2663 2505 2880 
Q 2244 3097 1772 3097 
Q 1472 3097 1187 3025 
Q 903 2953 641 2809 
L 641 3341 
Q 956 3463 1253 3523 
Q 1550 3584 1831 3584 
Q 2591 3584 2966 3190 
Q 3341 2797 3341 1997 
z
" transform="scale(0.015625)"/>
      </defs>
      <use xlink:href="#DejaVuSans-73"/>
      <use xlink:href="#DejaVuSans-74" x="52.099609"/>
      <use xlink:href="#DejaVuSans-61" x="91.308594"/>
      <use xlink:href="#DejaVuSans-72" x="152.587891"/>
     </g>
    </g>
    <g id="line2d_42">
     <path d="M 815.08 343.176562 
L 825.08 343.176562 
L 835.08 343.176562 
" style="fill: none; stroke: #ff7f0e; stroke-width: 1.5; stroke-linecap: square"/>
    </g>
    <g id="text_22">
     <!-- fork -->
     <g style="fill: #a9a9a9" transform="translate(843.08 346.676562) scale(0.1 -0.1)">
      <defs>
       <path id="DejaVuSans-66" d="M 2375 4863 
L 2375 4384 
L 1825 4384 
Q 1516 4384 1395 4259 
Q 1275 4134 1275 3809 
L 1275 3500 
L 2222 3500 
L 2222 3053 
L 1275 3053 
L 1275 0 
L 697 0 
L 697 3053 
L 147 3053 
L 147 3500 
L 697 3500 
L 697 3744 
Q 697 4328 969 4595 
Q 1241 4863 1831 4863 
L 2375 4863 
z
" transform="scale(0.015625)"/>
       <path id="DejaVuSans-6b" d="M 581 4863 
L 1159 4863 
L 1159 1991 
L 2875 3500 
L 3609 3500 
L 1753 1863 
L 3688 0 
L 2938 0 
L 1159 1709 
L 1159 0 
L 581 0 
L 581 4863 
z
" transform="scale(0.015625)"/>
      </defs>
      <use xlink:href="#DejaVuSans-66"/>
      <use xlink:href="#DejaVuSans-6f" x="35.205078"/>
      <use xlink:href="#DejaVuSans-72" x="96.386719"/>
      <use xlink:href="#DejaVuSans-6b" x="137.5"/>
     </g>
    </g>
   </g>
  </g>
 </g>
 <defs>
  <clipPath id="pd72a27112f">
   <rect x="108" y="43.2" width="669.6" height="277.2"/>
  </clipPath>
 </defs>
</svg>
