<?xml version="1.0" encoding="utf-8" standalone="no"?>
<!DOCTYPE svg PUBLIC "-//W3C//DTD SVG 1.1//EN"
  "http://www.w3.org/Graphics/SVG/1.1/DTD/svg11.dtd">
<svg xmlns:xlink="http://www.w3.org/1999/xlink" width="864pt" height="360pt" viewBox="0 0 864 360" xmlns="http://www.w3.org/2000/svg" version="1.1">
 <metadata>
  <rdf:RDF xmlns:dc="http://purl.org/dc/elements/1.1/" xmlns:cc="http://creativecommons.org/ns#" xmlns:rdf="http://www.w3.org/1999/02/22-rdf-syntax-ns#">
   <cc:Work>
    <dc:type rdf:resource="http://purl.org/dc/dcmitype/StillImage"/>
    <dc:date>2024-10-15T20:05:50.201648</dc:date>
    <dc:format>image/svg+xml</dc:format>
    <dc:creator>
     <cc:Agent>
      <dc:title>Matplotlib v3.9.2, https://matplotlib.org/</dc:title>
     </cc:Agent>
    </dc:creator>
   </cc:Work>
  </rdf:RDF>
 </metadata>
 <defs>
  <style type="text/css">*{stroke-linejoin: round; stroke-linecap: butt}</style>
 </defs>
 <g id="figure_1">
  <g id="patch_1">
   <path d="M 0 360 
L 864 360 
L 864 0 
L 0 0 
L 0 360 
z
" style="fill: none; opacity: 0"/>
  </g>
  <g id="axes_1">
   <g id="patch_2">
    <path d="M 108 320.4 
L 777.6 320.4 
L 777.6 43.2 
L 108 43.2 
L 108 320.4 
z
" style="fill: none; opacity: 0"/>
   </g>
   <g id="matplotlib.axis_1">
    <g id="xtick_1">
     <g id="line2d_1">
      <path d="M 158.57238 320.4 
L 158.57238 43.2 
" clip-path="url(#p5e27da76c5)" style="fill: none; stroke-dasharray: 5.12,1.28,0.8,1.28; stroke-dashoffset: 0; stroke: #b0b0b0; stroke-width: 0.8"/>
     </g>
     <g id="line2d_2">
      <defs>
       <path id="m98948e7821" d="M 0 0 
L 0 3.5 
" style="stroke: #a9a9a9; stroke-width: 0.8"/>
      </defs>
      <g>
       <use xlink:href="#m98948e7821" x="158.57238" y="320.4" style="fill: #a9a9a9; stroke: #a9a9a9; stroke-width: 0.8"/>
      </g>
     </g>
     <g id="text_1">
      <!-- 2021-09 -->
      <g style="fill: #a9a9a9" transform="translate(137.680974 334.998438) scale(0.1 -0.1)">
       <defs>
        <path id="DejaVuSans-32" d="M 1228 531 
L 3431 531 
L 3431 0 
L 469 0 
L 469 531 
Q 828 903 1448 1529 
Q 2069 2156 2228 2338 
Q 2531 2678 2651 2914 
Q 2772 3150 2772 3378 
Q 2772 3750 2511 3984 
Q 2250 4219 1831 4219 
Q 1534 4219 1204 4116 
Q 875 4013 500 3803 
L 500 4441 
Q 881 4594 1212 4672 
Q 1544 4750 1819 4750 
Q 2544 4750 2975 4387 
Q 3406 4025 3406 3419 
Q 3406 3131 3298 2873 
Q 3191 2616 2906 2266 
Q 2828 2175 2409 1742 
Q 1991 1309 1228 531 
z
" transform="scale(0.015625)"/>
        <path id="DejaVuSans-30" d="M 2034 4250 
Q 1547 4250 1301 3770 
Q 1056 3291 1056 2328 
Q 1056 1369 1301 889 
Q 1547 409 2034 409 
Q 2525 409 2770 889 
Q 3016 1369 3016 2328 
Q 3016 3291 2770 3770 
Q 2525 4250 2034 4250 
z
M 2034 4750 
Q 2819 4750 3233 4129 
Q 3647 3509 3647 2328 
Q 3647 1150 3233 529 
Q 2819 -91 2034 -91 
Q 1250 -91 836 529 
Q 422 1150 422 2328 
Q 422 3509 836 4129 
Q 1250 4750 2034 4750 
z
" transform="scale(0.015625)"/>
        <path id="DejaVuSans-31" d="M 794 531 
L 1825 531 
L 1825 4091 
L 703 3866 
L 703 4441 
L 1819 4666 
L 2450 4666 
L 2450 531 
L 3481 531 
L 3481 0 
L 794 0 
L 794 531 
z
" transform="scale(0.015625)"/>
        <path id="DejaVuSans-2d" d="M 313 2009 
L 1997 2009 
L 1997 1497 
L 313 1497 
L 313 2009 
z
" transform="scale(0.015625)"/>
        <path id="DejaVuSans-39" d="M 703 97 
L 703 672 
Q 941 559 1184 500 
Q 1428 441 1663 441 
Q 2288 441 2617 861 
Q 2947 1281 2994 2138 
Q 2813 1869 2534 1725 
Q 2256 1581 1919 1581 
Q 1219 1581 811 2004 
Q 403 2428 403 3163 
Q 403 3881 828 4315 
Q 1253 4750 1959 4750 
Q 2769 4750 3195 4129 
Q 3622 3509 3622 2328 
Q 3622 1225 3098 567 
Q 2575 -91 1691 -91 
Q 1453 -91 1209 -44 
Q 966 3 703 97 
z
M 1959 2075 
Q 2384 2075 2632 2365 
Q 2881 2656 2881 3163 
Q 2881 3666 2632 3958 
Q 2384 4250 1959 4250 
Q 1534 4250 1286 3958 
Q 1038 3666 1038 3163 
Q 1038 2656 1286 2365 
Q 1534 2075 1959 2075 
z
" transform="scale(0.015625)"/>
       </defs>
       <use xlink:href="#DejaVuSans-32"/>
       <use xlink:href="#DejaVuSans-30" x="63.623047"/>
       <use xlink:href="#DejaVuSans-32" x="127.246094"/>
       <use xlink:href="#DejaVuSans-31" x="190.869141"/>
       <use xlink:href="#DejaVuSans-2d" x="254.492188"/>
       <use xlink:href="#DejaVuSans-30" x="290.576172"/>
       <use xlink:href="#DejaVuSans-39" x="354.199219"/>
      </g>
     </g>
    </g>
    <g id="xtick_2">
     <g id="line2d_3">
      <path d="M 221.561971 320.4 
L 221.561971 43.2 
" clip-path="url(#p5e27da76c5)" style="fill: none; stroke-dasharray: 5.12,1.28,0.8,1.28; stroke-dashoffset: 0; stroke: #b0b0b0; stroke-width: 0.8"/>
     </g>
     <g id="line2d_4">
      <g>
       <use xlink:href="#m98948e7821" x="221.561971" y="320.4" style="fill: #a9a9a9; stroke: #a9a9a9; stroke-width: 0.8"/>
      </g>
     </g>
     <g id="text_2">
      <!-- 2022-01 -->
      <g style="fill: #a9a9a9" transform="translate(200.670565 334.998438) scale(0.1 -0.1)">
       <use xlink:href="#DejaVuSans-32"/>
       <use xlink:href="#DejaVuSans-30" x="63.623047"/>
       <use xlink:href="#DejaVuSans-32" x="127.246094"/>
       <use xlink:href="#DejaVuSans-32" x="190.869141"/>
       <use xlink:href="#DejaVuSans-2d" x="254.492188"/>
       <use xlink:href="#DejaVuSans-30" x="290.576172"/>
       <use xlink:href="#DejaVuSans-31" x="354.199219"/>
      </g>
     </g>
    </g>
    <g id="xtick_3">
     <g id="line2d_5">
      <path d="M 283.518945 320.4 
L 283.518945 43.2 
" clip-path="url(#p5e27da76c5)" style="fill: none; stroke-dasharray: 5.12,1.28,0.8,1.28; stroke-dashoffset: 0; stroke: #b0b0b0; stroke-width: 0.8"/>
     </g>
     <g id="line2d_6">
      <g>
       <use xlink:href="#m98948e7821" x="283.518945" y="320.4" style="fill: #a9a9a9; stroke: #a9a9a9; stroke-width: 0.8"/>
      </g>
     </g>
     <g id="text_3">
      <!-- 2022-05 -->
      <g style="fill: #a9a9a9" transform="translate(262.627539 334.998438) scale(0.1 -0.1)">
       <defs>
        <path id="DejaVuSans-35" d="M 691 4666 
L 3169 4666 
L 3169 4134 
L 1269 4134 
L 1269 2991 
Q 1406 3038 1543 3061 
Q 1681 3084 1819 3084 
Q 2600 3084 3056 2656 
Q 3513 2228 3513 1497 
Q 3513 744 3044 326 
Q 2575 -91 1722 -91 
Q 1428 -91 1123 -41 
Q 819 9 494 109 
L 494 744 
Q 775 591 1075 516 
Q 1375 441 1709 441 
Q 2250 441 2565 725 
Q 2881 1009 2881 1497 
Q 2881 1984 2565 2268 
Q 2250 2553 1709 2553 
Q 1456 2553 1204 2497 
Q 953 2441 691 2322 
L 691 4666 
z
" transform="scale(0.015625)"/>
       </defs>
       <use xlink:href="#DejaVuSans-32"/>
       <use xlink:href="#DejaVuSans-30" x="63.623047"/>
       <use xlink:href="#DejaVuSans-32" x="127.246094"/>
       <use xlink:href="#DejaVuSans-32" x="190.869141"/>
       <use xlink:href="#DejaVuSans-2d" x="254.492188"/>
       <use xlink:href="#DejaVuSans-30" x="290.576172"/>
       <use xlink:href="#DejaVuSans-35" x="354.199219"/>
      </g>
     </g>
    </g>
    <g id="xtick_4">
     <g id="line2d_7">
      <path d="M 347.024844 320.4 
L 347.024844 43.2 
" clip-path="url(#p5e27da76c5)" style="fill: none; stroke-dasharray: 5.12,1.28,0.8,1.28; stroke-dashoffset: 0; stroke: #b0b0b0; stroke-width: 0.8"/>
     </g>
     <g id="line2d_8">
      <g>
       <use xlink:href="#m98948e7821" x="347.024844" y="320.4" style="fill: #a9a9a9; stroke: #a9a9a9; stroke-width: 0.8"/>
      </g>
     </g>
     <g id="text_4">
      <!-- 2022-09 -->
      <g style="fill: #a9a9a9" transform="translate(326.133438 334.998438) scale(0.1 -0.1)">
       <use xlink:href="#DejaVuSans-32"/>
       <use xlink:href="#DejaVuSans-30" x="63.623047"/>
       <use xlink:href="#DejaVuSans-32" x="127.246094"/>
       <use xlink:href="#DejaVuSans-32" x="190.869141"/>
       <use xlink:href="#DejaVuSans-2d" x="254.492188"/>
       <use xlink:href="#DejaVuSans-30" x="290.576172"/>
       <use xlink:href="#DejaVuSans-39" x="354.199219"/>
      </g>
     </g>
    </g>
    <g id="xtick_5">
     <g id="line2d_9">
      <path d="M 410.014434 320.4 
L 410.014434 43.2 
" clip-path="url(#p5e27da76c5)" style="fill: none; stroke-dasharray: 5.12,1.28,0.8,1.28; stroke-dashoffset: 0; stroke: #b0b0b0; stroke-width: 0.8"/>
     </g>
     <g id="line2d_10">
      <g>
       <use xlink:href="#m98948e7821" x="410.014434" y="320.4" style="fill: #a9a9a9; stroke: #a9a9a9; stroke-width: 0.8"/>
      </g>
     </g>
     <g id="text_5">
      <!-- 2023-01 -->
      <g style="fill: #a9a9a9" transform="translate(389.123028 334.998438) scale(0.1 -0.1)">
       <defs>
        <path id="DejaVuSans-33" d="M 2597 2516 
Q 3050 2419 3304 2112 
Q 3559 1806 3559 1356 
Q 3559 666 3084 287 
Q 2609 -91 1734 -91 
Q 1441 -91 1130 -33 
Q 819 25 488 141 
L 488 750 
Q 750 597 1062 519 
Q 1375 441 1716 441 
Q 2309 441 2620 675 
Q 2931 909 2931 1356 
Q 2931 1769 2642 2001 
Q 2353 2234 1838 2234 
L 1294 2234 
L 1294 2753 
L 1863 2753 
Q 2328 2753 2575 2939 
Q 2822 3125 2822 3475 
Q 2822 3834 2567 4026 
Q 2313 4219 1838 4219 
Q 1578 4219 1281 4162 
Q 984 4106 628 3988 
L 628 4550 
Q 988 4650 1302 4700 
Q 1616 4750 1894 4750 
Q 2613 4750 3031 4423 
Q 3450 4097 3450 3541 
Q 3450 3153 3228 2886 
Q 3006 2619 2597 2516 
z
" transform="scale(0.015625)"/>
       </defs>
       <use xlink:href="#DejaVuSans-32"/>
       <use xlink:href="#DejaVuSans-30" x="63.623047"/>
       <use xlink:href="#DejaVuSans-32" x="127.246094"/>
       <use xlink:href="#DejaVuSans-33" x="190.869141"/>
       <use xlink:href="#DejaVuSans-2d" x="254.492188"/>
       <use xlink:href="#DejaVuSans-30" x="290.576172"/>
       <use xlink:href="#DejaVuSans-31" x="354.199219"/>
      </g>
     </g>
    </g>
    <g id="xtick_6">
     <g id="line2d_11">
      <path d="M 471.971409 320.4 
L 471.971409 43.2 
" clip-path="url(#p5e27da76c5)" style="fill: none; stroke-dasharray: 5.12,1.28,0.8,1.28; stroke-dashoffset: 0; stroke: #b0b0b0; stroke-width: 0.8"/>
     </g>
     <g id="line2d_12">
      <g>
       <use xlink:href="#m98948e7821" x="471.971409" y="320.4" style="fill: #a9a9a9; stroke: #a9a9a9; stroke-width: 0.8"/>
      </g>
     </g>
     <g id="text_6">
      <!-- 2023-05 -->
      <g style="fill: #a9a9a9" transform="translate(451.080002 334.998438) scale(0.1 -0.1)">
       <use xlink:href="#DejaVuSans-32"/>
       <use xlink:href="#DejaVuSans-30" x="63.623047"/>
       <use xlink:href="#DejaVuSans-32" x="127.246094"/>
       <use xlink:href="#DejaVuSans-33" x="190.869141"/>
       <use xlink:href="#DejaVuSans-2d" x="254.492188"/>
       <use xlink:href="#DejaVuSans-30" x="290.576172"/>
       <use xlink:href="#DejaVuSans-35" x="354.199219"/>
      </g>
     </g>
    </g>
    <g id="xtick_7">
     <g id="line2d_13">
      <path d="M 535.477307 320.4 
L 535.477307 43.2 
" clip-path="url(#p5e27da76c5)" style="fill: none; stroke-dasharray: 5.12,1.28,0.8,1.28; stroke-dashoffset: 0; stroke: #b0b0b0; stroke-width: 0.8"/>
     </g>
     <g id="line2d_14">
      <g>
       <use xlink:href="#m98948e7821" x="535.477307" y="320.4" style="fill: #a9a9a9; stroke: #a9a9a9; stroke-width: 0.8"/>
      </g>
     </g>
     <g id="text_7">
      <!-- 2023-09 -->
      <g style="fill: #a9a9a9" transform="translate(514.585901 334.998438) scale(0.1 -0.1)">
       <use xlink:href="#DejaVuSans-32"/>
       <use xlink:href="#DejaVuSans-30" x="63.623047"/>
       <use xlink:href="#DejaVuSans-32" x="127.246094"/>
       <use xlink:href="#DejaVuSans-33" x="190.869141"/>
       <use xlink:href="#DejaVuSans-2d" x="254.492188"/>
       <use xlink:href="#DejaVuSans-30" x="290.576172"/>
       <use xlink:href="#DejaVuSans-39" x="354.199219"/>
      </g>
     </g>
    </g>
    <g id="xtick_8">
     <g id="line2d_15">
      <path d="M 598.466898 320.4 
L 598.466898 43.2 
" clip-path="url(#p5e27da76c5)" style="fill: none; stroke-dasharray: 5.12,1.28,0.8,1.28; stroke-dashoffset: 0; stroke: #b0b0b0; stroke-width: 0.8"/>
     </g>
     <g id="line2d_16">
      <g>
       <use xlink:href="#m98948e7821" x="598.466898" y="320.4" style="fill: #a9a9a9; stroke: #a9a9a9; stroke-width: 0.8"/>
      </g>
     </g>
     <g id="text_8">
      <!-- 2024-01 -->
      <g style="fill: #a9a9a9" transform="translate(577.575492 334.998438) scale(0.1 -0.1)">
       <defs>
        <path id="DejaVuSans-34" d="M 2419 4116 
L 825 1625 
L 2419 1625 
L 2419 4116 
z
M 2253 4666 
L 3047 4666 
L 3047 1625 
L 3713 1625 
L 3713 1100 
L 3047 1100 
L 3047 0 
L 2419 0 
L 2419 1100 
L 313 1100 
L 313 1709 
L 2253 4666 
z
" transform="scale(0.015625)"/>
       </defs>
       <use xlink:href="#DejaVuSans-32"/>
       <use xlink:href="#DejaVuSans-30" x="63.623047"/>
       <use xlink:href="#DejaVuSans-32" x="127.246094"/>
       <use xlink:href="#DejaVuSans-34" x="190.869141"/>
       <use xlink:href="#DejaVuSans-2d" x="254.492188"/>
       <use xlink:href="#DejaVuSans-30" x="290.576172"/>
       <use xlink:href="#DejaVuSans-31" x="354.199219"/>
      </g>
     </g>
    </g>
    <g id="xtick_9">
     <g id="line2d_17">
      <path d="M 660.94018 320.4 
L 660.94018 43.2 
" clip-path="url(#p5e27da76c5)" style="fill: none; stroke-dasharray: 5.12,1.28,0.8,1.28; stroke-dashoffset: 0; stroke: #b0b0b0; stroke-width: 0.8"/>
     </g>
     <g id="line2d_18">
      <g>
       <use xlink:href="#m98948e7821" x="660.94018" y="320.4" style="fill: #a9a9a9; stroke: #a9a9a9; stroke-width: 0.8"/>
      </g>
     </g>
     <g id="text_9">
      <!-- 2024-05 -->
      <g style="fill: #a9a9a9" transform="translate(640.048774 334.998438) scale(0.1 -0.1)">
       <use xlink:href="#DejaVuSans-32"/>
       <use xlink:href="#DejaVuSans-30" x="63.623047"/>
       <use xlink:href="#DejaVuSans-32" x="127.246094"/>
       <use xlink:href="#DejaVuSans-34" x="190.869141"/>
       <use xlink:href="#DejaVuSans-2d" x="254.492188"/>
       <use xlink:href="#DejaVuSans-30" x="290.576172"/>
       <use xlink:href="#DejaVuSans-35" x="354.199219"/>
      </g>
     </g>
    </g>
    <g id="xtick_10">
     <g id="line2d_19">
      <path d="M 724.446079 320.4 
L 724.446079 43.2 
" clip-path="url(#p5e27da76c5)" style="fill: none; stroke-dasharray: 5.12,1.28,0.8,1.28; stroke-dashoffset: 0; stroke: #b0b0b0; stroke-width: 0.8"/>
     </g>
     <g id="line2d_20">
      <g>
       <use xlink:href="#m98948e7821" x="724.446079" y="320.4" style="fill: #a9a9a9; stroke: #a9a9a9; stroke-width: 0.8"/>
      </g>
     </g>
     <g id="text_10">
      <!-- 2024-09 -->
      <g style="fill: #a9a9a9" transform="translate(703.554673 334.998438) scale(0.1 -0.1)">
       <use xlink:href="#DejaVuSans-32"/>
       <use xlink:href="#DejaVuSans-30" x="63.623047"/>
       <use xlink:href="#DejaVuSans-32" x="127.246094"/>
       <use xlink:href="#DejaVuSans-34" x="190.869141"/>
       <use xlink:href="#DejaVuSans-2d" x="254.492188"/>
       <use xlink:href="#DejaVuSans-30" x="290.576172"/>
       <use xlink:href="#DejaVuSans-39" x="354.199219"/>
      </g>
     </g>
    </g>
   </g>
   <g id="matplotlib.axis_2">
    <g id="ytick_1">
     <g id="line2d_21">
      <path d="M 108 307.837059 
L 777.6 307.837059 
" clip-path="url(#p5e27da76c5)" style="fill: none; stroke-dasharray: 5.12,1.28,0.8,1.28; stroke-dashoffset: 0; stroke: #b0b0b0; stroke-width: 0.8"/>
     </g>
     <g id="line2d_22">
      <defs>
       <path id="mf9b6e2391d" d="M 0 0 
L -3.5 0 
" style="stroke: #a9a9a9; stroke-width: 0.8"/>
      </defs>
      <g>
       <use xlink:href="#mf9b6e2391d" x="108" y="307.837059" style="fill: #a9a9a9; stroke: #a9a9a9; stroke-width: 0.8"/>
      </g>
     </g>
     <g id="text_11">
      <!-- 0 -->
      <g style="fill: #a9a9a9" transform="translate(94.6375 311.636278) scale(0.1 -0.1)">
       <use xlink:href="#DejaVuSans-30"/>
      </g>
     </g>
    </g>
    <g id="ytick_2">
     <g id="line2d_23">
      <path d="M 108 278.19 
L 777.6 278.19 
" clip-path="url(#p5e27da76c5)" style="fill: none; stroke-dasharray: 5.12,1.28,0.8,1.28; stroke-dashoffset: 0; stroke: #b0b0b0; stroke-width: 0.8"/>
     </g>
     <g id="line2d_24">
      <g>
       <use xlink:href="#mf9b6e2391d" x="108" y="278.19" style="fill: #a9a9a9; stroke: #a9a9a9; stroke-width: 0.8"/>
      </g>
     </g>
     <g id="text_12">
      <!-- 800 -->
      <g style="fill: #a9a9a9" transform="translate(81.9125 281.989219) scale(0.1 -0.1)">
       <defs>
        <path id="DejaVuSans-38" d="M 2034 2216 
Q 1584 2216 1326 1975 
Q 1069 1734 1069 1313 
Q 1069 891 1326 650 
Q 1584 409 2034 409 
Q 2484 409 2743 651 
Q 3003 894 3003 1313 
Q 3003 1734 2745 1975 
Q 2488 2216 2034 2216 
z
M 1403 2484 
Q 997 2584 770 2862 
Q 544 3141 544 3541 
Q 544 4100 942 4425 
Q 1341 4750 2034 4750 
Q 2731 4750 3128 4425 
Q 3525 4100 3525 3541 
Q 3525 3141 3298 2862 
Q 3072 2584 2669 2484 
Q 3125 2378 3379 2068 
Q 3634 1759 3634 1313 
Q 3634 634 3220 271 
Q 2806 -91 2034 -91 
Q 1263 -91 848 271 
Q 434 634 434 1313 
Q 434 1759 690 2068 
Q 947 2378 1403 2484 
z
M 1172 3481 
Q 1172 3119 1398 2916 
Q 1625 2713 2034 2713 
Q 2441 2713 2670 2916 
Q 2900 3119 2900 3481 
Q 2900 3844 2670 4047 
Q 2441 4250 2034 4250 
Q 1625 4250 1398 4047 
Q 1172 3844 1172 3481 
z
" transform="scale(0.015625)"/>
       </defs>
       <use xlink:href="#DejaVuSans-38"/>
       <use xlink:href="#DejaVuSans-30" x="63.623047"/>
       <use xlink:href="#DejaVuSans-30" x="127.246094"/>
      </g>
     </g>
    </g>
    <g id="ytick_3">
     <g id="line2d_25">
      <path d="M 108 248.542941 
L 777.6 248.542941 
" clip-path="url(#p5e27da76c5)" style="fill: none; stroke-dasharray: 5.12,1.28,0.8,1.28; stroke-dashoffset: 0; stroke: #b0b0b0; stroke-width: 0.8"/>
     </g>
     <g id="line2d_26">
      <g>
       <use xlink:href="#mf9b6e2391d" x="108" y="248.542941" style="fill: #a9a9a9; stroke: #a9a9a9; stroke-width: 0.8"/>
      </g>
     </g>
     <g id="text_13">
      <!-- 1600 -->
      <g style="fill: #a9a9a9" transform="translate(75.55 252.34216) scale(0.1 -0.1)">
       <defs>
        <path id="DejaVuSans-36" d="M 2113 2584 
Q 1688 2584 1439 2293 
Q 1191 2003 1191 1497 
Q 1191 994 1439 701 
Q 1688 409 2113 409 
Q 2538 409 2786 701 
Q 3034 994 3034 1497 
Q 3034 2003 2786 2293 
Q 2538 2584 2113 2584 
z
M 3366 4563 
L 3366 3988 
Q 3128 4100 2886 4159 
Q 2644 4219 2406 4219 
Q 1781 4219 1451 3797 
Q 1122 3375 1075 2522 
Q 1259 2794 1537 2939 
Q 1816 3084 2150 3084 
Q 2853 3084 3261 2657 
Q 3669 2231 3669 1497 
Q 3669 778 3244 343 
Q 2819 -91 2113 -91 
Q 1303 -91 875 529 
Q 447 1150 447 2328 
Q 447 3434 972 4092 
Q 1497 4750 2381 4750 
Q 2619 4750 2861 4703 
Q 3103 4656 3366 4563 
z
" transform="scale(0.015625)"/>
       </defs>
       <use xlink:href="#DejaVuSans-31"/>
       <use xlink:href="#DejaVuSans-36" x="63.623047"/>
       <use xlink:href="#DejaVuSans-30" x="127.246094"/>
       <use xlink:href="#DejaVuSans-30" x="190.869141"/>
      </g>
     </g>
    </g>
    <g id="ytick_4">
     <g id="line2d_27">
      <path d="M 108 218.895882 
L 777.6 218.895882 
" clip-path="url(#p5e27da76c5)" style="fill: none; stroke-dasharray: 5.12,1.28,0.8,1.28; stroke-dashoffset: 0; stroke: #b0b0b0; stroke-width: 0.8"/>
     </g>
     <g id="line2d_28">
      <g>
       <use xlink:href="#mf9b6e2391d" x="108" y="218.895882" style="fill: #a9a9a9; stroke: #a9a9a9; stroke-width: 0.8"/>
      </g>
     </g>
     <g id="text_14">
      <!-- 2400 -->
      <g style="fill: #a9a9a9" transform="translate(75.55 222.695101) scale(0.1 -0.1)">
       <use xlink:href="#DejaVuSans-32"/>
       <use xlink:href="#DejaVuSans-34" x="63.623047"/>
       <use xlink:href="#DejaVuSans-30" x="127.246094"/>
       <use xlink:href="#DejaVuSans-30" x="190.869141"/>
      </g>
     </g>
    </g>
    <g id="ytick_5">
     <g id="line2d_29">
      <path d="M 108 189.248824 
L 777.6 189.248824 
" clip-path="url(#p5e27da76c5)" style="fill: none; stroke-dasharray: 5.12,1.28,0.8,1.28; stroke-dashoffset: 0; stroke: #b0b0b0; stroke-width: 0.8"/>
     </g>
     <g id="line2d_30">
      <g>
       <use xlink:href="#mf9b6e2391d" x="108" y="189.248824" style="fill: #a9a9a9; stroke: #a9a9a9; stroke-width: 0.8"/>
      </g>
     </g>
     <g id="text_15">
      <!-- 3200 -->
      <g style="fill: #a9a9a9" transform="translate(75.55 193.048042) scale(0.1 -0.1)">
       <use xlink:href="#DejaVuSans-33"/>
       <use xlink:href="#DejaVuSans-32" x="63.623047"/>
       <use xlink:href="#DejaVuSans-30" x="127.246094"/>
       <use xlink:href="#DejaVuSans-30" x="190.869141"/>
      </g>
     </g>
    </g>
    <g id="ytick_6">
     <g id="line2d_31">
      <path d="M 108 159.601765 
L 777.6 159.601765 
" clip-path="url(#p5e27da76c5)" style="fill: none; stroke-dasharray: 5.12,1.28,0.8,1.28; stroke-dashoffset: 0; stroke: #b0b0b0; stroke-width: 0.8"/>
     </g>
     <g id="line2d_32">
      <g>
       <use xlink:href="#mf9b6e2391d" x="108" y="159.601765" style="fill: #a9a9a9; stroke: #a9a9a9; stroke-width: 0.8"/>
      </g>
     </g>
     <g id="text_16">
      <!-- 4000 -->
      <g style="fill: #a9a9a9" transform="translate(75.55 163.400983) scale(0.1 -0.1)">
       <use xlink:href="#DejaVuSans-34"/>
       <use xlink:href="#DejaVuSans-30" x="63.623047"/>
       <use xlink:href="#DejaVuSans-30" x="127.246094"/>
       <use xlink:href="#DejaVuSans-30" x="190.869141"/>
      </g>
     </g>
    </g>
    <g id="ytick_7">
     <g id="line2d_33">
      <path d="M 108 129.954706 
L 777.6 129.954706 
" clip-path="url(#p5e27da76c5)" style="fill: none; stroke-dasharray: 5.12,1.28,0.8,1.28; stroke-dashoffset: 0; stroke: #b0b0b0; stroke-width: 0.8"/>
     </g>
     <g id="line2d_34">
      <g>
       <use xlink:href="#mf9b6e2391d" x="108" y="129.954706" style="fill: #a9a9a9; stroke: #a9a9a9; stroke-width: 0.8"/>
      </g>
     </g>
     <g id="text_17">
      <!-- 4800 -->
      <g style="fill: #a9a9a9" transform="translate(75.55 133.753925) scale(0.1 -0.1)">
       <use xlink:href="#DejaVuSans-34"/>
       <use xlink:href="#DejaVuSans-38" x="63.623047"/>
       <use xlink:href="#DejaVuSans-30" x="127.246094"/>
       <use xlink:href="#DejaVuSans-30" x="190.869141"/>
      </g>
     </g>
    </g>
    <g id="ytick_8">
     <g id="line2d_35">
      <path d="M 108 100.307647 
L 777.6 100.307647 
" clip-path="url(#p5e27da76c5)" style="fill: none; stroke-dasharray: 5.12,1.28,0.8,1.28; stroke-dashoffset: 0; stroke: #b0b0b0; stroke-width: 0.8"/>
     </g>
     <g id="line2d_36">
      <g>
       <use xlink:href="#mf9b6e2391d" x="108" y="100.307647" style="fill: #a9a9a9; stroke: #a9a9a9; stroke-width: 0.8"/>
      </g>
     </g>
     <g id="text_18">
      <!-- 5600 -->
      <g style="fill: #a9a9a9" transform="translate(75.55 104.106866) scale(0.1 -0.1)">
       <use xlink:href="#DejaVuSans-35"/>
       <use xlink:href="#DejaVuSans-36" x="63.623047"/>
       <use xlink:href="#DejaVuSans-30" x="127.246094"/>
       <use xlink:href="#DejaVuSans-30" x="190.869141"/>
      </g>
     </g>
    </g>
    <g id="ytick_9">
     <g id="line2d_37">
      <path d="M 108 70.660588 
L 777.6 70.660588 
" clip-path="url(#p5e27da76c5)" style="fill: none; stroke-dasharray: 5.12,1.28,0.8,1.28; stroke-dashoffset: 0; stroke: #b0b0b0; stroke-width: 0.8"/>
     </g>
     <g id="line2d_38">
      <g>
       <use xlink:href="#mf9b6e2391d" x="108" y="70.660588" style="fill: #a9a9a9; stroke: #a9a9a9; stroke-width: 0.8"/>
      </g>
     </g>
     <g id="text_19">
      <!-- 6400 -->
      <g style="fill: #a9a9a9" transform="translate(75.55 74.459807) scale(0.1 -0.1)">
       <use xlink:href="#DejaVuSans-36"/>
       <use xlink:href="#DejaVuSans-34" x="63.623047"/>
       <use xlink:href="#DejaVuSans-30" x="127.246094"/>
       <use xlink:href="#DejaVuSans-30" x="190.869141"/>
      </g>
     </g>
    </g>
   </g>
   <g id="line2d_39">
    <path d="M 138.436364 307.725882 
L 141.534212 307.466471 
L 142.05052 307.244118 
L 144.115753 306.984706 
L 146.180985 306.577059 
L 147.213602 306.428824 
L 149.795142 306.206471 
L 150.827759 305.798824 
L 151.344067 305.131765 
L 151.860375 304.761176 
L 152.376683 303.612353 
L 152.892991 303.538235 
L 153.409299 303.130588 
L 154.441915 302.611765 
L 156.507148 300.981176 
L 158.57238 299.980588 
L 160.121305 299.276471 
L 160.637613 298.461176 
L 161.670229 297.72 
L 162.186537 297.497647 
L 167.349618 296.756471 
L 167.865926 296.534118 
L 171.480083 296.237647 
L 173.545316 295.755882 
L 177.675781 295.2 
L 178.192089 294.940588 
L 178.708397 294.866471 
L 179.741013 294.532941 
L 183.35517 293.94 
L 184.387786 293.643529 
L 189.034559 292.865294 
L 190.067176 292.642941 
L 191.099792 292.605882 
L 193.165024 292.124118 
L 193.681332 291.42 
L 195.230257 290.827059 
L 196.779181 290.419412 
L 197.295489 290.16 
L 198.328105 289.974706 
L 200.393338 289.381765 
L 201.425954 289.307647 
L 202.45857 289.048235 
L 204.523803 288.529412 
L 205.040111 288.492353 
L 206.072727 288.010588 
L 206.589035 287.936471 
L 207.105344 287.677059 
L 212.784733 286.750588 
L 214.849965 286.157647 
L 215.366273 285.824118 
L 217.947814 284.971765 
L 218.98043 284.267647 
L 220.529355 283.971176 
L 230.339209 281.117647 
L 231.371825 280.71 
L 232.404441 280.635882 
L 233.953366 280.191176 
L 234.469674 280.191176 
L 234.985982 279.968824 
L 236.018598 279.857647 
L 236.534906 279.672353 
L 237.567523 279.635294 
L 239.632755 279.375882 
L 240.665371 278.857059 
L 246.861069 276.077647 
L 247.377377 275.521765 
L 248.409993 273.965294 
L 248.926301 273.817059 
L 249.442609 273.817059 
L 250.475226 273.038824 
L 252.02415 272.52 
L 252.540458 272.038235 
L 253.573074 271.630588 
L 254.60569 271.148824 
L 255.638307 269.666471 
L 256.154615 269.332941 
L 256.670923 268.443529 
L 257.187231 267.887647 
L 260.28508 266.257059 
L 261.317696 265.441765 
L 261.834004 265.108235 
L 262.350312 264.33 
L 262.86662 263.181176 
L 263.382929 262.402941 
L 263.899237 261.995294 
L 264.415545 261.772941 
L 268.029702 258.734118 
L 269.062318 257.511176 
L 270.094934 256.77 
L 271.643858 255.732353 
L 272.160167 255.287647 
L 273.192783 254.954118 
L 274.741707 254.064706 
L 276.290632 253.064118 
L 278.355864 251.211176 
L 279.38848 250.803529 
L 280.421096 250.099412 
L 280.937405 249.802941 
L 281.453713 249.728824 
L 285.06787 247.468235 
L 287.133102 246.356471 
L 287.64941 245.874706 
L 295.91034 242.984118 
L 296.942956 242.057647 
L 297.975573 241.575882 
L 299.008189 241.02 
L 299.524497 240.723529 
L 300.557113 240.427059 
L 301.073421 240.093529 
L 301.589729 239.945294 
L 303.138654 238.944706 
L 305.720194 238.351765 
L 307.269119 237.462353 
L 308.818043 237.128824 
L 309.334351 236.980588 
L 310.883276 235.831765 
L 312.948508 235.275882 
L 313.464816 234.868235 
L 316.562665 233.830588 
L 317.595281 233.645294 
L 318.627897 233.237647 
L 322.242054 231.940588 
L 323.27467 231.792353 
L 324.823595 231.273529 
L 327.405135 230.050588 
L 329.470368 228.938824 
L 333.600833 227.271176 
L 334.117141 227.197059 
L 335.149757 226.567059 
L 335.666065 226.492941 
L 337.731298 225.640588 
L 339.79653 225.344118 
L 340.829146 224.825294 
L 341.345455 224.380588 
L 341.861763 223.454118 
L 343.926995 222.898235 
L 345.47592 222.12 
L 345.992228 222.008824 
L 350.122693 220.044706 
L 351.671617 219.748235 
L 352.704233 219.229412 
L 353.220541 219.007059 
L 353.736849 218.932941 
L 355.802082 218.006471 
L 357.351006 217.042941 
L 358.899931 216.746471 
L 361.481471 216.116471 
L 361.997779 215.708824 
L 363.546704 215.152941 
L 365.611936 214.337647 
L 366.128244 213.967059 
L 366.644552 213.781765 
L 367.677169 213.225882 
L 370.258709 212.373529 
L 371.807634 211.150588 
L 372.323942 211.039412 
L 373.356558 210.224118 
L 373.872866 210.15 
L 374.389174 209.334706 
L 374.905482 209.112353 
L 375.42179 208.704706 
L 375.938099 208.630588 
L 376.970715 208.000588 
L 378.003331 207.667059 
L 378.519639 207.259412 
L 379.035947 207.074118 
L 380.584872 205.999412 
L 382.650104 204.924706 
L 383.166412 204.850588 
L 384.715337 204.072353 
L 385.231645 203.22 
L 385.747953 202.775294 
L 386.264261 202.478824 
L 386.780569 202.367647 
L 387.813185 201.700588 
L 388.329493 201.589412 
L 389.36211 201.070588 
L 391.427342 200.07 
L 391.94365 199.699412 
L 392.976266 198.698824 
L 394.008883 198.068824 
L 394.525191 197.735294 
L 395.041499 197.179412 
L 397.106731 195.771176 
L 397.62304 195.178235 
L 398.139348 194.770588 
L 399.171964 194.4 
L 400.20458 193.695882 
L 401.753505 192.917647 
L 402.269813 192.843529 
L 403.818737 192.028235 
L 404.851353 191.398235 
L 410.014434 189.545294 
L 410.530743 189.137647 
L 412.595975 188.359412 
L 413.112283 188.211176 
L 413.628591 187.803529 
L 416.210132 186.395294 
L 417.242748 184.357059 
L 418.275364 183.171176 
L 419.307981 182.541176 
L 420.856905 181.911176 
L 421.373213 181.837059 
L 421.889521 181.540588 
L 424.471062 180.725294 
L 424.98737 180.502941 
L 426.019986 179.798824 
L 427.56891 179.131765 
L 428.601527 178.575882 
L 429.117835 178.205294 
L 429.634143 177.982941 
L 430.150451 177.612353 
L 430.666759 177.056471 
L 431.699375 176.500588 
L 434.280916 175.129412 
L 437.378765 173.61 
L 438.411381 173.276471 
L 439.960305 172.794706 
L 442.025538 171.868235 
L 443.058154 171.460588 
L 443.574462 171.052941 
L 444.607078 170.719412 
L 447.704927 169.125882 
L 448.737543 168.310588 
L 449.77016 167.94 
L 450.286468 167.495294 
L 450.802776 167.421176 
L 451.835392 166.642941 
L 452.868008 166.124118 
L 453.384316 165.901765 
L 453.900625 165.382941 
L 457.514781 163.974706 
L 458.547398 163.53 
L 460.096322 163.048235 
L 461.128938 162.9 
L 461.645246 162.677647 
L 462.161554 162.603529 
L 463.194171 162.158824 
L 463.710479 162.121765 
L 465.775711 161.343529 
L 467.324636 160.268824 
L 467.840944 160.083529 
L 468.87356 159.527647 
L 469.389868 159.379412 
L 472.487717 157.674706 
L 473.004025 157.563529 
L 474.552949 156.674118 
L 476.101874 156.155294 
L 477.13449 155.821765 
L 479.199722 155.154706 
L 480.232339 154.821176 
L 482.297571 154.413529 
L 482.813879 154.191176 
L 483.330187 154.117059 
L 484.362804 153.672353 
L 484.879112 153.598235 
L 485.39542 153.338824 
L 486.428036 153.153529 
L 487.97696 152.597647 
L 489.009577 152.486471 
L 490.558501 152.152941 
L 493.140042 151.708235 
L 506.564053 147.854118 
L 507.080361 147.335294 
L 508.112977 146.927647 
L 511.210826 145.815882 
L 511.727134 145.482353 
L 512.243442 145.371176 
L 512.75975 145.074706 
L 514.308675 144.63 
L 515.341291 144.370588 
L 515.857599 144.037059 
L 516.373907 143.925882 
L 516.890215 143.481176 
L 518.439139 143.184706 
L 519.471756 142.702941 
L 519.988064 142.11 
L 522.053296 141.628235 
L 525.667453 140.887059 
L 526.183761 140.887059 
L 526.700069 140.664706 
L 528.765302 140.294118 
L 529.28161 140.071765 
L 531.346842 139.701176 
L 532.379459 139.256471 
L 533.412075 139.071176 
L 535.993616 138.441176 
L 538.058848 137.811176 
L 538.575156 137.7 
L 539.091464 137.440588 
L 540.12408 137.181176 
L 540.640389 136.884706 
L 542.189313 136.365882 
L 542.705621 135.995294 
L 543.738237 135.698824 
L 544.770854 135.365294 
L 545.80347 134.957647 
L 547.352394 134.290588 
L 549.417627 134.031176 
L 553.548092 132.585882 
L 554.0644 132.215294 
L 554.580708 132.104118 
L 555.097016 131.844706 
L 555.613324 131.807647 
L 561.292713 129.843529 
L 563.874254 129.176471 
L 564.90687 128.694706 
L 566.455795 128.361176 
L 566.972103 127.953529 
L 567.488411 127.694118 
L 568.004719 127.064118 
L 568.521027 126.693529 
L 569.553643 126.397059 
L 570.069951 125.989412 
L 573.1678 124.840588 
L 573.684108 124.507059 
L 574.716724 124.210588 
L 575.233033 123.877059 
L 577.814573 123.061765 
L 579.363498 122.172353 
L 579.879806 122.061176 
L 582.461346 120.69 
L 584.010271 119.985882 
L 584.526579 119.615294 
L 585.559195 119.281765 
L 586.591811 118.688824 
L 587.108119 118.503529 
L 587.624427 118.132941 
L 594.336433 115.798235 
L 594.852741 115.687059 
L 595.369049 115.353529 
L 597.434282 114.945882 
L 598.466898 114.538235 
L 598.983206 114.241765 
L 599.499514 114.093529 
L 601.564747 113.018824 
L 602.081055 112.944706 
L 603.629979 112.092353 
L 606.727828 110.869412 
L 608.79306 110.054118 
L 609.309368 109.905882 
L 609.825677 109.572353 
L 610.858293 109.424118 
L 611.374601 109.090588 
L 612.407217 108.905294 
L 613.439833 108.423529 
L 613.956142 108.201176 
L 614.47245 108.127059 
L 617.05399 107.126471 
L 618.602915 106.718824 
L 619.635531 106.459412 
L 621.184455 106.014706 
L 622.217071 105.607059 
L 624.282304 104.495294 
L 625.31492 104.087647 
L 625.831228 103.754118 
L 626.863845 103.531765 
L 627.380153 103.235294 
L 627.896461 103.124118 
L 629.445385 102.271765 
L 630.478001 101.864118 
L 632.026926 101.16 
L 633.57585 100.752353 
L 636.673699 99.529412 
L 638.738931 98.825294 
L 640.287856 98.269412 
L 640.804164 98.084118 
L 641.83678 97.528235 
L 643.902012 96.601765 
L 649.065094 94.637647 
L 649.581402 94.267059 
L 651.646634 93.562941 
L 652.162942 93.562941 
L 653.195559 93.118235 
L 654.228175 92.191765 
L 654.744483 91.747059 
L 656.293407 91.005882 
L 656.809715 90.894706 
L 657.326024 90.635294 
L 657.842332 90.561176 
L 658.35864 90.190588 
L 658.874948 90.079412 
L 659.907564 89.449412 
L 661.456489 88.671176 
L 662.489105 88.263529 
L 663.005413 88.004118 
L 665.586954 87.374118 
L 666.103262 87.114706 
L 667.652186 86.67 
L 669.717418 85.669412 
L 670.750035 85.187647 
L 671.782651 84.928235 
L 673.847883 84.001765 
L 674.364192 83.853529 
L 674.8805 83.52 
L 677.978348 82.408235 
L 679.527273 81.481765 
L 680.043581 81.370588 
L 681.076197 80.851765 
L 682.108813 80.481176 
L 682.625121 80.036471 
L 683.657738 79.628824 
L 685.206662 78.998824 
L 685.72297 78.591176 
L 686.239278 78.554118 
L 687.271895 78.257647 
L 688.304511 77.924118 
L 688.820819 77.664706 
L 689.337127 77.590588 
L 690.886051 77.034706 
L 692.434976 76.478824 
L 693.467592 76.071176 
L 693.9839 75.663529 
L 695.532824 75.255882 
L 696.049133 74.959412 
L 697.081749 74.7 
L 698.630673 73.847647 
L 699.146981 73.810588 
L 700.695906 73.328824 
L 701.728522 73.217647 
L 702.761138 72.81 
L 705.858987 71.920588 
L 706.891603 71.883529 
L 709.989452 70.882941 
L 710.50576 70.808824 
L 712.054684 69.993529 
L 712.570992 69.548824 
L 714.119917 68.659412 
L 714.636225 68.251765 
L 715.668841 67.844118 
L 717.217765 67.399412 
L 717.734074 67.102941 
L 718.250382 66.991765 
L 718.76669 66.584118 
L 721.864539 65.324118 
L 723.929771 64.768235 
L 724.962387 64.323529 
L 727.02762 63.322941 
L 728.060236 63.137647 
L 730.641777 61.951765 
L 731.158085 61.655294 
L 732.707009 61.247647 
L 734.255933 60.21 
L 734.772241 60.135882 
L 737.353782 59.098235 
L 738.902706 58.727647 
L 739.419015 58.653529 
L 739.935323 58.431176 
L 740.451631 58.394118 
L 741.484247 58.023529 
L 742.000555 57.986471 
L 743.54948 57.393529 
L 745.614712 56.800588 
L 746.647328 55.985294 
L 747.163636 55.8 
L 747.163636 55.8 
" clip-path="url(#p5e27da76c5)" style="fill: none; stroke: #1f77b4; stroke-width: 1.5; stroke-linecap: square"/>
   </g>
   <g id="line2d_40">
    <path d="M 138.952672 307.8 
L 140.501596 307.725882 
L 142.566829 307.688824 
L 145.148369 307.614706 
L 148.246218 307.503529 
L 149.795142 307.503529 
L 150.31145 307.355294 
L 152.376683 307.281176 
L 165.284386 306.465882 
L 168.382235 306.391765 
L 170.447467 306.354706 
L 175.610548 306.280588 
L 178.708397 306.169412 
L 181.289938 306.095294 
L 184.387786 305.984118 
L 190.067176 305.91 
L 195.230257 305.650588 
L 197.295489 305.576471 
L 199.87703 305.502353 
L 202.974879 305.428235 
L 205.040111 305.242941 
L 207.621652 305.168824 
L 210.7195 305.057647 
L 212.268425 304.983529 
L 215.882582 304.835294 
L 217.431506 304.798235 
L 220.013046 304.501765 
L 222.594587 304.427647 
L 224.143511 304.316471 
L 227.757668 304.168235 
L 229.306593 304.094118 
L 236.534906 303.686471 
L 238.600139 303.612353 
L 242.214296 303.464118 
L 245.828452 303.39 
L 246.861069 303.278824 
L 256.154615 302.500588 
L 257.187231 302.241176 
L 262.86662 301.722353 
L 264.415545 301.574118 
L 267.513393 301.5 
L 269.062318 301.351765 
L 270.094934 301.314706 
L 271.643858 301.203529 
L 272.676475 301.129412 
L 274.225399 300.907059 
L 274.741707 300.907059 
L 276.290632 300.684706 
L 280.937405 300.462353 
L 282.486329 300.388235 
L 285.06787 300.128824 
L 286.100486 299.943529 
L 287.64941 299.906471 
L 288.682026 299.832353 
L 291.263567 299.758235 
L 298.491881 299.350588 
L 299.524497 299.276471 
L 306.752811 298.868824 
L 309.850659 298.794706 
L 310.883276 298.683529 
L 314.497432 298.609412 
L 318.627897 298.424118 
L 323.790978 298.35 
L 327.921443 298.164706 
L 331.5356 298.090588 
L 336.182373 297.868235 
L 339.280222 297.794118 
L 349.606384 297.164118 
L 354.253158 297.09 
L 356.834698 296.830588 
L 359.416239 296.793529 
L 361.997779 296.534118 
L 367.160861 296.274706 
L 369.742401 296.200588 
L 371.807634 296.163529 
L 372.84025 296.126471 
L 374.389174 295.978235 
L 378.519639 295.904118 
L 379.552255 295.755882 
L 380.584872 295.681765 
L 386.264261 295.385294 
L 389.878418 295.348235 
L 391.427342 295.237059 
L 405.367661 294.347647 
L 406.916586 294.273529 
L 410.014434 294.162353 
L 416.72644 294.088235 
L 420.856905 293.902941 
L 424.471062 293.828824 
L 427.56891 293.717647 
L 429.117835 293.643529 
L 434.797224 293.347059 
L 435.82984 293.272941 
L 438.411381 293.198824 
L 440.476613 293.124706 
L 443.574462 293.013529 
L 446.672311 292.939412 
L 449.253851 292.865294 
L 454.933241 292.791176 
L 458.03109 292.68 
L 460.61263 292.605882 
L 462.677863 292.420588 
L 464.743095 292.383529 
L 466.292019 292.309412 
L 467.840944 292.198235 
L 473.520333 292.124118 
L 477.13449 291.975882 
L 486.428036 291.938824 
L 487.97696 291.827647 
L 495.721582 291.753529 
L 496.754198 291.679412 
L 502.433588 291.605294 
L 505.015128 291.531176 
L 514.308675 291.457059 
L 516.373907 291.42 
L 520.504372 291.345882 
L 521.536988 291.271765 
L 533.928383 291.197647 
L 535.993616 291.160588 
L 549.417627 291.086471 
L 551.482859 291.049412 
L 560.260097 290.975294 
L 561.292713 290.901176 
L 563.874254 290.827059 
L 565.423178 290.678824 
L 568.004719 290.604706 
L 572.135184 290.419412 
L 575.233033 290.382353 
L 576.265649 290.308235 
L 580.396114 290.234118 
L 584.526579 290.048824 
L 586.591811 289.974706 
L 590.722276 289.789412 
L 593.303817 289.715294 
L 595.885357 289.641176 
L 602.081055 289.567059 
L 604.662595 289.492941 
L 608.276752 289.418824 
L 612.407217 289.233529 
L 616.537682 289.159412 
L 617.570298 289.085294 
L 626.863845 289.011176 
L 628.929077 288.974118 
L 630.99431 288.937059 
L 633.57585 288.677647 
L 637.706315 288.603529 
L 643.385704 288.307059 
L 645.450937 288.232941 
L 648.548786 288.121765 
L 653.195559 288.084706 
L 656.293407 287.751176 
L 659.907564 287.677059 
L 663.521721 287.528824 
L 666.61957 287.454706 
L 669.717418 287.343529 
L 675.913116 287.306471 
L 676.945732 287.195294 
L 680.559889 287.121176 
L 683.657738 287.01 
L 691.918668 286.972941 
L 692.951284 286.898824 
L 697.081749 286.824706 
L 699.146981 286.787647 
L 704.826371 286.713529 
L 707.407911 286.639412 
L 712.570992 286.565294 
L 713.603609 286.454118 
L 718.250382 286.417059 
L 719.282998 286.342941 
L 721.864539 286.268824 
L 723.929771 286.231765 
L 730.125468 286.157647 
L 733.739625 286.009412 
L 734.772241 286.009412 
L 735.804858 285.824118 
L 742.516863 285.75 
L 746.647328 285.564706 
L 747.163636 285.564706 
L 747.163636 285.564706 
" clip-path="url(#p5e27da76c5)" style="fill: none; stroke: #ff7f0e; stroke-width: 1.5; stroke-linecap: square"/>
   </g>
   <g id="patch_3">
    <path d="M 108 320.4 
L 108 43.2 
" style="fill: none; stroke: #a9a9a9; stroke-width: 0.8; stroke-linejoin: miter; stroke-linecap: square"/>
   </g>
   <g id="patch_4">
    <path d="M 777.6 320.4 
L 777.6 43.2 
" style="fill: none"/>
   </g>
   <g id="patch_5">
    <path d="M 108 320.4 
L 777.6 320.4 
" style="fill: none; stroke: #a9a9a9; stroke-width: 0.8; stroke-linejoin: miter; stroke-linecap: square"/>
   </g>
   <g id="patch_6">
    <path d="M 108 43.2 
L 777.6 43.2 
" style="fill: none"/>
   </g>
   <g id="text_20">
    <!-- get_subscribe history -->
    <g style="fill: #a9a9a9" transform="translate(378.6075 37.2) scale(0.12 -0.12)">
     <defs>
      <path id="DejaVuSans-67" d="M 2906 1791 
Q 2906 2416 2648 2759 
Q 2391 3103 1925 3103 
Q 1463 3103 1205 2759 
Q 947 2416 947 1791 
Q 947 1169 1205 825 
Q 1463 481 1925 481 
Q 2391 481 2648 825 
Q 2906 1169 2906 1791 
z
M 3481 434 
Q 3481 -459 3084 -895 
Q 2688 -1331 1869 -1331 
Q 1566 -1331 1297 -1286 
Q 1028 -1241 775 -1147 
L 775 -588 
Q 1028 -725 1275 -790 
Q 1522 -856 1778 -856 
Q 2344 -856 2625 -561 
Q 2906 -266 2906 331 
L 2906 616 
Q 2728 306 2450 153 
Q 2172 0 1784 0 
Q 1141 0 747 490 
Q 353 981 353 1791 
Q 353 2603 747 3093 
Q 1141 3584 1784 3584 
Q 2172 3584 2450 3431 
Q 2728 3278 2906 2969 
L 2906 3500 
L 3481 3500 
L 3481 434 
z
" transform="scale(0.015625)"/>
      <path id="DejaVuSans-65" d="M 3597 1894 
L 3597 1613 
L 953 1613 
Q 991 1019 1311 708 
Q 1631 397 2203 397 
Q 2534 397 2845 478 
Q 3156 559 3463 722 
L 3463 178 
Q 3153 47 2828 -22 
Q 2503 -91 2169 -91 
Q 1331 -91 842 396 
Q 353 884 353 1716 
Q 353 2575 817 3079 
Q 1281 3584 2069 3584 
Q 2775 3584 3186 3129 
Q 3597 2675 3597 1894 
z
M 3022 2063 
Q 3016 2534 2758 2815 
Q 2500 3097 2075 3097 
Q 1594 3097 1305 2825 
Q 1016 2553 972 2059 
L 3022 2063 
z
" transform="scale(0.015625)"/>
      <path id="DejaVuSans-74" d="M 1172 4494 
L 1172 3500 
L 2356 3500 
L 2356 3053 
L 1172 3053 
L 1172 1153 
Q 1172 725 1289 603 
Q 1406 481 1766 481 
L 2356 481 
L 2356 0 
L 1766 0 
Q 1100 0 847 248 
Q 594 497 594 1153 
L 594 3053 
L 172 3053 
L 172 3500 
L 594 3500 
L 594 4494 
L 1172 4494 
z
" transform="scale(0.015625)"/>
      <path id="DejaVuSans-5f" d="M 3263 -1063 
L 3263 -1509 
L -63 -1509 
L -63 -1063 
L 3263 -1063 
z
" transform="scale(0.015625)"/>
      <path id="DejaVuSans-73" d="M 2834 3397 
L 2834 2853 
Q 2591 2978 2328 3040 
Q 2066 3103 1784 3103 
Q 1356 3103 1142 2972 
Q 928 2841 928 2578 
Q 928 2378 1081 2264 
Q 1234 2150 1697 2047 
L 1894 2003 
Q 2506 1872 2764 1633 
Q 3022 1394 3022 966 
Q 3022 478 2636 193 
Q 2250 -91 1575 -91 
Q 1294 -91 989 -36 
Q 684 19 347 128 
L 347 722 
Q 666 556 975 473 
Q 1284 391 1588 391 
Q 1994 391 2212 530 
Q 2431 669 2431 922 
Q 2431 1156 2273 1281 
Q 2116 1406 1581 1522 
L 1381 1569 
Q 847 1681 609 1914 
Q 372 2147 372 2553 
Q 372 3047 722 3315 
Q 1072 3584 1716 3584 
Q 2034 3584 2315 3537 
Q 2597 3491 2834 3397 
z
" transform="scale(0.015625)"/>
      <path id="DejaVuSans-75" d="M 544 1381 
L 544 3500 
L 1119 3500 
L 1119 1403 
Q 1119 906 1312 657 
Q 1506 409 1894 409 
Q 2359 409 2629 706 
Q 2900 1003 2900 1516 
L 2900 3500 
L 3475 3500 
L 3475 0 
L 2900 0 
L 2900 538 
Q 2691 219 2414 64 
Q 2138 -91 1772 -91 
Q 1169 -91 856 284 
Q 544 659 544 1381 
z
M 1991 3584 
L 1991 3584 
z
" transform="scale(0.015625)"/>
      <path id="DejaVuSans-62" d="M 3116 1747 
Q 3116 2381 2855 2742 
Q 2594 3103 2138 3103 
Q 1681 3103 1420 2742 
Q 1159 2381 1159 1747 
Q 1159 1113 1420 752 
Q 1681 391 2138 391 
Q 2594 391 2855 752 
Q 3116 1113 3116 1747 
z
M 1159 2969 
Q 1341 3281 1617 3432 
Q 1894 3584 2278 3584 
Q 2916 3584 3314 3078 
Q 3713 2572 3713 1747 
Q 3713 922 3314 415 
Q 2916 -91 2278 -91 
Q 1894 -91 1617 61 
Q 1341 213 1159 525 
L 1159 0 
L 581 0 
L 581 4863 
L 1159 4863 
L 1159 2969 
z
" transform="scale(0.015625)"/>
      <path id="DejaVuSans-63" d="M 3122 3366 
L 3122 2828 
Q 2878 2963 2633 3030 
Q 2388 3097 2138 3097 
Q 1578 3097 1268 2742 
Q 959 2388 959 1747 
Q 959 1106 1268 751 
Q 1578 397 2138 397 
Q 2388 397 2633 464 
Q 2878 531 3122 666 
L 3122 134 
Q 2881 22 2623 -34 
Q 2366 -91 2075 -91 
Q 1284 -91 818 406 
Q 353 903 353 1747 
Q 353 2603 823 3093 
Q 1294 3584 2113 3584 
Q 2378 3584 2631 3529 
Q 2884 3475 3122 3366 
z
" transform="scale(0.015625)"/>
      <path id="DejaVuSans-72" d="M 2631 2963 
Q 2534 3019 2420 3045 
Q 2306 3072 2169 3072 
Q 1681 3072 1420 2755 
Q 1159 2438 1159 1844 
L 1159 0 
L 581 0 
L 581 3500 
L 1159 3500 
L 1159 2956 
Q 1341 3275 1631 3429 
Q 1922 3584 2338 3584 
Q 2397 3584 2469 3576 
Q 2541 3569 2628 3553 
L 2631 2963 
z
" transform="scale(0.015625)"/>
      <path id="DejaVuSans-69" d="M 603 3500 
L 1178 3500 
L 1178 0 
L 603 0 
L 603 3500 
z
M 603 4863 
L 1178 4863 
L 1178 4134 
L 603 4134 
L 603 4863 
z
" transform="scale(0.015625)"/>
      <path id="DejaVuSans-20" transform="scale(0.015625)"/>
      <path id="DejaVuSans-68" d="M 3513 2113 
L 3513 0 
L 2938 0 
L 2938 2094 
Q 2938 2591 2744 2837 
Q 2550 3084 2163 3084 
Q 1697 3084 1428 2787 
Q 1159 2491 1159 1978 
L 1159 0 
L 581 0 
L 581 4863 
L 1159 4863 
L 1159 2956 
Q 1366 3272 1645 3428 
Q 1925 3584 2291 3584 
Q 2894 3584 3203 3211 
Q 3513 2838 3513 2113 
z
" transform="scale(0.015625)"/>
      <path id="DejaVuSans-6f" d="M 1959 3097 
Q 1497 3097 1228 2736 
Q 959 2375 959 1747 
Q 959 1119 1226 758 
Q 1494 397 1959 397 
Q 2419 397 2687 759 
Q 2956 1122 2956 1747 
Q 2956 2369 2687 2733 
Q 2419 3097 1959 3097 
z
M 1959 3584 
Q 2709 3584 3137 3096 
Q 3566 2609 3566 1747 
Q 3566 888 3137 398 
Q 2709 -91 1959 -91 
Q 1206 -91 779 398 
Q 353 888 353 1747 
Q 353 2609 779 3096 
Q 1206 3584 1959 3584 
z
" transform="scale(0.015625)"/>
      <path id="DejaVuSans-79" d="M 2059 -325 
Q 1816 -950 1584 -1140 
Q 1353 -1331 966 -1331 
L 506 -1331 
L 506 -850 
L 844 -850 
Q 1081 -850 1212 -737 
Q 1344 -625 1503 -206 
L 1606 56 
L 191 3500 
L 800 3500 
L 1894 763 
L 2988 3500 
L 3597 3500 
L 2059 -325 
z
" transform="scale(0.015625)"/>
     </defs>
     <use xlink:href="#DejaVuSans-67"/>
     <use xlink:href="#DejaVuSans-65" x="63.476562"/>
     <use xlink:href="#DejaVuSans-74" x="125"/>
     <use xlink:href="#DejaVuSans-5f" x="164.208984"/>
     <use xlink:href="#DejaVuSans-73" x="214.208984"/>
     <use xlink:href="#DejaVuSans-75" x="266.308594"/>
     <use xlink:href="#DejaVuSans-62" x="329.6875"/>
     <use xlink:href="#DejaVuSans-73" x="393.164062"/>
     <use xlink:href="#DejaVuSans-63" x="445.263672"/>
     <use xlink:href="#DejaVuSans-72" x="500.244141"/>
     <use xlink:href="#DejaVuSans-69" x="541.357422"/>
     <use xlink:href="#DejaVuSans-62" x="569.140625"/>
     <use xlink:href="#DejaVuSans-65" x="632.617188"/>
     <use xlink:href="#DejaVuSans-20" x="694.140625"/>
     <use xlink:href="#DejaVuSans-68" x="725.927734"/>
     <use xlink:href="#DejaVuSans-69" x="789.306641"/>
     <use xlink:href="#DejaVuSans-73" x="817.089844"/>
     <use xlink:href="#DejaVuSans-74" x="869.189453"/>
     <use xlink:href="#DejaVuSans-6f" x="908.398438"/>
     <use xlink:href="#DejaVuSans-72" x="969.580078"/>
     <use xlink:href="#DejaVuSans-79" x="1010.693359"/>
    </g>
   </g>
   <g id="legend_1">
    <g id="line2d_41">
     <path d="M 815.08 328.498438 
L 825.08 328.498438 
L 835.08 328.498438 
" style="fill: none; stroke: #1f77b4; stroke-width: 1.5; stroke-linecap: square"/>
    </g>
    <g id="text_21">
     <!-- star -->
     <g style="fill: #a9a9a9" transform="translate(843.08 331.998438) scale(0.1 -0.1)">
      <defs>
       <path id="DejaVuSans-61" d="M 2194 1759 
Q 1497 1759 1228 1600 
Q 959 1441 959 1056 
Q 959 750 1161 570 
Q 1363 391 1709 391 
Q 2188 391 2477 730 
Q 2766 1069 2766 1631 
L 2766 1759 
L 2194 1759 
z
M 3341 1997 
L 3341 0 
L 2766 0 
L 2766 531 
Q 2569 213 2275 61 
Q 1981 -91 1556 -91 
Q 1019 -91 701 211 
Q 384 513 384 1019 
Q 384 1609 779 1909 
Q 1175 2209 1959 2209 
L 2766 2209 
L 2766 2266 
Q 2766 2663 2505 2880 
Q 2244 3097 1772 3097 
Q 1472 3097 1187 3025 
Q 903 2953 641 2809 
L 641 3341 
Q 956 3463 1253 3523 
Q 1550 3584 1831 3584 
Q 2591 3584 2966 3190 
Q 3341 2797 3341 1997 
z
" transform="scale(0.015625)"/>
      </defs>
      <use xlink:href="#DejaVuSans-73"/>
      <use xlink:href="#DejaVuSans-74" x="52.099609"/>
      <use xlink:href="#DejaVuSans-61" x="91.308594"/>
      <use xlink:href="#DejaVuSans-72" x="152.587891"/>
     </g>
    </g>
    <g id="line2d_42">
     <path d="M 815.08 343.176562 
L 825.08 343.176562 
L 835.08 343.176562 
" style="fill: none; stroke: #ff7f0e; stroke-width: 1.5; stroke-linecap: square"/>
    </g>
    <g id="text_22">
     <!-- fork -->
     <g style="fill: #a9a9a9" transform="translate(843.08 346.676562) scale(0.1 -0.1)">
      <defs>
       <path id="DejaVuSans-66" d="M 2375 4863 
L 2375 4384 
L 1825 4384 
Q 1516 4384 1395 4259 
Q 1275 4134 1275 3809 
L 1275 3500 
L 2222 3500 
L 2222 3053 
L 1275 3053 
L 1275 0 
L 697 0 
L 697 3053 
L 147 3053 
L 147 3500 
L 697 3500 
L 697 3744 
Q 697 4328 969 4595 
Q 1241 4863 1831 4863 
L 2375 4863 
z
" transform="scale(0.015625)"/>
       <path id="DejaVuSans-6b" d="M 581 4863 
L 1159 4863 
L 1159 1991 
L 2875 3500 
L 3609 3500 
L 1753 1863 
L 3688 0 
L 2938 0 
L 1159 1709 
L 1159 0 
L 581 0 
L 581 4863 
z
" transform="scale(0.015625)"/>
      </defs>
      <use xlink:href="#DejaVuSans-66"/>
      <use xlink:href="#DejaVuSans-6f" x="35.205078"/>
      <use xlink:href="#DejaVuSans-72" x="96.386719"/>
      <use xlink:href="#DejaVuSans-6b" x="137.5"/>
     </g>
    </g>
   </g>
  </g>
 </g>
 <defs>
  <clipPath id="p5e27da76c5">
   <rect x="108" y="43.2" width="669.6" height="277.2"/>
  </clipPath>
 </defs>
</svg>
