<?xml version="1.0" encoding="utf-8" standalone="no"?>
<!DOCTYPE svg PUBLIC "-//W3C//DTD SVG 1.1//EN"
  "http://www.w3.org/Graphics/SVG/1.1/DTD/svg11.dtd">
<svg xmlns:xlink="http://www.w3.org/1999/xlink" width="864pt" height="360pt" viewBox="0 0 864 360" xmlns="http://www.w3.org/2000/svg" version="1.1">
 <metadata>
  <rdf:RDF xmlns:dc="http://purl.org/dc/elements/1.1/" xmlns:cc="http://creativecommons.org/ns#" xmlns:rdf="http://www.w3.org/1999/02/22-rdf-syntax-ns#">
   <cc:Work>
    <dc:type rdf:resource="http://purl.org/dc/dcmitype/StillImage"/>
    <dc:date>2024-10-16T20:05:40.321656</dc:date>
    <dc:format>image/svg+xml</dc:format>
    <dc:creator>
     <cc:Agent>
      <dc:title>Matplotlib v3.9.2, https://matplotlib.org/</dc:title>
     </cc:Agent>
    </dc:creator>
   </cc:Work>
  </rdf:RDF>
 </metadata>
 <defs>
  <style type="text/css">*{stroke-linejoin: round; stroke-linecap: butt}</style>
 </defs>
 <g id="figure_1">
  <g id="patch_1">
   <path d="M 0 360 
L 864 360 
L 864 0 
L 0 0 
L 0 360 
z
" style="fill: none; opacity: 0"/>
  </g>
  <g id="axes_1">
   <g id="patch_2">
    <path d="M 108 320.4 
L 777.6 320.4 
L 777.6 43.2 
L 108 43.2 
L 108 320.4 
z
" style="fill: none; opacity: 0"/>
   </g>
   <g id="matplotlib.axis_1">
    <g id="xtick_1">
     <g id="line2d_1">
      <path d="M 158.555316 320.4 
L 158.555316 43.2 
" clip-path="url(#p9c5b762623)" style="fill: none; stroke-dasharray: 5.12,1.28,0.8,1.28; stroke-dashoffset: 0; stroke: #b0b0b0; stroke-width: 0.8"/>
     </g>
     <g id="line2d_2">
      <defs>
       <path id="m5c1b37bed3" d="M 0 0 
L 0 3.5 
" style="stroke: #a9a9a9; stroke-width: 0.8"/>
      </defs>
      <g>
       <use xlink:href="#m5c1b37bed3" x="158.555316" y="320.4" style="fill: #a9a9a9; stroke: #a9a9a9; stroke-width: 0.8"/>
      </g>
     </g>
     <g id="text_1">
      <!-- 2021-09 -->
      <g style="fill: #a9a9a9" transform="translate(137.66391 334.998438) scale(0.1 -0.1)">
       <defs>
        <path id="DejaVuSans-32" d="M 1228 531 
L 3431 531 
L 3431 0 
L 469 0 
L 469 531 
Q 828 903 1448 1529 
Q 2069 2156 2228 2338 
Q 2531 2678 2651 2914 
Q 2772 3150 2772 3378 
Q 2772 3750 2511 3984 
Q 2250 4219 1831 4219 
Q 1534 4219 1204 4116 
Q 875 4013 500 3803 
L 500 4441 
Q 881 4594 1212 4672 
Q 1544 4750 1819 4750 
Q 2544 4750 2975 4387 
Q 3406 4025 3406 3419 
Q 3406 3131 3298 2873 
Q 3191 2616 2906 2266 
Q 2828 2175 2409 1742 
Q 1991 1309 1228 531 
z
" transform="scale(0.015625)"/>
        <path id="DejaVuSans-30" d="M 2034 4250 
Q 1547 4250 1301 3770 
Q 1056 3291 1056 2328 
Q 1056 1369 1301 889 
Q 1547 409 2034 409 
Q 2525 409 2770 889 
Q 3016 1369 3016 2328 
Q 3016 3291 2770 3770 
Q 2525 4250 2034 4250 
z
M 2034 4750 
Q 2819 4750 3233 4129 
Q 3647 3509 3647 2328 
Q 3647 1150 3233 529 
Q 2819 -91 2034 -91 
Q 1250 -91 836 529 
Q 422 1150 422 2328 
Q 422 3509 836 4129 
Q 1250 4750 2034 4750 
z
" transform="scale(0.015625)"/>
        <path id="DejaVuSans-31" d="M 794 531 
L 1825 531 
L 1825 4091 
L 703 3866 
L 703 4441 
L 1819 4666 
L 2450 4666 
L 2450 531 
L 3481 531 
L 3481 0 
L 794 0 
L 794 531 
z
" transform="scale(0.015625)"/>
        <path id="DejaVuSans-2d" d="M 313 2009 
L 1997 2009 
L 1997 1497 
L 313 1497 
L 313 2009 
z
" transform="scale(0.015625)"/>
        <path id="DejaVuSans-39" d="M 703 97 
L 703 672 
Q 941 559 1184 500 
Q 1428 441 1663 441 
Q 2288 441 2617 861 
Q 2947 1281 2994 2138 
Q 2813 1869 2534 1725 
Q 2256 1581 1919 1581 
Q 1219 1581 811 2004 
Q 403 2428 403 3163 
Q 403 3881 828 4315 
Q 1253 4750 1959 4750 
Q 2769 4750 3195 4129 
Q 3622 3509 3622 2328 
Q 3622 1225 3098 567 
Q 2575 -91 1691 -91 
Q 1453 -91 1209 -44 
Q 966 3 703 97 
z
M 1959 2075 
Q 2384 2075 2632 2365 
Q 2881 2656 2881 3163 
Q 2881 3666 2632 3958 
Q 2384 4250 1959 4250 
Q 1534 4250 1286 3958 
Q 1038 3666 1038 3163 
Q 1038 2656 1286 2365 
Q 1534 2075 1959 2075 
z
" transform="scale(0.015625)"/>
       </defs>
       <use xlink:href="#DejaVuSans-32"/>
       <use xlink:href="#DejaVuSans-30" x="63.623047"/>
       <use xlink:href="#DejaVuSans-32" x="127.246094"/>
       <use xlink:href="#DejaVuSans-31" x="190.869141"/>
       <use xlink:href="#DejaVuSans-2d" x="254.492188"/>
       <use xlink:href="#DejaVuSans-30" x="290.576172"/>
       <use xlink:href="#DejaVuSans-39" x="354.199219"/>
      </g>
     </g>
    </g>
    <g id="xtick_2">
     <g id="line2d_3">
      <path d="M 221.491525 320.4 
L 221.491525 43.2 
" clip-path="url(#p9c5b762623)" style="fill: none; stroke-dasharray: 5.12,1.28,0.8,1.28; stroke-dashoffset: 0; stroke: #b0b0b0; stroke-width: 0.8"/>
     </g>
     <g id="line2d_4">
      <g>
       <use xlink:href="#m5c1b37bed3" x="221.491525" y="320.4" style="fill: #a9a9a9; stroke: #a9a9a9; stroke-width: 0.8"/>
      </g>
     </g>
     <g id="text_2">
      <!-- 2022-01 -->
      <g style="fill: #a9a9a9" transform="translate(200.600119 334.998438) scale(0.1 -0.1)">
       <use xlink:href="#DejaVuSans-32"/>
       <use xlink:href="#DejaVuSans-30" x="63.623047"/>
       <use xlink:href="#DejaVuSans-32" x="127.246094"/>
       <use xlink:href="#DejaVuSans-32" x="190.869141"/>
       <use xlink:href="#DejaVuSans-2d" x="254.492188"/>
       <use xlink:href="#DejaVuSans-30" x="290.576172"/>
       <use xlink:href="#DejaVuSans-31" x="354.199219"/>
      </g>
     </g>
    </g>
    <g id="xtick_3">
     <g id="line2d_5">
      <path d="M 283.395994 320.4 
L 283.395994 43.2 
" clip-path="url(#p9c5b762623)" style="fill: none; stroke-dasharray: 5.12,1.28,0.8,1.28; stroke-dashoffset: 0; stroke: #b0b0b0; stroke-width: 0.8"/>
     </g>
     <g id="line2d_6">
      <g>
       <use xlink:href="#m5c1b37bed3" x="283.395994" y="320.4" style="fill: #a9a9a9; stroke: #a9a9a9; stroke-width: 0.8"/>
      </g>
     </g>
     <g id="text_3">
      <!-- 2022-05 -->
      <g style="fill: #a9a9a9" transform="translate(262.504588 334.998438) scale(0.1 -0.1)">
       <defs>
        <path id="DejaVuSans-35" d="M 691 4666 
L 3169 4666 
L 3169 4134 
L 1269 4134 
L 1269 2991 
Q 1406 3038 1543 3061 
Q 1681 3084 1819 3084 
Q 2600 3084 3056 2656 
Q 3513 2228 3513 1497 
Q 3513 744 3044 326 
Q 2575 -91 1722 -91 
Q 1428 -91 1123 -41 
Q 819 9 494 109 
L 494 744 
Q 775 591 1075 516 
Q 1375 441 1709 441 
Q 2250 441 2565 725 
Q 2881 1009 2881 1497 
Q 2881 1984 2565 2268 
Q 2250 2553 1709 2553 
Q 1456 2553 1204 2497 
Q 953 2441 691 2322 
L 691 4666 
z
" transform="scale(0.015625)"/>
       </defs>
       <use xlink:href="#DejaVuSans-32"/>
       <use xlink:href="#DejaVuSans-30" x="63.623047"/>
       <use xlink:href="#DejaVuSans-32" x="127.246094"/>
       <use xlink:href="#DejaVuSans-32" x="190.869141"/>
       <use xlink:href="#DejaVuSans-2d" x="254.492188"/>
       <use xlink:href="#DejaVuSans-30" x="290.576172"/>
       <use xlink:href="#DejaVuSans-35" x="354.199219"/>
      </g>
     </g>
    </g>
    <g id="xtick_4">
     <g id="line2d_7">
      <path d="M 346.848074 320.4 
L 346.848074 43.2 
" clip-path="url(#p9c5b762623)" style="fill: none; stroke-dasharray: 5.12,1.28,0.8,1.28; stroke-dashoffset: 0; stroke: #b0b0b0; stroke-width: 0.8"/>
     </g>
     <g id="line2d_8">
      <g>
       <use xlink:href="#m5c1b37bed3" x="346.848074" y="320.4" style="fill: #a9a9a9; stroke: #a9a9a9; stroke-width: 0.8"/>
      </g>
     </g>
     <g id="text_4">
      <!-- 2022-09 -->
      <g style="fill: #a9a9a9" transform="translate(325.956668 334.998438) scale(0.1 -0.1)">
       <use xlink:href="#DejaVuSans-32"/>
       <use xlink:href="#DejaVuSans-30" x="63.623047"/>
       <use xlink:href="#DejaVuSans-32" x="127.246094"/>
       <use xlink:href="#DejaVuSans-32" x="190.869141"/>
       <use xlink:href="#DejaVuSans-2d" x="254.492188"/>
       <use xlink:href="#DejaVuSans-30" x="290.576172"/>
       <use xlink:href="#DejaVuSans-39" x="354.199219"/>
      </g>
     </g>
    </g>
    <g id="xtick_5">
     <g id="line2d_9">
      <path d="M 409.784284 320.4 
L 409.784284 43.2 
" clip-path="url(#p9c5b762623)" style="fill: none; stroke-dasharray: 5.12,1.28,0.8,1.28; stroke-dashoffset: 0; stroke: #b0b0b0; stroke-width: 0.8"/>
     </g>
     <g id="line2d_10">
      <g>
       <use xlink:href="#m5c1b37bed3" x="409.784284" y="320.4" style="fill: #a9a9a9; stroke: #a9a9a9; stroke-width: 0.8"/>
      </g>
     </g>
     <g id="text_5">
      <!-- 2023-01 -->
      <g style="fill: #a9a9a9" transform="translate(388.892877 334.998438) scale(0.1 -0.1)">
       <defs>
        <path id="DejaVuSans-33" d="M 2597 2516 
Q 3050 2419 3304 2112 
Q 3559 1806 3559 1356 
Q 3559 666 3084 287 
Q 2609 -91 1734 -91 
Q 1441 -91 1130 -33 
Q 819 25 488 141 
L 488 750 
Q 750 597 1062 519 
Q 1375 441 1716 441 
Q 2309 441 2620 675 
Q 2931 909 2931 1356 
Q 2931 1769 2642 2001 
Q 2353 2234 1838 2234 
L 1294 2234 
L 1294 2753 
L 1863 2753 
Q 2328 2753 2575 2939 
Q 2822 3125 2822 3475 
Q 2822 3834 2567 4026 
Q 2313 4219 1838 4219 
Q 1578 4219 1281 4162 
Q 984 4106 628 3988 
L 628 4550 
Q 988 4650 1302 4700 
Q 1616 4750 1894 4750 
Q 2613 4750 3031 4423 
Q 3450 4097 3450 3541 
Q 3450 3153 3228 2886 
Q 3006 2619 2597 2516 
z
" transform="scale(0.015625)"/>
       </defs>
       <use xlink:href="#DejaVuSans-32"/>
       <use xlink:href="#DejaVuSans-30" x="63.623047"/>
       <use xlink:href="#DejaVuSans-32" x="127.246094"/>
       <use xlink:href="#DejaVuSans-33" x="190.869141"/>
       <use xlink:href="#DejaVuSans-2d" x="254.492188"/>
       <use xlink:href="#DejaVuSans-30" x="290.576172"/>
       <use xlink:href="#DejaVuSans-31" x="354.199219"/>
      </g>
     </g>
    </g>
    <g id="xtick_6">
     <g id="line2d_11">
      <path d="M 471.688752 320.4 
L 471.688752 43.2 
" clip-path="url(#p9c5b762623)" style="fill: none; stroke-dasharray: 5.12,1.28,0.8,1.28; stroke-dashoffset: 0; stroke: #b0b0b0; stroke-width: 0.8"/>
     </g>
     <g id="line2d_12">
      <g>
       <use xlink:href="#m5c1b37bed3" x="471.688752" y="320.4" style="fill: #a9a9a9; stroke: #a9a9a9; stroke-width: 0.8"/>
      </g>
     </g>
     <g id="text_6">
      <!-- 2023-05 -->
      <g style="fill: #a9a9a9" transform="translate(450.797346 334.998438) scale(0.1 -0.1)">
       <use xlink:href="#DejaVuSans-32"/>
       <use xlink:href="#DejaVuSans-30" x="63.623047"/>
       <use xlink:href="#DejaVuSans-32" x="127.246094"/>
       <use xlink:href="#DejaVuSans-33" x="190.869141"/>
       <use xlink:href="#DejaVuSans-2d" x="254.492188"/>
       <use xlink:href="#DejaVuSans-30" x="290.576172"/>
       <use xlink:href="#DejaVuSans-35" x="354.199219"/>
      </g>
     </g>
    </g>
    <g id="xtick_7">
     <g id="line2d_13">
      <path d="M 535.140832 320.4 
L 535.140832 43.2 
" clip-path="url(#p9c5b762623)" style="fill: none; stroke-dasharray: 5.12,1.28,0.8,1.28; stroke-dashoffset: 0; stroke: #b0b0b0; stroke-width: 0.8"/>
     </g>
     <g id="line2d_14">
      <g>
       <use xlink:href="#m5c1b37bed3" x="535.140832" y="320.4" style="fill: #a9a9a9; stroke: #a9a9a9; stroke-width: 0.8"/>
      </g>
     </g>
     <g id="text_7">
      <!-- 2023-09 -->
      <g style="fill: #a9a9a9" transform="translate(514.249426 334.998438) scale(0.1 -0.1)">
       <use xlink:href="#DejaVuSans-32"/>
       <use xlink:href="#DejaVuSans-30" x="63.623047"/>
       <use xlink:href="#DejaVuSans-32" x="127.246094"/>
       <use xlink:href="#DejaVuSans-33" x="190.869141"/>
       <use xlink:href="#DejaVuSans-2d" x="254.492188"/>
       <use xlink:href="#DejaVuSans-30" x="290.576172"/>
       <use xlink:href="#DejaVuSans-39" x="354.199219"/>
      </g>
     </g>
    </g>
    <g id="xtick_8">
     <g id="line2d_15">
      <path d="M 598.077042 320.4 
L 598.077042 43.2 
" clip-path="url(#p9c5b762623)" style="fill: none; stroke-dasharray: 5.12,1.28,0.8,1.28; stroke-dashoffset: 0; stroke: #b0b0b0; stroke-width: 0.8"/>
     </g>
     <g id="line2d_16">
      <g>
       <use xlink:href="#m5c1b37bed3" x="598.077042" y="320.4" style="fill: #a9a9a9; stroke: #a9a9a9; stroke-width: 0.8"/>
      </g>
     </g>
     <g id="text_8">
      <!-- 2024-01 -->
      <g style="fill: #a9a9a9" transform="translate(577.185635 334.998438) scale(0.1 -0.1)">
       <defs>
        <path id="DejaVuSans-34" d="M 2419 4116 
L 825 1625 
L 2419 1625 
L 2419 4116 
z
M 2253 4666 
L 3047 4666 
L 3047 1625 
L 3713 1625 
L 3713 1100 
L 3047 1100 
L 3047 0 
L 2419 0 
L 2419 1100 
L 313 1100 
L 313 1709 
L 2253 4666 
z
" transform="scale(0.015625)"/>
       </defs>
       <use xlink:href="#DejaVuSans-32"/>
       <use xlink:href="#DejaVuSans-30" x="63.623047"/>
       <use xlink:href="#DejaVuSans-32" x="127.246094"/>
       <use xlink:href="#DejaVuSans-34" x="190.869141"/>
       <use xlink:href="#DejaVuSans-2d" x="254.492188"/>
       <use xlink:href="#DejaVuSans-30" x="290.576172"/>
       <use xlink:href="#DejaVuSans-31" x="354.199219"/>
      </g>
     </g>
    </g>
    <g id="xtick_9">
     <g id="line2d_17">
      <path d="M 660.497381 320.4 
L 660.497381 43.2 
" clip-path="url(#p9c5b762623)" style="fill: none; stroke-dasharray: 5.12,1.28,0.8,1.28; stroke-dashoffset: 0; stroke: #b0b0b0; stroke-width: 0.8"/>
     </g>
     <g id="line2d_18">
      <g>
       <use xlink:href="#m5c1b37bed3" x="660.497381" y="320.4" style="fill: #a9a9a9; stroke: #a9a9a9; stroke-width: 0.8"/>
      </g>
     </g>
     <g id="text_9">
      <!-- 2024-05 -->
      <g style="fill: #a9a9a9" transform="translate(639.605974 334.998438) scale(0.1 -0.1)">
       <use xlink:href="#DejaVuSans-32"/>
       <use xlink:href="#DejaVuSans-30" x="63.623047"/>
       <use xlink:href="#DejaVuSans-32" x="127.246094"/>
       <use xlink:href="#DejaVuSans-34" x="190.869141"/>
       <use xlink:href="#DejaVuSans-2d" x="254.492188"/>
       <use xlink:href="#DejaVuSans-30" x="290.576172"/>
       <use xlink:href="#DejaVuSans-35" x="354.199219"/>
      </g>
     </g>
    </g>
    <g id="xtick_10">
     <g id="line2d_19">
      <path d="M 723.949461 320.4 
L 723.949461 43.2 
" clip-path="url(#p9c5b762623)" style="fill: none; stroke-dasharray: 5.12,1.28,0.8,1.28; stroke-dashoffset: 0; stroke: #b0b0b0; stroke-width: 0.8"/>
     </g>
     <g id="line2d_20">
      <g>
       <use xlink:href="#m5c1b37bed3" x="723.949461" y="320.4" style="fill: #a9a9a9; stroke: #a9a9a9; stroke-width: 0.8"/>
      </g>
     </g>
     <g id="text_10">
      <!-- 2024-09 -->
      <g style="fill: #a9a9a9" transform="translate(703.058054 334.998438) scale(0.1 -0.1)">
       <use xlink:href="#DejaVuSans-32"/>
       <use xlink:href="#DejaVuSans-30" x="63.623047"/>
       <use xlink:href="#DejaVuSans-32" x="127.246094"/>
       <use xlink:href="#DejaVuSans-34" x="190.869141"/>
       <use xlink:href="#DejaVuSans-2d" x="254.492188"/>
       <use xlink:href="#DejaVuSans-30" x="290.576172"/>
       <use xlink:href="#DejaVuSans-39" x="354.199219"/>
      </g>
     </g>
    </g>
   </g>
   <g id="matplotlib.axis_2">
    <g id="ytick_1">
     <g id="line2d_21">
      <path d="M 108 307.837015 
L 777.6 307.837015 
" clip-path="url(#p9c5b762623)" style="fill: none; stroke-dasharray: 5.12,1.28,0.8,1.28; stroke-dashoffset: 0; stroke: #b0b0b0; stroke-width: 0.8"/>
     </g>
     <g id="line2d_22">
      <defs>
       <path id="m04cceed132" d="M 0 0 
L -3.5 0 
" style="stroke: #a9a9a9; stroke-width: 0.8"/>
      </defs>
      <g>
       <use xlink:href="#m04cceed132" x="108" y="307.837015" style="fill: #a9a9a9; stroke: #a9a9a9; stroke-width: 0.8"/>
      </g>
     </g>
     <g id="text_11">
      <!-- 0 -->
      <g style="fill: #a9a9a9" transform="translate(94.6375 311.636234) scale(0.1 -0.1)">
       <use xlink:href="#DejaVuSans-30"/>
      </g>
     </g>
    </g>
    <g id="ytick_2">
     <g id="line2d_23">
      <path d="M 108 278.224794 
L 777.6 278.224794 
" clip-path="url(#p9c5b762623)" style="fill: none; stroke-dasharray: 5.12,1.28,0.8,1.28; stroke-dashoffset: 0; stroke: #b0b0b0; stroke-width: 0.8"/>
     </g>
     <g id="line2d_24">
      <g>
       <use xlink:href="#m04cceed132" x="108" y="278.224794" style="fill: #a9a9a9; stroke: #a9a9a9; stroke-width: 0.8"/>
      </g>
     </g>
     <g id="text_12">
      <!-- 800 -->
      <g style="fill: #a9a9a9" transform="translate(81.9125 282.024013) scale(0.1 -0.1)">
       <defs>
        <path id="DejaVuSans-38" d="M 2034 2216 
Q 1584 2216 1326 1975 
Q 1069 1734 1069 1313 
Q 1069 891 1326 650 
Q 1584 409 2034 409 
Q 2484 409 2743 651 
Q 3003 894 3003 1313 
Q 3003 1734 2745 1975 
Q 2488 2216 2034 2216 
z
M 1403 2484 
Q 997 2584 770 2862 
Q 544 3141 544 3541 
Q 544 4100 942 4425 
Q 1341 4750 2034 4750 
Q 2731 4750 3128 4425 
Q 3525 4100 3525 3541 
Q 3525 3141 3298 2862 
Q 3072 2584 2669 2484 
Q 3125 2378 3379 2068 
Q 3634 1759 3634 1313 
Q 3634 634 3220 271 
Q 2806 -91 2034 -91 
Q 1263 -91 848 271 
Q 434 634 434 1313 
Q 434 1759 690 2068 
Q 947 2378 1403 2484 
z
M 1172 3481 
Q 1172 3119 1398 2916 
Q 1625 2713 2034 2713 
Q 2441 2713 2670 2916 
Q 2900 3119 2900 3481 
Q 2900 3844 2670 4047 
Q 2441 4250 2034 4250 
Q 1625 4250 1398 4047 
Q 1172 3844 1172 3481 
z
" transform="scale(0.015625)"/>
       </defs>
       <use xlink:href="#DejaVuSans-38"/>
       <use xlink:href="#DejaVuSans-30" x="63.623047"/>
       <use xlink:href="#DejaVuSans-30" x="127.246094"/>
      </g>
     </g>
    </g>
    <g id="ytick_3">
     <g id="line2d_25">
      <path d="M 108 248.612573 
L 777.6 248.612573 
" clip-path="url(#p9c5b762623)" style="fill: none; stroke-dasharray: 5.12,1.28,0.8,1.28; stroke-dashoffset: 0; stroke: #b0b0b0; stroke-width: 0.8"/>
     </g>
     <g id="line2d_26">
      <g>
       <use xlink:href="#m04cceed132" x="108" y="248.612573" style="fill: #a9a9a9; stroke: #a9a9a9; stroke-width: 0.8"/>
      </g>
     </g>
     <g id="text_13">
      <!-- 1600 -->
      <g style="fill: #a9a9a9" transform="translate(75.55 252.411792) scale(0.1 -0.1)">
       <defs>
        <path id="DejaVuSans-36" d="M 2113 2584 
Q 1688 2584 1439 2293 
Q 1191 2003 1191 1497 
Q 1191 994 1439 701 
Q 1688 409 2113 409 
Q 2538 409 2786 701 
Q 3034 994 3034 1497 
Q 3034 2003 2786 2293 
Q 2538 2584 2113 2584 
z
M 3366 4563 
L 3366 3988 
Q 3128 4100 2886 4159 
Q 2644 4219 2406 4219 
Q 1781 4219 1451 3797 
Q 1122 3375 1075 2522 
Q 1259 2794 1537 2939 
Q 1816 3084 2150 3084 
Q 2853 3084 3261 2657 
Q 3669 2231 3669 1497 
Q 3669 778 3244 343 
Q 2819 -91 2113 -91 
Q 1303 -91 875 529 
Q 447 1150 447 2328 
Q 447 3434 972 4092 
Q 1497 4750 2381 4750 
Q 2619 4750 2861 4703 
Q 3103 4656 3366 4563 
z
" transform="scale(0.015625)"/>
       </defs>
       <use xlink:href="#DejaVuSans-31"/>
       <use xlink:href="#DejaVuSans-36" x="63.623047"/>
       <use xlink:href="#DejaVuSans-30" x="127.246094"/>
       <use xlink:href="#DejaVuSans-30" x="190.869141"/>
      </g>
     </g>
    </g>
    <g id="ytick_4">
     <g id="line2d_27">
      <path d="M 108 219.000353 
L 777.6 219.000353 
" clip-path="url(#p9c5b762623)" style="fill: none; stroke-dasharray: 5.12,1.28,0.8,1.28; stroke-dashoffset: 0; stroke: #b0b0b0; stroke-width: 0.8"/>
     </g>
     <g id="line2d_28">
      <g>
       <use xlink:href="#m04cceed132" x="108" y="219.000353" style="fill: #a9a9a9; stroke: #a9a9a9; stroke-width: 0.8"/>
      </g>
     </g>
     <g id="text_14">
      <!-- 2400 -->
      <g style="fill: #a9a9a9" transform="translate(75.55 222.799571) scale(0.1 -0.1)">
       <use xlink:href="#DejaVuSans-32"/>
       <use xlink:href="#DejaVuSans-34" x="63.623047"/>
       <use xlink:href="#DejaVuSans-30" x="127.246094"/>
       <use xlink:href="#DejaVuSans-30" x="190.869141"/>
      </g>
     </g>
    </g>
    <g id="ytick_5">
     <g id="line2d_29">
      <path d="M 108 189.388132 
L 777.6 189.388132 
" clip-path="url(#p9c5b762623)" style="fill: none; stroke-dasharray: 5.12,1.28,0.8,1.28; stroke-dashoffset: 0; stroke: #b0b0b0; stroke-width: 0.8"/>
     </g>
     <g id="line2d_30">
      <g>
       <use xlink:href="#m04cceed132" x="108" y="189.388132" style="fill: #a9a9a9; stroke: #a9a9a9; stroke-width: 0.8"/>
      </g>
     </g>
     <g id="text_15">
      <!-- 3200 -->
      <g style="fill: #a9a9a9" transform="translate(75.55 193.18735) scale(0.1 -0.1)">
       <use xlink:href="#DejaVuSans-33"/>
       <use xlink:href="#DejaVuSans-32" x="63.623047"/>
       <use xlink:href="#DejaVuSans-30" x="127.246094"/>
       <use xlink:href="#DejaVuSans-30" x="190.869141"/>
      </g>
     </g>
    </g>
    <g id="ytick_6">
     <g id="line2d_31">
      <path d="M 108 159.775911 
L 777.6 159.775911 
" clip-path="url(#p9c5b762623)" style="fill: none; stroke-dasharray: 5.12,1.28,0.8,1.28; stroke-dashoffset: 0; stroke: #b0b0b0; stroke-width: 0.8"/>
     </g>
     <g id="line2d_32">
      <g>
       <use xlink:href="#m04cceed132" x="108" y="159.775911" style="fill: #a9a9a9; stroke: #a9a9a9; stroke-width: 0.8"/>
      </g>
     </g>
     <g id="text_16">
      <!-- 4000 -->
      <g style="fill: #a9a9a9" transform="translate(75.55 163.575129) scale(0.1 -0.1)">
       <use xlink:href="#DejaVuSans-34"/>
       <use xlink:href="#DejaVuSans-30" x="63.623047"/>
       <use xlink:href="#DejaVuSans-30" x="127.246094"/>
       <use xlink:href="#DejaVuSans-30" x="190.869141"/>
      </g>
     </g>
    </g>
    <g id="ytick_7">
     <g id="line2d_33">
      <path d="M 108 130.16369 
L 777.6 130.16369 
" clip-path="url(#p9c5b762623)" style="fill: none; stroke-dasharray: 5.12,1.28,0.8,1.28; stroke-dashoffset: 0; stroke: #b0b0b0; stroke-width: 0.8"/>
     </g>
     <g id="line2d_34">
      <g>
       <use xlink:href="#m04cceed132" x="108" y="130.16369" style="fill: #a9a9a9; stroke: #a9a9a9; stroke-width: 0.8"/>
      </g>
     </g>
     <g id="text_17">
      <!-- 4800 -->
      <g style="fill: #a9a9a9" transform="translate(75.55 133.962909) scale(0.1 -0.1)">
       <use xlink:href="#DejaVuSans-34"/>
       <use xlink:href="#DejaVuSans-38" x="63.623047"/>
       <use xlink:href="#DejaVuSans-30" x="127.246094"/>
       <use xlink:href="#DejaVuSans-30" x="190.869141"/>
      </g>
     </g>
    </g>
    <g id="ytick_8">
     <g id="line2d_35">
      <path d="M 108 100.551469 
L 777.6 100.551469 
" clip-path="url(#p9c5b762623)" style="fill: none; stroke-dasharray: 5.12,1.28,0.8,1.28; stroke-dashoffset: 0; stroke: #b0b0b0; stroke-width: 0.8"/>
     </g>
     <g id="line2d_36">
      <g>
       <use xlink:href="#m04cceed132" x="108" y="100.551469" style="fill: #a9a9a9; stroke: #a9a9a9; stroke-width: 0.8"/>
      </g>
     </g>
     <g id="text_18">
      <!-- 5600 -->
      <g style="fill: #a9a9a9" transform="translate(75.55 104.350688) scale(0.1 -0.1)">
       <use xlink:href="#DejaVuSans-35"/>
       <use xlink:href="#DejaVuSans-36" x="63.623047"/>
       <use xlink:href="#DejaVuSans-30" x="127.246094"/>
       <use xlink:href="#DejaVuSans-30" x="190.869141"/>
      </g>
     </g>
    </g>
    <g id="ytick_9">
     <g id="line2d_37">
      <path d="M 108 70.939248 
L 777.6 70.939248 
" clip-path="url(#p9c5b762623)" style="fill: none; stroke-dasharray: 5.12,1.28,0.8,1.28; stroke-dashoffset: 0; stroke: #b0b0b0; stroke-width: 0.8"/>
     </g>
     <g id="line2d_38">
      <g>
       <use xlink:href="#m04cceed132" x="108" y="70.939248" style="fill: #a9a9a9; stroke: #a9a9a9; stroke-width: 0.8"/>
      </g>
     </g>
     <g id="text_19">
      <!-- 6400 -->
      <g style="fill: #a9a9a9" transform="translate(75.55 74.738467) scale(0.1 -0.1)">
       <use xlink:href="#DejaVuSans-36"/>
       <use xlink:href="#DejaVuSans-34" x="63.623047"/>
       <use xlink:href="#DejaVuSans-30" x="127.246094"/>
       <use xlink:href="#DejaVuSans-30" x="190.869141"/>
      </g>
     </g>
    </g>
   </g>
   <g id="line2d_39">
    <path d="M 138.436364 307.725969 
L 141.531587 307.466863 
L 142.047458 307.244771 
L 144.11094 306.985664 
L 146.174422 306.578496 
L 147.206163 306.430435 
L 149.785516 306.208343 
L 150.817257 305.801175 
L 151.333128 305.1349 
L 151.848998 304.764747 
L 152.364869 303.617274 
L 152.88074 303.543243 
L 153.39661 303.136075 
L 154.428351 302.617861 
L 156.491834 300.989189 
L 158.555316 299.989777 
L 160.102928 299.286486 
L 160.618798 298.47215 
L 161.650539 297.731845 
L 162.16641 297.509753 
L 167.325116 296.769448 
L 167.840986 296.547356 
L 171.45208 296.251234 
L 173.515562 295.770035 
L 177.642527 295.214806 
L 178.158398 294.955699 
L 178.674268 294.881669 
L 179.706009 294.548531 
L 183.317103 293.956287 
L 184.348844 293.660165 
L 188.99168 292.882844 
L 190.023421 292.660752 
L 191.055162 292.623737 
L 193.118644 292.142538 
L 193.634515 291.439248 
L 195.182126 290.847004 
L 196.729738 290.439835 
L 197.245609 290.180729 
L 198.27735 289.995652 
L 200.340832 289.403408 
L 201.372573 289.329377 
L 202.404314 289.07027 
L 204.467797 288.552056 
L 204.983667 288.515041 
L 206.015408 288.033843 
L 206.531279 287.959812 
L 207.047149 287.700705 
L 212.721726 286.775323 
L 214.785208 286.183079 
L 215.301079 285.849941 
L 217.880431 284.99859 
L 218.912173 284.2953 
L 220.459784 283.999177 
L 230.261325 281.149001 
L 231.293066 280.741833 
L 232.324807 280.667803 
L 233.872419 280.223619 
L 234.38829 280.223619 
L 234.90416 280.001528 
L 235.935901 279.890482 
L 236.451772 279.705405 
L 238.515254 279.59436 
L 239.546995 279.409283 
L 240.578737 278.891069 
L 246.769183 276.114924 
L 247.285054 275.559694 
L 248.316795 274.005053 
L 248.832666 273.856992 
L 249.348536 273.856992 
L 250.380277 273.079671 
L 251.927889 272.561457 
L 252.44376 272.080259 
L 253.475501 271.67309 
L 254.507242 271.191892 
L 255.538983 269.711281 
L 256.054854 269.378143 
L 256.570724 268.489777 
L 257.086595 267.934548 
L 260.181818 266.305875 
L 261.213559 265.491539 
L 261.72943 265.158402 
L 262.2453 264.381081 
L 262.761171 263.233608 
L 263.277042 262.456287 
L 263.792912 262.049119 
L 264.308783 261.827027 
L 267.919877 258.791774 
L 268.951618 257.57027 
L 269.983359 256.829965 
L 271.530971 255.793537 
L 272.046841 255.349354 
L 273.078582 255.016216 
L 274.626194 254.12785 
L 276.173806 253.128437 
L 278.237288 251.277673 
L 279.269029 250.870505 
L 280.30077 250.167215 
L 280.816641 249.871093 
L 281.332512 249.797062 
L 284.943606 247.53913 
L 287.007088 246.428672 
L 287.522958 245.947474 
L 295.776888 243.060282 
L 296.808629 242.1349 
L 297.84037 241.653702 
L 298.872111 241.098472 
L 299.387982 240.80235 
L 300.419723 240.506228 
L 300.935593 240.17309 
L 301.451464 240.025029 
L 302.999076 239.025617 
L 305.578428 238.433373 
L 307.12604 237.545006 
L 308.673652 237.211868 
L 309.189522 237.063807 
L 310.737134 235.916334 
L 312.800616 235.361105 
L 313.316487 234.953937 
L 316.41171 233.917509 
L 317.443451 233.732432 
L 318.475193 233.325264 
L 322.086287 232.02973 
L 323.118028 231.881669 
L 324.665639 231.363455 
L 327.244992 230.141951 
L 329.308475 229.031492 
L 333.435439 227.365805 
L 333.95131 227.291774 
L 334.983051 226.662515 
L 335.498921 226.588484 
L 337.562404 225.737133 
L 339.625886 225.441011 
L 340.657627 224.922797 
L 341.173498 224.478613 
L 341.689368 223.553231 
L 343.752851 222.998002 
L 345.300462 222.220682 
L 345.816333 222.109636 
L 349.943297 220.147826 
L 351.490909 219.851704 
L 352.52265 219.33349 
L 353.038521 219.111398 
L 353.554391 219.037368 
L 355.617874 218.111986 
L 357.165485 217.149589 
L 358.713097 216.853467 
L 361.29245 216.224207 
L 361.80832 215.817039 
L 363.355932 215.26181 
L 365.419414 214.447474 
L 365.935285 214.077321 
L 366.451156 213.892244 
L 367.482897 213.337015 
L 370.06225 212.485664 
L 371.609861 211.26416 
L 372.125732 211.153114 
L 373.157473 210.338778 
L 373.673344 210.264747 
L 374.189214 209.450411 
L 374.705085 209.22832 
L 375.220955 208.821152 
L 375.736826 208.747121 
L 376.768567 208.117861 
L 377.800308 207.784724 
L 378.316179 207.377556 
L 378.832049 207.192479 
L 380.379661 206.119036 
L 382.443143 205.045593 
L 382.959014 204.971563 
L 384.506626 204.194242 
L 385.022496 203.342891 
L 385.538367 202.898707 
L 386.054237 202.602585 
L 386.570108 202.491539 
L 387.601849 201.825264 
L 388.11772 201.714219 
L 389.149461 201.196005 
L 391.212943 200.196592 
L 391.728814 199.826439 
L 392.760555 198.827027 
L 393.792296 198.197767 
L 394.308166 197.86463 
L 394.824037 197.309401 
L 396.887519 195.90282 
L 397.40339 195.310576 
L 397.91926 194.903408 
L 398.951002 194.533255 
L 399.982743 193.829965 
L 401.530354 193.052644 
L 402.046225 192.978613 
L 403.593837 192.164277 
L 404.625578 191.535018 
L 409.784284 189.684254 
L 410.300154 189.277086 
L 412.363636 188.499765 
L 412.879507 188.351704 
L 413.395378 187.944536 
L 415.97473 186.537955 
L 417.006471 184.502115 
L 418.038213 183.317626 
L 419.069954 182.688367 
L 420.617565 182.059107 
L 421.133436 181.985076 
L 421.649307 181.688954 
L 424.228659 180.874618 
L 424.74453 180.652526 
L 425.776271 179.949236 
L 427.323883 179.282961 
L 428.355624 178.727732 
L 428.871495 178.357579 
L 429.387365 178.135488 
L 429.903236 177.765335 
L 430.419106 177.210106 
L 431.450847 176.654877 
L 434.0302 175.285311 
L 437.125424 173.767685 
L 438.157165 173.434548 
L 439.704777 172.953349 
L 441.768259 172.027967 
L 442.8 171.620799 
L 443.315871 171.213631 
L 444.347612 170.880494 
L 447.442835 169.288837 
L 448.474576 168.474501 
L 449.506317 168.104348 
L 450.022188 167.660165 
L 450.538059 167.586134 
L 451.5698 166.808813 
L 452.601541 166.290599 
L 453.117411 166.068508 
L 453.633282 165.550294 
L 457.244376 164.143713 
L 458.276117 163.69953 
L 459.823729 163.218331 
L 460.85547 163.07027 
L 461.371341 162.848179 
L 461.887211 162.774148 
L 462.918952 162.329965 
L 463.434823 162.292949 
L 465.498305 161.515629 
L 467.045917 160.442186 
L 467.561787 160.257109 
L 468.593529 159.70188 
L 469.109399 159.553819 
L 472.204622 157.851116 
L 472.720493 157.740071 
L 474.268105 156.851704 
L 475.815716 156.33349 
L 476.847458 156.000353 
L 478.91094 155.334078 
L 479.942681 155.00094 
L 482.006163 154.593772 
L 482.522034 154.37168 
L 483.037904 154.29765 
L 484.069646 153.853467 
L 484.585516 153.779436 
L 485.101387 153.520329 
L 486.133128 153.335253 
L 487.68074 152.780024 
L 488.712481 152.668978 
L 490.260092 152.33584 
L 492.839445 151.891657 
L 506.25208 148.042068 
L 506.767951 147.523854 
L 507.799692 147.116686 
L 510.894915 146.006228 
L 511.410786 145.67309 
L 511.926656 145.562045 
L 512.442527 145.265922 
L 513.990139 144.821739 
L 515.02188 144.562632 
L 515.53775 144.229495 
L 516.053621 144.118449 
L 516.569492 143.674266 
L 518.117103 143.378143 
L 519.148844 142.896945 
L 519.664715 142.3047 
L 521.728197 141.823502 
L 525.339291 141.083196 
L 525.855162 141.083196 
L 526.371032 140.861105 
L 528.434515 140.490952 
L 528.950385 140.26886 
L 531.013867 139.898707 
L 532.045609 139.454524 
L 533.07735 139.269448 
L 535.656703 138.640188 
L 537.720185 138.010928 
L 538.236055 137.899882 
L 538.751926 137.640776 
L 539.783667 137.381669 
L 540.299538 137.085546 
L 541.847149 136.567333 
L 542.36302 136.19718 
L 543.394761 135.901058 
L 544.426502 135.56792 
L 545.458243 135.160752 
L 547.005855 134.494477 
L 549.069337 134.23537 
L 553.196302 132.791774 
L 553.712173 132.421622 
L 554.228043 132.310576 
L 554.743914 132.051469 
L 555.259784 132.014454 
L 560.934361 130.052644 
L 563.513713 129.386369 
L 564.545455 128.90517 
L 566.093066 128.572033 
L 566.608937 128.164865 
L 567.124807 127.905758 
L 567.640678 127.276498 
L 568.156549 126.906345 
L 569.18829 126.610223 
L 569.70416 126.203055 
L 572.799384 125.055582 
L 573.315254 124.722444 
L 574.346995 124.426322 
L 574.862866 124.093184 
L 577.442219 123.278848 
L 578.989831 122.390482 
L 579.505701 122.279436 
L 582.085054 120.909871 
L 583.632666 120.20658 
L 584.148536 119.836428 
L 585.180277 119.50329 
L 586.212018 118.911046 
L 586.727889 118.725969 
L 587.24376 118.355817 
L 593.950077 116.023854 
L 594.465948 115.912808 
L 594.981818 115.579671 
L 597.0453 115.172503 
L 598.077042 114.765335 
L 598.592912 114.469213 
L 599.108783 114.321152 
L 601.172265 113.247709 
L 601.688136 113.173678 
L 603.235747 112.322327 
L 606.330971 111.100823 
L 608.394453 110.286486 
L 608.910324 110.138425 
L 609.426194 109.805288 
L 610.457935 109.657227 
L 610.973806 109.324089 
L 612.005547 109.139013 
L 613.037288 108.657814 
L 613.553159 108.435723 
L 614.069029 108.361692 
L 616.648382 107.36228 
L 618.195994 106.955112 
L 619.227735 106.696005 
L 620.775347 106.251821 
L 621.807088 105.844653 
L 623.87057 104.734195 
L 624.902311 104.327027 
L 625.418182 103.99389 
L 626.449923 103.771798 
L 626.965794 103.475676 
L 627.481664 103.36463 
L 629.029276 102.513278 
L 630.061017 102.10611 
L 631.608629 101.40282 
L 633.15624 100.995652 
L 636.251464 99.774148 
L 638.314946 99.070858 
L 639.862558 98.515629 
L 640.378428 98.330552 
L 641.410169 97.775323 
L 643.473652 96.849941 
L 648.632357 94.888132 
L 649.148228 94.517979 
L 651.21171 93.814689 
L 651.727581 93.814689 
L 652.759322 93.370505 
L 653.791063 92.445123 
L 654.306934 92.00094 
L 655.854545 91.260635 
L 656.370416 91.149589 
L 656.886287 90.890482 
L 657.402157 90.816451 
L 657.918028 90.446298 
L 658.433898 90.335253 
L 659.465639 89.705993 
L 661.013251 88.928672 
L 662.044992 88.521504 
L 662.560863 88.262397 
L 665.140216 87.633137 
L 665.656086 87.374031 
L 667.203698 86.929847 
L 669.26718 85.930435 
L 670.298921 85.449236 
L 671.330663 85.190129 
L 673.394145 84.264747 
L 673.910015 84.116686 
L 674.425886 83.783549 
L 677.521109 82.67309 
L 679.068721 81.747709 
L 679.584592 81.636663 
L 680.616333 81.118449 
L 681.648074 80.748296 
L 682.163945 80.304113 
L 683.195686 79.896945 
L 684.743297 79.267685 
L 685.259168 78.860517 
L 685.775039 78.823502 
L 686.80678 78.52738 
L 687.838521 78.194242 
L 688.354391 77.935135 
L 688.870262 77.861105 
L 690.417874 77.305875 
L 691.965485 76.750646 
L 692.997227 76.343478 
L 693.513097 75.93631 
L 695.060709 75.529142 
L 695.576579 75.23302 
L 696.60832 74.973913 
L 698.155932 74.122562 
L 698.671803 74.085546 
L 700.219414 73.604348 
L 701.251156 73.493302 
L 702.282897 73.086134 
L 705.37812 72.197767 
L 706.409861 72.160752 
L 709.505085 71.16134 
L 710.020955 71.087309 
L 711.568567 70.272973 
L 712.084438 69.82879 
L 713.632049 68.940423 
L 714.14792 68.533255 
L 715.179661 68.126087 
L 716.727273 67.681904 
L 717.243143 67.385781 
L 717.759014 67.274736 
L 718.274884 66.867568 
L 721.370108 65.609048 
L 723.43359 65.053819 
L 724.465331 64.609636 
L 725.497072 64.202468 
L 727.044684 63.573208 
L 728.076425 63.240071 
L 729.624037 62.647826 
L 730.655778 61.981551 
L 732.20339 61.574383 
L 733.751002 60.537955 
L 734.266872 60.463925 
L 736.846225 59.427497 
L 738.393837 59.057344 
L 738.909707 58.983314 
L 739.425578 58.761222 
L 739.941448 58.724207 
L 740.97319 58.354054 
L 741.48906 58.317039 
L 743.036672 57.724794 
L 745.100154 57.13255 
L 746.131895 56.318214 
L 747.163636 55.8 
L 747.163636 55.8 
" clip-path="url(#p9c5b762623)" style="fill: none; stroke: #1f77b4; stroke-width: 1.5; stroke-linecap: square"/>
   </g>
   <g id="line2d_40">
    <path d="M 138.952234 307.8 
L 143.595069 307.688954 
L 147.722034 307.503878 
L 149.785516 307.503878 
L 150.301387 307.355817 
L 152.88074 307.244771 
L 155.975963 306.911633 
L 159.071186 306.800588 
L 160.102928 306.689542 
L 163.714022 306.541481 
L 167.325116 306.430435 
L 169.904468 306.356404 
L 176.610786 306.245358 
L 179.190139 306.171328 
L 182.801233 306.060282 
L 185.380586 305.986251 
L 191.055162 305.875206 
L 193.118644 305.690129 
L 195.182126 305.653114 
L 198.27735 305.542068 
L 200.340832 305.505053 
L 202.920185 305.431022 
L 204.983667 305.245946 
L 209.626502 305.1349 
L 210.658243 305.06087 
L 212.721726 304.949824 
L 215.816949 304.838778 
L 217.880431 304.727732 
L 227.166102 304.172503 
L 230.777196 304.061457 
L 232.324807 303.913396 
L 234.90416 303.80235 
L 240.062866 303.543243 
L 245.221572 303.469213 
L 247.285054 303.247121 
L 249.348536 303.136075 
L 255.023112 302.617861 
L 258.634206 302.210693 
L 260.181818 302.136663 
L 264.824653 301.581434 
L 267.404006 301.507403 
L 268.951618 301.359342 
L 270.49923 301.248296 
L 275.657935 300.767098 
L 277.205547 300.619036 
L 280.30077 300.507991 
L 284.943606 300.137838 
L 285.975347 299.952761 
L 289.07057 299.841716 
L 297.324499 299.360517 
L 300.935593 299.249471 
L 302.999076 299.02738 
L 305.578428 298.916334 
L 308.673652 298.805288 
L 311.253005 298.694242 
L 313.316487 298.657227 
L 315.89584 298.583196 
L 316.927581 298.435135 
L 324.149769 298.324089 
L 325.18151 298.213043 
L 331.371957 298.101998 
L 336.014792 297.879906 
L 339.625886 297.76886 
L 341.689368 297.546769 
L 345.300462 297.435723 
L 346.332203 297.250646 
L 348.911556 297.176616 
L 354.070262 297.102585 
L 356.649615 296.843478 
L 359.744838 296.732432 
L 361.80832 296.547356 
L 366.967026 296.288249 
L 372.125732 296.177203 
L 376.768567 295.955112 
L 378.316179 295.918096 
L 379.34792 295.770035 
L 381.927273 295.658989 
L 382.959014 295.584959 
L 383.990755 295.510928 
L 385.022496 295.436898 
L 389.665331 295.362867 
L 391.212943 295.251821 
L 405.141448 294.363455 
L 407.720801 294.252409 
L 410.300154 294.178378 
L 417.522342 294.067333 
L 418.554083 293.919271 
L 425.776271 293.808226 
L 430.934977 293.549119 
L 431.966718 293.512103 
L 432.998459 293.401058 
L 435.577812 293.290012 
L 438.157165 293.215981 
L 440.736518 293.104935 
L 443.315871 293.030905 
L 447.958706 292.919859 
L 451.053929 292.808813 
L 458.276117 292.697767 
L 463.950693 292.401645 
L 466.014176 292.327615 
L 467.561787 292.216569 
L 474.783975 292.105523 
L 477.879199 291.994477 
L 487.164869 291.883431 
L 489.228351 291.846416 
L 495.418798 291.772385 
L 496.450539 291.698355 
L 503.672727 291.587309 
L 505.73621 291.550294 
L 519.148844 291.439248 
L 520.696456 291.291187 
L 543.910632 291.180141 
L 546.489985 291.10611 
L 559.902619 290.995065 
L 560.934361 290.921034 
L 563.513713 290.847004 
L 565.061325 290.698942 
L 568.156549 290.587897 
L 571.767643 290.439835 
L 576.410478 290.32879 
L 578.989831 290.254759 
L 582.600924 290.143713 
L 586.727889 289.958637 
L 589.307242 289.847591 
L 592.402465 289.736545 
L 600.140524 289.625499 
L 603.235747 289.514454 
L 608.910324 289.403408 
L 612.521418 289.255347 
L 616.132512 289.181316 
L 617.164253 289.107286 
L 629.545146 288.99624 
L 636.251464 288.626087 
L 638.830817 288.552056 
L 639.862558 288.441011 
L 640.894299 288.36698 
L 645.021263 288.255934 
L 648.116487 288.144888 
L 653.275193 288.033843 
L 655.854545 287.774736 
L 661.013251 287.66369 
L 662.044992 287.552644 
L 667.203698 287.441598 
L 669.783051 287.367568 
L 675.457627 287.330552 
L 676.489368 287.219506 
L 682.163945 287.108461 
L 683.195686 287.03443 
L 694.544838 286.923384 
L 697.640062 286.812338 
L 705.37812 286.701293 
L 707.441602 286.664277 
L 712.084438 286.590247 
L 713.116179 286.479201 
L 719.306626 286.368155 
L 722.401849 286.257109 
L 731.687519 286.146063 
L 733.235131 286.035018 
L 734.782743 285.923972 
L 736.330354 285.812926 
L 744.068413 285.70188 
L 747.163636 285.553819 
L 747.163636 285.553819 
" clip-path="url(#p9c5b762623)" style="fill: none; stroke: #ff7f0e; stroke-width: 1.5; stroke-linecap: square"/>
   </g>
   <g id="patch_3">
    <path d="M 108 320.4 
L 108 43.2 
" style="fill: none; stroke: #a9a9a9; stroke-width: 0.8; stroke-linejoin: miter; stroke-linecap: square"/>
   </g>
   <g id="patch_4">
    <path d="M 777.6 320.4 
L 777.6 43.2 
" style="fill: none"/>
   </g>
   <g id="patch_5">
    <path d="M 108 320.4 
L 777.6 320.4 
" style="fill: none; stroke: #a9a9a9; stroke-width: 0.8; stroke-linejoin: miter; stroke-linecap: square"/>
   </g>
   <g id="patch_6">
    <path d="M 108 43.2 
L 777.6 43.2 
" style="fill: none"/>
   </g>
   <g id="text_20">
    <!-- get_subscribe history -->
    <g style="fill: #a9a9a9" transform="translate(378.6075 37.2) scale(0.12 -0.12)">
     <defs>
      <path id="DejaVuSans-67" d="M 2906 1791 
Q 2906 2416 2648 2759 
Q 2391 3103 1925 3103 
Q 1463 3103 1205 2759 
Q 947 2416 947 1791 
Q 947 1169 1205 825 
Q 1463 481 1925 481 
Q 2391 481 2648 825 
Q 2906 1169 2906 1791 
z
M 3481 434 
Q 3481 -459 3084 -895 
Q 2688 -1331 1869 -1331 
Q 1566 -1331 1297 -1286 
Q 1028 -1241 775 -1147 
L 775 -588 
Q 1028 -725 1275 -790 
Q 1522 -856 1778 -856 
Q 2344 -856 2625 -561 
Q 2906 -266 2906 331 
L 2906 616 
Q 2728 306 2450 153 
Q 2172 0 1784 0 
Q 1141 0 747 490 
Q 353 981 353 1791 
Q 353 2603 747 3093 
Q 1141 3584 1784 3584 
Q 2172 3584 2450 3431 
Q 2728 3278 2906 2969 
L 2906 3500 
L 3481 3500 
L 3481 434 
z
" transform="scale(0.015625)"/>
      <path id="DejaVuSans-65" d="M 3597 1894 
L 3597 1613 
L 953 1613 
Q 991 1019 1311 708 
Q 1631 397 2203 397 
Q 2534 397 2845 478 
Q 3156 559 3463 722 
L 3463 178 
Q 3153 47 2828 -22 
Q 2503 -91 2169 -91 
Q 1331 -91 842 396 
Q 353 884 353 1716 
Q 353 2575 817 3079 
Q 1281 3584 2069 3584 
Q 2775 3584 3186 3129 
Q 3597 2675 3597 1894 
z
M 3022 2063 
Q 3016 2534 2758 2815 
Q 2500 3097 2075 3097 
Q 1594 3097 1305 2825 
Q 1016 2553 972 2059 
L 3022 2063 
z
" transform="scale(0.015625)"/>
      <path id="DejaVuSans-74" d="M 1172 4494 
L 1172 3500 
L 2356 3500 
L 2356 3053 
L 1172 3053 
L 1172 1153 
Q 1172 725 1289 603 
Q 1406 481 1766 481 
L 2356 481 
L 2356 0 
L 1766 0 
Q 1100 0 847 248 
Q 594 497 594 1153 
L 594 3053 
L 172 3053 
L 172 3500 
L 594 3500 
L 594 4494 
L 1172 4494 
z
" transform="scale(0.015625)"/>
      <path id="DejaVuSans-5f" d="M 3263 -1063 
L 3263 -1509 
L -63 -1509 
L -63 -1063 
L 3263 -1063 
z
" transform="scale(0.015625)"/>
      <path id="DejaVuSans-73" d="M 2834 3397 
L 2834 2853 
Q 2591 2978 2328 3040 
Q 2066 3103 1784 3103 
Q 1356 3103 1142 2972 
Q 928 2841 928 2578 
Q 928 2378 1081 2264 
Q 1234 2150 1697 2047 
L 1894 2003 
Q 2506 1872 2764 1633 
Q 3022 1394 3022 966 
Q 3022 478 2636 193 
Q 2250 -91 1575 -91 
Q 1294 -91 989 -36 
Q 684 19 347 128 
L 347 722 
Q 666 556 975 473 
Q 1284 391 1588 391 
Q 1994 391 2212 530 
Q 2431 669 2431 922 
Q 2431 1156 2273 1281 
Q 2116 1406 1581 1522 
L 1381 1569 
Q 847 1681 609 1914 
Q 372 2147 372 2553 
Q 372 3047 722 3315 
Q 1072 3584 1716 3584 
Q 2034 3584 2315 3537 
Q 2597 3491 2834 3397 
z
" transform="scale(0.015625)"/>
      <path id="DejaVuSans-75" d="M 544 1381 
L 544 3500 
L 1119 3500 
L 1119 1403 
Q 1119 906 1312 657 
Q 1506 409 1894 409 
Q 2359 409 2629 706 
Q 2900 1003 2900 1516 
L 2900 3500 
L 3475 3500 
L 3475 0 
L 2900 0 
L 2900 538 
Q 2691 219 2414 64 
Q 2138 -91 1772 -91 
Q 1169 -91 856 284 
Q 544 659 544 1381 
z
M 1991 3584 
L 1991 3584 
z
" transform="scale(0.015625)"/>
      <path id="DejaVuSans-62" d="M 3116 1747 
Q 3116 2381 2855 2742 
Q 2594 3103 2138 3103 
Q 1681 3103 1420 2742 
Q 1159 2381 1159 1747 
Q 1159 1113 1420 752 
Q 1681 391 2138 391 
Q 2594 391 2855 752 
Q 3116 1113 3116 1747 
z
M 1159 2969 
Q 1341 3281 1617 3432 
Q 1894 3584 2278 3584 
Q 2916 3584 3314 3078 
Q 3713 2572 3713 1747 
Q 3713 922 3314 415 
Q 2916 -91 2278 -91 
Q 1894 -91 1617 61 
Q 1341 213 1159 525 
L 1159 0 
L 581 0 
L 581 4863 
L 1159 4863 
L 1159 2969 
z
" transform="scale(0.015625)"/>
      <path id="DejaVuSans-63" d="M 3122 3366 
L 3122 2828 
Q 2878 2963 2633 3030 
Q 2388 3097 2138 3097 
Q 1578 3097 1268 2742 
Q 959 2388 959 1747 
Q 959 1106 1268 751 
Q 1578 397 2138 397 
Q 2388 397 2633 464 
Q 2878 531 3122 666 
L 3122 134 
Q 2881 22 2623 -34 
Q 2366 -91 2075 -91 
Q 1284 -91 818 406 
Q 353 903 353 1747 
Q 353 2603 823 3093 
Q 1294 3584 2113 3584 
Q 2378 3584 2631 3529 
Q 2884 3475 3122 3366 
z
" transform="scale(0.015625)"/>
      <path id="DejaVuSans-72" d="M 2631 2963 
Q 2534 3019 2420 3045 
Q 2306 3072 2169 3072 
Q 1681 3072 1420 2755 
Q 1159 2438 1159 1844 
L 1159 0 
L 581 0 
L 581 3500 
L 1159 3500 
L 1159 2956 
Q 1341 3275 1631 3429 
Q 1922 3584 2338 3584 
Q 2397 3584 2469 3576 
Q 2541 3569 2628 3553 
L 2631 2963 
z
" transform="scale(0.015625)"/>
      <path id="DejaVuSans-69" d="M 603 3500 
L 1178 3500 
L 1178 0 
L 603 0 
L 603 3500 
z
M 603 4863 
L 1178 4863 
L 1178 4134 
L 603 4134 
L 603 4863 
z
" transform="scale(0.015625)"/>
      <path id="DejaVuSans-20" transform="scale(0.015625)"/>
      <path id="DejaVuSans-68" d="M 3513 2113 
L 3513 0 
L 2938 0 
L 2938 2094 
Q 2938 2591 2744 2837 
Q 2550 3084 2163 3084 
Q 1697 3084 1428 2787 
Q 1159 2491 1159 1978 
L 1159 0 
L 581 0 
L 581 4863 
L 1159 4863 
L 1159 2956 
Q 1366 3272 1645 3428 
Q 1925 3584 2291 3584 
Q 2894 3584 3203 3211 
Q 3513 2838 3513 2113 
z
" transform="scale(0.015625)"/>
      <path id="DejaVuSans-6f" d="M 1959 3097 
Q 1497 3097 1228 2736 
Q 959 2375 959 1747 
Q 959 1119 1226 758 
Q 1494 397 1959 397 
Q 2419 397 2687 759 
Q 2956 1122 2956 1747 
Q 2956 2369 2687 2733 
Q 2419 3097 1959 3097 
z
M 1959 3584 
Q 2709 3584 3137 3096 
Q 3566 2609 3566 1747 
Q 3566 888 3137 398 
Q 2709 -91 1959 -91 
Q 1206 -91 779 398 
Q 353 888 353 1747 
Q 353 2609 779 3096 
Q 1206 3584 1959 3584 
z
" transform="scale(0.015625)"/>
      <path id="DejaVuSans-79" d="M 2059 -325 
Q 1816 -950 1584 -1140 
Q 1353 -1331 966 -1331 
L 506 -1331 
L 506 -850 
L 844 -850 
Q 1081 -850 1212 -737 
Q 1344 -625 1503 -206 
L 1606 56 
L 191 3500 
L 800 3500 
L 1894 763 
L 2988 3500 
L 3597 3500 
L 2059 -325 
z
" transform="scale(0.015625)"/>
     </defs>
     <use xlink:href="#DejaVuSans-67"/>
     <use xlink:href="#DejaVuSans-65" x="63.476562"/>
     <use xlink:href="#DejaVuSans-74" x="125"/>
     <use xlink:href="#DejaVuSans-5f" x="164.208984"/>
     <use xlink:href="#DejaVuSans-73" x="214.208984"/>
     <use xlink:href="#DejaVuSans-75" x="266.308594"/>
     <use xlink:href="#DejaVuSans-62" x="329.6875"/>
     <use xlink:href="#DejaVuSans-73" x="393.164062"/>
     <use xlink:href="#DejaVuSans-63" x="445.263672"/>
     <use xlink:href="#DejaVuSans-72" x="500.244141"/>
     <use xlink:href="#DejaVuSans-69" x="541.357422"/>
     <use xlink:href="#DejaVuSans-62" x="569.140625"/>
     <use xlink:href="#DejaVuSans-65" x="632.617188"/>
     <use xlink:href="#DejaVuSans-20" x="694.140625"/>
     <use xlink:href="#DejaVuSans-68" x="725.927734"/>
     <use xlink:href="#DejaVuSans-69" x="789.306641"/>
     <use xlink:href="#DejaVuSans-73" x="817.089844"/>
     <use xlink:href="#DejaVuSans-74" x="869.189453"/>
     <use xlink:href="#DejaVuSans-6f" x="908.398438"/>
     <use xlink:href="#DejaVuSans-72" x="969.580078"/>
     <use xlink:href="#DejaVuSans-79" x="1010.693359"/>
    </g>
   </g>
   <g id="legend_1">
    <g id="line2d_41">
     <path d="M 815.08 328.498438 
L 825.08 328.498438 
L 835.08 328.498438 
" style="fill: none; stroke: #1f77b4; stroke-width: 1.5; stroke-linecap: square"/>
    </g>
    <g id="text_21">
     <!-- star -->
     <g style="fill: #a9a9a9" transform="translate(843.08 331.998438) scale(0.1 -0.1)">
      <defs>
       <path id="DejaVuSans-61" d="M 2194 1759 
Q 1497 1759 1228 1600 
Q 959 1441 959 1056 
Q 959 750 1161 570 
Q 1363 391 1709 391 
Q 2188 391 2477 730 
Q 2766 1069 2766 1631 
L 2766 1759 
L 2194 1759 
z
M 3341 1997 
L 3341 0 
L 2766 0 
L 2766 531 
Q 2569 213 2275 61 
Q 1981 -91 1556 -91 
Q 1019 -91 701 211 
Q 384 513 384 1019 
Q 384 1609 779 1909 
Q 1175 2209 1959 2209 
L 2766 2209 
L 2766 2266 
Q 2766 2663 2505 2880 
Q 2244 3097 1772 3097 
Q 1472 3097 1187 3025 
Q 903 2953 641 2809 
L 641 3341 
Q 956 3463 1253 3523 
Q 1550 3584 1831 3584 
Q 2591 3584 2966 3190 
Q 3341 2797 3341 1997 
z
" transform="scale(0.015625)"/>
      </defs>
      <use xlink:href="#DejaVuSans-73"/>
      <use xlink:href="#DejaVuSans-74" x="52.099609"/>
      <use xlink:href="#DejaVuSans-61" x="91.308594"/>
      <use xlink:href="#DejaVuSans-72" x="152.587891"/>
     </g>
    </g>
    <g id="line2d_42">
     <path d="M 815.08 343.176562 
L 825.08 343.176562 
L 835.08 343.176562 
" style="fill: none; stroke: #ff7f0e; stroke-width: 1.5; stroke-linecap: square"/>
    </g>
    <g id="text_22">
     <!-- fork -->
     <g style="fill: #a9a9a9" transform="translate(843.08 346.676562) scale(0.1 -0.1)">
      <defs>
       <path id="DejaVuSans-66" d="M 2375 4863 
L 2375 4384 
L 1825 4384 
Q 1516 4384 1395 4259 
Q 1275 4134 1275 3809 
L 1275 3500 
L 2222 3500 
L 2222 3053 
L 1275 3053 
L 1275 0 
L 697 0 
L 697 3053 
L 147 3053 
L 147 3500 
L 697 3500 
L 697 3744 
Q 697 4328 969 4595 
Q 1241 4863 1831 4863 
L 2375 4863 
z
" transform="scale(0.015625)"/>
       <path id="DejaVuSans-6b" d="M 581 4863 
L 1159 4863 
L 1159 1991 
L 2875 3500 
L 3609 3500 
L 1753 1863 
L 3688 0 
L 2938 0 
L 1159 1709 
L 1159 0 
L 581 0 
L 581 4863 
z
" transform="scale(0.015625)"/>
      </defs>
      <use xlink:href="#DejaVuSans-66"/>
      <use xlink:href="#DejaVuSans-6f" x="35.205078"/>
      <use xlink:href="#DejaVuSans-72" x="96.386719"/>
      <use xlink:href="#DejaVuSans-6b" x="137.5"/>
     </g>
    </g>
   </g>
  </g>
 </g>
 <defs>
  <clipPath id="p9c5b762623">
   <rect x="108" y="43.2" width="669.6" height="277.2"/>
  </clipPath>
 </defs>
</svg>
