<?xml version="1.0" encoding="utf-8" standalone="no"?>
<!DOCTYPE svg PUBLIC "-//W3C//DTD SVG 1.1//EN"
  "http://www.w3.org/Graphics/SVG/1.1/DTD/svg11.dtd">
<svg xmlns:xlink="http://www.w3.org/1999/xlink" width="864pt" height="360pt" viewBox="0 0 864 360" xmlns="http://www.w3.org/2000/svg" version="1.1">
 <metadata>
  <rdf:RDF xmlns:dc="http://purl.org/dc/elements/1.1/" xmlns:cc="http://creativecommons.org/ns#" xmlns:rdf="http://www.w3.org/1999/02/22-rdf-syntax-ns#">
   <cc:Work>
    <dc:type rdf:resource="http://purl.org/dc/dcmitype/StillImage"/>
    <dc:date>2024-10-15T08:14:03.736799</dc:date>
    <dc:format>image/svg+xml</dc:format>
    <dc:creator>
     <cc:Agent>
      <dc:title>Matplotlib v3.9.2, https://matplotlib.org/</dc:title>
     </cc:Agent>
    </dc:creator>
   </cc:Work>
  </rdf:RDF>
 </metadata>
 <defs>
  <style type="text/css">*{stroke-linejoin: round; stroke-linecap: butt}</style>
 </defs>
 <g id="figure_1">
  <g id="patch_1">
   <path d="M 0 360 
L 864 360 
L 864 0 
L 0 0 
L 0 360 
z
" style="fill: none; opacity: 0"/>
  </g>
  <g id="axes_1">
   <g id="patch_2">
    <path d="M 108 320.4 
L 777.6 320.4 
L 777.6 43.2 
L 108 43.2 
L 108 320.4 
z
" style="fill: none; opacity: 0"/>
   </g>
   <g id="matplotlib.axis_1">
    <g id="xtick_1">
     <g id="line2d_1">
      <path d="M 158.57238 320.4 
L 158.57238 43.2 
" clip-path="url(#p76581498f7)" style="fill: none; stroke-dasharray: 5.12,1.28,0.8,1.28; stroke-dashoffset: 0; stroke: #b0b0b0; stroke-width: 0.8"/>
     </g>
     <g id="line2d_2">
      <defs>
       <path id="md414135b93" d="M 0 0 
L 0 3.5 
" style="stroke: #a9a9a9; stroke-width: 0.8"/>
      </defs>
      <g>
       <use xlink:href="#md414135b93" x="158.57238" y="320.4" style="fill: #a9a9a9; stroke: #a9a9a9; stroke-width: 0.8"/>
      </g>
     </g>
     <g id="text_1">
      <!-- 2021-09 -->
      <g style="fill: #a9a9a9" transform="translate(137.680974 334.998438) scale(0.1 -0.1)">
       <defs>
        <path id="DejaVuSans-32" d="M 1228 531 
L 3431 531 
L 3431 0 
L 469 0 
L 469 531 
Q 828 903 1448 1529 
Q 2069 2156 2228 2338 
Q 2531 2678 2651 2914 
Q 2772 3150 2772 3378 
Q 2772 3750 2511 3984 
Q 2250 4219 1831 4219 
Q 1534 4219 1204 4116 
Q 875 4013 500 3803 
L 500 4441 
Q 881 4594 1212 4672 
Q 1544 4750 1819 4750 
Q 2544 4750 2975 4387 
Q 3406 4025 3406 3419 
Q 3406 3131 3298 2873 
Q 3191 2616 2906 2266 
Q 2828 2175 2409 1742 
Q 1991 1309 1228 531 
z
" transform="scale(0.015625)"/>
        <path id="DejaVuSans-30" d="M 2034 4250 
Q 1547 4250 1301 3770 
Q 1056 3291 1056 2328 
Q 1056 1369 1301 889 
Q 1547 409 2034 409 
Q 2525 409 2770 889 
Q 3016 1369 3016 2328 
Q 3016 3291 2770 3770 
Q 2525 4250 2034 4250 
z
M 2034 4750 
Q 2819 4750 3233 4129 
Q 3647 3509 3647 2328 
Q 3647 1150 3233 529 
Q 2819 -91 2034 -91 
Q 1250 -91 836 529 
Q 422 1150 422 2328 
Q 422 3509 836 4129 
Q 1250 4750 2034 4750 
z
" transform="scale(0.015625)"/>
        <path id="DejaVuSans-31" d="M 794 531 
L 1825 531 
L 1825 4091 
L 703 3866 
L 703 4441 
L 1819 4666 
L 2450 4666 
L 2450 531 
L 3481 531 
L 3481 0 
L 794 0 
L 794 531 
z
" transform="scale(0.015625)"/>
        <path id="DejaVuSans-2d" d="M 313 2009 
L 1997 2009 
L 1997 1497 
L 313 1497 
L 313 2009 
z
" transform="scale(0.015625)"/>
        <path id="DejaVuSans-39" d="M 703 97 
L 703 672 
Q 941 559 1184 500 
Q 1428 441 1663 441 
Q 2288 441 2617 861 
Q 2947 1281 2994 2138 
Q 2813 1869 2534 1725 
Q 2256 1581 1919 1581 
Q 1219 1581 811 2004 
Q 403 2428 403 3163 
Q 403 3881 828 4315 
Q 1253 4750 1959 4750 
Q 2769 4750 3195 4129 
Q 3622 3509 3622 2328 
Q 3622 1225 3098 567 
Q 2575 -91 1691 -91 
Q 1453 -91 1209 -44 
Q 966 3 703 97 
z
M 1959 2075 
Q 2384 2075 2632 2365 
Q 2881 2656 2881 3163 
Q 2881 3666 2632 3958 
Q 2384 4250 1959 4250 
Q 1534 4250 1286 3958 
Q 1038 3666 1038 3163 
Q 1038 2656 1286 2365 
Q 1534 2075 1959 2075 
z
" transform="scale(0.015625)"/>
       </defs>
       <use xlink:href="#DejaVuSans-32"/>
       <use xlink:href="#DejaVuSans-30" x="63.623047"/>
       <use xlink:href="#DejaVuSans-32" x="127.246094"/>
       <use xlink:href="#DejaVuSans-31" x="190.869141"/>
       <use xlink:href="#DejaVuSans-2d" x="254.492188"/>
       <use xlink:href="#DejaVuSans-30" x="290.576172"/>
       <use xlink:href="#DejaVuSans-39" x="354.199219"/>
      </g>
     </g>
    </g>
    <g id="xtick_2">
     <g id="line2d_3">
      <path d="M 221.561971 320.4 
L 221.561971 43.2 
" clip-path="url(#p76581498f7)" style="fill: none; stroke-dasharray: 5.12,1.28,0.8,1.28; stroke-dashoffset: 0; stroke: #b0b0b0; stroke-width: 0.8"/>
     </g>
     <g id="line2d_4">
      <g>
       <use xlink:href="#md414135b93" x="221.561971" y="320.4" style="fill: #a9a9a9; stroke: #a9a9a9; stroke-width: 0.8"/>
      </g>
     </g>
     <g id="text_2">
      <!-- 2022-01 -->
      <g style="fill: #a9a9a9" transform="translate(200.670565 334.998438) scale(0.1 -0.1)">
       <use xlink:href="#DejaVuSans-32"/>
       <use xlink:href="#DejaVuSans-30" x="63.623047"/>
       <use xlink:href="#DejaVuSans-32" x="127.246094"/>
       <use xlink:href="#DejaVuSans-32" x="190.869141"/>
       <use xlink:href="#DejaVuSans-2d" x="254.492188"/>
       <use xlink:href="#DejaVuSans-30" x="290.576172"/>
       <use xlink:href="#DejaVuSans-31" x="354.199219"/>
      </g>
     </g>
    </g>
    <g id="xtick_3">
     <g id="line2d_5">
      <path d="M 283.518945 320.4 
L 283.518945 43.2 
" clip-path="url(#p76581498f7)" style="fill: none; stroke-dasharray: 5.12,1.28,0.8,1.28; stroke-dashoffset: 0; stroke: #b0b0b0; stroke-width: 0.8"/>
     </g>
     <g id="line2d_6">
      <g>
       <use xlink:href="#md414135b93" x="283.518945" y="320.4" style="fill: #a9a9a9; stroke: #a9a9a9; stroke-width: 0.8"/>
      </g>
     </g>
     <g id="text_3">
      <!-- 2022-05 -->
      <g style="fill: #a9a9a9" transform="translate(262.627539 334.998438) scale(0.1 -0.1)">
       <defs>
        <path id="DejaVuSans-35" d="M 691 4666 
L 3169 4666 
L 3169 4134 
L 1269 4134 
L 1269 2991 
Q 1406 3038 1543 3061 
Q 1681 3084 1819 3084 
Q 2600 3084 3056 2656 
Q 3513 2228 3513 1497 
Q 3513 744 3044 326 
Q 2575 -91 1722 -91 
Q 1428 -91 1123 -41 
Q 819 9 494 109 
L 494 744 
Q 775 591 1075 516 
Q 1375 441 1709 441 
Q 2250 441 2565 725 
Q 2881 1009 2881 1497 
Q 2881 1984 2565 2268 
Q 2250 2553 1709 2553 
Q 1456 2553 1204 2497 
Q 953 2441 691 2322 
L 691 4666 
z
" transform="scale(0.015625)"/>
       </defs>
       <use xlink:href="#DejaVuSans-32"/>
       <use xlink:href="#DejaVuSans-30" x="63.623047"/>
       <use xlink:href="#DejaVuSans-32" x="127.246094"/>
       <use xlink:href="#DejaVuSans-32" x="190.869141"/>
       <use xlink:href="#DejaVuSans-2d" x="254.492188"/>
       <use xlink:href="#DejaVuSans-30" x="290.576172"/>
       <use xlink:href="#DejaVuSans-35" x="354.199219"/>
      </g>
     </g>
    </g>
    <g id="xtick_4">
     <g id="line2d_7">
      <path d="M 347.024844 320.4 
L 347.024844 43.2 
" clip-path="url(#p76581498f7)" style="fill: none; stroke-dasharray: 5.12,1.28,0.8,1.28; stroke-dashoffset: 0; stroke: #b0b0b0; stroke-width: 0.8"/>
     </g>
     <g id="line2d_8">
      <g>
       <use xlink:href="#md414135b93" x="347.024844" y="320.4" style="fill: #a9a9a9; stroke: #a9a9a9; stroke-width: 0.8"/>
      </g>
     </g>
     <g id="text_4">
      <!-- 2022-09 -->
      <g style="fill: #a9a9a9" transform="translate(326.133438 334.998438) scale(0.1 -0.1)">
       <use xlink:href="#DejaVuSans-32"/>
       <use xlink:href="#DejaVuSans-30" x="63.623047"/>
       <use xlink:href="#DejaVuSans-32" x="127.246094"/>
       <use xlink:href="#DejaVuSans-32" x="190.869141"/>
       <use xlink:href="#DejaVuSans-2d" x="254.492188"/>
       <use xlink:href="#DejaVuSans-30" x="290.576172"/>
       <use xlink:href="#DejaVuSans-39" x="354.199219"/>
      </g>
     </g>
    </g>
    <g id="xtick_5">
     <g id="line2d_9">
      <path d="M 410.014434 320.4 
L 410.014434 43.2 
" clip-path="url(#p76581498f7)" style="fill: none; stroke-dasharray: 5.12,1.28,0.8,1.28; stroke-dashoffset: 0; stroke: #b0b0b0; stroke-width: 0.8"/>
     </g>
     <g id="line2d_10">
      <g>
       <use xlink:href="#md414135b93" x="410.014434" y="320.4" style="fill: #a9a9a9; stroke: #a9a9a9; stroke-width: 0.8"/>
      </g>
     </g>
     <g id="text_5">
      <!-- 2023-01 -->
      <g style="fill: #a9a9a9" transform="translate(389.123028 334.998438) scale(0.1 -0.1)">
       <defs>
        <path id="DejaVuSans-33" d="M 2597 2516 
Q 3050 2419 3304 2112 
Q 3559 1806 3559 1356 
Q 3559 666 3084 287 
Q 2609 -91 1734 -91 
Q 1441 -91 1130 -33 
Q 819 25 488 141 
L 488 750 
Q 750 597 1062 519 
Q 1375 441 1716 441 
Q 2309 441 2620 675 
Q 2931 909 2931 1356 
Q 2931 1769 2642 2001 
Q 2353 2234 1838 2234 
L 1294 2234 
L 1294 2753 
L 1863 2753 
Q 2328 2753 2575 2939 
Q 2822 3125 2822 3475 
Q 2822 3834 2567 4026 
Q 2313 4219 1838 4219 
Q 1578 4219 1281 4162 
Q 984 4106 628 3988 
L 628 4550 
Q 988 4650 1302 4700 
Q 1616 4750 1894 4750 
Q 2613 4750 3031 4423 
Q 3450 4097 3450 3541 
Q 3450 3153 3228 2886 
Q 3006 2619 2597 2516 
z
" transform="scale(0.015625)"/>
       </defs>
       <use xlink:href="#DejaVuSans-32"/>
       <use xlink:href="#DejaVuSans-30" x="63.623047"/>
       <use xlink:href="#DejaVuSans-32" x="127.246094"/>
       <use xlink:href="#DejaVuSans-33" x="190.869141"/>
       <use xlink:href="#DejaVuSans-2d" x="254.492188"/>
       <use xlink:href="#DejaVuSans-30" x="290.576172"/>
       <use xlink:href="#DejaVuSans-31" x="354.199219"/>
      </g>
     </g>
    </g>
    <g id="xtick_6">
     <g id="line2d_11">
      <path d="M 471.971409 320.4 
L 471.971409 43.2 
" clip-path="url(#p76581498f7)" style="fill: none; stroke-dasharray: 5.12,1.28,0.8,1.28; stroke-dashoffset: 0; stroke: #b0b0b0; stroke-width: 0.8"/>
     </g>
     <g id="line2d_12">
      <g>
       <use xlink:href="#md414135b93" x="471.971409" y="320.4" style="fill: #a9a9a9; stroke: #a9a9a9; stroke-width: 0.8"/>
      </g>
     </g>
     <g id="text_6">
      <!-- 2023-05 -->
      <g style="fill: #a9a9a9" transform="translate(451.080002 334.998438) scale(0.1 -0.1)">
       <use xlink:href="#DejaVuSans-32"/>
       <use xlink:href="#DejaVuSans-30" x="63.623047"/>
       <use xlink:href="#DejaVuSans-32" x="127.246094"/>
       <use xlink:href="#DejaVuSans-33" x="190.869141"/>
       <use xlink:href="#DejaVuSans-2d" x="254.492188"/>
       <use xlink:href="#DejaVuSans-30" x="290.576172"/>
       <use xlink:href="#DejaVuSans-35" x="354.199219"/>
      </g>
     </g>
    </g>
    <g id="xtick_7">
     <g id="line2d_13">
      <path d="M 535.477307 320.4 
L 535.477307 43.2 
" clip-path="url(#p76581498f7)" style="fill: none; stroke-dasharray: 5.12,1.28,0.8,1.28; stroke-dashoffset: 0; stroke: #b0b0b0; stroke-width: 0.8"/>
     </g>
     <g id="line2d_14">
      <g>
       <use xlink:href="#md414135b93" x="535.477307" y="320.4" style="fill: #a9a9a9; stroke: #a9a9a9; stroke-width: 0.8"/>
      </g>
     </g>
     <g id="text_7">
      <!-- 2023-09 -->
      <g style="fill: #a9a9a9" transform="translate(514.585901 334.998438) scale(0.1 -0.1)">
       <use xlink:href="#DejaVuSans-32"/>
       <use xlink:href="#DejaVuSans-30" x="63.623047"/>
       <use xlink:href="#DejaVuSans-32" x="127.246094"/>
       <use xlink:href="#DejaVuSans-33" x="190.869141"/>
       <use xlink:href="#DejaVuSans-2d" x="254.492188"/>
       <use xlink:href="#DejaVuSans-30" x="290.576172"/>
       <use xlink:href="#DejaVuSans-39" x="354.199219"/>
      </g>
     </g>
    </g>
    <g id="xtick_8">
     <g id="line2d_15">
      <path d="M 598.466898 320.4 
L 598.466898 43.2 
" clip-path="url(#p76581498f7)" style="fill: none; stroke-dasharray: 5.12,1.28,0.8,1.28; stroke-dashoffset: 0; stroke: #b0b0b0; stroke-width: 0.8"/>
     </g>
     <g id="line2d_16">
      <g>
       <use xlink:href="#md414135b93" x="598.466898" y="320.4" style="fill: #a9a9a9; stroke: #a9a9a9; stroke-width: 0.8"/>
      </g>
     </g>
     <g id="text_8">
      <!-- 2024-01 -->
      <g style="fill: #a9a9a9" transform="translate(577.575492 334.998438) scale(0.1 -0.1)">
       <defs>
        <path id="DejaVuSans-34" d="M 2419 4116 
L 825 1625 
L 2419 1625 
L 2419 4116 
z
M 2253 4666 
L 3047 4666 
L 3047 1625 
L 3713 1625 
L 3713 1100 
L 3047 1100 
L 3047 0 
L 2419 0 
L 2419 1100 
L 313 1100 
L 313 1709 
L 2253 4666 
z
" transform="scale(0.015625)"/>
       </defs>
       <use xlink:href="#DejaVuSans-32"/>
       <use xlink:href="#DejaVuSans-30" x="63.623047"/>
       <use xlink:href="#DejaVuSans-32" x="127.246094"/>
       <use xlink:href="#DejaVuSans-34" x="190.869141"/>
       <use xlink:href="#DejaVuSans-2d" x="254.492188"/>
       <use xlink:href="#DejaVuSans-30" x="290.576172"/>
       <use xlink:href="#DejaVuSans-31" x="354.199219"/>
      </g>
     </g>
    </g>
    <g id="xtick_9">
     <g id="line2d_17">
      <path d="M 660.94018 320.4 
L 660.94018 43.2 
" clip-path="url(#p76581498f7)" style="fill: none; stroke-dasharray: 5.12,1.28,0.8,1.28; stroke-dashoffset: 0; stroke: #b0b0b0; stroke-width: 0.8"/>
     </g>
     <g id="line2d_18">
      <g>
       <use xlink:href="#md414135b93" x="660.94018" y="320.4" style="fill: #a9a9a9; stroke: #a9a9a9; stroke-width: 0.8"/>
      </g>
     </g>
     <g id="text_9">
      <!-- 2024-05 -->
      <g style="fill: #a9a9a9" transform="translate(640.048774 334.998438) scale(0.1 -0.1)">
       <use xlink:href="#DejaVuSans-32"/>
       <use xlink:href="#DejaVuSans-30" x="63.623047"/>
       <use xlink:href="#DejaVuSans-32" x="127.246094"/>
       <use xlink:href="#DejaVuSans-34" x="190.869141"/>
       <use xlink:href="#DejaVuSans-2d" x="254.492188"/>
       <use xlink:href="#DejaVuSans-30" x="290.576172"/>
       <use xlink:href="#DejaVuSans-35" x="354.199219"/>
      </g>
     </g>
    </g>
    <g id="xtick_10">
     <g id="line2d_19">
      <path d="M 724.446079 320.4 
L 724.446079 43.2 
" clip-path="url(#p76581498f7)" style="fill: none; stroke-dasharray: 5.12,1.28,0.8,1.28; stroke-dashoffset: 0; stroke: #b0b0b0; stroke-width: 0.8"/>
     </g>
     <g id="line2d_20">
      <g>
       <use xlink:href="#md414135b93" x="724.446079" y="320.4" style="fill: #a9a9a9; stroke: #a9a9a9; stroke-width: 0.8"/>
      </g>
     </g>
     <g id="text_10">
      <!-- 2024-09 -->
      <g style="fill: #a9a9a9" transform="translate(703.554673 334.998438) scale(0.1 -0.1)">
       <use xlink:href="#DejaVuSans-32"/>
       <use xlink:href="#DejaVuSans-30" x="63.623047"/>
       <use xlink:href="#DejaVuSans-32" x="127.246094"/>
       <use xlink:href="#DejaVuSans-34" x="190.869141"/>
       <use xlink:href="#DejaVuSans-2d" x="254.492188"/>
       <use xlink:href="#DejaVuSans-30" x="290.576172"/>
       <use xlink:href="#DejaVuSans-39" x="354.199219"/>
      </g>
     </g>
    </g>
   </g>
   <g id="matplotlib.axis_2">
    <g id="ytick_1">
     <g id="line2d_21">
      <path d="M 108 307.837081 
L 777.6 307.837081 
" clip-path="url(#p76581498f7)" style="fill: none; stroke-dasharray: 5.12,1.28,0.8,1.28; stroke-dashoffset: 0; stroke: #b0b0b0; stroke-width: 0.8"/>
     </g>
     <g id="line2d_22">
      <defs>
       <path id="mc091129819" d="M 0 0 
L -3.5 0 
" style="stroke: #a9a9a9; stroke-width: 0.8"/>
      </defs>
      <g>
       <use xlink:href="#mc091129819" x="108" y="307.837081" style="fill: #a9a9a9; stroke: #a9a9a9; stroke-width: 0.8"/>
      </g>
     </g>
     <g id="text_11">
      <!-- 0 -->
      <g style="fill: #a9a9a9" transform="translate(94.6375 311.636299) scale(0.1 -0.1)">
       <use xlink:href="#DejaVuSans-30"/>
      </g>
     </g>
    </g>
    <g id="ytick_2">
     <g id="line2d_23">
      <path d="M 108 278.172572 
L 777.6 278.172572 
" clip-path="url(#p76581498f7)" style="fill: none; stroke-dasharray: 5.12,1.28,0.8,1.28; stroke-dashoffset: 0; stroke: #b0b0b0; stroke-width: 0.8"/>
     </g>
     <g id="line2d_24">
      <g>
       <use xlink:href="#mc091129819" x="108" y="278.172572" style="fill: #a9a9a9; stroke: #a9a9a9; stroke-width: 0.8"/>
      </g>
     </g>
     <g id="text_12">
      <!-- 800 -->
      <g style="fill: #a9a9a9" transform="translate(81.9125 281.971791) scale(0.1 -0.1)">
       <defs>
        <path id="DejaVuSans-38" d="M 2034 2216 
Q 1584 2216 1326 1975 
Q 1069 1734 1069 1313 
Q 1069 891 1326 650 
Q 1584 409 2034 409 
Q 2484 409 2743 651 
Q 3003 894 3003 1313 
Q 3003 1734 2745 1975 
Q 2488 2216 2034 2216 
z
M 1403 2484 
Q 997 2584 770 2862 
Q 544 3141 544 3541 
Q 544 4100 942 4425 
Q 1341 4750 2034 4750 
Q 2731 4750 3128 4425 
Q 3525 4100 3525 3541 
Q 3525 3141 3298 2862 
Q 3072 2584 2669 2484 
Q 3125 2378 3379 2068 
Q 3634 1759 3634 1313 
Q 3634 634 3220 271 
Q 2806 -91 2034 -91 
Q 1263 -91 848 271 
Q 434 634 434 1313 
Q 434 1759 690 2068 
Q 947 2378 1403 2484 
z
M 1172 3481 
Q 1172 3119 1398 2916 
Q 1625 2713 2034 2713 
Q 2441 2713 2670 2916 
Q 2900 3119 2900 3481 
Q 2900 3844 2670 4047 
Q 2441 4250 2034 4250 
Q 1625 4250 1398 4047 
Q 1172 3844 1172 3481 
z
" transform="scale(0.015625)"/>
       </defs>
       <use xlink:href="#DejaVuSans-38"/>
       <use xlink:href="#DejaVuSans-30" x="63.623047"/>
       <use xlink:href="#DejaVuSans-30" x="127.246094"/>
      </g>
     </g>
    </g>
    <g id="ytick_3">
     <g id="line2d_25">
      <path d="M 108 248.508064 
L 777.6 248.508064 
" clip-path="url(#p76581498f7)" style="fill: none; stroke-dasharray: 5.12,1.28,0.8,1.28; stroke-dashoffset: 0; stroke: #b0b0b0; stroke-width: 0.8"/>
     </g>
     <g id="line2d_26">
      <g>
       <use xlink:href="#mc091129819" x="108" y="248.508064" style="fill: #a9a9a9; stroke: #a9a9a9; stroke-width: 0.8"/>
      </g>
     </g>
     <g id="text_13">
      <!-- 1600 -->
      <g style="fill: #a9a9a9" transform="translate(75.55 252.307282) scale(0.1 -0.1)">
       <defs>
        <path id="DejaVuSans-36" d="M 2113 2584 
Q 1688 2584 1439 2293 
Q 1191 2003 1191 1497 
Q 1191 994 1439 701 
Q 1688 409 2113 409 
Q 2538 409 2786 701 
Q 3034 994 3034 1497 
Q 3034 2003 2786 2293 
Q 2538 2584 2113 2584 
z
M 3366 4563 
L 3366 3988 
Q 3128 4100 2886 4159 
Q 2644 4219 2406 4219 
Q 1781 4219 1451 3797 
Q 1122 3375 1075 2522 
Q 1259 2794 1537 2939 
Q 1816 3084 2150 3084 
Q 2853 3084 3261 2657 
Q 3669 2231 3669 1497 
Q 3669 778 3244 343 
Q 2819 -91 2113 -91 
Q 1303 -91 875 529 
Q 447 1150 447 2328 
Q 447 3434 972 4092 
Q 1497 4750 2381 4750 
Q 2619 4750 2861 4703 
Q 3103 4656 3366 4563 
z
" transform="scale(0.015625)"/>
       </defs>
       <use xlink:href="#DejaVuSans-31"/>
       <use xlink:href="#DejaVuSans-36" x="63.623047"/>
       <use xlink:href="#DejaVuSans-30" x="127.246094"/>
       <use xlink:href="#DejaVuSans-30" x="190.869141"/>
      </g>
     </g>
    </g>
    <g id="ytick_4">
     <g id="line2d_27">
      <path d="M 108 218.843555 
L 777.6 218.843555 
" clip-path="url(#p76581498f7)" style="fill: none; stroke-dasharray: 5.12,1.28,0.8,1.28; stroke-dashoffset: 0; stroke: #b0b0b0; stroke-width: 0.8"/>
     </g>
     <g id="line2d_28">
      <g>
       <use xlink:href="#mc091129819" x="108" y="218.843555" style="fill: #a9a9a9; stroke: #a9a9a9; stroke-width: 0.8"/>
      </g>
     </g>
     <g id="text_14">
      <!-- 2400 -->
      <g style="fill: #a9a9a9" transform="translate(75.55 222.642774) scale(0.1 -0.1)">
       <use xlink:href="#DejaVuSans-32"/>
       <use xlink:href="#DejaVuSans-34" x="63.623047"/>
       <use xlink:href="#DejaVuSans-30" x="127.246094"/>
       <use xlink:href="#DejaVuSans-30" x="190.869141"/>
      </g>
     </g>
    </g>
    <g id="ytick_5">
     <g id="line2d_29">
      <path d="M 108 189.179046 
L 777.6 189.179046 
" clip-path="url(#p76581498f7)" style="fill: none; stroke-dasharray: 5.12,1.28,0.8,1.28; stroke-dashoffset: 0; stroke: #b0b0b0; stroke-width: 0.8"/>
     </g>
     <g id="line2d_30">
      <g>
       <use xlink:href="#mc091129819" x="108" y="189.179046" style="fill: #a9a9a9; stroke: #a9a9a9; stroke-width: 0.8"/>
      </g>
     </g>
     <g id="text_15">
      <!-- 3200 -->
      <g style="fill: #a9a9a9" transform="translate(75.55 192.978265) scale(0.1 -0.1)">
       <use xlink:href="#DejaVuSans-33"/>
       <use xlink:href="#DejaVuSans-32" x="63.623047"/>
       <use xlink:href="#DejaVuSans-30" x="127.246094"/>
       <use xlink:href="#DejaVuSans-30" x="190.869141"/>
      </g>
     </g>
    </g>
    <g id="ytick_6">
     <g id="line2d_31">
      <path d="M 108 159.514538 
L 777.6 159.514538 
" clip-path="url(#p76581498f7)" style="fill: none; stroke-dasharray: 5.12,1.28,0.8,1.28; stroke-dashoffset: 0; stroke: #b0b0b0; stroke-width: 0.8"/>
     </g>
     <g id="line2d_32">
      <g>
       <use xlink:href="#mc091129819" x="108" y="159.514538" style="fill: #a9a9a9; stroke: #a9a9a9; stroke-width: 0.8"/>
      </g>
     </g>
     <g id="text_16">
      <!-- 4000 -->
      <g style="fill: #a9a9a9" transform="translate(75.55 163.313757) scale(0.1 -0.1)">
       <use xlink:href="#DejaVuSans-34"/>
       <use xlink:href="#DejaVuSans-30" x="63.623047"/>
       <use xlink:href="#DejaVuSans-30" x="127.246094"/>
       <use xlink:href="#DejaVuSans-30" x="190.869141"/>
      </g>
     </g>
    </g>
    <g id="ytick_7">
     <g id="line2d_33">
      <path d="M 108 129.850029 
L 777.6 129.850029 
" clip-path="url(#p76581498f7)" style="fill: none; stroke-dasharray: 5.12,1.28,0.8,1.28; stroke-dashoffset: 0; stroke: #b0b0b0; stroke-width: 0.8"/>
     </g>
     <g id="line2d_34">
      <g>
       <use xlink:href="#mc091129819" x="108" y="129.850029" style="fill: #a9a9a9; stroke: #a9a9a9; stroke-width: 0.8"/>
      </g>
     </g>
     <g id="text_17">
      <!-- 4800 -->
      <g style="fill: #a9a9a9" transform="translate(75.55 133.649248) scale(0.1 -0.1)">
       <use xlink:href="#DejaVuSans-34"/>
       <use xlink:href="#DejaVuSans-38" x="63.623047"/>
       <use xlink:href="#DejaVuSans-30" x="127.246094"/>
       <use xlink:href="#DejaVuSans-30" x="190.869141"/>
      </g>
     </g>
    </g>
    <g id="ytick_8">
     <g id="line2d_35">
      <path d="M 108 100.185521 
L 777.6 100.185521 
" clip-path="url(#p76581498f7)" style="fill: none; stroke-dasharray: 5.12,1.28,0.8,1.28; stroke-dashoffset: 0; stroke: #b0b0b0; stroke-width: 0.8"/>
     </g>
     <g id="line2d_36">
      <g>
       <use xlink:href="#mc091129819" x="108" y="100.185521" style="fill: #a9a9a9; stroke: #a9a9a9; stroke-width: 0.8"/>
      </g>
     </g>
     <g id="text_18">
      <!-- 5600 -->
      <g style="fill: #a9a9a9" transform="translate(75.55 103.98474) scale(0.1 -0.1)">
       <use xlink:href="#DejaVuSans-35"/>
       <use xlink:href="#DejaVuSans-36" x="63.623047"/>
       <use xlink:href="#DejaVuSans-30" x="127.246094"/>
       <use xlink:href="#DejaVuSans-30" x="190.869141"/>
      </g>
     </g>
    </g>
    <g id="ytick_9">
     <g id="line2d_37">
      <path d="M 108 70.521012 
L 777.6 70.521012 
" clip-path="url(#p76581498f7)" style="fill: none; stroke-dasharray: 5.12,1.28,0.8,1.28; stroke-dashoffset: 0; stroke: #b0b0b0; stroke-width: 0.8"/>
     </g>
     <g id="line2d_38">
      <g>
       <use xlink:href="#mc091129819" x="108" y="70.521012" style="fill: #a9a9a9; stroke: #a9a9a9; stroke-width: 0.8"/>
      </g>
     </g>
     <g id="text_19">
      <!-- 6400 -->
      <g style="fill: #a9a9a9" transform="translate(75.55 74.320231) scale(0.1 -0.1)">
       <use xlink:href="#DejaVuSans-36"/>
       <use xlink:href="#DejaVuSans-34" x="63.623047"/>
       <use xlink:href="#DejaVuSans-30" x="127.246094"/>
       <use xlink:href="#DejaVuSans-30" x="190.869141"/>
      </g>
     </g>
    </g>
   </g>
   <g id="line2d_39">
    <path d="M 138.436364 307.725839 
L 141.534212 307.466274 
L 142.05052 307.24379 
L 144.115753 306.984226 
L 146.180985 306.576339 
L 147.213602 306.428016 
L 149.795142 306.205533 
L 150.827759 305.797646 
L 151.344067 305.130194 
L 151.860375 304.759388 
L 152.376683 303.609888 
L 152.892991 303.535727 
L 153.409299 303.12784 
L 154.441915 302.608711 
L 156.507148 300.977163 
L 158.57238 299.975986 
L 160.121305 299.271454 
L 160.637613 298.45568 
L 161.670229 297.714067 
L 162.186537 297.491583 
L 167.349618 296.749971 
L 167.865926 296.527487 
L 171.480083 296.230842 
L 173.545316 295.748793 
L 177.675781 295.192584 
L 178.192089 294.933019 
L 178.708397 294.858858 
L 179.741013 294.525132 
L 183.35517 293.931842 
L 184.387786 293.635197 
L 189.034559 292.856504 
L 190.067176 292.63402 
L 191.099792 292.596939 
L 193.165024 292.114891 
L 193.681332 291.410359 
L 195.230257 290.817069 
L 196.779181 290.409182 
L 197.295489 290.149617 
L 198.328105 289.964214 
L 200.393338 289.370924 
L 201.425954 289.296763 
L 202.45857 289.037198 
L 204.523803 288.518069 
L 205.040111 288.480989 
L 206.072727 287.998941 
L 206.589035 287.924779 
L 207.105344 287.665215 
L 212.784733 286.738199 
L 214.849965 286.144909 
L 215.366273 285.811183 
L 217.947814 284.958328 
L 218.98043 284.253796 
L 220.529355 283.957151 
L 230.339209 281.101942 
L 231.371825 280.694055 
L 232.404441 280.619894 
L 233.953366 280.174926 
L 234.469674 280.174926 
L 234.985982 279.952443 
L 236.018598 279.841201 
L 236.534906 279.655798 
L 237.567523 279.618717 
L 239.632755 279.359152 
L 240.665371 278.840024 
L 246.861069 276.058976 
L 247.377377 275.502766 
L 248.409993 273.94538 
L 248.926301 273.797057 
L 249.442609 273.797057 
L 250.475226 273.018364 
L 252.02415 272.499235 
L 252.540458 272.017187 
L 253.573074 271.6093 
L 254.60569 271.127251 
L 255.638307 269.644026 
L 256.154615 269.3103 
L 256.670923 268.420365 
L 257.187231 267.864155 
L 260.28508 266.232607 
L 261.317696 265.416833 
L 261.834004 265.083108 
L 262.350312 264.304414 
L 262.86662 263.154915 
L 263.382929 262.376221 
L 263.899237 261.968334 
L 264.415545 261.745851 
L 268.029702 258.705238 
L 269.062318 257.481577 
L 270.094934 256.739965 
L 271.643858 255.701707 
L 272.160167 255.256739 
L 273.192783 254.923014 
L 274.741707 254.033078 
L 276.290632 253.031901 
L 278.355864 251.177869 
L 279.38848 250.769982 
L 280.421096 250.06545 
L 280.937405 249.768805 
L 281.453713 249.694644 
L 285.06787 247.432725 
L 287.133102 246.320306 
L 287.64941 245.838258 
L 295.91034 242.945968 
L 296.942956 242.018952 
L 297.975573 241.536904 
L 299.008189 240.980695 
L 299.524497 240.684049 
L 300.557113 240.387404 
L 301.073421 240.053679 
L 301.589729 239.905356 
L 303.138654 238.904179 
L 305.720194 238.310889 
L 307.269119 237.420954 
L 308.818043 237.087228 
L 309.334351 236.938905 
L 310.883276 235.752325 
L 312.948508 235.196115 
L 313.464816 234.788228 
L 316.562665 233.749971 
L 317.595281 233.564567 
L 318.627897 233.15668 
L 322.242054 231.858858 
L 323.27467 231.710536 
L 324.823595 231.191407 
L 327.405135 229.967746 
L 329.470368 228.855327 
L 333.600833 227.186698 
L 334.117141 227.112537 
L 335.149757 226.482166 
L 335.666065 226.408005 
L 337.731298 225.55515 
L 339.79653 225.258505 
L 340.829146 224.739376 
L 341.345455 224.294408 
L 341.861763 223.367393 
L 343.926995 222.811183 
L 345.47592 222.03249 
L 345.992228 221.921248 
L 350.122693 219.955974 
L 351.671617 219.659329 
L 352.704233 219.1402 
L 353.220541 218.917716 
L 353.736849 218.843555 
L 355.802082 217.916539 
L 357.351006 216.952443 
L 358.899931 216.655798 
L 361.481471 216.025427 
L 361.997779 215.61754 
L 363.546704 215.06133 
L 365.611936 214.245556 
L 366.128244 213.87475 
L 366.644552 213.689347 
L 367.677169 213.133137 
L 370.258709 212.280283 
L 371.807634 211.056622 
L 372.323942 210.94538 
L 373.356558 210.129606 
L 373.872866 210.055444 
L 374.389174 209.23967 
L 374.905482 209.017187 
L 375.42179 208.6093 
L 375.938099 208.535138 
L 376.970715 207.904768 
L 378.003331 207.571042 
L 378.519639 207.163155 
L 379.035947 206.977752 
L 380.584872 205.902413 
L 382.650104 204.827075 
L 383.166412 204.752913 
L 384.715337 203.97422 
L 385.231645 203.121366 
L 385.747953 202.676398 
L 386.264261 202.379753 
L 386.780569 202.268511 
L 387.813185 201.601059 
L 388.329493 201.489818 
L 389.36211 200.970689 
L 391.427342 199.969511 
L 391.94365 199.598705 
L 392.976266 198.597528 
L 394.008883 197.967157 
L 394.525191 197.633431 
L 395.041499 197.077222 
L 397.106731 195.668158 
L 397.62304 195.074868 
L 398.139348 194.666981 
L 399.171964 194.296174 
L 400.20458 193.591642 
L 401.753505 192.812949 
L 402.269813 192.738788 
L 403.818737 191.923014 
L 404.851353 191.292643 
L 410.014434 189.438611 
L 410.530743 189.030724 
L 412.595975 188.252031 
L 413.112283 188.103708 
L 413.628591 187.695821 
L 416.210132 186.286757 
L 417.242748 184.247322 
L 418.275364 183.060742 
L 419.307981 182.430371 
L 420.856905 181.8 
L 421.373213 181.725839 
L 421.889521 181.429194 
L 424.471062 180.61342 
L 424.98737 180.390936 
L 426.019986 179.686404 
L 427.56891 179.018952 
L 428.601527 178.462743 
L 429.117835 178.091936 
L 429.634143 177.869453 
L 430.150451 177.498646 
L 430.666759 176.942437 
L 431.699375 176.386227 
L 434.280916 175.014244 
L 437.378765 173.493938 
L 438.411381 173.160212 
L 439.960305 172.678164 
L 442.025538 171.751148 
L 443.058154 171.343261 
L 443.574462 170.935374 
L 444.607078 170.601648 
L 447.704927 169.007181 
L 448.737543 168.191407 
L 449.77016 167.8206 
L 450.286468 167.375633 
L 450.802776 167.301471 
L 451.835392 166.522778 
L 452.868008 166.003649 
L 453.384316 165.781165 
L 453.900625 165.262036 
L 457.514781 163.852972 
L 458.547398 163.408005 
L 460.096322 162.925956 
L 461.128938 162.777634 
L 461.645246 162.55515 
L 462.161554 162.480989 
L 463.194171 162.036021 
L 463.710479 161.998941 
L 465.775711 161.220247 
L 467.324636 160.144909 
L 467.840944 159.959506 
L 468.87356 159.403296 
L 469.389868 159.254974 
L 472.487717 157.549264 
L 473.004025 157.438022 
L 474.552949 156.548087 
L 476.101874 156.028958 
L 477.13449 155.695232 
L 479.199722 155.027781 
L 480.232339 154.694055 
L 482.297571 154.286168 
L 482.813879 154.063685 
L 483.330187 153.989523 
L 484.362804 153.544556 
L 484.879112 153.470394 
L 485.39542 153.21083 
L 486.428036 153.025427 
L 487.97696 152.469217 
L 489.009577 152.357975 
L 490.558501 152.02425 
L 493.140042 151.579282 
L 506.564053 147.722896 
L 507.080361 147.203767 
L 508.112977 146.79588 
L 511.210826 145.683461 
L 511.727134 145.349735 
L 512.243442 145.238493 
L 512.75975 144.941848 
L 514.308675 144.496881 
L 515.341291 144.237316 
L 515.857599 143.90359 
L 516.373907 143.792348 
L 516.890215 143.347381 
L 518.439139 143.050736 
L 519.471756 142.568687 
L 519.988064 141.975397 
L 522.053296 141.493349 
L 525.667453 140.751736 
L 526.183761 140.751736 
L 526.700069 140.529253 
L 528.765302 140.158446 
L 529.28161 139.935962 
L 531.346842 139.565156 
L 532.379459 139.120188 
L 533.412075 138.934785 
L 535.993616 138.304414 
L 538.058848 137.674044 
L 538.575156 137.562802 
L 539.091464 137.303237 
L 540.12408 137.043673 
L 540.640389 136.747028 
L 542.189313 136.227899 
L 542.705621 135.857092 
L 543.738237 135.560447 
L 544.770854 135.226722 
L 545.80347 134.818835 
L 547.352394 134.151383 
L 549.417627 133.891819 
L 553.548092 132.445674 
L 554.0644 132.074868 
L 554.580708 131.963626 
L 555.097016 131.704061 
L 555.613324 131.666981 
L 561.292713 129.701707 
L 563.874254 129.034255 
L 564.90687 128.552207 
L 566.455795 128.218481 
L 566.972103 127.810594 
L 567.488411 127.55103 
L 568.004719 126.920659 
L 568.521027 126.549853 
L 569.553643 126.253208 
L 570.069951 125.845321 
L 573.1678 124.695821 
L 573.684108 124.362095 
L 574.716724 124.06545 
L 575.233033 123.731725 
L 577.814573 122.915951 
L 579.363498 122.026015 
L 579.879806 121.914773 
L 582.461346 120.54279 
L 584.010271 119.838258 
L 584.526579 119.467451 
L 585.559195 119.133726 
L 586.591811 118.540436 
L 587.108119 118.355032 
L 587.624427 117.984226 
L 594.336433 115.648146 
L 594.852741 115.536904 
L 595.369049 115.203178 
L 597.434282 114.795291 
L 598.466898 114.387404 
L 598.983206 114.090759 
L 599.499514 113.942437 
L 601.564747 112.867098 
L 602.081055 112.792937 
L 603.629979 111.940082 
L 606.727828 110.716421 
L 608.79306 109.900647 
L 609.309368 109.752325 
L 609.825677 109.418599 
L 610.858293 109.270277 
L 611.374601 108.936551 
L 612.407217 108.751148 
L 613.439833 108.269099 
L 613.956142 108.046616 
L 614.47245 107.972454 
L 617.05399 106.971277 
L 618.602915 106.56339 
L 619.635531 106.303826 
L 621.184455 105.858858 
L 622.217071 105.450971 
L 624.282304 104.338552 
L 625.31492 103.930665 
L 625.831228 103.596939 
L 626.863845 103.374456 
L 627.380153 103.07781 
L 627.896461 102.966569 
L 629.445385 102.113714 
L 630.478001 101.705827 
L 632.026926 101.001295 
L 633.57585 100.593408 
L 636.673699 99.369747 
L 638.738931 98.665215 
L 640.287856 98.109005 
L 640.804164 97.923602 
L 641.83678 97.367393 
L 643.902012 96.440377 
L 649.065094 94.475103 
L 649.581402 94.104297 
L 651.646634 93.399765 
L 652.162942 93.399765 
L 653.195559 92.954797 
L 654.228175 92.027781 
L 654.744483 91.582813 
L 656.293407 90.841201 
L 656.809715 90.729959 
L 657.326024 90.470394 
L 657.842332 90.396233 
L 658.35864 90.025427 
L 658.874948 89.914185 
L 659.907564 89.283814 
L 661.456489 88.505121 
L 662.489105 88.097234 
L 663.005413 87.837669 
L 665.586954 87.207298 
L 666.103262 86.947734 
L 667.652186 86.502766 
L 669.717418 85.501589 
L 670.750035 85.019541 
L 671.782651 84.759976 
L 673.847883 83.832961 
L 674.364192 83.684638 
L 674.8805 83.350912 
L 677.978348 82.238493 
L 679.527273 81.311477 
L 680.043581 81.200235 
L 681.076197 80.681107 
L 682.108813 80.3103 
L 682.625121 79.865333 
L 683.657738 79.457446 
L 685.206662 78.827075 
L 685.72297 78.419188 
L 686.239278 78.382107 
L 687.271895 78.085462 
L 688.304511 77.751736 
L 688.820819 77.492172 
L 689.337127 77.418011 
L 690.886051 76.861801 
L 692.434976 76.305592 
L 693.467592 75.897705 
L 693.9839 75.489818 
L 695.532824 75.081931 
L 696.049133 74.785285 
L 697.081749 74.525721 
L 698.630673 73.672866 
L 699.146981 73.635786 
L 700.695906 73.153737 
L 701.728522 73.042496 
L 702.761138 72.634609 
L 705.858987 71.744673 
L 706.891603 71.707593 
L 709.989452 70.706416 
L 710.50576 70.632254 
L 712.054684 69.81648 
L 712.570992 69.371513 
L 714.119917 68.481577 
L 714.636225 68.07369 
L 715.668841 67.665803 
L 717.217765 67.220836 
L 717.734074 66.924191 
L 718.250382 66.812949 
L 718.76669 66.405062 
L 721.864539 65.14432 
L 723.929771 64.588111 
L 724.962387 64.143143 
L 727.02762 63.141966 
L 728.060236 62.956563 
L 730.641777 61.769982 
L 731.158085 61.473337 
L 732.707009 61.06545 
L 734.255933 60.027192 
L 734.772241 59.953031 
L 737.353782 58.914773 
L 738.902706 58.543967 
L 739.419015 58.469806 
L 739.935323 58.247322 
L 740.451631 58.210241 
L 741.484247 57.839435 
L 742.000555 57.802354 
L 743.54948 57.209064 
L 745.614712 56.615774 
L 746.647328 55.8 
L 747.163636 55.8 
L 747.163636 55.8 
" clip-path="url(#p76581498f7)" style="fill: none; stroke: #1f77b4; stroke-width: 1.5; stroke-linecap: square"/>
   </g>
   <g id="line2d_40">
    <path d="M 138.952672 307.8 
L 140.501596 307.725839 
L 142.566829 307.688758 
L 145.148369 307.614597 
L 148.246218 307.503355 
L 149.795142 307.503355 
L 150.31145 307.355032 
L 152.376683 307.280871 
L 165.284386 306.465097 
L 168.382235 306.390936 
L 170.447467 306.353855 
L 175.610548 306.279694 
L 178.708397 306.168452 
L 181.289938 306.094291 
L 184.387786 305.983049 
L 190.067176 305.908888 
L 195.230257 305.649323 
L 197.295489 305.575162 
L 199.87703 305.501001 
L 202.974879 305.426839 
L 205.040111 305.241436 
L 207.621652 305.167275 
L 210.7195 305.056033 
L 212.268425 304.981872 
L 215.882582 304.833549 
L 217.431506 304.796469 
L 220.013046 304.499823 
L 222.594587 304.425662 
L 224.143511 304.31442 
L 227.757668 304.166098 
L 229.306593 304.091936 
L 236.534906 303.684049 
L 238.600139 303.609888 
L 242.214296 303.461566 
L 245.828452 303.387404 
L 246.861069 303.276162 
L 256.154615 302.497469 
L 257.187231 302.237905 
L 262.86662 301.718776 
L 264.415545 301.570453 
L 267.513393 301.496292 
L 269.062318 301.347969 
L 270.094934 301.310889 
L 271.643858 301.199647 
L 272.676475 301.125486 
L 274.225399 300.903002 
L 274.741707 300.903002 
L 276.290632 300.680518 
L 280.937405 300.458034 
L 282.486329 300.383873 
L 285.06787 300.124308 
L 286.100486 299.938905 
L 287.64941 299.901825 
L 288.682026 299.827663 
L 291.263567 299.753502 
L 298.491881 299.345615 
L 299.524497 299.271454 
L 306.752811 298.863567 
L 309.850659 298.789406 
L 310.883276 298.678164 
L 314.497432 298.604002 
L 318.627897 298.418599 
L 323.790978 298.344438 
L 327.921443 298.159035 
L 331.5356 298.084873 
L 336.182373 297.86239 
L 339.280222 297.788228 
L 349.606384 297.157858 
L 354.253158 297.083696 
L 356.834698 296.824132 
L 359.416239 296.787051 
L 361.997779 296.527487 
L 367.160861 296.267922 
L 369.742401 296.193761 
L 371.807634 296.15668 
L 372.84025 296.1196 
L 374.389174 295.971277 
L 378.519639 295.897116 
L 379.552255 295.748793 
L 380.584872 295.674632 
L 386.264261 295.377987 
L 389.878418 295.340906 
L 391.427342 295.229665 
L 405.367661 294.339729 
L 406.916586 294.265568 
L 410.014434 294.154326 
L 416.72644 294.080165 
L 420.856905 293.894762 
L 424.471062 293.8206 
L 427.56891 293.709358 
L 429.117835 293.635197 
L 434.797224 293.338552 
L 435.82984 293.264391 
L 438.411381 293.19023 
L 440.476613 293.116068 
L 443.574462 293.004826 
L 446.672311 292.930665 
L 449.253851 292.856504 
L 454.933241 292.782343 
L 458.03109 292.671101 
L 460.61263 292.596939 
L 462.677863 292.411536 
L 464.743095 292.374456 
L 466.292019 292.300294 
L 467.840944 292.189052 
L 473.520333 292.114891 
L 477.13449 291.966569 
L 486.428036 291.929488 
L 487.97696 291.818246 
L 495.721582 291.744085 
L 496.754198 291.669923 
L 502.433588 291.595762 
L 505.015128 291.521601 
L 514.308675 291.44744 
L 516.373907 291.410359 
L 520.504372 291.336198 
L 521.536988 291.262036 
L 533.928383 291.187875 
L 535.993616 291.150795 
L 549.417627 291.076633 
L 551.482859 291.039553 
L 560.260097 290.965391 
L 561.292713 290.89123 
L 563.874254 290.817069 
L 565.423178 290.668746 
L 568.004719 290.594585 
L 572.135184 290.409182 
L 575.233033 290.372101 
L 576.265649 290.29794 
L 580.396114 290.223779 
L 584.526579 290.038376 
L 586.591811 289.964214 
L 590.722276 289.778811 
L 593.303817 289.70465 
L 595.885357 289.630489 
L 602.081055 289.556327 
L 604.662595 289.482166 
L 608.276752 289.408005 
L 612.407217 289.222602 
L 616.537682 289.14844 
L 617.570298 289.074279 
L 626.863845 289.000118 
L 628.929077 288.963037 
L 630.99431 288.925956 
L 633.57585 288.666392 
L 637.706315 288.592231 
L 643.385704 288.295586 
L 645.450937 288.221424 
L 648.548786 288.110182 
L 653.195559 288.073102 
L 656.293407 287.739376 
L 659.907564 287.665215 
L 663.521721 287.516892 
L 666.61957 287.442731 
L 669.717418 287.331489 
L 675.913116 287.294408 
L 676.945732 287.183167 
L 680.559889 287.109005 
L 683.657738 286.997763 
L 691.918668 286.960683 
L 692.951284 286.886521 
L 697.081749 286.81236 
L 699.146981 286.77528 
L 704.826371 286.701118 
L 707.407911 286.626957 
L 712.570992 286.552796 
L 713.603609 286.441554 
L 718.250382 286.404473 
L 719.282998 286.330312 
L 721.864539 286.256151 
L 723.929771 286.21907 
L 730.125468 286.144909 
L 733.739625 285.996586 
L 734.772241 285.996586 
L 735.804858 285.811183 
L 742.516863 285.737022 
L 746.647328 285.551619 
L 747.163636 285.551619 
L 747.163636 285.551619 
" clip-path="url(#p76581498f7)" style="fill: none; stroke: #ff7f0e; stroke-width: 1.5; stroke-linecap: square"/>
   </g>
   <g id="patch_3">
    <path d="M 108 320.4 
L 108 43.2 
" style="fill: none; stroke: #a9a9a9; stroke-width: 0.8; stroke-linejoin: miter; stroke-linecap: square"/>
   </g>
   <g id="patch_4">
    <path d="M 777.6 320.4 
L 777.6 43.2 
" style="fill: none"/>
   </g>
   <g id="patch_5">
    <path d="M 108 320.4 
L 777.6 320.4 
" style="fill: none; stroke: #a9a9a9; stroke-width: 0.8; stroke-linejoin: miter; stroke-linecap: square"/>
   </g>
   <g id="patch_6">
    <path d="M 108 43.2 
L 777.6 43.2 
" style="fill: none"/>
   </g>
   <g id="text_20">
    <!-- get_subscribe history -->
    <g style="fill: #a9a9a9" transform="translate(378.6075 37.2) scale(0.12 -0.12)">
     <defs>
      <path id="DejaVuSans-67" d="M 2906 1791 
Q 2906 2416 2648 2759 
Q 2391 3103 1925 3103 
Q 1463 3103 1205 2759 
Q 947 2416 947 1791 
Q 947 1169 1205 825 
Q 1463 481 1925 481 
Q 2391 481 2648 825 
Q 2906 1169 2906 1791 
z
M 3481 434 
Q 3481 -459 3084 -895 
Q 2688 -1331 1869 -1331 
Q 1566 -1331 1297 -1286 
Q 1028 -1241 775 -1147 
L 775 -588 
Q 1028 -725 1275 -790 
Q 1522 -856 1778 -856 
Q 2344 -856 2625 -561 
Q 2906 -266 2906 331 
L 2906 616 
Q 2728 306 2450 153 
Q 2172 0 1784 0 
Q 1141 0 747 490 
Q 353 981 353 1791 
Q 353 2603 747 3093 
Q 1141 3584 1784 3584 
Q 2172 3584 2450 3431 
Q 2728 3278 2906 2969 
L 2906 3500 
L 3481 3500 
L 3481 434 
z
" transform="scale(0.015625)"/>
      <path id="DejaVuSans-65" d="M 3597 1894 
L 3597 1613 
L 953 1613 
Q 991 1019 1311 708 
Q 1631 397 2203 397 
Q 2534 397 2845 478 
Q 3156 559 3463 722 
L 3463 178 
Q 3153 47 2828 -22 
Q 2503 -91 2169 -91 
Q 1331 -91 842 396 
Q 353 884 353 1716 
Q 353 2575 817 3079 
Q 1281 3584 2069 3584 
Q 2775 3584 3186 3129 
Q 3597 2675 3597 1894 
z
M 3022 2063 
Q 3016 2534 2758 2815 
Q 2500 3097 2075 3097 
Q 1594 3097 1305 2825 
Q 1016 2553 972 2059 
L 3022 2063 
z
" transform="scale(0.015625)"/>
      <path id="DejaVuSans-74" d="M 1172 4494 
L 1172 3500 
L 2356 3500 
L 2356 3053 
L 1172 3053 
L 1172 1153 
Q 1172 725 1289 603 
Q 1406 481 1766 481 
L 2356 481 
L 2356 0 
L 1766 0 
Q 1100 0 847 248 
Q 594 497 594 1153 
L 594 3053 
L 172 3053 
L 172 3500 
L 594 3500 
L 594 4494 
L 1172 4494 
z
" transform="scale(0.015625)"/>
      <path id="DejaVuSans-5f" d="M 3263 -1063 
L 3263 -1509 
L -63 -1509 
L -63 -1063 
L 3263 -1063 
z
" transform="scale(0.015625)"/>
      <path id="DejaVuSans-73" d="M 2834 3397 
L 2834 2853 
Q 2591 2978 2328 3040 
Q 2066 3103 1784 3103 
Q 1356 3103 1142 2972 
Q 928 2841 928 2578 
Q 928 2378 1081 2264 
Q 1234 2150 1697 2047 
L 1894 2003 
Q 2506 1872 2764 1633 
Q 3022 1394 3022 966 
Q 3022 478 2636 193 
Q 2250 -91 1575 -91 
Q 1294 -91 989 -36 
Q 684 19 347 128 
L 347 722 
Q 666 556 975 473 
Q 1284 391 1588 391 
Q 1994 391 2212 530 
Q 2431 669 2431 922 
Q 2431 1156 2273 1281 
Q 2116 1406 1581 1522 
L 1381 1569 
Q 847 1681 609 1914 
Q 372 2147 372 2553 
Q 372 3047 722 3315 
Q 1072 3584 1716 3584 
Q 2034 3584 2315 3537 
Q 2597 3491 2834 3397 
z
" transform="scale(0.015625)"/>
      <path id="DejaVuSans-75" d="M 544 1381 
L 544 3500 
L 1119 3500 
L 1119 1403 
Q 1119 906 1312 657 
Q 1506 409 1894 409 
Q 2359 409 2629 706 
Q 2900 1003 2900 1516 
L 2900 3500 
L 3475 3500 
L 3475 0 
L 2900 0 
L 2900 538 
Q 2691 219 2414 64 
Q 2138 -91 1772 -91 
Q 1169 -91 856 284 
Q 544 659 544 1381 
z
M 1991 3584 
L 1991 3584 
z
" transform="scale(0.015625)"/>
      <path id="DejaVuSans-62" d="M 3116 1747 
Q 3116 2381 2855 2742 
Q 2594 3103 2138 3103 
Q 1681 3103 1420 2742 
Q 1159 2381 1159 1747 
Q 1159 1113 1420 752 
Q 1681 391 2138 391 
Q 2594 391 2855 752 
Q 3116 1113 3116 1747 
z
M 1159 2969 
Q 1341 3281 1617 3432 
Q 1894 3584 2278 3584 
Q 2916 3584 3314 3078 
Q 3713 2572 3713 1747 
Q 3713 922 3314 415 
Q 2916 -91 2278 -91 
Q 1894 -91 1617 61 
Q 1341 213 1159 525 
L 1159 0 
L 581 0 
L 581 4863 
L 1159 4863 
L 1159 2969 
z
" transform="scale(0.015625)"/>
      <path id="DejaVuSans-63" d="M 3122 3366 
L 3122 2828 
Q 2878 2963 2633 3030 
Q 2388 3097 2138 3097 
Q 1578 3097 1268 2742 
Q 959 2388 959 1747 
Q 959 1106 1268 751 
Q 1578 397 2138 397 
Q 2388 397 2633 464 
Q 2878 531 3122 666 
L 3122 134 
Q 2881 22 2623 -34 
Q 2366 -91 2075 -91 
Q 1284 -91 818 406 
Q 353 903 353 1747 
Q 353 2603 823 3093 
Q 1294 3584 2113 3584 
Q 2378 3584 2631 3529 
Q 2884 3475 3122 3366 
z
" transform="scale(0.015625)"/>
      <path id="DejaVuSans-72" d="M 2631 2963 
Q 2534 3019 2420 3045 
Q 2306 3072 2169 3072 
Q 1681 3072 1420 2755 
Q 1159 2438 1159 1844 
L 1159 0 
L 581 0 
L 581 3500 
L 1159 3500 
L 1159 2956 
Q 1341 3275 1631 3429 
Q 1922 3584 2338 3584 
Q 2397 3584 2469 3576 
Q 2541 3569 2628 3553 
L 2631 2963 
z
" transform="scale(0.015625)"/>
      <path id="DejaVuSans-69" d="M 603 3500 
L 1178 3500 
L 1178 0 
L 603 0 
L 603 3500 
z
M 603 4863 
L 1178 4863 
L 1178 4134 
L 603 4134 
L 603 4863 
z
" transform="scale(0.015625)"/>
      <path id="DejaVuSans-20" transform="scale(0.015625)"/>
      <path id="DejaVuSans-68" d="M 3513 2113 
L 3513 0 
L 2938 0 
L 2938 2094 
Q 2938 2591 2744 2837 
Q 2550 3084 2163 3084 
Q 1697 3084 1428 2787 
Q 1159 2491 1159 1978 
L 1159 0 
L 581 0 
L 581 4863 
L 1159 4863 
L 1159 2956 
Q 1366 3272 1645 3428 
Q 1925 3584 2291 3584 
Q 2894 3584 3203 3211 
Q 3513 2838 3513 2113 
z
" transform="scale(0.015625)"/>
      <path id="DejaVuSans-6f" d="M 1959 3097 
Q 1497 3097 1228 2736 
Q 959 2375 959 1747 
Q 959 1119 1226 758 
Q 1494 397 1959 397 
Q 2419 397 2687 759 
Q 2956 1122 2956 1747 
Q 2956 2369 2687 2733 
Q 2419 3097 1959 3097 
z
M 1959 3584 
Q 2709 3584 3137 3096 
Q 3566 2609 3566 1747 
Q 3566 888 3137 398 
Q 2709 -91 1959 -91 
Q 1206 -91 779 398 
Q 353 888 353 1747 
Q 353 2609 779 3096 
Q 1206 3584 1959 3584 
z
" transform="scale(0.015625)"/>
      <path id="DejaVuSans-79" d="M 2059 -325 
Q 1816 -950 1584 -1140 
Q 1353 -1331 966 -1331 
L 506 -1331 
L 506 -850 
L 844 -850 
Q 1081 -850 1212 -737 
Q 1344 -625 1503 -206 
L 1606 56 
L 191 3500 
L 800 3500 
L 1894 763 
L 2988 3500 
L 3597 3500 
L 2059 -325 
z
" transform="scale(0.015625)"/>
     </defs>
     <use xlink:href="#DejaVuSans-67"/>
     <use xlink:href="#DejaVuSans-65" x="63.476562"/>
     <use xlink:href="#DejaVuSans-74" x="125"/>
     <use xlink:href="#DejaVuSans-5f" x="164.208984"/>
     <use xlink:href="#DejaVuSans-73" x="214.208984"/>
     <use xlink:href="#DejaVuSans-75" x="266.308594"/>
     <use xlink:href="#DejaVuSans-62" x="329.6875"/>
     <use xlink:href="#DejaVuSans-73" x="393.164062"/>
     <use xlink:href="#DejaVuSans-63" x="445.263672"/>
     <use xlink:href="#DejaVuSans-72" x="500.244141"/>
     <use xlink:href="#DejaVuSans-69" x="541.357422"/>
     <use xlink:href="#DejaVuSans-62" x="569.140625"/>
     <use xlink:href="#DejaVuSans-65" x="632.617188"/>
     <use xlink:href="#DejaVuSans-20" x="694.140625"/>
     <use xlink:href="#DejaVuSans-68" x="725.927734"/>
     <use xlink:href="#DejaVuSans-69" x="789.306641"/>
     <use xlink:href="#DejaVuSans-73" x="817.089844"/>
     <use xlink:href="#DejaVuSans-74" x="869.189453"/>
     <use xlink:href="#DejaVuSans-6f" x="908.398438"/>
     <use xlink:href="#DejaVuSans-72" x="969.580078"/>
     <use xlink:href="#DejaVuSans-79" x="1010.693359"/>
    </g>
   </g>
   <g id="legend_1">
    <g id="line2d_41">
     <path d="M 815.08 328.498438 
L 825.08 328.498438 
L 835.08 328.498438 
" style="fill: none; stroke: #1f77b4; stroke-width: 1.5; stroke-linecap: square"/>
    </g>
    <g id="text_21">
     <!-- star -->
     <g style="fill: #a9a9a9" transform="translate(843.08 331.998438) scale(0.1 -0.1)">
      <defs>
       <path id="DejaVuSans-61" d="M 2194 1759 
Q 1497 1759 1228 1600 
Q 959 1441 959 1056 
Q 959 750 1161 570 
Q 1363 391 1709 391 
Q 2188 391 2477 730 
Q 2766 1069 2766 1631 
L 2766 1759 
L 2194 1759 
z
M 3341 1997 
L 3341 0 
L 2766 0 
L 2766 531 
Q 2569 213 2275 61 
Q 1981 -91 1556 -91 
Q 1019 -91 701 211 
Q 384 513 384 1019 
Q 384 1609 779 1909 
Q 1175 2209 1959 2209 
L 2766 2209 
L 2766 2266 
Q 2766 2663 2505 2880 
Q 2244 3097 1772 3097 
Q 1472 3097 1187 3025 
Q 903 2953 641 2809 
L 641 3341 
Q 956 3463 1253 3523 
Q 1550 3584 1831 3584 
Q 2591 3584 2966 3190 
Q 3341 2797 3341 1997 
z
" transform="scale(0.015625)"/>
      </defs>
      <use xlink:href="#DejaVuSans-73"/>
      <use xlink:href="#DejaVuSans-74" x="52.099609"/>
      <use xlink:href="#DejaVuSans-61" x="91.308594"/>
      <use xlink:href="#DejaVuSans-72" x="152.587891"/>
     </g>
    </g>
    <g id="line2d_42">
     <path d="M 815.08 343.176562 
L 825.08 343.176562 
L 835.08 343.176562 
" style="fill: none; stroke: #ff7f0e; stroke-width: 1.5; stroke-linecap: square"/>
    </g>
    <g id="text_22">
     <!-- fork -->
     <g style="fill: #a9a9a9" transform="translate(843.08 346.676562) scale(0.1 -0.1)">
      <defs>
       <path id="DejaVuSans-66" d="M 2375 4863 
L 2375 4384 
L 1825 4384 
Q 1516 4384 1395 4259 
Q 1275 4134 1275 3809 
L 1275 3500 
L 2222 3500 
L 2222 3053 
L 1275 3053 
L 1275 0 
L 697 0 
L 697 3053 
L 147 3053 
L 147 3500 
L 697 3500 
L 697 3744 
Q 697 4328 969 4595 
Q 1241 4863 1831 4863 
L 2375 4863 
z
" transform="scale(0.015625)"/>
       <path id="DejaVuSans-6b" d="M 581 4863 
L 1159 4863 
L 1159 1991 
L 2875 3500 
L 3609 3500 
L 1753 1863 
L 3688 0 
L 2938 0 
L 1159 1709 
L 1159 0 
L 581 0 
L 581 4863 
z
" transform="scale(0.015625)"/>
      </defs>
      <use xlink:href="#DejaVuSans-66"/>
      <use xlink:href="#DejaVuSans-6f" x="35.205078"/>
      <use xlink:href="#DejaVuSans-72" x="96.386719"/>
      <use xlink:href="#DejaVuSans-6b" x="137.5"/>
     </g>
    </g>
   </g>
  </g>
 </g>
 <defs>
  <clipPath id="p76581498f7">
   <rect x="108" y="43.2" width="669.6" height="277.2"/>
  </clipPath>
 </defs>
</svg>
