<?xml version="1.0" encoding="utf-8" standalone="no"?>
<!DOCTYPE svg PUBLIC "-//W3C//DTD SVG 1.1//EN"
  "http://www.w3.org/Graphics/SVG/1.1/DTD/svg11.dtd">
<svg xmlns:xlink="http://www.w3.org/1999/xlink" width="864pt" height="360pt" viewBox="0 0 864 360" xmlns="http://www.w3.org/2000/svg" version="1.1">
 <metadata>
  <rdf:RDF xmlns:dc="http://purl.org/dc/elements/1.1/" xmlns:cc="http://creativecommons.org/ns#" xmlns:rdf="http://www.w3.org/1999/02/22-rdf-syntax-ns#">
   <cc:Work>
    <dc:type rdf:resource="http://purl.org/dc/dcmitype/StillImage"/>
    <dc:date>2024-10-16T08:13:28.985441</dc:date>
    <dc:format>image/svg+xml</dc:format>
    <dc:creator>
     <cc:Agent>
      <dc:title>Matplotlib v3.9.2, https://matplotlib.org/</dc:title>
     </cc:Agent>
    </dc:creator>
   </cc:Work>
  </rdf:RDF>
 </metadata>
 <defs>
  <style type="text/css">*{stroke-linejoin: round; stroke-linecap: butt}</style>
 </defs>
 <g id="figure_1">
  <g id="patch_1">
   <path d="M 0 360 
L 864 360 
L 864 0 
L 0 0 
L 0 360 
z
" style="fill: none; opacity: 0"/>
  </g>
  <g id="axes_1">
   <g id="patch_2">
    <path d="M 108 320.4 
L 777.6 320.4 
L 777.6 43.2 
L 108 43.2 
L 108 320.4 
z
" style="fill: none; opacity: 0"/>
   </g>
   <g id="matplotlib.axis_1">
    <g id="xtick_1">
     <g id="line2d_1">
      <path d="M 158.555316 320.4 
L 158.555316 43.2 
" clip-path="url(#pbe64ccbd90)" style="fill: none; stroke-dasharray: 5.12,1.28,0.8,1.28; stroke-dashoffset: 0; stroke: #b0b0b0; stroke-width: 0.8"/>
     </g>
     <g id="line2d_2">
      <defs>
       <path id="m390ff9b5ec" d="M 0 0 
L 0 3.5 
" style="stroke: #a9a9a9; stroke-width: 0.8"/>
      </defs>
      <g>
       <use xlink:href="#m390ff9b5ec" x="158.555316" y="320.4" style="fill: #a9a9a9; stroke: #a9a9a9; stroke-width: 0.8"/>
      </g>
     </g>
     <g id="text_1">
      <!-- 2021-09 -->
      <g style="fill: #a9a9a9" transform="translate(137.66391 334.998438) scale(0.1 -0.1)">
       <defs>
        <path id="DejaVuSans-32" d="M 1228 531 
L 3431 531 
L 3431 0 
L 469 0 
L 469 531 
Q 828 903 1448 1529 
Q 2069 2156 2228 2338 
Q 2531 2678 2651 2914 
Q 2772 3150 2772 3378 
Q 2772 3750 2511 3984 
Q 2250 4219 1831 4219 
Q 1534 4219 1204 4116 
Q 875 4013 500 3803 
L 500 4441 
Q 881 4594 1212 4672 
Q 1544 4750 1819 4750 
Q 2544 4750 2975 4387 
Q 3406 4025 3406 3419 
Q 3406 3131 3298 2873 
Q 3191 2616 2906 2266 
Q 2828 2175 2409 1742 
Q 1991 1309 1228 531 
z
" transform="scale(0.015625)"/>
        <path id="DejaVuSans-30" d="M 2034 4250 
Q 1547 4250 1301 3770 
Q 1056 3291 1056 2328 
Q 1056 1369 1301 889 
Q 1547 409 2034 409 
Q 2525 409 2770 889 
Q 3016 1369 3016 2328 
Q 3016 3291 2770 3770 
Q 2525 4250 2034 4250 
z
M 2034 4750 
Q 2819 4750 3233 4129 
Q 3647 3509 3647 2328 
Q 3647 1150 3233 529 
Q 2819 -91 2034 -91 
Q 1250 -91 836 529 
Q 422 1150 422 2328 
Q 422 3509 836 4129 
Q 1250 4750 2034 4750 
z
" transform="scale(0.015625)"/>
        <path id="DejaVuSans-31" d="M 794 531 
L 1825 531 
L 1825 4091 
L 703 3866 
L 703 4441 
L 1819 4666 
L 2450 4666 
L 2450 531 
L 3481 531 
L 3481 0 
L 794 0 
L 794 531 
z
" transform="scale(0.015625)"/>
        <path id="DejaVuSans-2d" d="M 313 2009 
L 1997 2009 
L 1997 1497 
L 313 1497 
L 313 2009 
z
" transform="scale(0.015625)"/>
        <path id="DejaVuSans-39" d="M 703 97 
L 703 672 
Q 941 559 1184 500 
Q 1428 441 1663 441 
Q 2288 441 2617 861 
Q 2947 1281 2994 2138 
Q 2813 1869 2534 1725 
Q 2256 1581 1919 1581 
Q 1219 1581 811 2004 
Q 403 2428 403 3163 
Q 403 3881 828 4315 
Q 1253 4750 1959 4750 
Q 2769 4750 3195 4129 
Q 3622 3509 3622 2328 
Q 3622 1225 3098 567 
Q 2575 -91 1691 -91 
Q 1453 -91 1209 -44 
Q 966 3 703 97 
z
M 1959 2075 
Q 2384 2075 2632 2365 
Q 2881 2656 2881 3163 
Q 2881 3666 2632 3958 
Q 2384 4250 1959 4250 
Q 1534 4250 1286 3958 
Q 1038 3666 1038 3163 
Q 1038 2656 1286 2365 
Q 1534 2075 1959 2075 
z
" transform="scale(0.015625)"/>
       </defs>
       <use xlink:href="#DejaVuSans-32"/>
       <use xlink:href="#DejaVuSans-30" x="63.623047"/>
       <use xlink:href="#DejaVuSans-32" x="127.246094"/>
       <use xlink:href="#DejaVuSans-31" x="190.869141"/>
       <use xlink:href="#DejaVuSans-2d" x="254.492188"/>
       <use xlink:href="#DejaVuSans-30" x="290.576172"/>
       <use xlink:href="#DejaVuSans-39" x="354.199219"/>
      </g>
     </g>
    </g>
    <g id="xtick_2">
     <g id="line2d_3">
      <path d="M 221.491525 320.4 
L 221.491525 43.2 
" clip-path="url(#pbe64ccbd90)" style="fill: none; stroke-dasharray: 5.12,1.28,0.8,1.28; stroke-dashoffset: 0; stroke: #b0b0b0; stroke-width: 0.8"/>
     </g>
     <g id="line2d_4">
      <g>
       <use xlink:href="#m390ff9b5ec" x="221.491525" y="320.4" style="fill: #a9a9a9; stroke: #a9a9a9; stroke-width: 0.8"/>
      </g>
     </g>
     <g id="text_2">
      <!-- 2022-01 -->
      <g style="fill: #a9a9a9" transform="translate(200.600119 334.998438) scale(0.1 -0.1)">
       <use xlink:href="#DejaVuSans-32"/>
       <use xlink:href="#DejaVuSans-30" x="63.623047"/>
       <use xlink:href="#DejaVuSans-32" x="127.246094"/>
       <use xlink:href="#DejaVuSans-32" x="190.869141"/>
       <use xlink:href="#DejaVuSans-2d" x="254.492188"/>
       <use xlink:href="#DejaVuSans-30" x="290.576172"/>
       <use xlink:href="#DejaVuSans-31" x="354.199219"/>
      </g>
     </g>
    </g>
    <g id="xtick_3">
     <g id="line2d_5">
      <path d="M 283.395994 320.4 
L 283.395994 43.2 
" clip-path="url(#pbe64ccbd90)" style="fill: none; stroke-dasharray: 5.12,1.28,0.8,1.28; stroke-dashoffset: 0; stroke: #b0b0b0; stroke-width: 0.8"/>
     </g>
     <g id="line2d_6">
      <g>
       <use xlink:href="#m390ff9b5ec" x="283.395994" y="320.4" style="fill: #a9a9a9; stroke: #a9a9a9; stroke-width: 0.8"/>
      </g>
     </g>
     <g id="text_3">
      <!-- 2022-05 -->
      <g style="fill: #a9a9a9" transform="translate(262.504588 334.998438) scale(0.1 -0.1)">
       <defs>
        <path id="DejaVuSans-35" d="M 691 4666 
L 3169 4666 
L 3169 4134 
L 1269 4134 
L 1269 2991 
Q 1406 3038 1543 3061 
Q 1681 3084 1819 3084 
Q 2600 3084 3056 2656 
Q 3513 2228 3513 1497 
Q 3513 744 3044 326 
Q 2575 -91 1722 -91 
Q 1428 -91 1123 -41 
Q 819 9 494 109 
L 494 744 
Q 775 591 1075 516 
Q 1375 441 1709 441 
Q 2250 441 2565 725 
Q 2881 1009 2881 1497 
Q 2881 1984 2565 2268 
Q 2250 2553 1709 2553 
Q 1456 2553 1204 2497 
Q 953 2441 691 2322 
L 691 4666 
z
" transform="scale(0.015625)"/>
       </defs>
       <use xlink:href="#DejaVuSans-32"/>
       <use xlink:href="#DejaVuSans-30" x="63.623047"/>
       <use xlink:href="#DejaVuSans-32" x="127.246094"/>
       <use xlink:href="#DejaVuSans-32" x="190.869141"/>
       <use xlink:href="#DejaVuSans-2d" x="254.492188"/>
       <use xlink:href="#DejaVuSans-30" x="290.576172"/>
       <use xlink:href="#DejaVuSans-35" x="354.199219"/>
      </g>
     </g>
    </g>
    <g id="xtick_4">
     <g id="line2d_7">
      <path d="M 346.848074 320.4 
L 346.848074 43.2 
" clip-path="url(#pbe64ccbd90)" style="fill: none; stroke-dasharray: 5.12,1.28,0.8,1.28; stroke-dashoffset: 0; stroke: #b0b0b0; stroke-width: 0.8"/>
     </g>
     <g id="line2d_8">
      <g>
       <use xlink:href="#m390ff9b5ec" x="346.848074" y="320.4" style="fill: #a9a9a9; stroke: #a9a9a9; stroke-width: 0.8"/>
      </g>
     </g>
     <g id="text_4">
      <!-- 2022-09 -->
      <g style="fill: #a9a9a9" transform="translate(325.956668 334.998438) scale(0.1 -0.1)">
       <use xlink:href="#DejaVuSans-32"/>
       <use xlink:href="#DejaVuSans-30" x="63.623047"/>
       <use xlink:href="#DejaVuSans-32" x="127.246094"/>
       <use xlink:href="#DejaVuSans-32" x="190.869141"/>
       <use xlink:href="#DejaVuSans-2d" x="254.492188"/>
       <use xlink:href="#DejaVuSans-30" x="290.576172"/>
       <use xlink:href="#DejaVuSans-39" x="354.199219"/>
      </g>
     </g>
    </g>
    <g id="xtick_5">
     <g id="line2d_9">
      <path d="M 409.784284 320.4 
L 409.784284 43.2 
" clip-path="url(#pbe64ccbd90)" style="fill: none; stroke-dasharray: 5.12,1.28,0.8,1.28; stroke-dashoffset: 0; stroke: #b0b0b0; stroke-width: 0.8"/>
     </g>
     <g id="line2d_10">
      <g>
       <use xlink:href="#m390ff9b5ec" x="409.784284" y="320.4" style="fill: #a9a9a9; stroke: #a9a9a9; stroke-width: 0.8"/>
      </g>
     </g>
     <g id="text_5">
      <!-- 2023-01 -->
      <g style="fill: #a9a9a9" transform="translate(388.892877 334.998438) scale(0.1 -0.1)">
       <defs>
        <path id="DejaVuSans-33" d="M 2597 2516 
Q 3050 2419 3304 2112 
Q 3559 1806 3559 1356 
Q 3559 666 3084 287 
Q 2609 -91 1734 -91 
Q 1441 -91 1130 -33 
Q 819 25 488 141 
L 488 750 
Q 750 597 1062 519 
Q 1375 441 1716 441 
Q 2309 441 2620 675 
Q 2931 909 2931 1356 
Q 2931 1769 2642 2001 
Q 2353 2234 1838 2234 
L 1294 2234 
L 1294 2753 
L 1863 2753 
Q 2328 2753 2575 2939 
Q 2822 3125 2822 3475 
Q 2822 3834 2567 4026 
Q 2313 4219 1838 4219 
Q 1578 4219 1281 4162 
Q 984 4106 628 3988 
L 628 4550 
Q 988 4650 1302 4700 
Q 1616 4750 1894 4750 
Q 2613 4750 3031 4423 
Q 3450 4097 3450 3541 
Q 3450 3153 3228 2886 
Q 3006 2619 2597 2516 
z
" transform="scale(0.015625)"/>
       </defs>
       <use xlink:href="#DejaVuSans-32"/>
       <use xlink:href="#DejaVuSans-30" x="63.623047"/>
       <use xlink:href="#DejaVuSans-32" x="127.246094"/>
       <use xlink:href="#DejaVuSans-33" x="190.869141"/>
       <use xlink:href="#DejaVuSans-2d" x="254.492188"/>
       <use xlink:href="#DejaVuSans-30" x="290.576172"/>
       <use xlink:href="#DejaVuSans-31" x="354.199219"/>
      </g>
     </g>
    </g>
    <g id="xtick_6">
     <g id="line2d_11">
      <path d="M 471.688752 320.4 
L 471.688752 43.2 
" clip-path="url(#pbe64ccbd90)" style="fill: none; stroke-dasharray: 5.12,1.28,0.8,1.28; stroke-dashoffset: 0; stroke: #b0b0b0; stroke-width: 0.8"/>
     </g>
     <g id="line2d_12">
      <g>
       <use xlink:href="#m390ff9b5ec" x="471.688752" y="320.4" style="fill: #a9a9a9; stroke: #a9a9a9; stroke-width: 0.8"/>
      </g>
     </g>
     <g id="text_6">
      <!-- 2023-05 -->
      <g style="fill: #a9a9a9" transform="translate(450.797346 334.998438) scale(0.1 -0.1)">
       <use xlink:href="#DejaVuSans-32"/>
       <use xlink:href="#DejaVuSans-30" x="63.623047"/>
       <use xlink:href="#DejaVuSans-32" x="127.246094"/>
       <use xlink:href="#DejaVuSans-33" x="190.869141"/>
       <use xlink:href="#DejaVuSans-2d" x="254.492188"/>
       <use xlink:href="#DejaVuSans-30" x="290.576172"/>
       <use xlink:href="#DejaVuSans-35" x="354.199219"/>
      </g>
     </g>
    </g>
    <g id="xtick_7">
     <g id="line2d_13">
      <path d="M 535.140832 320.4 
L 535.140832 43.2 
" clip-path="url(#pbe64ccbd90)" style="fill: none; stroke-dasharray: 5.12,1.28,0.8,1.28; stroke-dashoffset: 0; stroke: #b0b0b0; stroke-width: 0.8"/>
     </g>
     <g id="line2d_14">
      <g>
       <use xlink:href="#m390ff9b5ec" x="535.140832" y="320.4" style="fill: #a9a9a9; stroke: #a9a9a9; stroke-width: 0.8"/>
      </g>
     </g>
     <g id="text_7">
      <!-- 2023-09 -->
      <g style="fill: #a9a9a9" transform="translate(514.249426 334.998438) scale(0.1 -0.1)">
       <use xlink:href="#DejaVuSans-32"/>
       <use xlink:href="#DejaVuSans-30" x="63.623047"/>
       <use xlink:href="#DejaVuSans-32" x="127.246094"/>
       <use xlink:href="#DejaVuSans-33" x="190.869141"/>
       <use xlink:href="#DejaVuSans-2d" x="254.492188"/>
       <use xlink:href="#DejaVuSans-30" x="290.576172"/>
       <use xlink:href="#DejaVuSans-39" x="354.199219"/>
      </g>
     </g>
    </g>
    <g id="xtick_8">
     <g id="line2d_15">
      <path d="M 598.077042 320.4 
L 598.077042 43.2 
" clip-path="url(#pbe64ccbd90)" style="fill: none; stroke-dasharray: 5.12,1.28,0.8,1.28; stroke-dashoffset: 0; stroke: #b0b0b0; stroke-width: 0.8"/>
     </g>
     <g id="line2d_16">
      <g>
       <use xlink:href="#m390ff9b5ec" x="598.077042" y="320.4" style="fill: #a9a9a9; stroke: #a9a9a9; stroke-width: 0.8"/>
      </g>
     </g>
     <g id="text_8">
      <!-- 2024-01 -->
      <g style="fill: #a9a9a9" transform="translate(577.185635 334.998438) scale(0.1 -0.1)">
       <defs>
        <path id="DejaVuSans-34" d="M 2419 4116 
L 825 1625 
L 2419 1625 
L 2419 4116 
z
M 2253 4666 
L 3047 4666 
L 3047 1625 
L 3713 1625 
L 3713 1100 
L 3047 1100 
L 3047 0 
L 2419 0 
L 2419 1100 
L 313 1100 
L 313 1709 
L 2253 4666 
z
" transform="scale(0.015625)"/>
       </defs>
       <use xlink:href="#DejaVuSans-32"/>
       <use xlink:href="#DejaVuSans-30" x="63.623047"/>
       <use xlink:href="#DejaVuSans-32" x="127.246094"/>
       <use xlink:href="#DejaVuSans-34" x="190.869141"/>
       <use xlink:href="#DejaVuSans-2d" x="254.492188"/>
       <use xlink:href="#DejaVuSans-30" x="290.576172"/>
       <use xlink:href="#DejaVuSans-31" x="354.199219"/>
      </g>
     </g>
    </g>
    <g id="xtick_9">
     <g id="line2d_17">
      <path d="M 660.497381 320.4 
L 660.497381 43.2 
" clip-path="url(#pbe64ccbd90)" style="fill: none; stroke-dasharray: 5.12,1.28,0.8,1.28; stroke-dashoffset: 0; stroke: #b0b0b0; stroke-width: 0.8"/>
     </g>
     <g id="line2d_18">
      <g>
       <use xlink:href="#m390ff9b5ec" x="660.497381" y="320.4" style="fill: #a9a9a9; stroke: #a9a9a9; stroke-width: 0.8"/>
      </g>
     </g>
     <g id="text_9">
      <!-- 2024-05 -->
      <g style="fill: #a9a9a9" transform="translate(639.605974 334.998438) scale(0.1 -0.1)">
       <use xlink:href="#DejaVuSans-32"/>
       <use xlink:href="#DejaVuSans-30" x="63.623047"/>
       <use xlink:href="#DejaVuSans-32" x="127.246094"/>
       <use xlink:href="#DejaVuSans-34" x="190.869141"/>
       <use xlink:href="#DejaVuSans-2d" x="254.492188"/>
       <use xlink:href="#DejaVuSans-30" x="290.576172"/>
       <use xlink:href="#DejaVuSans-35" x="354.199219"/>
      </g>
     </g>
    </g>
    <g id="xtick_10">
     <g id="line2d_19">
      <path d="M 723.949461 320.4 
L 723.949461 43.2 
" clip-path="url(#pbe64ccbd90)" style="fill: none; stroke-dasharray: 5.12,1.28,0.8,1.28; stroke-dashoffset: 0; stroke: #b0b0b0; stroke-width: 0.8"/>
     </g>
     <g id="line2d_20">
      <g>
       <use xlink:href="#m390ff9b5ec" x="723.949461" y="320.4" style="fill: #a9a9a9; stroke: #a9a9a9; stroke-width: 0.8"/>
      </g>
     </g>
     <g id="text_10">
      <!-- 2024-09 -->
      <g style="fill: #a9a9a9" transform="translate(703.058054 334.998438) scale(0.1 -0.1)">
       <use xlink:href="#DejaVuSans-32"/>
       <use xlink:href="#DejaVuSans-30" x="63.623047"/>
       <use xlink:href="#DejaVuSans-32" x="127.246094"/>
       <use xlink:href="#DejaVuSans-34" x="190.869141"/>
       <use xlink:href="#DejaVuSans-2d" x="254.492188"/>
       <use xlink:href="#DejaVuSans-30" x="290.576172"/>
       <use xlink:href="#DejaVuSans-39" x="354.199219"/>
      </g>
     </g>
    </g>
   </g>
   <g id="matplotlib.axis_2">
    <g id="ytick_1">
     <g id="line2d_21">
      <path d="M 108 307.837042 
L 777.6 307.837042 
" clip-path="url(#pbe64ccbd90)" style="fill: none; stroke-dasharray: 5.12,1.28,0.8,1.28; stroke-dashoffset: 0; stroke: #b0b0b0; stroke-width: 0.8"/>
     </g>
     <g id="line2d_22">
      <defs>
       <path id="mef72e6b9a0" d="M 0 0 
L -3.5 0 
" style="stroke: #a9a9a9; stroke-width: 0.8"/>
      </defs>
      <g>
       <use xlink:href="#mef72e6b9a0" x="108" y="307.837042" style="fill: #a9a9a9; stroke: #a9a9a9; stroke-width: 0.8"/>
      </g>
     </g>
     <g id="text_11">
      <!-- 0 -->
      <g style="fill: #a9a9a9" transform="translate(94.6375 311.636261) scale(0.1 -0.1)">
       <use xlink:href="#DejaVuSans-30"/>
      </g>
     </g>
    </g>
    <g id="ytick_2">
     <g id="line2d_23">
      <path d="M 108 278.203057 
L 777.6 278.203057 
" clip-path="url(#pbe64ccbd90)" style="fill: none; stroke-dasharray: 5.12,1.28,0.8,1.28; stroke-dashoffset: 0; stroke: #b0b0b0; stroke-width: 0.8"/>
     </g>
     <g id="line2d_24">
      <g>
       <use xlink:href="#mef72e6b9a0" x="108" y="278.203057" style="fill: #a9a9a9; stroke: #a9a9a9; stroke-width: 0.8"/>
      </g>
     </g>
     <g id="text_12">
      <!-- 800 -->
      <g style="fill: #a9a9a9" transform="translate(81.9125 282.002276) scale(0.1 -0.1)">
       <defs>
        <path id="DejaVuSans-38" d="M 2034 2216 
Q 1584 2216 1326 1975 
Q 1069 1734 1069 1313 
Q 1069 891 1326 650 
Q 1584 409 2034 409 
Q 2484 409 2743 651 
Q 3003 894 3003 1313 
Q 3003 1734 2745 1975 
Q 2488 2216 2034 2216 
z
M 1403 2484 
Q 997 2584 770 2862 
Q 544 3141 544 3541 
Q 544 4100 942 4425 
Q 1341 4750 2034 4750 
Q 2731 4750 3128 4425 
Q 3525 4100 3525 3541 
Q 3525 3141 3298 2862 
Q 3072 2584 2669 2484 
Q 3125 2378 3379 2068 
Q 3634 1759 3634 1313 
Q 3634 634 3220 271 
Q 2806 -91 2034 -91 
Q 1263 -91 848 271 
Q 434 634 434 1313 
Q 434 1759 690 2068 
Q 947 2378 1403 2484 
z
M 1172 3481 
Q 1172 3119 1398 2916 
Q 1625 2713 2034 2713 
Q 2441 2713 2670 2916 
Q 2900 3119 2900 3481 
Q 2900 3844 2670 4047 
Q 2441 4250 2034 4250 
Q 1625 4250 1398 4047 
Q 1172 3844 1172 3481 
z
" transform="scale(0.015625)"/>
       </defs>
       <use xlink:href="#DejaVuSans-38"/>
       <use xlink:href="#DejaVuSans-30" x="63.623047"/>
       <use xlink:href="#DejaVuSans-30" x="127.246094"/>
      </g>
     </g>
    </g>
    <g id="ytick_3">
     <g id="line2d_25">
      <path d="M 108 248.569072 
L 777.6 248.569072 
" clip-path="url(#pbe64ccbd90)" style="fill: none; stroke-dasharray: 5.12,1.28,0.8,1.28; stroke-dashoffset: 0; stroke: #b0b0b0; stroke-width: 0.8"/>
     </g>
     <g id="line2d_26">
      <g>
       <use xlink:href="#mef72e6b9a0" x="108" y="248.569072" style="fill: #a9a9a9; stroke: #a9a9a9; stroke-width: 0.8"/>
      </g>
     </g>
     <g id="text_13">
      <!-- 1600 -->
      <g style="fill: #a9a9a9" transform="translate(75.55 252.368291) scale(0.1 -0.1)">
       <defs>
        <path id="DejaVuSans-36" d="M 2113 2584 
Q 1688 2584 1439 2293 
Q 1191 2003 1191 1497 
Q 1191 994 1439 701 
Q 1688 409 2113 409 
Q 2538 409 2786 701 
Q 3034 994 3034 1497 
Q 3034 2003 2786 2293 
Q 2538 2584 2113 2584 
z
M 3366 4563 
L 3366 3988 
Q 3128 4100 2886 4159 
Q 2644 4219 2406 4219 
Q 1781 4219 1451 3797 
Q 1122 3375 1075 2522 
Q 1259 2794 1537 2939 
Q 1816 3084 2150 3084 
Q 2853 3084 3261 2657 
Q 3669 2231 3669 1497 
Q 3669 778 3244 343 
Q 2819 -91 2113 -91 
Q 1303 -91 875 529 
Q 447 1150 447 2328 
Q 447 3434 972 4092 
Q 1497 4750 2381 4750 
Q 2619 4750 2861 4703 
Q 3103 4656 3366 4563 
z
" transform="scale(0.015625)"/>
       </defs>
       <use xlink:href="#DejaVuSans-31"/>
       <use xlink:href="#DejaVuSans-36" x="63.623047"/>
       <use xlink:href="#DejaVuSans-30" x="127.246094"/>
       <use xlink:href="#DejaVuSans-30" x="190.869141"/>
      </g>
     </g>
    </g>
    <g id="ytick_4">
     <g id="line2d_27">
      <path d="M 108 218.935087 
L 777.6 218.935087 
" clip-path="url(#pbe64ccbd90)" style="fill: none; stroke-dasharray: 5.12,1.28,0.8,1.28; stroke-dashoffset: 0; stroke: #b0b0b0; stroke-width: 0.8"/>
     </g>
     <g id="line2d_28">
      <g>
       <use xlink:href="#mef72e6b9a0" x="108" y="218.935087" style="fill: #a9a9a9; stroke: #a9a9a9; stroke-width: 0.8"/>
      </g>
     </g>
     <g id="text_14">
      <!-- 2400 -->
      <g style="fill: #a9a9a9" transform="translate(75.55 222.734306) scale(0.1 -0.1)">
       <use xlink:href="#DejaVuSans-32"/>
       <use xlink:href="#DejaVuSans-34" x="63.623047"/>
       <use xlink:href="#DejaVuSans-30" x="127.246094"/>
       <use xlink:href="#DejaVuSans-30" x="190.869141"/>
      </g>
     </g>
    </g>
    <g id="ytick_5">
     <g id="line2d_29">
      <path d="M 108 189.301102 
L 777.6 189.301102 
" clip-path="url(#pbe64ccbd90)" style="fill: none; stroke-dasharray: 5.12,1.28,0.8,1.28; stroke-dashoffset: 0; stroke: #b0b0b0; stroke-width: 0.8"/>
     </g>
     <g id="line2d_30">
      <g>
       <use xlink:href="#mef72e6b9a0" x="108" y="189.301102" style="fill: #a9a9a9; stroke: #a9a9a9; stroke-width: 0.8"/>
      </g>
     </g>
     <g id="text_15">
      <!-- 3200 -->
      <g style="fill: #a9a9a9" transform="translate(75.55 193.100321) scale(0.1 -0.1)">
       <use xlink:href="#DejaVuSans-33"/>
       <use xlink:href="#DejaVuSans-32" x="63.623047"/>
       <use xlink:href="#DejaVuSans-30" x="127.246094"/>
       <use xlink:href="#DejaVuSans-30" x="190.869141"/>
      </g>
     </g>
    </g>
    <g id="ytick_6">
     <g id="line2d_31">
      <path d="M 108 159.667117 
L 777.6 159.667117 
" clip-path="url(#pbe64ccbd90)" style="fill: none; stroke-dasharray: 5.12,1.28,0.8,1.28; stroke-dashoffset: 0; stroke: #b0b0b0; stroke-width: 0.8"/>
     </g>
     <g id="line2d_32">
      <g>
       <use xlink:href="#mef72e6b9a0" x="108" y="159.667117" style="fill: #a9a9a9; stroke: #a9a9a9; stroke-width: 0.8"/>
      </g>
     </g>
     <g id="text_16">
      <!-- 4000 -->
      <g style="fill: #a9a9a9" transform="translate(75.55 163.466336) scale(0.1 -0.1)">
       <use xlink:href="#DejaVuSans-34"/>
       <use xlink:href="#DejaVuSans-30" x="63.623047"/>
       <use xlink:href="#DejaVuSans-30" x="127.246094"/>
       <use xlink:href="#DejaVuSans-30" x="190.869141"/>
      </g>
     </g>
    </g>
    <g id="ytick_7">
     <g id="line2d_33">
      <path d="M 108 130.033132 
L 777.6 130.033132 
" clip-path="url(#pbe64ccbd90)" style="fill: none; stroke-dasharray: 5.12,1.28,0.8,1.28; stroke-dashoffset: 0; stroke: #b0b0b0; stroke-width: 0.8"/>
     </g>
     <g id="line2d_34">
      <g>
       <use xlink:href="#mef72e6b9a0" x="108" y="130.033132" style="fill: #a9a9a9; stroke: #a9a9a9; stroke-width: 0.8"/>
      </g>
     </g>
     <g id="text_17">
      <!-- 4800 -->
      <g style="fill: #a9a9a9" transform="translate(75.55 133.832351) scale(0.1 -0.1)">
       <use xlink:href="#DejaVuSans-34"/>
       <use xlink:href="#DejaVuSans-38" x="63.623047"/>
       <use xlink:href="#DejaVuSans-30" x="127.246094"/>
       <use xlink:href="#DejaVuSans-30" x="190.869141"/>
      </g>
     </g>
    </g>
    <g id="ytick_8">
     <g id="line2d_35">
      <path d="M 108 100.399147 
L 777.6 100.399147 
" clip-path="url(#pbe64ccbd90)" style="fill: none; stroke-dasharray: 5.12,1.28,0.8,1.28; stroke-dashoffset: 0; stroke: #b0b0b0; stroke-width: 0.8"/>
     </g>
     <g id="line2d_36">
      <g>
       <use xlink:href="#mef72e6b9a0" x="108" y="100.399147" style="fill: #a9a9a9; stroke: #a9a9a9; stroke-width: 0.8"/>
      </g>
     </g>
     <g id="text_18">
      <!-- 5600 -->
      <g style="fill: #a9a9a9" transform="translate(75.55 104.198366) scale(0.1 -0.1)">
       <use xlink:href="#DejaVuSans-35"/>
       <use xlink:href="#DejaVuSans-36" x="63.623047"/>
       <use xlink:href="#DejaVuSans-30" x="127.246094"/>
       <use xlink:href="#DejaVuSans-30" x="190.869141"/>
      </g>
     </g>
    </g>
    <g id="ytick_9">
     <g id="line2d_37">
      <path d="M 108 70.765162 
L 777.6 70.765162 
" clip-path="url(#pbe64ccbd90)" style="fill: none; stroke-dasharray: 5.12,1.28,0.8,1.28; stroke-dashoffset: 0; stroke: #b0b0b0; stroke-width: 0.8"/>
     </g>
     <g id="line2d_38">
      <g>
       <use xlink:href="#mef72e6b9a0" x="108" y="70.765162" style="fill: #a9a9a9; stroke: #a9a9a9; stroke-width: 0.8"/>
      </g>
     </g>
     <g id="text_19">
      <!-- 6400 -->
      <g style="fill: #a9a9a9" transform="translate(75.55 74.564381) scale(0.1 -0.1)">
       <use xlink:href="#DejaVuSans-36"/>
       <use xlink:href="#DejaVuSans-34" x="63.623047"/>
       <use xlink:href="#DejaVuSans-30" x="127.246094"/>
       <use xlink:href="#DejaVuSans-30" x="190.869141"/>
      </g>
     </g>
    </g>
   </g>
   <g id="line2d_39">
    <path d="M 138.436364 307.725915 
L 141.531587 307.466618 
L 142.047458 307.244363 
L 144.11094 306.985065 
L 146.174422 306.577598 
L 147.206163 306.429428 
L 149.785516 306.207173 
L 150.817257 305.799706 
L 151.333128 305.132941 
L 151.848998 304.762517 
L 152.364869 303.6142 
L 152.88074 303.540115 
L 153.39661 303.132647 
L 154.428351 302.614053 
L 156.491834 300.984183 
L 158.555316 299.984036 
L 160.102928 299.280229 
L 160.618798 298.465295 
L 161.650539 297.724445 
L 162.16641 297.50219 
L 167.325116 296.761341 
L 167.840986 296.539086 
L 171.45208 296.242746 
L 173.515562 295.761194 
L 177.642527 295.205556 
L 178.158398 294.946259 
L 178.674268 294.872174 
L 179.706009 294.538792 
L 183.317103 293.946112 
L 184.348844 293.649772 
L 188.99168 292.87188 
L 190.023421 292.649625 
L 191.055162 292.612583 
L 193.118644 292.13103 
L 193.634515 291.427223 
L 195.182126 290.834544 
L 196.729738 290.427076 
L 197.245609 290.167779 
L 198.27735 289.982567 
L 200.340832 289.389887 
L 201.372573 289.315802 
L 202.404314 289.056504 
L 204.467797 288.53791 
L 204.983667 288.500867 
L 206.015408 288.019315 
L 206.531279 287.94523 
L 207.047149 287.685933 
L 212.721726 286.759871 
L 214.785208 286.167191 
L 215.301079 285.833809 
L 217.880431 284.981832 
L 218.912173 284.278024 
L 220.459784 283.981685 
L 230.261325 281.129413 
L 231.293066 280.721946 
L 232.324807 280.647861 
L 233.872419 280.203351 
L 234.38829 280.203351 
L 234.90416 279.981097 
L 235.935901 279.869969 
L 236.451772 279.684757 
L 237.483513 279.647714 
L 239.546995 279.388417 
L 240.578737 278.869822 
L 246.769183 276.091636 
L 247.285054 275.535999 
L 248.316795 273.980215 
L 248.832666 273.832045 
L 249.348536 273.832045 
L 250.380277 273.054153 
L 251.927889 272.535558 
L 252.44376 272.054006 
L 253.475501 271.646538 
L 254.507242 271.164986 
L 255.538983 269.683287 
L 256.054854 269.349904 
L 256.570724 268.460885 
L 257.086595 267.905248 
L 260.181818 266.275379 
L 261.213559 265.460444 
L 261.72943 265.127062 
L 262.2453 264.349169 
L 262.761171 263.200853 
L 263.277042 262.42296 
L 263.792912 262.015493 
L 264.308783 261.793238 
L 267.919877 258.755755 
L 268.951618 257.533353 
L 269.983359 256.792503 
L 271.530971 255.755314 
L 272.046841 255.310804 
L 273.078582 254.977422 
L 274.626194 254.088402 
L 276.173806 253.088255 
L 278.237288 251.236131 
L 279.269029 250.828664 
L 280.30077 250.124857 
L 280.816641 249.828517 
L 281.332512 249.754432 
L 284.943606 247.494841 
L 287.007088 246.383566 
L 287.522958 245.902014 
L 295.776888 243.0127 
L 296.808629 242.086638 
L 297.84037 241.605086 
L 298.872111 241.049449 
L 299.387982 240.753109 
L 300.419723 240.456769 
L 300.935593 240.123387 
L 301.451464 239.975217 
L 302.999076 238.97507 
L 305.578428 238.38239 
L 307.12604 237.493371 
L 308.673652 237.159988 
L 309.189522 237.011818 
L 310.737134 235.863501 
L 312.800616 235.307864 
L 313.316487 234.900397 
L 316.41171 233.863207 
L 317.443451 233.677995 
L 318.475193 233.270528 
L 322.086287 231.974041 
L 323.118028 231.825871 
L 324.665639 231.307276 
L 327.244992 230.084874 
L 329.308475 228.9736 
L 333.435439 227.306688 
L 333.95131 227.232603 
L 334.983051 226.602881 
L 335.498921 226.528796 
L 337.562404 225.676819 
L 339.625886 225.380479 
L 340.657627 224.861884 
L 341.173498 224.417375 
L 341.689368 223.491313 
L 343.752851 222.935675 
L 345.300462 222.157783 
L 345.816333 222.046656 
L 349.943297 220.083404 
L 351.490909 219.787065 
L 352.52265 219.26847 
L 353.038521 219.046215 
L 353.554391 218.97213 
L 355.617874 218.046068 
L 357.165485 217.082963 
L 358.713097 216.786624 
L 361.29245 216.156901 
L 361.80832 215.749434 
L 363.355932 215.193797 
L 365.419414 214.378862 
L 365.935285 214.008437 
L 366.451156 213.823225 
L 367.482897 213.267588 
L 370.06225 212.415611 
L 371.609861 211.193209 
L 372.125732 211.082081 
L 373.157473 210.267147 
L 373.673344 210.193062 
L 374.189214 209.378127 
L 374.705085 209.155872 
L 375.220955 208.748405 
L 375.736826 208.67432 
L 376.768567 208.044598 
L 377.800308 207.711216 
L 378.316179 207.303748 
L 378.832049 207.118536 
L 380.379661 206.044304 
L 382.443143 204.970072 
L 382.959014 204.895987 
L 384.506626 204.118095 
L 385.022496 203.266118 
L 385.538367 202.821608 
L 386.054237 202.525268 
L 386.570108 202.414141 
L 387.601849 201.747376 
L 388.11772 201.636249 
L 389.149461 201.117654 
L 391.212943 200.117507 
L 391.728814 199.747082 
L 392.760555 198.746935 
L 393.792296 198.117213 
L 394.308166 197.783831 
L 394.824037 197.228193 
L 396.887519 195.820579 
L 397.40339 195.227899 
L 397.91926 194.820432 
L 398.951002 194.450007 
L 399.982743 193.7462 
L 401.530354 192.968308 
L 402.046225 192.894223 
L 403.593837 192.079289 
L 404.625578 191.449566 
L 409.784284 189.597442 
L 410.300154 189.189975 
L 412.363636 188.412083 
L 412.879507 188.263913 
L 413.395378 187.856446 
L 415.97473 186.448831 
L 417.006471 184.411495 
L 418.038213 183.226136 
L 419.069954 182.596413 
L 420.617565 181.966691 
L 421.133436 181.892606 
L 421.649307 181.596266 
L 424.228659 180.781332 
L 424.74453 180.559077 
L 425.776271 179.85527 
L 427.323883 179.188505 
L 428.355624 178.632868 
L 428.871495 178.262443 
L 429.387365 178.040188 
L 429.903236 177.669763 
L 430.419106 177.114126 
L 431.450847 176.558489 
L 434.0302 175.187917 
L 437.125424 173.669175 
L 438.157165 173.335793 
L 439.704777 172.854241 
L 441.768259 171.928179 
L 442.8 171.520711 
L 443.315871 171.113244 
L 444.347612 170.779862 
L 447.442835 169.187035 
L 448.474576 168.372101 
L 449.506317 168.001676 
L 450.022188 167.557166 
L 450.538059 167.483081 
L 451.5698 166.705189 
L 452.601541 166.186594 
L 453.117411 165.964339 
L 453.633282 165.445745 
L 457.244376 164.03813 
L 458.276117 163.59362 
L 459.823729 163.112068 
L 460.85547 162.963898 
L 461.371341 162.741643 
L 461.887211 162.667558 
L 462.918952 162.223049 
L 463.434823 162.186006 
L 465.498305 161.408114 
L 467.045917 160.333882 
L 467.561787 160.14867 
L 468.593529 159.593032 
L 469.109399 159.444863 
L 472.204622 157.740908 
L 472.720493 157.629781 
L 474.268105 156.740761 
L 475.815716 156.222167 
L 476.847458 155.888784 
L 478.91094 155.22202 
L 479.942681 154.888637 
L 482.006163 154.48117 
L 482.522034 154.258915 
L 483.037904 154.18483 
L 484.069646 153.74032 
L 484.585516 153.666235 
L 485.101387 153.406938 
L 486.133128 153.221726 
L 487.68074 152.666088 
L 488.712481 152.554961 
L 490.260092 152.221579 
L 492.839445 151.777069 
L 506.25208 147.924651 
L 506.767951 147.406056 
L 507.799692 146.998589 
L 510.894915 145.887314 
L 511.410786 145.553932 
L 511.926656 145.442805 
L 512.442527 145.146465 
L 513.990139 144.701955 
L 515.02188 144.442658 
L 515.53775 144.109275 
L 516.053621 143.998148 
L 516.569492 143.553638 
L 518.117103 143.257298 
L 519.148844 142.775746 
L 519.664715 142.183066 
L 521.728197 141.701514 
L 525.339291 140.960664 
L 525.855162 140.960664 
L 526.371032 140.73841 
L 528.434515 140.367985 
L 528.950385 140.14573 
L 531.013867 139.775305 
L 532.045609 139.330795 
L 533.07735 139.145583 
L 535.656703 138.515861 
L 537.720185 137.886138 
L 538.236055 137.775011 
L 538.751926 137.515714 
L 539.783667 137.256416 
L 540.299538 136.960076 
L 541.847149 136.441482 
L 542.36302 136.071057 
L 543.394761 135.774717 
L 544.426502 135.441335 
L 545.458243 135.033867 
L 547.005855 134.367103 
L 549.069337 134.107805 
L 553.196302 132.663149 
L 553.712173 132.292724 
L 554.228043 132.181596 
L 554.743914 131.922299 
L 555.259784 131.885257 
L 560.934361 129.922005 
L 563.513713 129.25524 
L 564.545455 128.773688 
L 566.093066 128.440306 
L 566.608937 128.032838 
L 567.124807 127.773541 
L 567.640678 127.143819 
L 568.156549 126.773394 
L 569.18829 126.477054 
L 569.70416 126.069587 
L 572.799384 124.92127 
L 573.315254 124.587888 
L 574.346995 124.291548 
L 574.862866 123.958166 
L 577.442219 123.143231 
L 578.989831 122.254211 
L 579.505701 122.143084 
L 582.085054 120.772512 
L 583.632666 120.068705 
L 584.148536 119.69828 
L 585.180277 119.364898 
L 586.212018 118.772218 
L 586.727889 118.587006 
L 587.24376 118.216581 
L 593.950077 115.882905 
L 594.465948 115.771777 
L 594.981818 115.438395 
L 597.0453 115.030928 
L 598.077042 114.62346 
L 598.592912 114.32712 
L 599.108783 114.17895 
L 601.172265 113.104719 
L 601.688136 113.030634 
L 603.235747 112.178656 
L 606.330971 110.956255 
L 608.394453 110.14132 
L 608.910324 109.99315 
L 609.426194 109.659768 
L 610.457935 109.511598 
L 610.973806 109.178215 
L 612.005547 108.993003 
L 613.037288 108.511451 
L 613.553159 108.289196 
L 614.069029 108.215111 
L 616.648382 107.214964 
L 618.195994 106.807497 
L 619.227735 106.548199 
L 620.775347 106.10369 
L 621.807088 105.696222 
L 623.87057 104.584948 
L 624.902311 104.177481 
L 625.418182 103.844098 
L 626.449923 103.621843 
L 626.965794 103.325503 
L 627.481664 103.214376 
L 629.029276 102.362399 
L 630.061017 101.954932 
L 631.608629 101.251125 
L 633.15624 100.843657 
L 636.251464 99.621255 
L 638.314946 98.917448 
L 639.862558 98.361811 
L 640.378428 98.176599 
L 641.410169 97.620961 
L 643.473652 96.694899 
L 648.632357 94.731648 
L 649.148228 94.361223 
L 651.21171 93.657416 
L 651.727581 93.657416 
L 652.759322 93.212906 
L 653.791063 92.286844 
L 654.306934 91.842334 
L 655.854545 91.101485 
L 656.370416 90.990357 
L 656.886287 90.73106 
L 657.402157 90.656975 
L 657.918028 90.28655 
L 658.433898 90.175423 
L 659.465639 89.5457 
L 661.013251 88.767808 
L 662.044992 88.360341 
L 662.560863 88.101044 
L 665.140216 87.471321 
L 665.656086 87.212024 
L 667.203698 86.767514 
L 669.26718 85.767367 
L 670.298921 85.285815 
L 671.330663 85.026518 
L 673.394145 84.100456 
L 673.910015 83.952286 
L 674.425886 83.618903 
L 677.521109 82.507629 
L 679.068721 81.581567 
L 679.584592 81.47044 
L 680.616333 80.951845 
L 681.648074 80.58142 
L 682.163945 80.13691 
L 683.195686 79.729443 
L 684.743297 79.099721 
L 685.259168 78.692253 
L 685.775039 78.655211 
L 686.80678 78.358871 
L 687.838521 78.025489 
L 688.354391 77.766191 
L 688.870262 77.692106 
L 690.417874 77.136469 
L 691.965485 76.580832 
L 692.997227 76.173365 
L 693.513097 75.765897 
L 695.060709 75.35843 
L 695.576579 75.06209 
L 696.60832 74.802793 
L 698.155932 73.950816 
L 698.671803 73.913773 
L 700.219414 73.432221 
L 701.251156 73.321094 
L 702.282897 72.913626 
L 705.37812 72.024607 
L 706.409861 71.987564 
L 709.505085 70.987417 
L 710.020955 70.913332 
L 711.568567 70.098398 
L 712.084438 69.653888 
L 713.632049 68.764868 
L 714.14792 68.357401 
L 715.179661 67.949934 
L 716.727273 67.505424 
L 717.243143 67.209084 
L 717.759014 67.097957 
L 718.274884 66.690489 
L 721.370108 65.431045 
L 723.43359 64.875408 
L 724.465331 64.430898 
L 726.528814 63.430751 
L 727.560555 63.245539 
L 730.139908 62.060179 
L 730.655778 61.763839 
L 732.20339 61.356372 
L 733.751002 60.319183 
L 734.266872 60.245098 
L 736.846225 59.207908 
L 738.393837 58.837483 
L 738.909707 58.763399 
L 739.425578 58.541144 
L 739.941448 58.504101 
L 740.97319 58.133676 
L 741.48906 58.096634 
L 743.036672 57.503954 
L 745.100154 56.911274 
L 746.131895 56.09634 
L 746.647766 55.8 
L 747.163636 55.8 
L 747.163636 55.8 
" clip-path="url(#pbe64ccbd90)" style="fill: none; stroke: #1f77b4; stroke-width: 1.5; stroke-linecap: square"/>
   </g>
   <g id="line2d_40">
    <path d="M 138.952234 307.8 
L 140.499846 307.725915 
L 142.563328 307.688873 
L 145.142681 307.614788 
L 148.237904 307.50366 
L 149.785516 307.50366 
L 150.301387 307.35549 
L 152.364869 307.281405 
L 165.261633 306.466471 
L 168.356857 306.392386 
L 170.420339 306.355343 
L 175.579045 306.281258 
L 178.674268 306.170131 
L 181.253621 306.096046 
L 184.348844 305.984918 
L 190.023421 305.910833 
L 195.182126 305.651536 
L 197.245609 305.577451 
L 199.824961 305.503366 
L 202.920185 305.429281 
L 204.983667 305.244069 
L 207.56302 305.169984 
L 210.658243 305.058856 
L 212.205855 304.984771 
L 215.816949 304.836601 
L 217.364561 304.799559 
L 219.943914 304.503219 
L 222.523267 304.429134 
L 224.070878 304.318007 
L 227.681972 304.169837 
L 229.229584 304.095752 
L 236.451772 303.688285 
L 238.515254 303.6142 
L 242.126348 303.46603 
L 245.737442 303.391945 
L 246.769183 303.280817 
L 256.054854 302.502925 
L 257.086595 302.243628 
L 262.761171 301.725033 
L 264.308783 301.576863 
L 267.404006 301.502778 
L 268.951618 301.354608 
L 269.983359 301.317566 
L 271.530971 301.206438 
L 272.562712 301.132353 
L 274.110324 300.910098 
L 274.626194 300.910098 
L 276.173806 300.687844 
L 280.816641 300.465589 
L 282.364253 300.391504 
L 284.943606 300.132206 
L 285.975347 299.946994 
L 287.522958 299.909951 
L 288.5547 299.835867 
L 291.134052 299.761782 
L 298.35624 299.354314 
L 299.387982 299.280229 
L 306.610169 298.872762 
L 309.705393 298.798677 
L 310.737134 298.68755 
L 314.348228 298.613465 
L 318.475193 298.428252 
L 323.633898 298.354167 
L 327.760863 298.168955 
L 331.371957 298.09487 
L 336.014792 297.872615 
L 339.110015 297.79853 
L 349.427427 297.168808 
L 354.070262 297.094723 
L 356.649615 296.835426 
L 359.228968 296.798383 
L 361.80832 296.539086 
L 366.967026 296.279788 
L 369.546379 296.205703 
L 371.609861 296.168661 
L 372.641602 296.131618 
L 374.189214 295.983448 
L 378.316179 295.909364 
L 379.34792 295.761194 
L 380.379661 295.687109 
L 386.054237 295.390769 
L 389.665331 295.353726 
L 391.212943 295.242599 
L 405.141448 294.353579 
L 406.68906 294.279494 
L 409.784284 294.168367 
L 416.490601 294.094282 
L 420.617565 293.90907 
L 424.228659 293.834985 
L 427.323883 293.723857 
L 428.871495 293.649772 
L 434.546071 293.353432 
L 435.577812 293.279347 
L 438.157165 293.205262 
L 440.220647 293.131177 
L 443.315871 293.02005 
L 446.411094 292.945965 
L 448.990447 292.87188 
L 454.665023 292.797795 
L 457.760247 292.686668 
L 460.339599 292.612583 
L 462.403082 292.42737 
L 464.466564 292.390328 
L 466.014176 292.316243 
L 467.561787 292.205115 
L 473.236364 292.13103 
L 476.847458 291.982861 
L 486.133128 291.945818 
L 487.68074 291.834691 
L 495.418798 291.760606 
L 496.450539 291.686521 
L 502.125116 291.612436 
L 504.704468 291.538351 
L 513.990139 291.464266 
L 516.053621 291.427223 
L 520.180586 291.353138 
L 521.212327 291.279053 
L 533.59322 291.204968 
L 535.656703 291.167926 
L 549.069337 291.093841 
L 551.13282 291.056798 
L 559.902619 290.982714 
L 560.934361 290.908629 
L 563.513713 290.834544 
L 565.061325 290.686374 
L 567.640678 290.612289 
L 571.767643 290.427076 
L 574.862866 290.390034 
L 575.894607 290.315949 
L 580.021572 290.241864 
L 584.148536 290.056651 
L 586.212018 289.982567 
L 590.338983 289.797354 
L 592.918336 289.723269 
L 595.497689 289.649184 
L 601.688136 289.575099 
L 604.267488 289.501014 
L 607.878582 289.426929 
L 612.005547 289.241717 
L 616.132512 289.167632 
L 617.164253 289.093547 
L 626.449923 289.019462 
L 628.513405 288.98242 
L 630.576888 288.945377 
L 633.15624 288.68608 
L 637.283205 288.611995 
L 642.957781 288.315655 
L 645.021263 288.24157 
L 648.116487 288.130442 
L 652.759322 288.0934 
L 655.854545 287.760018 
L 659.465639 287.685933 
L 663.076733 287.537763 
L 666.171957 287.463678 
L 669.26718 287.35255 
L 675.457627 287.315508 
L 676.489368 287.20438 
L 680.100462 287.130295 
L 683.195686 287.019168 
L 691.449615 286.982126 
L 692.481356 286.908041 
L 696.60832 286.833956 
L 698.671803 286.796913 
L 704.346379 286.722828 
L 706.925732 286.648743 
L 712.084438 286.574658 
L 713.116179 286.463531 
L 717.759014 286.426488 
L 718.790755 286.352403 
L 721.370108 286.278318 
L 723.43359 286.241276 
L 729.624037 286.167191 
L 733.235131 286.019021 
L 734.266872 286.019021 
L 735.298613 285.833809 
L 742.004931 285.759724 
L 746.131895 285.574511 
L 747.163636 285.574511 
L 747.163636 285.574511 
" clip-path="url(#pbe64ccbd90)" style="fill: none; stroke: #ff7f0e; stroke-width: 1.5; stroke-linecap: square"/>
   </g>
   <g id="patch_3">
    <path d="M 108 320.4 
L 108 43.2 
" style="fill: none; stroke: #a9a9a9; stroke-width: 0.8; stroke-linejoin: miter; stroke-linecap: square"/>
   </g>
   <g id="patch_4">
    <path d="M 777.6 320.4 
L 777.6 43.2 
" style="fill: none"/>
   </g>
   <g id="patch_5">
    <path d="M 108 320.4 
L 777.6 320.4 
" style="fill: none; stroke: #a9a9a9; stroke-width: 0.8; stroke-linejoin: miter; stroke-linecap: square"/>
   </g>
   <g id="patch_6">
    <path d="M 108 43.2 
L 777.6 43.2 
" style="fill: none"/>
   </g>
   <g id="text_20">
    <!-- get_subscribe history -->
    <g style="fill: #a9a9a9" transform="translate(378.6075 37.2) scale(0.12 -0.12)">
     <defs>
      <path id="DejaVuSans-67" d="M 2906 1791 
Q 2906 2416 2648 2759 
Q 2391 3103 1925 3103 
Q 1463 3103 1205 2759 
Q 947 2416 947 1791 
Q 947 1169 1205 825 
Q 1463 481 1925 481 
Q 2391 481 2648 825 
Q 2906 1169 2906 1791 
z
M 3481 434 
Q 3481 -459 3084 -895 
Q 2688 -1331 1869 -1331 
Q 1566 -1331 1297 -1286 
Q 1028 -1241 775 -1147 
L 775 -588 
Q 1028 -725 1275 -790 
Q 1522 -856 1778 -856 
Q 2344 -856 2625 -561 
Q 2906 -266 2906 331 
L 2906 616 
Q 2728 306 2450 153 
Q 2172 0 1784 0 
Q 1141 0 747 490 
Q 353 981 353 1791 
Q 353 2603 747 3093 
Q 1141 3584 1784 3584 
Q 2172 3584 2450 3431 
Q 2728 3278 2906 2969 
L 2906 3500 
L 3481 3500 
L 3481 434 
z
" transform="scale(0.015625)"/>
      <path id="DejaVuSans-65" d="M 3597 1894 
L 3597 1613 
L 953 1613 
Q 991 1019 1311 708 
Q 1631 397 2203 397 
Q 2534 397 2845 478 
Q 3156 559 3463 722 
L 3463 178 
Q 3153 47 2828 -22 
Q 2503 -91 2169 -91 
Q 1331 -91 842 396 
Q 353 884 353 1716 
Q 353 2575 817 3079 
Q 1281 3584 2069 3584 
Q 2775 3584 3186 3129 
Q 3597 2675 3597 1894 
z
M 3022 2063 
Q 3016 2534 2758 2815 
Q 2500 3097 2075 3097 
Q 1594 3097 1305 2825 
Q 1016 2553 972 2059 
L 3022 2063 
z
" transform="scale(0.015625)"/>
      <path id="DejaVuSans-74" d="M 1172 4494 
L 1172 3500 
L 2356 3500 
L 2356 3053 
L 1172 3053 
L 1172 1153 
Q 1172 725 1289 603 
Q 1406 481 1766 481 
L 2356 481 
L 2356 0 
L 1766 0 
Q 1100 0 847 248 
Q 594 497 594 1153 
L 594 3053 
L 172 3053 
L 172 3500 
L 594 3500 
L 594 4494 
L 1172 4494 
z
" transform="scale(0.015625)"/>
      <path id="DejaVuSans-5f" d="M 3263 -1063 
L 3263 -1509 
L -63 -1509 
L -63 -1063 
L 3263 -1063 
z
" transform="scale(0.015625)"/>
      <path id="DejaVuSans-73" d="M 2834 3397 
L 2834 2853 
Q 2591 2978 2328 3040 
Q 2066 3103 1784 3103 
Q 1356 3103 1142 2972 
Q 928 2841 928 2578 
Q 928 2378 1081 2264 
Q 1234 2150 1697 2047 
L 1894 2003 
Q 2506 1872 2764 1633 
Q 3022 1394 3022 966 
Q 3022 478 2636 193 
Q 2250 -91 1575 -91 
Q 1294 -91 989 -36 
Q 684 19 347 128 
L 347 722 
Q 666 556 975 473 
Q 1284 391 1588 391 
Q 1994 391 2212 530 
Q 2431 669 2431 922 
Q 2431 1156 2273 1281 
Q 2116 1406 1581 1522 
L 1381 1569 
Q 847 1681 609 1914 
Q 372 2147 372 2553 
Q 372 3047 722 3315 
Q 1072 3584 1716 3584 
Q 2034 3584 2315 3537 
Q 2597 3491 2834 3397 
z
" transform="scale(0.015625)"/>
      <path id="DejaVuSans-75" d="M 544 1381 
L 544 3500 
L 1119 3500 
L 1119 1403 
Q 1119 906 1312 657 
Q 1506 409 1894 409 
Q 2359 409 2629 706 
Q 2900 1003 2900 1516 
L 2900 3500 
L 3475 3500 
L 3475 0 
L 2900 0 
L 2900 538 
Q 2691 219 2414 64 
Q 2138 -91 1772 -91 
Q 1169 -91 856 284 
Q 544 659 544 1381 
z
M 1991 3584 
L 1991 3584 
z
" transform="scale(0.015625)"/>
      <path id="DejaVuSans-62" d="M 3116 1747 
Q 3116 2381 2855 2742 
Q 2594 3103 2138 3103 
Q 1681 3103 1420 2742 
Q 1159 2381 1159 1747 
Q 1159 1113 1420 752 
Q 1681 391 2138 391 
Q 2594 391 2855 752 
Q 3116 1113 3116 1747 
z
M 1159 2969 
Q 1341 3281 1617 3432 
Q 1894 3584 2278 3584 
Q 2916 3584 3314 3078 
Q 3713 2572 3713 1747 
Q 3713 922 3314 415 
Q 2916 -91 2278 -91 
Q 1894 -91 1617 61 
Q 1341 213 1159 525 
L 1159 0 
L 581 0 
L 581 4863 
L 1159 4863 
L 1159 2969 
z
" transform="scale(0.015625)"/>
      <path id="DejaVuSans-63" d="M 3122 3366 
L 3122 2828 
Q 2878 2963 2633 3030 
Q 2388 3097 2138 3097 
Q 1578 3097 1268 2742 
Q 959 2388 959 1747 
Q 959 1106 1268 751 
Q 1578 397 2138 397 
Q 2388 397 2633 464 
Q 2878 531 3122 666 
L 3122 134 
Q 2881 22 2623 -34 
Q 2366 -91 2075 -91 
Q 1284 -91 818 406 
Q 353 903 353 1747 
Q 353 2603 823 3093 
Q 1294 3584 2113 3584 
Q 2378 3584 2631 3529 
Q 2884 3475 3122 3366 
z
" transform="scale(0.015625)"/>
      <path id="DejaVuSans-72" d="M 2631 2963 
Q 2534 3019 2420 3045 
Q 2306 3072 2169 3072 
Q 1681 3072 1420 2755 
Q 1159 2438 1159 1844 
L 1159 0 
L 581 0 
L 581 3500 
L 1159 3500 
L 1159 2956 
Q 1341 3275 1631 3429 
Q 1922 3584 2338 3584 
Q 2397 3584 2469 3576 
Q 2541 3569 2628 3553 
L 2631 2963 
z
" transform="scale(0.015625)"/>
      <path id="DejaVuSans-69" d="M 603 3500 
L 1178 3500 
L 1178 0 
L 603 0 
L 603 3500 
z
M 603 4863 
L 1178 4863 
L 1178 4134 
L 603 4134 
L 603 4863 
z
" transform="scale(0.015625)"/>
      <path id="DejaVuSans-20" transform="scale(0.015625)"/>
      <path id="DejaVuSans-68" d="M 3513 2113 
L 3513 0 
L 2938 0 
L 2938 2094 
Q 2938 2591 2744 2837 
Q 2550 3084 2163 3084 
Q 1697 3084 1428 2787 
Q 1159 2491 1159 1978 
L 1159 0 
L 581 0 
L 581 4863 
L 1159 4863 
L 1159 2956 
Q 1366 3272 1645 3428 
Q 1925 3584 2291 3584 
Q 2894 3584 3203 3211 
Q 3513 2838 3513 2113 
z
" transform="scale(0.015625)"/>
      <path id="DejaVuSans-6f" d="M 1959 3097 
Q 1497 3097 1228 2736 
Q 959 2375 959 1747 
Q 959 1119 1226 758 
Q 1494 397 1959 397 
Q 2419 397 2687 759 
Q 2956 1122 2956 1747 
Q 2956 2369 2687 2733 
Q 2419 3097 1959 3097 
z
M 1959 3584 
Q 2709 3584 3137 3096 
Q 3566 2609 3566 1747 
Q 3566 888 3137 398 
Q 2709 -91 1959 -91 
Q 1206 -91 779 398 
Q 353 888 353 1747 
Q 353 2609 779 3096 
Q 1206 3584 1959 3584 
z
" transform="scale(0.015625)"/>
      <path id="DejaVuSans-79" d="M 2059 -325 
Q 1816 -950 1584 -1140 
Q 1353 -1331 966 -1331 
L 506 -1331 
L 506 -850 
L 844 -850 
Q 1081 -850 1212 -737 
Q 1344 -625 1503 -206 
L 1606 56 
L 191 3500 
L 800 3500 
L 1894 763 
L 2988 3500 
L 3597 3500 
L 2059 -325 
z
" transform="scale(0.015625)"/>
     </defs>
     <use xlink:href="#DejaVuSans-67"/>
     <use xlink:href="#DejaVuSans-65" x="63.476562"/>
     <use xlink:href="#DejaVuSans-74" x="125"/>
     <use xlink:href="#DejaVuSans-5f" x="164.208984"/>
     <use xlink:href="#DejaVuSans-73" x="214.208984"/>
     <use xlink:href="#DejaVuSans-75" x="266.308594"/>
     <use xlink:href="#DejaVuSans-62" x="329.6875"/>
     <use xlink:href="#DejaVuSans-73" x="393.164062"/>
     <use xlink:href="#DejaVuSans-63" x="445.263672"/>
     <use xlink:href="#DejaVuSans-72" x="500.244141"/>
     <use xlink:href="#DejaVuSans-69" x="541.357422"/>
     <use xlink:href="#DejaVuSans-62" x="569.140625"/>
     <use xlink:href="#DejaVuSans-65" x="632.617188"/>
     <use xlink:href="#DejaVuSans-20" x="694.140625"/>
     <use xlink:href="#DejaVuSans-68" x="725.927734"/>
     <use xlink:href="#DejaVuSans-69" x="789.306641"/>
     <use xlink:href="#DejaVuSans-73" x="817.089844"/>
     <use xlink:href="#DejaVuSans-74" x="869.189453"/>
     <use xlink:href="#DejaVuSans-6f" x="908.398438"/>
     <use xlink:href="#DejaVuSans-72" x="969.580078"/>
     <use xlink:href="#DejaVuSans-79" x="1010.693359"/>
    </g>
   </g>
   <g id="legend_1">
    <g id="line2d_41">
     <path d="M 815.08 328.498438 
L 825.08 328.498438 
L 835.08 328.498438 
" style="fill: none; stroke: #1f77b4; stroke-width: 1.5; stroke-linecap: square"/>
    </g>
    <g id="text_21">
     <!-- star -->
     <g style="fill: #a9a9a9" transform="translate(843.08 331.998438) scale(0.1 -0.1)">
      <defs>
       <path id="DejaVuSans-61" d="M 2194 1759 
Q 1497 1759 1228 1600 
Q 959 1441 959 1056 
Q 959 750 1161 570 
Q 1363 391 1709 391 
Q 2188 391 2477 730 
Q 2766 1069 2766 1631 
L 2766 1759 
L 2194 1759 
z
M 3341 1997 
L 3341 0 
L 2766 0 
L 2766 531 
Q 2569 213 2275 61 
Q 1981 -91 1556 -91 
Q 1019 -91 701 211 
Q 384 513 384 1019 
Q 384 1609 779 1909 
Q 1175 2209 1959 2209 
L 2766 2209 
L 2766 2266 
Q 2766 2663 2505 2880 
Q 2244 3097 1772 3097 
Q 1472 3097 1187 3025 
Q 903 2953 641 2809 
L 641 3341 
Q 956 3463 1253 3523 
Q 1550 3584 1831 3584 
Q 2591 3584 2966 3190 
Q 3341 2797 3341 1997 
z
" transform="scale(0.015625)"/>
      </defs>
      <use xlink:href="#DejaVuSans-73"/>
      <use xlink:href="#DejaVuSans-74" x="52.099609"/>
      <use xlink:href="#DejaVuSans-61" x="91.308594"/>
      <use xlink:href="#DejaVuSans-72" x="152.587891"/>
     </g>
    </g>
    <g id="line2d_42">
     <path d="M 815.08 343.176562 
L 825.08 343.176562 
L 835.08 343.176562 
" style="fill: none; stroke: #ff7f0e; stroke-width: 1.5; stroke-linecap: square"/>
    </g>
    <g id="text_22">
     <!-- fork -->
     <g style="fill: #a9a9a9" transform="translate(843.08 346.676562) scale(0.1 -0.1)">
      <defs>
       <path id="DejaVuSans-66" d="M 2375 4863 
L 2375 4384 
L 1825 4384 
Q 1516 4384 1395 4259 
Q 1275 4134 1275 3809 
L 1275 3500 
L 2222 3500 
L 2222 3053 
L 1275 3053 
L 1275 0 
L 697 0 
L 697 3053 
L 147 3053 
L 147 3500 
L 697 3500 
L 697 3744 
Q 697 4328 969 4595 
Q 1241 4863 1831 4863 
L 2375 4863 
z
" transform="scale(0.015625)"/>
       <path id="DejaVuSans-6b" d="M 581 4863 
L 1159 4863 
L 1159 1991 
L 2875 3500 
L 3609 3500 
L 1753 1863 
L 3688 0 
L 2938 0 
L 1159 1709 
L 1159 0 
L 581 0 
L 581 4863 
z
" transform="scale(0.015625)"/>
      </defs>
      <use xlink:href="#DejaVuSans-66"/>
      <use xlink:href="#DejaVuSans-6f" x="35.205078"/>
      <use xlink:href="#DejaVuSans-72" x="96.386719"/>
      <use xlink:href="#DejaVuSans-6b" x="137.5"/>
     </g>
    </g>
   </g>
  </g>
 </g>
 <defs>
  <clipPath id="pbe64ccbd90">
   <rect x="108" y="43.2" width="669.6" height="277.2"/>
  </clipPath>
 </defs>
</svg>
