<?xml version="1.0" encoding="utf-8" standalone="no"?>
<!DOCTYPE svg PUBLIC "-//W3C//DTD SVG 1.1//EN"
  "http://www.w3.org/Graphics/SVG/1.1/DTD/svg11.dtd">
<svg xmlns:xlink="http://www.w3.org/1999/xlink" width="864pt" height="360pt" viewBox="0 0 864 360" xmlns="http://www.w3.org/2000/svg" version="1.1">
 <metadata>
  <rdf:RDF xmlns:dc="http://purl.org/dc/elements/1.1/" xmlns:cc="http://creativecommons.org/ns#" xmlns:rdf="http://www.w3.org/1999/02/22-rdf-syntax-ns#">
   <cc:Work>
    <dc:type rdf:resource="http://purl.org/dc/dcmitype/StillImage"/>
    <dc:date>2024-10-14T08:13:56.620810</dc:date>
    <dc:format>image/svg+xml</dc:format>
    <dc:creator>
     <cc:Agent>
      <dc:title>Matplotlib v3.9.2, https://matplotlib.org/</dc:title>
     </cc:Agent>
    </dc:creator>
   </cc:Work>
  </rdf:RDF>
 </metadata>
 <defs>
  <style type="text/css">*{stroke-linejoin: round; stroke-linecap: butt}</style>
 </defs>
 <g id="figure_1">
  <g id="patch_1">
   <path d="M 0 360 
L 864 360 
L 864 0 
L 0 0 
L 0 360 
z
" style="fill: none; opacity: 0"/>
  </g>
  <g id="axes_1">
   <g id="patch_2">
    <path d="M 108 320.4 
L 777.6 320.4 
L 777.6 43.2 
L 108 43.2 
L 108 320.4 
z
" style="fill: none; opacity: 0"/>
   </g>
   <g id="matplotlib.axis_1">
    <g id="xtick_1">
     <g id="line2d_1">
      <path d="M 158.589474 320.4 
L 158.589474 43.2 
" clip-path="url(#p5737b9c6f0)" style="fill: none; stroke-dasharray: 5.12,1.28,0.8,1.28; stroke-dashoffset: 0; stroke: #b0b0b0; stroke-width: 0.8"/>
     </g>
     <g id="line2d_2">
      <defs>
       <path id="ma7e5d25553" d="M 0 0 
L 0 3.5 
" style="stroke: #a9a9a9; stroke-width: 0.8"/>
      </defs>
      <g>
       <use xlink:href="#ma7e5d25553" x="158.589474" y="320.4" style="fill: #a9a9a9; stroke: #a9a9a9; stroke-width: 0.8"/>
      </g>
     </g>
     <g id="text_1">
      <!-- 2021-09 -->
      <g style="fill: #a9a9a9" transform="translate(137.698067 334.998438) scale(0.1 -0.1)">
       <defs>
        <path id="DejaVuSans-32" d="M 1228 531 
L 3431 531 
L 3431 0 
L 469 0 
L 469 531 
Q 828 903 1448 1529 
Q 2069 2156 2228 2338 
Q 2531 2678 2651 2914 
Q 2772 3150 2772 3378 
Q 2772 3750 2511 3984 
Q 2250 4219 1831 4219 
Q 1534 4219 1204 4116 
Q 875 4013 500 3803 
L 500 4441 
Q 881 4594 1212 4672 
Q 1544 4750 1819 4750 
Q 2544 4750 2975 4387 
Q 3406 4025 3406 3419 
Q 3406 3131 3298 2873 
Q 3191 2616 2906 2266 
Q 2828 2175 2409 1742 
Q 1991 1309 1228 531 
z
" transform="scale(0.015625)"/>
        <path id="DejaVuSans-30" d="M 2034 4250 
Q 1547 4250 1301 3770 
Q 1056 3291 1056 2328 
Q 1056 1369 1301 889 
Q 1547 409 2034 409 
Q 2525 409 2770 889 
Q 3016 1369 3016 2328 
Q 3016 3291 2770 3770 
Q 2525 4250 2034 4250 
z
M 2034 4750 
Q 2819 4750 3233 4129 
Q 3647 3509 3647 2328 
Q 3647 1150 3233 529 
Q 2819 -91 2034 -91 
Q 1250 -91 836 529 
Q 422 1150 422 2328 
Q 422 3509 836 4129 
Q 1250 4750 2034 4750 
z
" transform="scale(0.015625)"/>
        <path id="DejaVuSans-31" d="M 794 531 
L 1825 531 
L 1825 4091 
L 703 3866 
L 703 4441 
L 1819 4666 
L 2450 4666 
L 2450 531 
L 3481 531 
L 3481 0 
L 794 0 
L 794 531 
z
" transform="scale(0.015625)"/>
        <path id="DejaVuSans-2d" d="M 313 2009 
L 1997 2009 
L 1997 1497 
L 313 1497 
L 313 2009 
z
" transform="scale(0.015625)"/>
        <path id="DejaVuSans-39" d="M 703 97 
L 703 672 
Q 941 559 1184 500 
Q 1428 441 1663 441 
Q 2288 441 2617 861 
Q 2947 1281 2994 2138 
Q 2813 1869 2534 1725 
Q 2256 1581 1919 1581 
Q 1219 1581 811 2004 
Q 403 2428 403 3163 
Q 403 3881 828 4315 
Q 1253 4750 1959 4750 
Q 2769 4750 3195 4129 
Q 3622 3509 3622 2328 
Q 3622 1225 3098 567 
Q 2575 -91 1691 -91 
Q 1453 -91 1209 -44 
Q 966 3 703 97 
z
M 1959 2075 
Q 2384 2075 2632 2365 
Q 2881 2656 2881 3163 
Q 2881 3666 2632 3958 
Q 2384 4250 1959 4250 
Q 1534 4250 1286 3958 
Q 1038 3666 1038 3163 
Q 1038 2656 1286 2365 
Q 1534 2075 1959 2075 
z
" transform="scale(0.015625)"/>
       </defs>
       <use xlink:href="#DejaVuSans-32"/>
       <use xlink:href="#DejaVuSans-30" x="63.623047"/>
       <use xlink:href="#DejaVuSans-32" x="127.246094"/>
       <use xlink:href="#DejaVuSans-31" x="190.869141"/>
       <use xlink:href="#DejaVuSans-2d" x="254.492188"/>
       <use xlink:href="#DejaVuSans-30" x="290.576172"/>
       <use xlink:href="#DejaVuSans-39" x="354.199219"/>
      </g>
     </g>
    </g>
    <g id="xtick_2">
     <g id="line2d_3">
      <path d="M 221.632536 320.4 
L 221.632536 43.2 
" clip-path="url(#p5737b9c6f0)" style="fill: none; stroke-dasharray: 5.12,1.28,0.8,1.28; stroke-dashoffset: 0; stroke: #b0b0b0; stroke-width: 0.8"/>
     </g>
     <g id="line2d_4">
      <g>
       <use xlink:href="#ma7e5d25553" x="221.632536" y="320.4" style="fill: #a9a9a9; stroke: #a9a9a9; stroke-width: 0.8"/>
      </g>
     </g>
     <g id="text_2">
      <!-- 2022-01 -->
      <g style="fill: #a9a9a9" transform="translate(200.74113 334.998438) scale(0.1 -0.1)">
       <use xlink:href="#DejaVuSans-32"/>
       <use xlink:href="#DejaVuSans-30" x="63.623047"/>
       <use xlink:href="#DejaVuSans-32" x="127.246094"/>
       <use xlink:href="#DejaVuSans-32" x="190.869141"/>
       <use xlink:href="#DejaVuSans-2d" x="254.492188"/>
       <use xlink:href="#DejaVuSans-30" x="290.576172"/>
       <use xlink:href="#DejaVuSans-31" x="354.199219"/>
      </g>
     </g>
    </g>
    <g id="xtick_3">
     <g id="line2d_5">
      <path d="M 283.642105 320.4 
L 283.642105 43.2 
" clip-path="url(#p5737b9c6f0)" style="fill: none; stroke-dasharray: 5.12,1.28,0.8,1.28; stroke-dashoffset: 0; stroke: #b0b0b0; stroke-width: 0.8"/>
     </g>
     <g id="line2d_6">
      <g>
       <use xlink:href="#ma7e5d25553" x="283.642105" y="320.4" style="fill: #a9a9a9; stroke: #a9a9a9; stroke-width: 0.8"/>
      </g>
     </g>
     <g id="text_3">
      <!-- 2022-05 -->
      <g style="fill: #a9a9a9" transform="translate(262.750699 334.998438) scale(0.1 -0.1)">
       <defs>
        <path id="DejaVuSans-35" d="M 691 4666 
L 3169 4666 
L 3169 4134 
L 1269 4134 
L 1269 2991 
Q 1406 3038 1543 3061 
Q 1681 3084 1819 3084 
Q 2600 3084 3056 2656 
Q 3513 2228 3513 1497 
Q 3513 744 3044 326 
Q 2575 -91 1722 -91 
Q 1428 -91 1123 -41 
Q 819 9 494 109 
L 494 744 
Q 775 591 1075 516 
Q 1375 441 1709 441 
Q 2250 441 2565 725 
Q 2881 1009 2881 1497 
Q 2881 1984 2565 2268 
Q 2250 2553 1709 2553 
Q 1456 2553 1204 2497 
Q 953 2441 691 2322 
L 691 4666 
z
" transform="scale(0.015625)"/>
       </defs>
       <use xlink:href="#DejaVuSans-32"/>
       <use xlink:href="#DejaVuSans-30" x="63.623047"/>
       <use xlink:href="#DejaVuSans-32" x="127.246094"/>
       <use xlink:href="#DejaVuSans-32" x="190.869141"/>
       <use xlink:href="#DejaVuSans-2d" x="254.492188"/>
       <use xlink:href="#DejaVuSans-30" x="290.576172"/>
       <use xlink:href="#DejaVuSans-35" x="354.199219"/>
      </g>
     </g>
    </g>
    <g id="xtick_4">
     <g id="line2d_7">
      <path d="M 347.201914 320.4 
L 347.201914 43.2 
" clip-path="url(#p5737b9c6f0)" style="fill: none; stroke-dasharray: 5.12,1.28,0.8,1.28; stroke-dashoffset: 0; stroke: #b0b0b0; stroke-width: 0.8"/>
     </g>
     <g id="line2d_8">
      <g>
       <use xlink:href="#ma7e5d25553" x="347.201914" y="320.4" style="fill: #a9a9a9; stroke: #a9a9a9; stroke-width: 0.8"/>
      </g>
     </g>
     <g id="text_4">
      <!-- 2022-09 -->
      <g style="fill: #a9a9a9" transform="translate(326.310508 334.998438) scale(0.1 -0.1)">
       <use xlink:href="#DejaVuSans-32"/>
       <use xlink:href="#DejaVuSans-30" x="63.623047"/>
       <use xlink:href="#DejaVuSans-32" x="127.246094"/>
       <use xlink:href="#DejaVuSans-32" x="190.869141"/>
       <use xlink:href="#DejaVuSans-2d" x="254.492188"/>
       <use xlink:href="#DejaVuSans-30" x="290.576172"/>
       <use xlink:href="#DejaVuSans-39" x="354.199219"/>
      </g>
     </g>
    </g>
    <g id="xtick_5">
     <g id="line2d_9">
      <path d="M 410.244976 320.4 
L 410.244976 43.2 
" clip-path="url(#p5737b9c6f0)" style="fill: none; stroke-dasharray: 5.12,1.28,0.8,1.28; stroke-dashoffset: 0; stroke: #b0b0b0; stroke-width: 0.8"/>
     </g>
     <g id="line2d_10">
      <g>
       <use xlink:href="#ma7e5d25553" x="410.244976" y="320.4" style="fill: #a9a9a9; stroke: #a9a9a9; stroke-width: 0.8"/>
      </g>
     </g>
     <g id="text_5">
      <!-- 2023-01 -->
      <g style="fill: #a9a9a9" transform="translate(389.35357 334.998438) scale(0.1 -0.1)">
       <defs>
        <path id="DejaVuSans-33" d="M 2597 2516 
Q 3050 2419 3304 2112 
Q 3559 1806 3559 1356 
Q 3559 666 3084 287 
Q 2609 -91 1734 -91 
Q 1441 -91 1130 -33 
Q 819 25 488 141 
L 488 750 
Q 750 597 1062 519 
Q 1375 441 1716 441 
Q 2309 441 2620 675 
Q 2931 909 2931 1356 
Q 2931 1769 2642 2001 
Q 2353 2234 1838 2234 
L 1294 2234 
L 1294 2753 
L 1863 2753 
Q 2328 2753 2575 2939 
Q 2822 3125 2822 3475 
Q 2822 3834 2567 4026 
Q 2313 4219 1838 4219 
Q 1578 4219 1281 4162 
Q 984 4106 628 3988 
L 628 4550 
Q 988 4650 1302 4700 
Q 1616 4750 1894 4750 
Q 2613 4750 3031 4423 
Q 3450 4097 3450 3541 
Q 3450 3153 3228 2886 
Q 3006 2619 2597 2516 
z
" transform="scale(0.015625)"/>
       </defs>
       <use xlink:href="#DejaVuSans-32"/>
       <use xlink:href="#DejaVuSans-30" x="63.623047"/>
       <use xlink:href="#DejaVuSans-32" x="127.246094"/>
       <use xlink:href="#DejaVuSans-33" x="190.869141"/>
       <use xlink:href="#DejaVuSans-2d" x="254.492188"/>
       <use xlink:href="#DejaVuSans-30" x="290.576172"/>
       <use xlink:href="#DejaVuSans-31" x="354.199219"/>
      </g>
     </g>
    </g>
    <g id="xtick_6">
     <g id="line2d_11">
      <path d="M 472.254545 320.4 
L 472.254545 43.2 
" clip-path="url(#p5737b9c6f0)" style="fill: none; stroke-dasharray: 5.12,1.28,0.8,1.28; stroke-dashoffset: 0; stroke: #b0b0b0; stroke-width: 0.8"/>
     </g>
     <g id="line2d_12">
      <g>
       <use xlink:href="#ma7e5d25553" x="472.254545" y="320.4" style="fill: #a9a9a9; stroke: #a9a9a9; stroke-width: 0.8"/>
      </g>
     </g>
     <g id="text_6">
      <!-- 2023-05 -->
      <g style="fill: #a9a9a9" transform="translate(451.363139 334.998438) scale(0.1 -0.1)">
       <use xlink:href="#DejaVuSans-32"/>
       <use xlink:href="#DejaVuSans-30" x="63.623047"/>
       <use xlink:href="#DejaVuSans-32" x="127.246094"/>
       <use xlink:href="#DejaVuSans-33" x="190.869141"/>
       <use xlink:href="#DejaVuSans-2d" x="254.492188"/>
       <use xlink:href="#DejaVuSans-30" x="290.576172"/>
       <use xlink:href="#DejaVuSans-35" x="354.199219"/>
      </g>
     </g>
    </g>
    <g id="xtick_7">
     <g id="line2d_13">
      <path d="M 535.814354 320.4 
L 535.814354 43.2 
" clip-path="url(#p5737b9c6f0)" style="fill: none; stroke-dasharray: 5.12,1.28,0.8,1.28; stroke-dashoffset: 0; stroke: #b0b0b0; stroke-width: 0.8"/>
     </g>
     <g id="line2d_14">
      <g>
       <use xlink:href="#ma7e5d25553" x="535.814354" y="320.4" style="fill: #a9a9a9; stroke: #a9a9a9; stroke-width: 0.8"/>
      </g>
     </g>
     <g id="text_7">
      <!-- 2023-09 -->
      <g style="fill: #a9a9a9" transform="translate(514.922948 334.998438) scale(0.1 -0.1)">
       <use xlink:href="#DejaVuSans-32"/>
       <use xlink:href="#DejaVuSans-30" x="63.623047"/>
       <use xlink:href="#DejaVuSans-32" x="127.246094"/>
       <use xlink:href="#DejaVuSans-33" x="190.869141"/>
       <use xlink:href="#DejaVuSans-2d" x="254.492188"/>
       <use xlink:href="#DejaVuSans-30" x="290.576172"/>
       <use xlink:href="#DejaVuSans-39" x="354.199219"/>
      </g>
     </g>
    </g>
    <g id="xtick_8">
     <g id="line2d_15">
      <path d="M 598.857416 320.4 
L 598.857416 43.2 
" clip-path="url(#p5737b9c6f0)" style="fill: none; stroke-dasharray: 5.12,1.28,0.8,1.28; stroke-dashoffset: 0; stroke: #b0b0b0; stroke-width: 0.8"/>
     </g>
     <g id="line2d_16">
      <g>
       <use xlink:href="#ma7e5d25553" x="598.857416" y="320.4" style="fill: #a9a9a9; stroke: #a9a9a9; stroke-width: 0.8"/>
      </g>
     </g>
     <g id="text_8">
      <!-- 2024-01 -->
      <g style="fill: #a9a9a9" transform="translate(577.96601 334.998438) scale(0.1 -0.1)">
       <defs>
        <path id="DejaVuSans-34" d="M 2419 4116 
L 825 1625 
L 2419 1625 
L 2419 4116 
z
M 2253 4666 
L 3047 4666 
L 3047 1625 
L 3713 1625 
L 3713 1100 
L 3047 1100 
L 3047 0 
L 2419 0 
L 2419 1100 
L 313 1100 
L 313 1709 
L 2253 4666 
z
" transform="scale(0.015625)"/>
       </defs>
       <use xlink:href="#DejaVuSans-32"/>
       <use xlink:href="#DejaVuSans-30" x="63.623047"/>
       <use xlink:href="#DejaVuSans-32" x="127.246094"/>
       <use xlink:href="#DejaVuSans-34" x="190.869141"/>
       <use xlink:href="#DejaVuSans-2d" x="254.492188"/>
       <use xlink:href="#DejaVuSans-30" x="290.576172"/>
       <use xlink:href="#DejaVuSans-31" x="354.199219"/>
      </g>
     </g>
    </g>
    <g id="xtick_9">
     <g id="line2d_17">
      <path d="M 661.383732 320.4 
L 661.383732 43.2 
" clip-path="url(#p5737b9c6f0)" style="fill: none; stroke-dasharray: 5.12,1.28,0.8,1.28; stroke-dashoffset: 0; stroke: #b0b0b0; stroke-width: 0.8"/>
     </g>
     <g id="line2d_18">
      <g>
       <use xlink:href="#ma7e5d25553" x="661.383732" y="320.4" style="fill: #a9a9a9; stroke: #a9a9a9; stroke-width: 0.8"/>
      </g>
     </g>
     <g id="text_9">
      <!-- 2024-05 -->
      <g style="fill: #a9a9a9" transform="translate(640.492326 334.998438) scale(0.1 -0.1)">
       <use xlink:href="#DejaVuSans-32"/>
       <use xlink:href="#DejaVuSans-30" x="63.623047"/>
       <use xlink:href="#DejaVuSans-32" x="127.246094"/>
       <use xlink:href="#DejaVuSans-34" x="190.869141"/>
       <use xlink:href="#DejaVuSans-2d" x="254.492188"/>
       <use xlink:href="#DejaVuSans-30" x="290.576172"/>
       <use xlink:href="#DejaVuSans-35" x="354.199219"/>
      </g>
     </g>
    </g>
    <g id="xtick_10">
     <g id="line2d_19">
      <path d="M 724.943541 320.4 
L 724.943541 43.2 
" clip-path="url(#p5737b9c6f0)" style="fill: none; stroke-dasharray: 5.12,1.28,0.8,1.28; stroke-dashoffset: 0; stroke: #b0b0b0; stroke-width: 0.8"/>
     </g>
     <g id="line2d_20">
      <g>
       <use xlink:href="#ma7e5d25553" x="724.943541" y="320.4" style="fill: #a9a9a9; stroke: #a9a9a9; stroke-width: 0.8"/>
      </g>
     </g>
     <g id="text_10">
      <!-- 2024-09 -->
      <g style="fill: #a9a9a9" transform="translate(704.052134 334.998438) scale(0.1 -0.1)">
       <use xlink:href="#DejaVuSans-32"/>
       <use xlink:href="#DejaVuSans-30" x="63.623047"/>
       <use xlink:href="#DejaVuSans-32" x="127.246094"/>
       <use xlink:href="#DejaVuSans-34" x="190.869141"/>
       <use xlink:href="#DejaVuSans-2d" x="254.492188"/>
       <use xlink:href="#DejaVuSans-30" x="290.576172"/>
       <use xlink:href="#DejaVuSans-39" x="354.199219"/>
      </g>
     </g>
    </g>
   </g>
   <g id="matplotlib.axis_2">
    <g id="ytick_1">
     <g id="line2d_21">
      <path d="M 108 307.837124 
L 777.6 307.837124 
" clip-path="url(#p5737b9c6f0)" style="fill: none; stroke-dasharray: 5.12,1.28,0.8,1.28; stroke-dashoffset: 0; stroke: #b0b0b0; stroke-width: 0.8"/>
     </g>
     <g id="line2d_22">
      <defs>
       <path id="mb1709d174e" d="M 0 0 
L -3.5 0 
" style="stroke: #a9a9a9; stroke-width: 0.8"/>
      </defs>
      <g>
       <use xlink:href="#mb1709d174e" x="108" y="307.837124" style="fill: #a9a9a9; stroke: #a9a9a9; stroke-width: 0.8"/>
      </g>
     </g>
     <g id="text_11">
      <!-- 0 -->
      <g style="fill: #a9a9a9" transform="translate(94.6375 311.636343) scale(0.1 -0.1)">
       <use xlink:href="#DejaVuSans-30"/>
      </g>
     </g>
    </g>
    <g id="ytick_2">
     <g id="line2d_23">
      <path d="M 108 278.137655 
L 777.6 278.137655 
" clip-path="url(#p5737b9c6f0)" style="fill: none; stroke-dasharray: 5.12,1.28,0.8,1.28; stroke-dashoffset: 0; stroke: #b0b0b0; stroke-width: 0.8"/>
     </g>
     <g id="line2d_24">
      <g>
       <use xlink:href="#mb1709d174e" x="108" y="278.137655" style="fill: #a9a9a9; stroke: #a9a9a9; stroke-width: 0.8"/>
      </g>
     </g>
     <g id="text_12">
      <!-- 800 -->
      <g style="fill: #a9a9a9" transform="translate(81.9125 281.936873) scale(0.1 -0.1)">
       <defs>
        <path id="DejaVuSans-38" d="M 2034 2216 
Q 1584 2216 1326 1975 
Q 1069 1734 1069 1313 
Q 1069 891 1326 650 
Q 1584 409 2034 409 
Q 2484 409 2743 651 
Q 3003 894 3003 1313 
Q 3003 1734 2745 1975 
Q 2488 2216 2034 2216 
z
M 1403 2484 
Q 997 2584 770 2862 
Q 544 3141 544 3541 
Q 544 4100 942 4425 
Q 1341 4750 2034 4750 
Q 2731 4750 3128 4425 
Q 3525 4100 3525 3541 
Q 3525 3141 3298 2862 
Q 3072 2584 2669 2484 
Q 3125 2378 3379 2068 
Q 3634 1759 3634 1313 
Q 3634 634 3220 271 
Q 2806 -91 2034 -91 
Q 1263 -91 848 271 
Q 434 634 434 1313 
Q 434 1759 690 2068 
Q 947 2378 1403 2484 
z
M 1172 3481 
Q 1172 3119 1398 2916 
Q 1625 2713 2034 2713 
Q 2441 2713 2670 2916 
Q 2900 3119 2900 3481 
Q 2900 3844 2670 4047 
Q 2441 4250 2034 4250 
Q 1625 4250 1398 4047 
Q 1172 3844 1172 3481 
z
" transform="scale(0.015625)"/>
       </defs>
       <use xlink:href="#DejaVuSans-38"/>
       <use xlink:href="#DejaVuSans-30" x="63.623047"/>
       <use xlink:href="#DejaVuSans-30" x="127.246094"/>
      </g>
     </g>
    </g>
    <g id="ytick_3">
     <g id="line2d_25">
      <path d="M 108 248.438185 
L 777.6 248.438185 
" clip-path="url(#p5737b9c6f0)" style="fill: none; stroke-dasharray: 5.12,1.28,0.8,1.28; stroke-dashoffset: 0; stroke: #b0b0b0; stroke-width: 0.8"/>
     </g>
     <g id="line2d_26">
      <g>
       <use xlink:href="#mb1709d174e" x="108" y="248.438185" style="fill: #a9a9a9; stroke: #a9a9a9; stroke-width: 0.8"/>
      </g>
     </g>
     <g id="text_13">
      <!-- 1600 -->
      <g style="fill: #a9a9a9" transform="translate(75.55 252.237404) scale(0.1 -0.1)">
       <defs>
        <path id="DejaVuSans-36" d="M 2113 2584 
Q 1688 2584 1439 2293 
Q 1191 2003 1191 1497 
Q 1191 994 1439 701 
Q 1688 409 2113 409 
Q 2538 409 2786 701 
Q 3034 994 3034 1497 
Q 3034 2003 2786 2293 
Q 2538 2584 2113 2584 
z
M 3366 4563 
L 3366 3988 
Q 3128 4100 2886 4159 
Q 2644 4219 2406 4219 
Q 1781 4219 1451 3797 
Q 1122 3375 1075 2522 
Q 1259 2794 1537 2939 
Q 1816 3084 2150 3084 
Q 2853 3084 3261 2657 
Q 3669 2231 3669 1497 
Q 3669 778 3244 343 
Q 2819 -91 2113 -91 
Q 1303 -91 875 529 
Q 447 1150 447 2328 
Q 447 3434 972 4092 
Q 1497 4750 2381 4750 
Q 2619 4750 2861 4703 
Q 3103 4656 3366 4563 
z
" transform="scale(0.015625)"/>
       </defs>
       <use xlink:href="#DejaVuSans-31"/>
       <use xlink:href="#DejaVuSans-36" x="63.623047"/>
       <use xlink:href="#DejaVuSans-30" x="127.246094"/>
       <use xlink:href="#DejaVuSans-30" x="190.869141"/>
      </g>
     </g>
    </g>
    <g id="ytick_4">
     <g id="line2d_27">
      <path d="M 108 218.738715 
L 777.6 218.738715 
" clip-path="url(#p5737b9c6f0)" style="fill: none; stroke-dasharray: 5.12,1.28,0.8,1.28; stroke-dashoffset: 0; stroke: #b0b0b0; stroke-width: 0.8"/>
     </g>
     <g id="line2d_28">
      <g>
       <use xlink:href="#mb1709d174e" x="108" y="218.738715" style="fill: #a9a9a9; stroke: #a9a9a9; stroke-width: 0.8"/>
      </g>
     </g>
     <g id="text_14">
      <!-- 2400 -->
      <g style="fill: #a9a9a9" transform="translate(75.55 222.537934) scale(0.1 -0.1)">
       <use xlink:href="#DejaVuSans-32"/>
       <use xlink:href="#DejaVuSans-34" x="63.623047"/>
       <use xlink:href="#DejaVuSans-30" x="127.246094"/>
       <use xlink:href="#DejaVuSans-30" x="190.869141"/>
      </g>
     </g>
    </g>
    <g id="ytick_5">
     <g id="line2d_29">
      <path d="M 108 189.039246 
L 777.6 189.039246 
" clip-path="url(#p5737b9c6f0)" style="fill: none; stroke-dasharray: 5.12,1.28,0.8,1.28; stroke-dashoffset: 0; stroke: #b0b0b0; stroke-width: 0.8"/>
     </g>
     <g id="line2d_30">
      <g>
       <use xlink:href="#mb1709d174e" x="108" y="189.039246" style="fill: #a9a9a9; stroke: #a9a9a9; stroke-width: 0.8"/>
      </g>
     </g>
     <g id="text_15">
      <!-- 3200 -->
      <g style="fill: #a9a9a9" transform="translate(75.55 192.838464) scale(0.1 -0.1)">
       <use xlink:href="#DejaVuSans-33"/>
       <use xlink:href="#DejaVuSans-32" x="63.623047"/>
       <use xlink:href="#DejaVuSans-30" x="127.246094"/>
       <use xlink:href="#DejaVuSans-30" x="190.869141"/>
      </g>
     </g>
    </g>
    <g id="ytick_6">
     <g id="line2d_31">
      <path d="M 108 159.339776 
L 777.6 159.339776 
" clip-path="url(#p5737b9c6f0)" style="fill: none; stroke-dasharray: 5.12,1.28,0.8,1.28; stroke-dashoffset: 0; stroke: #b0b0b0; stroke-width: 0.8"/>
     </g>
     <g id="line2d_32">
      <g>
       <use xlink:href="#mb1709d174e" x="108" y="159.339776" style="fill: #a9a9a9; stroke: #a9a9a9; stroke-width: 0.8"/>
      </g>
     </g>
     <g id="text_16">
      <!-- 4000 -->
      <g style="fill: #a9a9a9" transform="translate(75.55 163.138995) scale(0.1 -0.1)">
       <use xlink:href="#DejaVuSans-34"/>
       <use xlink:href="#DejaVuSans-30" x="63.623047"/>
       <use xlink:href="#DejaVuSans-30" x="127.246094"/>
       <use xlink:href="#DejaVuSans-30" x="190.869141"/>
      </g>
     </g>
    </g>
    <g id="ytick_7">
     <g id="line2d_33">
      <path d="M 108 129.640306 
L 777.6 129.640306 
" clip-path="url(#p5737b9c6f0)" style="fill: none; stroke-dasharray: 5.12,1.28,0.8,1.28; stroke-dashoffset: 0; stroke: #b0b0b0; stroke-width: 0.8"/>
     </g>
     <g id="line2d_34">
      <g>
       <use xlink:href="#mb1709d174e" x="108" y="129.640306" style="fill: #a9a9a9; stroke: #a9a9a9; stroke-width: 0.8"/>
      </g>
     </g>
     <g id="text_17">
      <!-- 4800 -->
      <g style="fill: #a9a9a9" transform="translate(75.55 133.439525) scale(0.1 -0.1)">
       <use xlink:href="#DejaVuSans-34"/>
       <use xlink:href="#DejaVuSans-38" x="63.623047"/>
       <use xlink:href="#DejaVuSans-30" x="127.246094"/>
       <use xlink:href="#DejaVuSans-30" x="190.869141"/>
      </g>
     </g>
    </g>
    <g id="ytick_8">
     <g id="line2d_35">
      <path d="M 108 99.940837 
L 777.6 99.940837 
" clip-path="url(#p5737b9c6f0)" style="fill: none; stroke-dasharray: 5.12,1.28,0.8,1.28; stroke-dashoffset: 0; stroke: #b0b0b0; stroke-width: 0.8"/>
     </g>
     <g id="line2d_36">
      <g>
       <use xlink:href="#mb1709d174e" x="108" y="99.940837" style="fill: #a9a9a9; stroke: #a9a9a9; stroke-width: 0.8"/>
      </g>
     </g>
     <g id="text_18">
      <!-- 5600 -->
      <g style="fill: #a9a9a9" transform="translate(75.55 103.740056) scale(0.1 -0.1)">
       <use xlink:href="#DejaVuSans-35"/>
       <use xlink:href="#DejaVuSans-36" x="63.623047"/>
       <use xlink:href="#DejaVuSans-30" x="127.246094"/>
       <use xlink:href="#DejaVuSans-30" x="190.869141"/>
      </g>
     </g>
    </g>
    <g id="ytick_9">
     <g id="line2d_37">
      <path d="M 108 70.241367 
L 777.6 70.241367 
" clip-path="url(#p5737b9c6f0)" style="fill: none; stroke-dasharray: 5.12,1.28,0.8,1.28; stroke-dashoffset: 0; stroke: #b0b0b0; stroke-width: 0.8"/>
     </g>
     <g id="line2d_38">
      <g>
       <use xlink:href="#mb1709d174e" x="108" y="70.241367" style="fill: #a9a9a9; stroke: #a9a9a9; stroke-width: 0.8"/>
      </g>
     </g>
     <g id="text_19">
      <!-- 6400 -->
      <g style="fill: #a9a9a9" transform="translate(75.55 74.040586) scale(0.1 -0.1)">
       <use xlink:href="#DejaVuSans-36"/>
       <use xlink:href="#DejaVuSans-34" x="63.623047"/>
       <use xlink:href="#DejaVuSans-30" x="127.246094"/>
       <use xlink:href="#DejaVuSans-30" x="190.869141"/>
      </g>
     </g>
    </g>
   </g>
   <g id="line2d_39">
    <path d="M 138.436364 307.725751 
L 141.536842 307.465881 
L 142.053589 307.243135 
L 144.120574 306.983265 
L 146.18756 306.574897 
L 147.221053 306.4264 
L 149.804785 306.203654 
L 150.838278 305.795286 
L 151.355024 305.127048 
L 151.87177 304.755804 
L 152.388517 303.60495 
L 152.905263 303.530701 
L 153.42201 303.122334 
L 154.455502 302.602593 
L 156.522488 300.969122 
L 158.589474 299.966765 
L 160.139713 299.261402 
L 160.656459 298.444667 
L 161.689952 297.70218 
L 162.206699 297.479434 
L 167.374163 296.736948 
L 167.890909 296.514202 
L 171.508134 296.217207 
L 173.57512 295.73459 
L 177.709091 295.177725 
L 178.225837 294.917855 
L 178.742584 294.843606 
L 179.776077 294.509487 
L 183.393301 293.915498 
L 184.426794 293.618503 
L 189.077512 292.838892 
L 190.111005 292.616146 
L 191.144498 292.579022 
L 193.211483 292.096405 
L 193.72823 291.391043 
L 195.278469 290.797054 
L 196.828708 290.388686 
L 197.345455 290.128816 
L 198.378947 289.943194 
L 200.445933 289.349204 
L 201.479426 289.274956 
L 202.512919 289.015085 
L 204.579904 288.495345 
L 205.096651 288.45822 
L 206.130144 287.975604 
L 206.64689 287.901355 
L 207.163636 287.641485 
L 212.847847 286.713377 
L 214.914833 286.119387 
L 215.431579 285.785268 
L 218.015311 284.931408 
L 219.048804 284.226046 
L 220.599043 283.929051 
L 230.417225 281.070477 
L 231.450718 280.66211 
L 232.484211 280.587861 
L 234.03445 280.142369 
L 234.551196 280.142369 
L 235.067943 279.919623 
L 236.101435 279.80825 
L 236.618182 279.622628 
L 237.651675 279.585504 
L 239.71866 279.325633 
L 240.752153 278.805893 
L 246.95311 276.021567 
L 247.469856 275.464702 
L 248.503349 273.90548 
L 249.020096 273.756983 
L 249.536842 273.756983 
L 250.570335 272.977372 
L 252.120574 272.457631 
L 252.637321 271.975015 
L 253.670813 271.566647 
L 254.704306 271.084031 
L 255.737799 269.599057 
L 256.254545 269.264938 
L 256.771292 268.373954 
L 257.288038 267.817089 
L 260.388517 266.183618 
L 261.42201 265.366883 
L 261.938756 265.032764 
L 262.455502 264.253153 
L 262.972249 263.102298 
L 263.488995 262.322687 
L 264.005742 261.914319 
L 264.522488 261.691573 
L 268.139713 258.647378 
L 269.173206 257.422275 
L 270.206699 256.679788 
L 271.756938 255.640306 
L 272.273684 255.194814 
L 273.307177 254.860695 
L 274.857416 253.969711 
L 276.407656 252.967354 
L 278.474641 251.111137 
L 279.508134 250.70277 
L 280.541627 249.997407 
L 281.058373 249.700412 
L 281.57512 249.626164 
L 285.192344 247.361579 
L 287.25933 246.247849 
L 287.776077 245.765233 
L 296.044019 242.869534 
L 297.077512 241.941426 
L 298.111005 241.45881 
L 299.144498 240.901945 
L 299.661244 240.60495 
L 300.694737 240.307955 
L 301.211483 239.973836 
L 301.72823 239.825339 
L 303.278469 238.822982 
L 305.862201 238.228992 
L 307.41244 237.338008 
L 308.962679 237.003889 
L 309.479426 236.855392 
L 311.029665 235.667413 
L 313.096651 235.110548 
L 313.613397 234.70218 
L 316.713876 233.662699 
L 317.747368 233.477077 
L 318.780861 233.068709 
L 322.398086 231.769358 
L 323.431579 231.62086 
L 324.981818 231.10112 
L 327.56555 229.876016 
L 329.632536 228.762286 
L 333.766507 227.091691 
L 334.283254 227.017443 
L 335.316746 226.386329 
L 335.833493 226.31208 
L 337.900478 225.45822 
L 339.967464 225.161226 
L 341.000957 224.641485 
L 341.517703 224.195993 
L 342.03445 223.267885 
L 344.101435 222.711019 
L 345.651675 221.931408 
L 346.168421 221.820035 
L 350.302392 219.852445 
L 351.852632 219.555451 
L 352.886124 219.03571 
L 353.402871 218.812964 
L 353.919617 218.738715 
L 355.986603 217.810607 
L 357.536842 216.845374 
L 359.087081 216.548379 
L 361.670813 215.917266 
L 362.18756 215.508898 
L 363.737799 214.952033 
L 365.804785 214.135298 
L 366.321531 213.764054 
L 366.838278 213.578433 
L 367.87177 213.021567 
L 370.455502 212.167708 
L 372.005742 210.942605 
L 372.522488 210.831232 
L 373.555981 210.014496 
L 374.072727 209.940247 
L 374.589474 209.123512 
L 375.10622 208.900766 
L 375.622967 208.492398 
L 376.139713 208.41815 
L 377.173206 207.787036 
L 378.206699 207.452917 
L 378.723445 207.044549 
L 379.240191 206.858928 
L 380.790431 205.782322 
L 382.857416 204.705716 
L 383.374163 204.631467 
L 384.924402 203.851856 
L 385.441148 202.997996 
L 385.957895 202.552504 
L 386.474641 202.25551 
L 386.991388 202.144137 
L 388.02488 201.475899 
L 388.541627 201.364526 
L 389.57512 200.844785 
L 391.642105 199.842428 
L 392.158852 199.471184 
L 393.192344 198.468827 
L 394.225837 197.837714 
L 394.742584 197.503595 
L 395.25933 196.94673 
L 397.326316 195.536005 
L 397.843062 194.942015 
L 398.359809 194.533648 
L 399.393301 194.162404 
L 400.426794 193.457042 
L 401.977033 192.677431 
L 402.49378 192.603182 
L 404.044019 191.786447 
L 405.077512 191.155333 
L 410.244976 189.299116 
L 410.761722 188.890748 
L 412.828708 188.111137 
L 413.345455 187.96264 
L 413.862201 187.554272 
L 416.445933 186.143547 
L 417.479426 184.101709 
L 418.512919 182.91373 
L 419.546411 182.282616 
L 421.096651 181.651503 
L 421.613397 181.577254 
L 422.130144 181.280259 
L 424.713876 180.463524 
L 425.230622 180.240778 
L 426.264115 179.535415 
L 427.814354 178.867177 
L 428.847847 178.310312 
L 429.364593 177.939069 
L 429.88134 177.716323 
L 430.398086 177.34508 
L 430.914833 176.788214 
L 431.948325 176.231349 
L 434.532057 174.857749 
L 437.632536 173.335651 
L 438.666029 173.001532 
L 440.216268 172.518916 
L 442.283254 171.590807 
L 443.316746 171.18244 
L 443.833493 170.774072 
L 444.866986 170.439953 
L 447.967464 168.843606 
L 449.000957 168.026871 
L 450.03445 167.655628 
L 450.551196 167.210136 
L 451.067943 167.135887 
L 452.101435 166.356276 
L 453.134928 165.836535 
L 453.651675 165.613789 
L 454.168421 165.094048 
L 457.785646 163.683324 
L 458.819139 163.237831 
L 460.369378 162.755215 
L 461.402871 162.606718 
L 461.919617 162.383972 
L 462.436364 162.309723 
L 463.469856 161.864231 
L 463.986603 161.827107 
L 466.053589 161.047496 
L 467.603828 159.97089 
L 468.120574 159.785268 
L 469.154067 159.228403 
L 469.670813 159.079906 
L 472.771292 157.372186 
L 473.288038 157.260813 
L 474.838278 156.369829 
L 476.388517 155.850088 
L 477.42201 155.515969 
L 479.488995 154.847731 
L 480.522488 154.513612 
L 482.589474 154.105245 
L 483.10622 153.882499 
L 483.622967 153.80825 
L 484.656459 153.362758 
L 485.173206 153.288509 
L 485.689952 153.028639 
L 486.723445 152.843017 
L 488.273684 152.286152 
L 489.307177 152.174779 
L 490.857416 151.84066 
L 493.441148 151.395168 
L 506.876555 147.534237 
L 507.393301 147.014496 
L 508.426794 146.606128 
L 511.527273 145.492398 
L 512.044019 145.158279 
L 512.560766 145.046906 
L 513.077512 144.749912 
L 514.627751 144.30442 
L 515.661244 144.044549 
L 516.17799 143.71043 
L 516.694737 143.599057 
L 517.211483 143.153565 
L 518.761722 142.85657 
L 519.795215 142.373954 
L 520.311962 141.779965 
L 522.378947 141.297348 
L 525.996172 140.554862 
L 526.512919 140.554862 
L 527.029665 140.332115 
L 529.096651 139.960872 
L 529.613397 139.738126 
L 531.680383 139.366883 
L 532.713876 138.921391 
L 533.747368 138.735769 
L 536.3311 138.104655 
L 538.398086 137.473542 
L 538.914833 137.362169 
L 539.431579 137.102298 
L 540.465072 136.842428 
L 540.981818 136.545433 
L 542.532057 136.025692 
L 543.048804 135.654449 
L 544.082297 135.357454 
L 545.115789 135.023335 
L 546.149282 134.614968 
L 547.699522 133.94673 
L 549.766507 133.686859 
L 553.900478 132.23901 
L 554.417225 131.867767 
L 554.933971 131.756394 
L 555.450718 131.496523 
L 555.967464 131.459399 
L 561.651675 129.491809 
L 564.235407 128.823571 
L 565.2689 128.340955 
L 566.819139 128.006836 
L 567.335885 127.598468 
L 567.852632 127.338598 
L 568.369378 126.707484 
L 568.886124 126.33624 
L 569.919617 126.039246 
L 570.436364 125.630878 
L 573.536842 124.480024 
L 574.053589 124.145905 
L 575.087081 123.84891 
L 575.603828 123.514791 
L 578.18756 122.698055 
L 579.737799 121.807071 
L 580.254545 121.695698 
L 582.838278 120.322098 
L 584.388517 119.616735 
L 584.905263 119.245492 
L 585.938756 118.911373 
L 586.972249 118.317384 
L 587.488995 118.131762 
L 588.005742 117.760519 
L 594.723445 115.421685 
L 595.240191 115.310312 
L 595.756938 114.976193 
L 597.823923 114.567826 
L 598.857416 114.159458 
L 599.374163 113.862463 
L 599.890909 113.713966 
L 601.957895 112.63736 
L 602.474641 112.563111 
L 604.02488 111.709252 
L 607.125359 110.484148 
L 609.192344 109.667413 
L 609.709091 109.518916 
L 610.225837 109.184797 
L 611.25933 109.036299 
L 611.776077 108.70218 
L 612.809569 108.516559 
L 613.843062 108.033942 
L 614.359809 107.811196 
L 614.876555 107.736948 
L 617.460287 106.73459 
L 619.010526 106.326223 
L 620.044019 106.066352 
L 621.594258 105.62086 
L 622.627751 105.212493 
L 624.694737 104.098763 
L 625.72823 103.690395 
L 626.244976 103.356276 
L 627.278469 103.13353 
L 627.795215 102.836535 
L 628.311962 102.725162 
L 629.862201 101.871302 
L 630.895694 101.462935 
L 632.445933 100.757572 
L 633.996172 100.349204 
L 637.096651 99.124101 
L 639.163636 98.418739 
L 640.713876 97.861874 
L 641.230622 97.676252 
L 642.264115 97.119387 
L 644.3311 96.191279 
L 649.498565 94.223689 
L 650.015311 93.852445 
L 652.082297 93.147083 
L 652.599043 93.147083 
L 653.632536 92.701591 
L 654.666029 91.773483 
L 655.182775 91.327991 
L 656.733014 90.585504 
L 657.249761 90.474131 
L 657.766507 90.21426 
L 658.283254 90.140012 
L 658.8 89.768768 
L 659.316746 89.657395 
L 660.350239 89.026282 
L 661.900478 88.246671 
L 662.933971 87.838303 
L 663.450718 87.578433 
L 666.03445 86.947319 
L 666.551196 86.687448 
L 668.101435 86.241956 
L 670.168421 85.239599 
L 671.201914 84.756983 
L 672.235407 84.497113 
L 674.302392 83.569004 
L 674.819139 83.420507 
L 675.335885 83.086388 
L 678.436364 81.972658 
L 679.986603 81.044549 
L 680.503349 80.933176 
L 681.536842 80.413435 
L 682.570335 80.042192 
L 683.087081 79.5967 
L 684.120574 79.188332 
L 685.670813 78.557219 
L 686.18756 78.148851 
L 686.704306 78.111727 
L 687.737799 77.814732 
L 688.771292 77.480613 
L 689.288038 77.220742 
L 689.804785 77.146494 
L 691.355024 76.589629 
L 692.905263 76.032764 
L 693.938756 75.624396 
L 694.455502 75.216028 
L 696.005742 74.807661 
L 696.522488 74.510666 
L 697.555981 74.250796 
L 699.10622 73.396936 
L 699.622967 73.359811 
L 701.173206 72.877195 
L 702.206699 72.765822 
L 703.240191 72.357454 
L 706.34067 71.46647 
L 707.374163 71.429346 
L 710.474641 70.426989 
L 710.991388 70.35274 
L 712.541627 69.536005 
L 713.058373 69.090513 
L 714.608612 68.199529 
L 715.125359 67.791161 
L 716.158852 67.382793 
L 717.709091 66.937301 
L 718.225837 66.640306 
L 718.742584 66.528933 
L 719.25933 66.120566 
L 722.359809 64.858338 
L 724.426794 64.301473 
L 727.010526 63.150619 
L 727.527273 62.8165 
L 728.560766 62.630878 
L 731.144498 61.442899 
L 731.661244 61.145905 
L 733.211483 60.737537 
L 734.761722 59.698055 
L 735.278469 59.623807 
L 737.862201 58.584325 
L 739.41244 58.213082 
L 739.929187 58.138833 
L 740.445933 57.916087 
L 740.962679 57.878963 
L 741.996172 57.50772 
L 742.512919 57.470595 
L 744.063158 56.876606 
L 746.130144 56.282616 
L 746.64689 55.8 
L 747.163636 55.8 
L 747.163636 55.8 
" clip-path="url(#p5737b9c6f0)" style="fill: none; stroke: #1f77b4; stroke-width: 1.5; stroke-linecap: square"/>
   </g>
   <g id="line2d_40">
    <path d="M 138.95311 307.8 
L 140.503349 307.725751 
L 142.570335 307.688627 
L 145.154067 307.614378 
L 148.254545 307.503005 
L 149.804785 307.503005 
L 150.321531 307.354508 
L 152.388517 307.280259 
L 165.307177 306.463524 
L 168.407656 306.389275 
L 170.474641 306.352151 
L 175.642105 306.277902 
L 178.742584 306.166529 
L 181.326316 306.09228 
L 184.426794 305.980907 
L 190.111005 305.906659 
L 195.278469 305.646788 
L 197.345455 305.57254 
L 199.929187 305.498291 
L 203.029665 305.424042 
L 205.096651 305.238421 
L 207.680383 305.164172 
L 210.780861 305.052799 
L 212.3311 304.97855 
L 215.948325 304.830053 
L 217.498565 304.792929 
L 220.082297 304.495934 
L 222.666029 304.421685 
L 224.216268 304.310312 
L 227.833493 304.161815 
L 229.383732 304.087566 
L 236.618182 303.679199 
L 238.685167 303.60495 
L 242.302392 303.456453 
L 245.919617 303.382204 
L 246.95311 303.270831 
L 256.254545 302.49122 
L 257.288038 302.231349 
L 262.972249 301.711609 
L 264.522488 301.563111 
L 267.622967 301.488863 
L 269.173206 301.340365 
L 270.206699 301.303241 
L 271.756938 301.191868 
L 272.790431 301.117619 
L 274.34067 300.894873 
L 274.857416 300.894873 
L 276.407656 300.672127 
L 281.058373 300.449381 
L 282.608612 300.375133 
L 285.192344 300.115262 
L 286.225837 299.929641 
L 287.776077 299.892516 
L 288.809569 299.818268 
L 291.393301 299.744019 
L 298.627751 299.335651 
L 299.661244 299.261402 
L 306.895694 298.853035 
L 309.996172 298.778786 
L 311.029665 298.667413 
L 314.64689 298.593164 
L 318.780861 298.407543 
L 323.948325 298.333294 
L 328.082297 298.147672 
L 331.699522 298.073424 
L 336.350239 297.850678 
L 339.450718 297.776429 
L 349.785646 297.145315 
L 354.436364 297.071067 
L 357.020096 296.811196 
L 359.603828 296.774072 
L 362.18756 296.514202 
L 367.355024 296.254331 
L 369.938756 296.180082 
L 372.005742 296.142958 
L 373.039234 296.105834 
L 374.589474 295.957336 
L 378.723445 295.883088 
L 379.756938 295.73459 
L 380.790431 295.660342 
L 386.474641 295.363347 
L 390.091866 295.326223 
L 391.642105 295.21485 
L 405.594258 294.323866 
L 407.144498 294.249617 
L 410.244976 294.138244 
L 416.962679 294.063995 
L 421.096651 293.878374 
L 424.713876 293.804125 
L 427.814354 293.692752 
L 429.364593 293.618503 
L 435.048804 293.321509 
L 436.082297 293.24726 
L 438.666029 293.173011 
L 440.733014 293.098763 
L 443.833493 292.98739 
L 446.933971 292.913141 
L 449.517703 292.838892 
L 455.201914 292.764643 
L 458.302392 292.65327 
L 460.886124 292.579022 
L 462.95311 292.3934 
L 465.020096 292.356276 
L 466.570335 292.282027 
L 468.120574 292.170654 
L 473.804785 292.096405 
L 477.42201 291.947908 
L 486.723445 291.910784 
L 488.273684 291.799411 
L 496.02488 291.725162 
L 497.058373 291.650913 
L 502.742584 291.576665 
L 505.326316 291.502416 
L 514.627751 291.428167 
L 516.694737 291.391043 
L 520.828708 291.316794 
L 521.862201 291.242546 
L 534.264115 291.168297 
L 536.3311 291.131173 
L 549.766507 291.056924 
L 551.833493 291.0198 
L 560.618182 290.945551 
L 561.651675 290.871302 
L 564.235407 290.797054 
L 565.785646 290.648556 
L 568.369378 290.574308 
L 572.503349 290.388686 
L 575.603828 290.351562 
L 576.637321 290.277313 
L 580.771292 290.203064 
L 584.905263 290.017443 
L 586.972249 289.943194 
L 591.10622 289.757572 
L 593.689952 289.683324 
L 596.273684 289.609075 
L 602.474641 289.534826 
L 605.058373 289.460577 
L 608.675598 289.386329 
L 612.809569 289.200707 
L 616.943541 289.126458 
L 617.977033 289.05221 
L 627.278469 288.977961 
L 629.345455 288.940837 
L 631.41244 288.903712 
L 633.996172 288.643842 
L 638.130144 288.569593 
L 643.814354 288.272599 
L 645.88134 288.19835 
L 648.981818 288.086977 
L 653.632536 288.049853 
L 656.733014 287.715734 
L 660.350239 287.641485 
L 663.967464 287.492988 
L 667.067943 287.418739 
L 670.168421 287.307366 
L 676.369378 287.270242 
L 677.402871 287.158869 
L 681.020096 287.08462 
L 684.120574 286.973247 
L 692.388517 286.936123 
L 693.42201 286.861874 
L 697.555981 286.787625 
L 699.622967 286.750501 
L 705.307177 286.676252 
L 707.890909 286.602004 
L 713.058373 286.527755 
L 714.091866 286.416382 
L 718.742584 286.379258 
L 719.776077 286.305009 
L 722.359809 286.23076 
L 724.426794 286.193636 
L 730.627751 286.119387 
L 734.244976 285.97089 
L 735.278469 285.97089 
L 736.311962 285.785268 
L 743.029665 285.711019 
L 746.64689 285.562522 
L 747.163636 285.562522 
L 747.163636 285.562522 
" clip-path="url(#p5737b9c6f0)" style="fill: none; stroke: #ff7f0e; stroke-width: 1.5; stroke-linecap: square"/>
   </g>
   <g id="patch_3">
    <path d="M 108 320.4 
L 108 43.2 
" style="fill: none; stroke: #a9a9a9; stroke-width: 0.8; stroke-linejoin: miter; stroke-linecap: square"/>
   </g>
   <g id="patch_4">
    <path d="M 777.6 320.4 
L 777.6 43.2 
" style="fill: none"/>
   </g>
   <g id="patch_5">
    <path d="M 108 320.4 
L 777.6 320.4 
" style="fill: none; stroke: #a9a9a9; stroke-width: 0.8; stroke-linejoin: miter; stroke-linecap: square"/>
   </g>
   <g id="patch_6">
    <path d="M 108 43.2 
L 777.6 43.2 
" style="fill: none"/>
   </g>
   <g id="text_20">
    <!-- get_subscribe history -->
    <g style="fill: #a9a9a9" transform="translate(378.6075 37.2) scale(0.12 -0.12)">
     <defs>
      <path id="DejaVuSans-67" d="M 2906 1791 
Q 2906 2416 2648 2759 
Q 2391 3103 1925 3103 
Q 1463 3103 1205 2759 
Q 947 2416 947 1791 
Q 947 1169 1205 825 
Q 1463 481 1925 481 
Q 2391 481 2648 825 
Q 2906 1169 2906 1791 
z
M 3481 434 
Q 3481 -459 3084 -895 
Q 2688 -1331 1869 -1331 
Q 1566 -1331 1297 -1286 
Q 1028 -1241 775 -1147 
L 775 -588 
Q 1028 -725 1275 -790 
Q 1522 -856 1778 -856 
Q 2344 -856 2625 -561 
Q 2906 -266 2906 331 
L 2906 616 
Q 2728 306 2450 153 
Q 2172 0 1784 0 
Q 1141 0 747 490 
Q 353 981 353 1791 
Q 353 2603 747 3093 
Q 1141 3584 1784 3584 
Q 2172 3584 2450 3431 
Q 2728 3278 2906 2969 
L 2906 3500 
L 3481 3500 
L 3481 434 
z
" transform="scale(0.015625)"/>
      <path id="DejaVuSans-65" d="M 3597 1894 
L 3597 1613 
L 953 1613 
Q 991 1019 1311 708 
Q 1631 397 2203 397 
Q 2534 397 2845 478 
Q 3156 559 3463 722 
L 3463 178 
Q 3153 47 2828 -22 
Q 2503 -91 2169 -91 
Q 1331 -91 842 396 
Q 353 884 353 1716 
Q 353 2575 817 3079 
Q 1281 3584 2069 3584 
Q 2775 3584 3186 3129 
Q 3597 2675 3597 1894 
z
M 3022 2063 
Q 3016 2534 2758 2815 
Q 2500 3097 2075 3097 
Q 1594 3097 1305 2825 
Q 1016 2553 972 2059 
L 3022 2063 
z
" transform="scale(0.015625)"/>
      <path id="DejaVuSans-74" d="M 1172 4494 
L 1172 3500 
L 2356 3500 
L 2356 3053 
L 1172 3053 
L 1172 1153 
Q 1172 725 1289 603 
Q 1406 481 1766 481 
L 2356 481 
L 2356 0 
L 1766 0 
Q 1100 0 847 248 
Q 594 497 594 1153 
L 594 3053 
L 172 3053 
L 172 3500 
L 594 3500 
L 594 4494 
L 1172 4494 
z
" transform="scale(0.015625)"/>
      <path id="DejaVuSans-5f" d="M 3263 -1063 
L 3263 -1509 
L -63 -1509 
L -63 -1063 
L 3263 -1063 
z
" transform="scale(0.015625)"/>
      <path id="DejaVuSans-73" d="M 2834 3397 
L 2834 2853 
Q 2591 2978 2328 3040 
Q 2066 3103 1784 3103 
Q 1356 3103 1142 2972 
Q 928 2841 928 2578 
Q 928 2378 1081 2264 
Q 1234 2150 1697 2047 
L 1894 2003 
Q 2506 1872 2764 1633 
Q 3022 1394 3022 966 
Q 3022 478 2636 193 
Q 2250 -91 1575 -91 
Q 1294 -91 989 -36 
Q 684 19 347 128 
L 347 722 
Q 666 556 975 473 
Q 1284 391 1588 391 
Q 1994 391 2212 530 
Q 2431 669 2431 922 
Q 2431 1156 2273 1281 
Q 2116 1406 1581 1522 
L 1381 1569 
Q 847 1681 609 1914 
Q 372 2147 372 2553 
Q 372 3047 722 3315 
Q 1072 3584 1716 3584 
Q 2034 3584 2315 3537 
Q 2597 3491 2834 3397 
z
" transform="scale(0.015625)"/>
      <path id="DejaVuSans-75" d="M 544 1381 
L 544 3500 
L 1119 3500 
L 1119 1403 
Q 1119 906 1312 657 
Q 1506 409 1894 409 
Q 2359 409 2629 706 
Q 2900 1003 2900 1516 
L 2900 3500 
L 3475 3500 
L 3475 0 
L 2900 0 
L 2900 538 
Q 2691 219 2414 64 
Q 2138 -91 1772 -91 
Q 1169 -91 856 284 
Q 544 659 544 1381 
z
M 1991 3584 
L 1991 3584 
z
" transform="scale(0.015625)"/>
      <path id="DejaVuSans-62" d="M 3116 1747 
Q 3116 2381 2855 2742 
Q 2594 3103 2138 3103 
Q 1681 3103 1420 2742 
Q 1159 2381 1159 1747 
Q 1159 1113 1420 752 
Q 1681 391 2138 391 
Q 2594 391 2855 752 
Q 3116 1113 3116 1747 
z
M 1159 2969 
Q 1341 3281 1617 3432 
Q 1894 3584 2278 3584 
Q 2916 3584 3314 3078 
Q 3713 2572 3713 1747 
Q 3713 922 3314 415 
Q 2916 -91 2278 -91 
Q 1894 -91 1617 61 
Q 1341 213 1159 525 
L 1159 0 
L 581 0 
L 581 4863 
L 1159 4863 
L 1159 2969 
z
" transform="scale(0.015625)"/>
      <path id="DejaVuSans-63" d="M 3122 3366 
L 3122 2828 
Q 2878 2963 2633 3030 
Q 2388 3097 2138 3097 
Q 1578 3097 1268 2742 
Q 959 2388 959 1747 
Q 959 1106 1268 751 
Q 1578 397 2138 397 
Q 2388 397 2633 464 
Q 2878 531 3122 666 
L 3122 134 
Q 2881 22 2623 -34 
Q 2366 -91 2075 -91 
Q 1284 -91 818 406 
Q 353 903 353 1747 
Q 353 2603 823 3093 
Q 1294 3584 2113 3584 
Q 2378 3584 2631 3529 
Q 2884 3475 3122 3366 
z
" transform="scale(0.015625)"/>
      <path id="DejaVuSans-72" d="M 2631 2963 
Q 2534 3019 2420 3045 
Q 2306 3072 2169 3072 
Q 1681 3072 1420 2755 
Q 1159 2438 1159 1844 
L 1159 0 
L 581 0 
L 581 3500 
L 1159 3500 
L 1159 2956 
Q 1341 3275 1631 3429 
Q 1922 3584 2338 3584 
Q 2397 3584 2469 3576 
Q 2541 3569 2628 3553 
L 2631 2963 
z
" transform="scale(0.015625)"/>
      <path id="DejaVuSans-69" d="M 603 3500 
L 1178 3500 
L 1178 0 
L 603 0 
L 603 3500 
z
M 603 4863 
L 1178 4863 
L 1178 4134 
L 603 4134 
L 603 4863 
z
" transform="scale(0.015625)"/>
      <path id="DejaVuSans-20" transform="scale(0.015625)"/>
      <path id="DejaVuSans-68" d="M 3513 2113 
L 3513 0 
L 2938 0 
L 2938 2094 
Q 2938 2591 2744 2837 
Q 2550 3084 2163 3084 
Q 1697 3084 1428 2787 
Q 1159 2491 1159 1978 
L 1159 0 
L 581 0 
L 581 4863 
L 1159 4863 
L 1159 2956 
Q 1366 3272 1645 3428 
Q 1925 3584 2291 3584 
Q 2894 3584 3203 3211 
Q 3513 2838 3513 2113 
z
" transform="scale(0.015625)"/>
      <path id="DejaVuSans-6f" d="M 1959 3097 
Q 1497 3097 1228 2736 
Q 959 2375 959 1747 
Q 959 1119 1226 758 
Q 1494 397 1959 397 
Q 2419 397 2687 759 
Q 2956 1122 2956 1747 
Q 2956 2369 2687 2733 
Q 2419 3097 1959 3097 
z
M 1959 3584 
Q 2709 3584 3137 3096 
Q 3566 2609 3566 1747 
Q 3566 888 3137 398 
Q 2709 -91 1959 -91 
Q 1206 -91 779 398 
Q 353 888 353 1747 
Q 353 2609 779 3096 
Q 1206 3584 1959 3584 
z
" transform="scale(0.015625)"/>
      <path id="DejaVuSans-79" d="M 2059 -325 
Q 1816 -950 1584 -1140 
Q 1353 -1331 966 -1331 
L 506 -1331 
L 506 -850 
L 844 -850 
Q 1081 -850 1212 -737 
Q 1344 -625 1503 -206 
L 1606 56 
L 191 3500 
L 800 3500 
L 1894 763 
L 2988 3500 
L 3597 3500 
L 2059 -325 
z
" transform="scale(0.015625)"/>
     </defs>
     <use xlink:href="#DejaVuSans-67"/>
     <use xlink:href="#DejaVuSans-65" x="63.476562"/>
     <use xlink:href="#DejaVuSans-74" x="125"/>
     <use xlink:href="#DejaVuSans-5f" x="164.208984"/>
     <use xlink:href="#DejaVuSans-73" x="214.208984"/>
     <use xlink:href="#DejaVuSans-75" x="266.308594"/>
     <use xlink:href="#DejaVuSans-62" x="329.6875"/>
     <use xlink:href="#DejaVuSans-73" x="393.164062"/>
     <use xlink:href="#DejaVuSans-63" x="445.263672"/>
     <use xlink:href="#DejaVuSans-72" x="500.244141"/>
     <use xlink:href="#DejaVuSans-69" x="541.357422"/>
     <use xlink:href="#DejaVuSans-62" x="569.140625"/>
     <use xlink:href="#DejaVuSans-65" x="632.617188"/>
     <use xlink:href="#DejaVuSans-20" x="694.140625"/>
     <use xlink:href="#DejaVuSans-68" x="725.927734"/>
     <use xlink:href="#DejaVuSans-69" x="789.306641"/>
     <use xlink:href="#DejaVuSans-73" x="817.089844"/>
     <use xlink:href="#DejaVuSans-74" x="869.189453"/>
     <use xlink:href="#DejaVuSans-6f" x="908.398438"/>
     <use xlink:href="#DejaVuSans-72" x="969.580078"/>
     <use xlink:href="#DejaVuSans-79" x="1010.693359"/>
    </g>
   </g>
   <g id="legend_1">
    <g id="line2d_41">
     <path d="M 815.08 328.498438 
L 825.08 328.498438 
L 835.08 328.498438 
" style="fill: none; stroke: #1f77b4; stroke-width: 1.5; stroke-linecap: square"/>
    </g>
    <g id="text_21">
     <!-- star -->
     <g style="fill: #a9a9a9" transform="translate(843.08 331.998438) scale(0.1 -0.1)">
      <defs>
       <path id="DejaVuSans-61" d="M 2194 1759 
Q 1497 1759 1228 1600 
Q 959 1441 959 1056 
Q 959 750 1161 570 
Q 1363 391 1709 391 
Q 2188 391 2477 730 
Q 2766 1069 2766 1631 
L 2766 1759 
L 2194 1759 
z
M 3341 1997 
L 3341 0 
L 2766 0 
L 2766 531 
Q 2569 213 2275 61 
Q 1981 -91 1556 -91 
Q 1019 -91 701 211 
Q 384 513 384 1019 
Q 384 1609 779 1909 
Q 1175 2209 1959 2209 
L 2766 2209 
L 2766 2266 
Q 2766 2663 2505 2880 
Q 2244 3097 1772 3097 
Q 1472 3097 1187 3025 
Q 903 2953 641 2809 
L 641 3341 
Q 956 3463 1253 3523 
Q 1550 3584 1831 3584 
Q 2591 3584 2966 3190 
Q 3341 2797 3341 1997 
z
" transform="scale(0.015625)"/>
      </defs>
      <use xlink:href="#DejaVuSans-73"/>
      <use xlink:href="#DejaVuSans-74" x="52.099609"/>
      <use xlink:href="#DejaVuSans-61" x="91.308594"/>
      <use xlink:href="#DejaVuSans-72" x="152.587891"/>
     </g>
    </g>
    <g id="line2d_42">
     <path d="M 815.08 343.176562 
L 825.08 343.176562 
L 835.08 343.176562 
" style="fill: none; stroke: #ff7f0e; stroke-width: 1.5; stroke-linecap: square"/>
    </g>
    <g id="text_22">
     <!-- fork -->
     <g style="fill: #a9a9a9" transform="translate(843.08 346.676562) scale(0.1 -0.1)">
      <defs>
       <path id="DejaVuSans-66" d="M 2375 4863 
L 2375 4384 
L 1825 4384 
Q 1516 4384 1395 4259 
Q 1275 4134 1275 3809 
L 1275 3500 
L 2222 3500 
L 2222 3053 
L 1275 3053 
L 1275 0 
L 697 0 
L 697 3053 
L 147 3053 
L 147 3500 
L 697 3500 
L 697 3744 
Q 697 4328 969 4595 
Q 1241 4863 1831 4863 
L 2375 4863 
z
" transform="scale(0.015625)"/>
       <path id="DejaVuSans-6b" d="M 581 4863 
L 1159 4863 
L 1159 1991 
L 2875 3500 
L 3609 3500 
L 1753 1863 
L 3688 0 
L 2938 0 
L 1159 1709 
L 1159 0 
L 581 0 
L 581 4863 
z
" transform="scale(0.015625)"/>
      </defs>
      <use xlink:href="#DejaVuSans-66"/>
      <use xlink:href="#DejaVuSans-6f" x="35.205078"/>
      <use xlink:href="#DejaVuSans-72" x="96.386719"/>
      <use xlink:href="#DejaVuSans-6b" x="137.5"/>
     </g>
    </g>
   </g>
  </g>
 </g>
 <defs>
  <clipPath id="p5737b9c6f0">
   <rect x="108" y="43.2" width="669.6" height="277.2"/>
  </clipPath>
 </defs>
</svg>
