<?xml version="1.0" encoding="utf-8" standalone="no"?>
<!DOCTYPE svg PUBLIC "-//W3C//DTD SVG 1.1//EN"
  "http://www.w3.org/Graphics/SVG/1.1/DTD/svg11.dtd">
<svg xmlns:xlink="http://www.w3.org/1999/xlink" width="864pt" height="360pt" viewBox="0 0 864 360" xmlns="http://www.w3.org/2000/svg" version="1.1">
 <metadata>
  <rdf:RDF xmlns:dc="http://purl.org/dc/elements/1.1/" xmlns:cc="http://creativecommons.org/ns#" xmlns:rdf="http://www.w3.org/1999/02/22-rdf-syntax-ns#">
   <cc:Work>
    <dc:type rdf:resource="http://purl.org/dc/dcmitype/StillImage"/>
    <dc:date>2024-10-20T08:14:56.601610</dc:date>
    <dc:format>image/svg+xml</dc:format>
    <dc:creator>
     <cc:Agent>
      <dc:title>Matplotlib v3.9.2, https://matplotlib.org/</dc:title>
     </cc:Agent>
    </dc:creator>
   </cc:Work>
  </rdf:RDF>
 </metadata>
 <defs>
  <style type="text/css">*{stroke-linejoin: round; stroke-linecap: butt}</style>
 </defs>
 <g id="figure_1">
  <g id="patch_1">
   <path d="M 0 360 
L 864 360 
L 864 0 
L 0 0 
L 0 360 
z
" style="fill: none; opacity: 0"/>
  </g>
  <g id="axes_1">
   <g id="patch_2">
    <path d="M 108 320.4 
L 777.6 320.4 
L 777.6 43.2 
L 108 43.2 
L 108 320.4 
z
" style="fill: none; opacity: 0"/>
   </g>
   <g id="matplotlib.axis_1">
    <g id="xtick_1">
     <g id="line2d_1">
      <path d="M 158.487346 320.4 
L 158.487346 43.2 
" clip-path="url(#pddb179f8fd)" style="fill: none; stroke-dasharray: 5.12,1.28,0.8,1.28; stroke-dashoffset: 0; stroke: #b0b0b0; stroke-width: 0.8"/>
     </g>
     <g id="line2d_2">
      <defs>
       <path id="m9e48e721ea" d="M 0 0 
L 0 3.5 
" style="stroke: #a9a9a9; stroke-width: 0.8"/>
      </defs>
      <g>
       <use xlink:href="#m9e48e721ea" x="158.487346" y="320.4" style="fill: #a9a9a9; stroke: #a9a9a9; stroke-width: 0.8"/>
      </g>
     </g>
     <g id="text_1">
      <!-- 2021-09 -->
      <g style="fill: #a9a9a9" transform="translate(137.59594 334.998438) scale(0.1 -0.1)">
       <defs>
        <path id="DejaVuSans-32" d="M 1228 531 
L 3431 531 
L 3431 0 
L 469 0 
L 469 531 
Q 828 903 1448 1529 
Q 2069 2156 2228 2338 
Q 2531 2678 2651 2914 
Q 2772 3150 2772 3378 
Q 2772 3750 2511 3984 
Q 2250 4219 1831 4219 
Q 1534 4219 1204 4116 
Q 875 4013 500 3803 
L 500 4441 
Q 881 4594 1212 4672 
Q 1544 4750 1819 4750 
Q 2544 4750 2975 4387 
Q 3406 4025 3406 3419 
Q 3406 3131 3298 2873 
Q 3191 2616 2906 2266 
Q 2828 2175 2409 1742 
Q 1991 1309 1228 531 
z
" transform="scale(0.015625)"/>
        <path id="DejaVuSans-30" d="M 2034 4250 
Q 1547 4250 1301 3770 
Q 1056 3291 1056 2328 
Q 1056 1369 1301 889 
Q 1547 409 2034 409 
Q 2525 409 2770 889 
Q 3016 1369 3016 2328 
Q 3016 3291 2770 3770 
Q 2525 4250 2034 4250 
z
M 2034 4750 
Q 2819 4750 3233 4129 
Q 3647 3509 3647 2328 
Q 3647 1150 3233 529 
Q 2819 -91 2034 -91 
Q 1250 -91 836 529 
Q 422 1150 422 2328 
Q 422 3509 836 4129 
Q 1250 4750 2034 4750 
z
" transform="scale(0.015625)"/>
        <path id="DejaVuSans-31" d="M 794 531 
L 1825 531 
L 1825 4091 
L 703 3866 
L 703 4441 
L 1819 4666 
L 2450 4666 
L 2450 531 
L 3481 531 
L 3481 0 
L 794 0 
L 794 531 
z
" transform="scale(0.015625)"/>
        <path id="DejaVuSans-2d" d="M 313 2009 
L 1997 2009 
L 1997 1497 
L 313 1497 
L 313 2009 
z
" transform="scale(0.015625)"/>
        <path id="DejaVuSans-39" d="M 703 97 
L 703 672 
Q 941 559 1184 500 
Q 1428 441 1663 441 
Q 2288 441 2617 861 
Q 2947 1281 2994 2138 
Q 2813 1869 2534 1725 
Q 2256 1581 1919 1581 
Q 1219 1581 811 2004 
Q 403 2428 403 3163 
Q 403 3881 828 4315 
Q 1253 4750 1959 4750 
Q 2769 4750 3195 4129 
Q 3622 3509 3622 2328 
Q 3622 1225 3098 567 
Q 2575 -91 1691 -91 
Q 1453 -91 1209 -44 
Q 966 3 703 97 
z
M 1959 2075 
Q 2384 2075 2632 2365 
Q 2881 2656 2881 3163 
Q 2881 3666 2632 3958 
Q 2384 4250 1959 4250 
Q 1534 4250 1286 3958 
Q 1038 3666 1038 3163 
Q 1038 2656 1286 2365 
Q 1534 2075 1959 2075 
z
" transform="scale(0.015625)"/>
       </defs>
       <use xlink:href="#DejaVuSans-32"/>
       <use xlink:href="#DejaVuSans-30" x="63.623047"/>
       <use xlink:href="#DejaVuSans-32" x="127.246094"/>
       <use xlink:href="#DejaVuSans-31" x="190.869141"/>
       <use xlink:href="#DejaVuSans-2d" x="254.492188"/>
       <use xlink:href="#DejaVuSans-30" x="290.576172"/>
       <use xlink:href="#DejaVuSans-39" x="354.199219"/>
      </g>
     </g>
    </g>
    <g id="xtick_2">
     <g id="line2d_3">
      <path d="M 221.210934 320.4 
L 221.210934 43.2 
" clip-path="url(#pddb179f8fd)" style="fill: none; stroke-dasharray: 5.12,1.28,0.8,1.28; stroke-dashoffset: 0; stroke: #b0b0b0; stroke-width: 0.8"/>
     </g>
     <g id="line2d_4">
      <g>
       <use xlink:href="#m9e48e721ea" x="221.210934" y="320.4" style="fill: #a9a9a9; stroke: #a9a9a9; stroke-width: 0.8"/>
      </g>
     </g>
     <g id="text_2">
      <!-- 2022-01 -->
      <g style="fill: #a9a9a9" transform="translate(200.319527 334.998438) scale(0.1 -0.1)">
       <use xlink:href="#DejaVuSans-32"/>
       <use xlink:href="#DejaVuSans-30" x="63.623047"/>
       <use xlink:href="#DejaVuSans-32" x="127.246094"/>
       <use xlink:href="#DejaVuSans-32" x="190.869141"/>
       <use xlink:href="#DejaVuSans-2d" x="254.492188"/>
       <use xlink:href="#DejaVuSans-30" x="290.576172"/>
       <use xlink:href="#DejaVuSans-31" x="354.199219"/>
      </g>
     </g>
    </g>
    <g id="xtick_3">
     <g id="line2d_5">
      <path d="M 282.906265 320.4 
L 282.906265 43.2 
" clip-path="url(#pddb179f8fd)" style="fill: none; stroke-dasharray: 5.12,1.28,0.8,1.28; stroke-dashoffset: 0; stroke: #b0b0b0; stroke-width: 0.8"/>
     </g>
     <g id="line2d_6">
      <g>
       <use xlink:href="#m9e48e721ea" x="282.906265" y="320.4" style="fill: #a9a9a9; stroke: #a9a9a9; stroke-width: 0.8"/>
      </g>
     </g>
     <g id="text_3">
      <!-- 2022-05 -->
      <g style="fill: #a9a9a9" transform="translate(262.014859 334.998438) scale(0.1 -0.1)">
       <defs>
        <path id="DejaVuSans-35" d="M 691 4666 
L 3169 4666 
L 3169 4134 
L 1269 4134 
L 1269 2991 
Q 1406 3038 1543 3061 
Q 1681 3084 1819 3084 
Q 2600 3084 3056 2656 
Q 3513 2228 3513 1497 
Q 3513 744 3044 326 
Q 2575 -91 1722 -91 
Q 1428 -91 1123 -41 
Q 819 9 494 109 
L 494 744 
Q 775 591 1075 516 
Q 1375 441 1709 441 
Q 2250 441 2565 725 
Q 2881 1009 2881 1497 
Q 2881 1984 2565 2268 
Q 2250 2553 1709 2553 
Q 1456 2553 1204 2497 
Q 953 2441 691 2322 
L 691 4666 
z
" transform="scale(0.015625)"/>
       </defs>
       <use xlink:href="#DejaVuSans-32"/>
       <use xlink:href="#DejaVuSans-30" x="63.623047"/>
       <use xlink:href="#DejaVuSans-32" x="127.246094"/>
       <use xlink:href="#DejaVuSans-32" x="190.869141"/>
       <use xlink:href="#DejaVuSans-2d" x="254.492188"/>
       <use xlink:href="#DejaVuSans-30" x="290.576172"/>
       <use xlink:href="#DejaVuSans-35" x="354.199219"/>
      </g>
     </g>
    </g>
    <g id="xtick_4">
     <g id="line2d_7">
      <path d="M 346.14398 320.4 
L 346.14398 43.2 
" clip-path="url(#pddb179f8fd)" style="fill: none; stroke-dasharray: 5.12,1.28,0.8,1.28; stroke-dashoffset: 0; stroke: #b0b0b0; stroke-width: 0.8"/>
     </g>
     <g id="line2d_8">
      <g>
       <use xlink:href="#m9e48e721ea" x="346.14398" y="320.4" style="fill: #a9a9a9; stroke: #a9a9a9; stroke-width: 0.8"/>
      </g>
     </g>
     <g id="text_4">
      <!-- 2022-09 -->
      <g style="fill: #a9a9a9" transform="translate(325.252574 334.998438) scale(0.1 -0.1)">
       <use xlink:href="#DejaVuSans-32"/>
       <use xlink:href="#DejaVuSans-30" x="63.623047"/>
       <use xlink:href="#DejaVuSans-32" x="127.246094"/>
       <use xlink:href="#DejaVuSans-32" x="190.869141"/>
       <use xlink:href="#DejaVuSans-2d" x="254.492188"/>
       <use xlink:href="#DejaVuSans-30" x="290.576172"/>
       <use xlink:href="#DejaVuSans-39" x="354.199219"/>
      </g>
     </g>
    </g>
    <g id="xtick_5">
     <g id="line2d_9">
      <path d="M 408.867568 320.4 
L 408.867568 43.2 
" clip-path="url(#pddb179f8fd)" style="fill: none; stroke-dasharray: 5.12,1.28,0.8,1.28; stroke-dashoffset: 0; stroke: #b0b0b0; stroke-width: 0.8"/>
     </g>
     <g id="line2d_10">
      <g>
       <use xlink:href="#m9e48e721ea" x="408.867568" y="320.4" style="fill: #a9a9a9; stroke: #a9a9a9; stroke-width: 0.8"/>
      </g>
     </g>
     <g id="text_5">
      <!-- 2023-01 -->
      <g style="fill: #a9a9a9" transform="translate(387.976161 334.998438) scale(0.1 -0.1)">
       <defs>
        <path id="DejaVuSans-33" d="M 2597 2516 
Q 3050 2419 3304 2112 
Q 3559 1806 3559 1356 
Q 3559 666 3084 287 
Q 2609 -91 1734 -91 
Q 1441 -91 1130 -33 
Q 819 25 488 141 
L 488 750 
Q 750 597 1062 519 
Q 1375 441 1716 441 
Q 2309 441 2620 675 
Q 2931 909 2931 1356 
Q 2931 1769 2642 2001 
Q 2353 2234 1838 2234 
L 1294 2234 
L 1294 2753 
L 1863 2753 
Q 2328 2753 2575 2939 
Q 2822 3125 2822 3475 
Q 2822 3834 2567 4026 
Q 2313 4219 1838 4219 
Q 1578 4219 1281 4162 
Q 984 4106 628 3988 
L 628 4550 
Q 988 4650 1302 4700 
Q 1616 4750 1894 4750 
Q 2613 4750 3031 4423 
Q 3450 4097 3450 3541 
Q 3450 3153 3228 2886 
Q 3006 2619 2597 2516 
z
" transform="scale(0.015625)"/>
       </defs>
       <use xlink:href="#DejaVuSans-32"/>
       <use xlink:href="#DejaVuSans-30" x="63.623047"/>
       <use xlink:href="#DejaVuSans-32" x="127.246094"/>
       <use xlink:href="#DejaVuSans-33" x="190.869141"/>
       <use xlink:href="#DejaVuSans-2d" x="254.492188"/>
       <use xlink:href="#DejaVuSans-30" x="290.576172"/>
       <use xlink:href="#DejaVuSans-31" x="354.199219"/>
      </g>
     </g>
    </g>
    <g id="xtick_6">
     <g id="line2d_11">
      <path d="M 470.562899 320.4 
L 470.562899 43.2 
" clip-path="url(#pddb179f8fd)" style="fill: none; stroke-dasharray: 5.12,1.28,0.8,1.28; stroke-dashoffset: 0; stroke: #b0b0b0; stroke-width: 0.8"/>
     </g>
     <g id="line2d_12">
      <g>
       <use xlink:href="#m9e48e721ea" x="470.562899" y="320.4" style="fill: #a9a9a9; stroke: #a9a9a9; stroke-width: 0.8"/>
      </g>
     </g>
     <g id="text_6">
      <!-- 2023-05 -->
      <g style="fill: #a9a9a9" transform="translate(449.671493 334.998438) scale(0.1 -0.1)">
       <use xlink:href="#DejaVuSans-32"/>
       <use xlink:href="#DejaVuSans-30" x="63.623047"/>
       <use xlink:href="#DejaVuSans-32" x="127.246094"/>
       <use xlink:href="#DejaVuSans-33" x="190.869141"/>
       <use xlink:href="#DejaVuSans-2d" x="254.492188"/>
       <use xlink:href="#DejaVuSans-30" x="290.576172"/>
       <use xlink:href="#DejaVuSans-35" x="354.199219"/>
      </g>
     </g>
    </g>
    <g id="xtick_7">
     <g id="line2d_13">
      <path d="M 533.800614 320.4 
L 533.800614 43.2 
" clip-path="url(#pddb179f8fd)" style="fill: none; stroke-dasharray: 5.12,1.28,0.8,1.28; stroke-dashoffset: 0; stroke: #b0b0b0; stroke-width: 0.8"/>
     </g>
     <g id="line2d_14">
      <g>
       <use xlink:href="#m9e48e721ea" x="533.800614" y="320.4" style="fill: #a9a9a9; stroke: #a9a9a9; stroke-width: 0.8"/>
      </g>
     </g>
     <g id="text_7">
      <!-- 2023-09 -->
      <g style="fill: #a9a9a9" transform="translate(512.909208 334.998438) scale(0.1 -0.1)">
       <use xlink:href="#DejaVuSans-32"/>
       <use xlink:href="#DejaVuSans-30" x="63.623047"/>
       <use xlink:href="#DejaVuSans-32" x="127.246094"/>
       <use xlink:href="#DejaVuSans-33" x="190.869141"/>
       <use xlink:href="#DejaVuSans-2d" x="254.492188"/>
       <use xlink:href="#DejaVuSans-30" x="290.576172"/>
       <use xlink:href="#DejaVuSans-39" x="354.199219"/>
      </g>
     </g>
    </g>
    <g id="xtick_8">
     <g id="line2d_15">
      <path d="M 596.524201 320.4 
L 596.524201 43.2 
" clip-path="url(#pddb179f8fd)" style="fill: none; stroke-dasharray: 5.12,1.28,0.8,1.28; stroke-dashoffset: 0; stroke: #b0b0b0; stroke-width: 0.8"/>
     </g>
     <g id="line2d_16">
      <g>
       <use xlink:href="#m9e48e721ea" x="596.524201" y="320.4" style="fill: #a9a9a9; stroke: #a9a9a9; stroke-width: 0.8"/>
      </g>
     </g>
     <g id="text_8">
      <!-- 2024-01 -->
      <g style="fill: #a9a9a9" transform="translate(575.632795 334.998438) scale(0.1 -0.1)">
       <defs>
        <path id="DejaVuSans-34" d="M 2419 4116 
L 825 1625 
L 2419 1625 
L 2419 4116 
z
M 2253 4666 
L 3047 4666 
L 3047 1625 
L 3713 1625 
L 3713 1100 
L 3047 1100 
L 3047 0 
L 2419 0 
L 2419 1100 
L 313 1100 
L 313 1709 
L 2253 4666 
z
" transform="scale(0.015625)"/>
       </defs>
       <use xlink:href="#DejaVuSans-32"/>
       <use xlink:href="#DejaVuSans-30" x="63.623047"/>
       <use xlink:href="#DejaVuSans-32" x="127.246094"/>
       <use xlink:href="#DejaVuSans-34" x="190.869141"/>
       <use xlink:href="#DejaVuSans-2d" x="254.492188"/>
       <use xlink:href="#DejaVuSans-30" x="290.576172"/>
       <use xlink:href="#DejaVuSans-31" x="354.199219"/>
      </g>
     </g>
    </g>
    <g id="xtick_9">
     <g id="line2d_17">
      <path d="M 658.733661 320.4 
L 658.733661 43.2 
" clip-path="url(#pddb179f8fd)" style="fill: none; stroke-dasharray: 5.12,1.28,0.8,1.28; stroke-dashoffset: 0; stroke: #b0b0b0; stroke-width: 0.8"/>
     </g>
     <g id="line2d_18">
      <g>
       <use xlink:href="#m9e48e721ea" x="658.733661" y="320.4" style="fill: #a9a9a9; stroke: #a9a9a9; stroke-width: 0.8"/>
      </g>
     </g>
     <g id="text_9">
      <!-- 2024-05 -->
      <g style="fill: #a9a9a9" transform="translate(637.842255 334.998438) scale(0.1 -0.1)">
       <use xlink:href="#DejaVuSans-32"/>
       <use xlink:href="#DejaVuSans-30" x="63.623047"/>
       <use xlink:href="#DejaVuSans-32" x="127.246094"/>
       <use xlink:href="#DejaVuSans-34" x="190.869141"/>
       <use xlink:href="#DejaVuSans-2d" x="254.492188"/>
       <use xlink:href="#DejaVuSans-30" x="290.576172"/>
       <use xlink:href="#DejaVuSans-35" x="354.199219"/>
      </g>
     </g>
    </g>
    <g id="xtick_10">
     <g id="line2d_19">
      <path d="M 721.971376 320.4 
L 721.971376 43.2 
" clip-path="url(#pddb179f8fd)" style="fill: none; stroke-dasharray: 5.12,1.28,0.8,1.28; stroke-dashoffset: 0; stroke: #b0b0b0; stroke-width: 0.8"/>
     </g>
     <g id="line2d_20">
      <g>
       <use xlink:href="#m9e48e721ea" x="721.971376" y="320.4" style="fill: #a9a9a9; stroke: #a9a9a9; stroke-width: 0.8"/>
      </g>
     </g>
     <g id="text_10">
      <!-- 2024-09 -->
      <g style="fill: #a9a9a9" transform="translate(701.07997 334.998438) scale(0.1 -0.1)">
       <use xlink:href="#DejaVuSans-32"/>
       <use xlink:href="#DejaVuSans-30" x="63.623047"/>
       <use xlink:href="#DejaVuSans-32" x="127.246094"/>
       <use xlink:href="#DejaVuSans-34" x="190.869141"/>
       <use xlink:href="#DejaVuSans-2d" x="254.492188"/>
       <use xlink:href="#DejaVuSans-30" x="290.576172"/>
       <use xlink:href="#DejaVuSans-39" x="354.199219"/>
      </g>
     </g>
    </g>
   </g>
   <g id="matplotlib.axis_2">
    <g id="ytick_1">
     <g id="line2d_21">
      <path d="M 108 307.836896 
L 777.6 307.836896 
" clip-path="url(#pddb179f8fd)" style="fill: none; stroke-dasharray: 5.12,1.28,0.8,1.28; stroke-dashoffset: 0; stroke: #b0b0b0; stroke-width: 0.8"/>
     </g>
     <g id="line2d_22">
      <defs>
       <path id="m75871a2637" d="M 0 0 
L -3.5 0 
" style="stroke: #a9a9a9; stroke-width: 0.8"/>
      </defs>
      <g>
       <use xlink:href="#m75871a2637" x="108" y="307.836896" style="fill: #a9a9a9; stroke: #a9a9a9; stroke-width: 0.8"/>
      </g>
     </g>
     <g id="text_11">
      <!-- 0 -->
      <g style="fill: #a9a9a9" transform="translate(94.6375 311.636115) scale(0.1 -0.1)">
       <use xlink:href="#DejaVuSans-30"/>
      </g>
     </g>
    </g>
    <g id="ytick_2">
     <g id="line2d_23">
      <path d="M 108 278.320059 
L 777.6 278.320059 
" clip-path="url(#pddb179f8fd)" style="fill: none; stroke-dasharray: 5.12,1.28,0.8,1.28; stroke-dashoffset: 0; stroke: #b0b0b0; stroke-width: 0.8"/>
     </g>
     <g id="line2d_24">
      <g>
       <use xlink:href="#m75871a2637" x="108" y="278.320059" style="fill: #a9a9a9; stroke: #a9a9a9; stroke-width: 0.8"/>
      </g>
     </g>
     <g id="text_12">
      <!-- 800 -->
      <g style="fill: #a9a9a9" transform="translate(81.9125 282.119277) scale(0.1 -0.1)">
       <defs>
        <path id="DejaVuSans-38" d="M 2034 2216 
Q 1584 2216 1326 1975 
Q 1069 1734 1069 1313 
Q 1069 891 1326 650 
Q 1584 409 2034 409 
Q 2484 409 2743 651 
Q 3003 894 3003 1313 
Q 3003 1734 2745 1975 
Q 2488 2216 2034 2216 
z
M 1403 2484 
Q 997 2584 770 2862 
Q 544 3141 544 3541 
Q 544 4100 942 4425 
Q 1341 4750 2034 4750 
Q 2731 4750 3128 4425 
Q 3525 4100 3525 3541 
Q 3525 3141 3298 2862 
Q 3072 2584 2669 2484 
Q 3125 2378 3379 2068 
Q 3634 1759 3634 1313 
Q 3634 634 3220 271 
Q 2806 -91 2034 -91 
Q 1263 -91 848 271 
Q 434 634 434 1313 
Q 434 1759 690 2068 
Q 947 2378 1403 2484 
z
M 1172 3481 
Q 1172 3119 1398 2916 
Q 1625 2713 2034 2713 
Q 2441 2713 2670 2916 
Q 2900 3119 2900 3481 
Q 2900 3844 2670 4047 
Q 2441 4250 2034 4250 
Q 1625 4250 1398 4047 
Q 1172 3844 1172 3481 
z
" transform="scale(0.015625)"/>
       </defs>
       <use xlink:href="#DejaVuSans-38"/>
       <use xlink:href="#DejaVuSans-30" x="63.623047"/>
       <use xlink:href="#DejaVuSans-30" x="127.246094"/>
      </g>
     </g>
    </g>
    <g id="ytick_3">
     <g id="line2d_25">
      <path d="M 108 248.803221 
L 777.6 248.803221 
" clip-path="url(#pddb179f8fd)" style="fill: none; stroke-dasharray: 5.12,1.28,0.8,1.28; stroke-dashoffset: 0; stroke: #b0b0b0; stroke-width: 0.8"/>
     </g>
     <g id="line2d_26">
      <g>
       <use xlink:href="#m75871a2637" x="108" y="248.803221" style="fill: #a9a9a9; stroke: #a9a9a9; stroke-width: 0.8"/>
      </g>
     </g>
     <g id="text_13">
      <!-- 1600 -->
      <g style="fill: #a9a9a9" transform="translate(75.55 252.60244) scale(0.1 -0.1)">
       <defs>
        <path id="DejaVuSans-36" d="M 2113 2584 
Q 1688 2584 1439 2293 
Q 1191 2003 1191 1497 
Q 1191 994 1439 701 
Q 1688 409 2113 409 
Q 2538 409 2786 701 
Q 3034 994 3034 1497 
Q 3034 2003 2786 2293 
Q 2538 2584 2113 2584 
z
M 3366 4563 
L 3366 3988 
Q 3128 4100 2886 4159 
Q 2644 4219 2406 4219 
Q 1781 4219 1451 3797 
Q 1122 3375 1075 2522 
Q 1259 2794 1537 2939 
Q 1816 3084 2150 3084 
Q 2853 3084 3261 2657 
Q 3669 2231 3669 1497 
Q 3669 778 3244 343 
Q 2819 -91 2113 -91 
Q 1303 -91 875 529 
Q 447 1150 447 2328 
Q 447 3434 972 4092 
Q 1497 4750 2381 4750 
Q 2619 4750 2861 4703 
Q 3103 4656 3366 4563 
z
" transform="scale(0.015625)"/>
       </defs>
       <use xlink:href="#DejaVuSans-31"/>
       <use xlink:href="#DejaVuSans-36" x="63.623047"/>
       <use xlink:href="#DejaVuSans-30" x="127.246094"/>
       <use xlink:href="#DejaVuSans-30" x="190.869141"/>
      </g>
     </g>
    </g>
    <g id="ytick_4">
     <g id="line2d_27">
      <path d="M 108 219.286384 
L 777.6 219.286384 
" clip-path="url(#pddb179f8fd)" style="fill: none; stroke-dasharray: 5.12,1.28,0.8,1.28; stroke-dashoffset: 0; stroke: #b0b0b0; stroke-width: 0.8"/>
     </g>
     <g id="line2d_28">
      <g>
       <use xlink:href="#m75871a2637" x="108" y="219.286384" style="fill: #a9a9a9; stroke: #a9a9a9; stroke-width: 0.8"/>
      </g>
     </g>
     <g id="text_14">
      <!-- 2400 -->
      <g style="fill: #a9a9a9" transform="translate(75.55 223.085602) scale(0.1 -0.1)">
       <use xlink:href="#DejaVuSans-32"/>
       <use xlink:href="#DejaVuSans-34" x="63.623047"/>
       <use xlink:href="#DejaVuSans-30" x="127.246094"/>
       <use xlink:href="#DejaVuSans-30" x="190.869141"/>
      </g>
     </g>
    </g>
    <g id="ytick_5">
     <g id="line2d_29">
      <path d="M 108 189.769546 
L 777.6 189.769546 
" clip-path="url(#pddb179f8fd)" style="fill: none; stroke-dasharray: 5.12,1.28,0.8,1.28; stroke-dashoffset: 0; stroke: #b0b0b0; stroke-width: 0.8"/>
     </g>
     <g id="line2d_30">
      <g>
       <use xlink:href="#m75871a2637" x="108" y="189.769546" style="fill: #a9a9a9; stroke: #a9a9a9; stroke-width: 0.8"/>
      </g>
     </g>
     <g id="text_15">
      <!-- 3200 -->
      <g style="fill: #a9a9a9" transform="translate(75.55 193.568765) scale(0.1 -0.1)">
       <use xlink:href="#DejaVuSans-33"/>
       <use xlink:href="#DejaVuSans-32" x="63.623047"/>
       <use xlink:href="#DejaVuSans-30" x="127.246094"/>
       <use xlink:href="#DejaVuSans-30" x="190.869141"/>
      </g>
     </g>
    </g>
    <g id="ytick_6">
     <g id="line2d_31">
      <path d="M 108 160.252709 
L 777.6 160.252709 
" clip-path="url(#pddb179f8fd)" style="fill: none; stroke-dasharray: 5.12,1.28,0.8,1.28; stroke-dashoffset: 0; stroke: #b0b0b0; stroke-width: 0.8"/>
     </g>
     <g id="line2d_32">
      <g>
       <use xlink:href="#m75871a2637" x="108" y="160.252709" style="fill: #a9a9a9; stroke: #a9a9a9; stroke-width: 0.8"/>
      </g>
     </g>
     <g id="text_16">
      <!-- 4000 -->
      <g style="fill: #a9a9a9" transform="translate(75.55 164.051927) scale(0.1 -0.1)">
       <use xlink:href="#DejaVuSans-34"/>
       <use xlink:href="#DejaVuSans-30" x="63.623047"/>
       <use xlink:href="#DejaVuSans-30" x="127.246094"/>
       <use xlink:href="#DejaVuSans-30" x="190.869141"/>
      </g>
     </g>
    </g>
    <g id="ytick_7">
     <g id="line2d_33">
      <path d="M 108 130.735871 
L 777.6 130.735871 
" clip-path="url(#pddb179f8fd)" style="fill: none; stroke-dasharray: 5.12,1.28,0.8,1.28; stroke-dashoffset: 0; stroke: #b0b0b0; stroke-width: 0.8"/>
     </g>
     <g id="line2d_34">
      <g>
       <use xlink:href="#m75871a2637" x="108" y="130.735871" style="fill: #a9a9a9; stroke: #a9a9a9; stroke-width: 0.8"/>
      </g>
     </g>
     <g id="text_17">
      <!-- 4800 -->
      <g style="fill: #a9a9a9" transform="translate(75.55 134.53509) scale(0.1 -0.1)">
       <use xlink:href="#DejaVuSans-34"/>
       <use xlink:href="#DejaVuSans-38" x="63.623047"/>
       <use xlink:href="#DejaVuSans-30" x="127.246094"/>
       <use xlink:href="#DejaVuSans-30" x="190.869141"/>
      </g>
     </g>
    </g>
    <g id="ytick_8">
     <g id="line2d_35">
      <path d="M 108 101.219034 
L 777.6 101.219034 
" clip-path="url(#pddb179f8fd)" style="fill: none; stroke-dasharray: 5.12,1.28,0.8,1.28; stroke-dashoffset: 0; stroke: #b0b0b0; stroke-width: 0.8"/>
     </g>
     <g id="line2d_36">
      <g>
       <use xlink:href="#m75871a2637" x="108" y="101.219034" style="fill: #a9a9a9; stroke: #a9a9a9; stroke-width: 0.8"/>
      </g>
     </g>
     <g id="text_18">
      <!-- 5600 -->
      <g style="fill: #a9a9a9" transform="translate(75.55 105.018252) scale(0.1 -0.1)">
       <use xlink:href="#DejaVuSans-35"/>
       <use xlink:href="#DejaVuSans-36" x="63.623047"/>
       <use xlink:href="#DejaVuSans-30" x="127.246094"/>
       <use xlink:href="#DejaVuSans-30" x="190.869141"/>
      </g>
     </g>
    </g>
    <g id="ytick_9">
     <g id="line2d_37">
      <path d="M 108 71.702196 
L 777.6 71.702196 
" clip-path="url(#pddb179f8fd)" style="fill: none; stroke-dasharray: 5.12,1.28,0.8,1.28; stroke-dashoffset: 0; stroke: #b0b0b0; stroke-width: 0.8"/>
     </g>
     <g id="line2d_38">
      <g>
       <use xlink:href="#m75871a2637" x="108" y="71.702196" style="fill: #a9a9a9; stroke: #a9a9a9; stroke-width: 0.8"/>
      </g>
     </g>
     <g id="text_19">
      <!-- 6400 -->
      <g style="fill: #a9a9a9" transform="translate(75.55 75.501415) scale(0.1 -0.1)">
       <use xlink:href="#DejaVuSans-36"/>
       <use xlink:href="#DejaVuSans-34" x="63.623047"/>
       <use xlink:href="#DejaVuSans-30" x="127.246094"/>
       <use xlink:href="#DejaVuSans-30" x="190.869141"/>
      </g>
     </g>
    </g>
   </g>
   <g id="line2d_39">
    <path d="M 138.436364 307.726208 
L 141.52113 307.467936 
L 142.035258 307.246559 
L 144.091769 306.988287 
L 146.14828 306.58243 
L 147.176536 306.434846 
L 149.747174 306.21347 
L 150.77543 305.807613 
L 151.289558 305.143485 
L 151.803686 304.774524 
L 152.317813 303.630747 
L 152.831941 303.556955 
L 153.346069 303.151098 
L 154.374324 302.634553 
L 156.430835 301.011127 
L 158.487346 300.014934 
L 160.02973 299.313909 
L 160.543857 298.502196 
L 161.572113 297.764275 
L 162.086241 297.542899 
L 167.227518 296.804978 
L 167.741646 296.583602 
L 171.340541 296.288433 
L 173.397052 295.808785 
L 177.510074 295.255344 
L 178.024201 294.997072 
L 178.538329 294.92328 
L 179.566585 294.591215 
L 183.165479 294.000878 
L 184.193735 293.70571 
L 188.820885 292.930893 
L 189.84914 292.709517 
L 190.877396 292.672621 
L 192.933907 292.192972 
L 193.448034 291.491947 
L 194.990418 290.901611 
L 196.532801 290.495754 
L 197.046929 290.237482 
L 198.075184 290.053001 
L 200.131695 289.462665 
L 201.159951 289.388873 
L 202.188206 289.1306 
L 204.244717 288.614056 
L 204.758845 288.57716 
L 205.787101 288.097511 
L 206.301229 288.023719 
L 206.815356 287.765447 
L 212.470762 286.843045 
L 214.527273 286.252709 
L 215.0414 285.920644 
L 217.612039 285.072035 
L 218.640295 284.37101 
L 220.182678 284.075842 
L 229.951106 281.234846 
L 230.979361 280.82899 
L 232.007617 280.755198 
L 233.55 280.312445 
L 234.064128 280.312445 
L 234.578256 280.091069 
L 235.606511 279.980381 
L 236.120639 279.7959 
L 238.17715 279.685212 
L 239.205405 279.500732 
L 240.233661 278.984187 
L 246.403194 276.216984 
L 246.917322 275.663543 
L 247.945577 274.113909 
L 248.459705 273.966325 
L 248.973833 273.966325 
L 250.002088 273.191508 
L 251.544472 272.674963 
L 252.0586 272.195315 
L 253.086855 271.789458 
L 254.115111 271.30981 
L 255.143366 269.833968 
L 255.657494 269.501903 
L 256.171622 268.616398 
L 256.685749 268.062958 
L 259.770516 266.439531 
L 260.798771 265.627818 
L 261.312899 265.295754 
L 261.827027 264.520937 
L 262.341155 263.37716 
L 262.855283 262.602343 
L 263.36941 262.196486 
L 263.883538 261.97511 
L 267.482432 258.949634 
L 268.510688 257.732064 
L 269.538943 256.994143 
L 271.081327 255.961054 
L 271.595455 255.518302 
L 272.62371 255.186237 
L 274.166093 254.300732 
L 275.708477 253.304539 
L 277.764988 251.459736 
L 278.793243 251.05388 
L 279.821499 250.352855 
L 280.335627 250.057687 
L 280.849754 249.983895 
L 284.448649 247.733236 
L 286.50516 246.626354 
L 287.019287 246.146706 
L 295.245332 243.268814 
L 296.273587 242.346413 
L 297.301843 241.866764 
L 298.330098 241.313324 
L 298.844226 241.018155 
L 299.872482 240.722987 
L 300.386609 240.390922 
L 300.900737 240.243338 
L 302.44312 239.247145 
L 305.013759 238.656808 
L 306.556143 237.771303 
L 308.098526 237.439239 
L 308.612654 237.291654 
L 310.155037 236.147877 
L 312.211548 235.594436 
L 312.725676 235.18858 
L 315.810442 234.15549 
L 316.838698 233.97101 
L 317.866953 233.565154 
L 321.465848 232.273792 
L 322.494103 232.126208 
L 324.036486 231.609663 
L 326.607125 230.392094 
L 328.663636 229.285212 
L 332.776658 227.62489 
L 333.290786 227.551098 
L 334.319042 226.923865 
L 334.83317 226.850073 
L 336.889681 226.001464 
L 338.946192 225.706296 
L 339.974447 225.189751 
L 340.488575 224.746999 
L 341.002703 223.824597 
L 343.059214 223.271157 
L 344.601597 222.49634 
L 345.115725 222.385652 
L 349.228747 220.430161 
L 350.77113 220.134993 
L 351.799386 219.618448 
L 352.313514 219.397072 
L 352.827641 219.32328 
L 354.884152 218.400878 
L 356.426536 217.441581 
L 357.968919 217.146413 
L 360.539558 216.51918 
L 361.053686 216.113324 
L 362.596069 215.559883 
L 364.65258 214.74817 
L 365.166708 214.379209 
L 365.680835 214.194729 
L 366.709091 213.641288 
L 369.27973 212.792679 
L 370.822113 211.57511 
L 371.336241 211.464422 
L 372.364496 210.652709 
L 372.878624 210.578917 
L 373.392752 209.767204 
L 373.90688 209.545827 
L 374.421007 209.139971 
L 374.935135 209.066179 
L 375.963391 208.438946 
L 376.991646 208.106881 
L 377.505774 207.701025 
L 378.019902 207.516545 
L 379.562285 206.446559 
L 381.618796 205.376574 
L 382.132924 205.302782 
L 383.675307 204.527965 
L 384.189435 203.679356 
L 384.703563 203.236603 
L 385.21769 202.941435 
L 385.731818 202.830747 
L 386.760074 202.166618 
L 387.274201 202.05593 
L 388.302457 201.539385 
L 390.358968 200.543192 
L 390.873096 200.174231 
L 391.901351 199.178038 
L 392.929607 198.550805 
L 393.443735 198.218741 
L 393.957862 197.6653 
L 396.014373 196.26325 
L 396.528501 195.672914 
L 397.042629 195.267057 
L 398.070885 194.898097 
L 399.09914 194.197072 
L 400.641523 193.422255 
L 401.155651 193.348463 
L 402.698034 192.53675 
L 403.72629 191.909517 
L 408.867568 190.064714 
L 409.381695 189.658858 
L 411.438206 188.884041 
L 411.952334 188.736457 
L 412.466462 188.3306 
L 415.037101 186.928551 
L 416.065356 184.899268 
L 417.093612 183.718594 
L 418.121867 183.091362 
L 419.664251 182.464129 
L 420.178378 182.390337 
L 420.692506 182.095168 
L 423.263145 181.283455 
L 423.777273 181.062079 
L 424.805528 180.361054 
L 426.347912 179.696925 
L 427.376167 179.143485 
L 427.890295 178.774524 
L 428.404423 178.553148 
L 428.91855 178.184187 
L 429.432678 177.630747 
L 430.460934 177.077306 
L 433.031572 175.712152 
L 436.116339 174.199414 
L 437.144595 173.86735 
L 438.686978 173.387701 
L 440.743489 172.4653 
L 441.771744 172.059444 
L 442.285872 171.653587 
L 443.314128 171.321523 
L 446.398894 169.734993 
L 447.42715 168.92328 
L 448.455405 168.554319 
L 448.969533 168.111567 
L 449.483661 168.037775 
L 450.511916 167.262958 
L 451.540172 166.746413 
L 452.0543 166.525037 
L 452.568428 166.008492 
L 456.167322 164.606442 
L 457.195577 164.16369 
L 458.737961 163.684041 
L 459.766216 163.536457 
L 460.280344 163.315081 
L 460.794472 163.241288 
L 461.822727 162.798536 
L 462.336855 162.76164 
L 464.393366 161.986823 
L 465.935749 160.916837 
L 466.449877 160.732357 
L 467.478133 160.178917 
L 467.99226 160.031332 
L 471.077027 158.334114 
L 471.591155 158.223426 
L 473.133538 157.337921 
L 474.675921 156.821376 
L 475.704177 156.489312 
L 477.760688 155.825183 
L 478.788943 155.493119 
L 480.845455 155.087262 
L 481.359582 154.865886 
L 481.87371 154.792094 
L 482.901966 154.349341 
L 483.416093 154.275549 
L 483.930221 154.017277 
L 484.958477 153.832796 
L 486.50086 153.279356 
L 487.529115 153.168668 
L 489.071499 152.836603 
L 491.642138 152.393851 
L 505.009459 148.556662 
L 505.523587 148.040117 
L 506.551843 147.634261 
L 509.636609 146.527379 
L 510.150737 146.195315 
L 510.664865 146.084627 
L 511.178993 145.789458 
L 512.721376 145.346706 
L 513.749631 145.088433 
L 514.263759 144.756369 
L 514.777887 144.645681 
L 515.292015 144.202928 
L 516.834398 143.90776 
L 517.862654 143.428111 
L 518.376781 142.837775 
L 520.433292 142.358126 
L 524.032187 141.620205 
L 524.546314 141.620205 
L 525.060442 141.398829 
L 527.116953 141.029868 
L 527.631081 140.808492 
L 529.687592 140.439531 
L 530.715848 139.996779 
L 531.744103 139.812299 
L 534.314742 139.185066 
L 536.371253 138.557833 
L 536.885381 138.447145 
L 537.399509 138.188873 
L 538.427764 137.9306 
L 538.941892 137.635432 
L 540.484275 137.118887 
L 540.998403 136.749927 
L 542.026658 136.454758 
L 543.054914 136.122694 
L 544.08317 135.716837 
L 545.625553 135.052709 
L 547.682064 134.794436 
L 551.795086 133.35549 
L 552.309214 132.98653 
L 552.823342 132.875842 
L 553.337469 132.61757 
L 553.851597 132.580673 
L 559.507002 130.625183 
L 562.077641 129.961054 
L 563.105897 129.481406 
L 564.64828 129.149341 
L 565.162408 128.743485 
L 565.676536 128.485212 
L 566.190663 127.85798 
L 566.704791 127.489019 
L 567.733047 127.193851 
L 568.247174 126.787994 
L 571.331941 125.644217 
L 571.846069 125.312152 
L 572.874324 125.016984 
L 573.388452 124.684919 
L 575.959091 123.873206 
L 577.501474 122.987701 
L 578.015602 122.877013 
L 580.586241 121.511859 
L 582.128624 120.810835 
L 582.642752 120.441874 
L 583.671007 120.10981 
L 584.699263 119.519473 
L 585.213391 119.334993 
L 585.727518 118.966032 
L 592.411179 116.641581 
L 592.925307 116.530893 
L 593.439435 116.198829 
L 595.495946 115.792972 
L 596.524201 115.387116 
L 597.038329 115.091947 
L 597.552457 114.944363 
L 599.608968 113.874378 
L 600.123096 113.800586 
L 601.665479 112.951977 
L 604.750246 111.734407 
L 606.806757 110.922694 
L 607.320885 110.77511 
L 607.835012 110.443045 
L 608.863268 110.295461 
L 609.377396 109.963397 
L 610.405651 109.778917 
L 611.433907 109.299268 
L 611.948034 109.077892 
L 612.462162 109.0041 
L 615.032801 108.007906 
L 616.575184 107.60205 
L 617.60344 107.343777 
L 619.145823 106.901025 
L 620.174079 106.495168 
L 622.23059 105.388287 
L 623.258845 104.98243 
L 623.772973 104.650366 
L 624.801229 104.42899 
L 625.315356 104.133821 
L 625.829484 104.023133 
L 627.371867 103.174524 
L 628.400123 102.768668 
L 629.942506 102.067643 
L 631.484889 101.661786 
L 634.569656 100.444217 
L 636.626167 99.743192 
L 638.16855 99.189751 
L 638.682678 99.005271 
L 639.710934 98.45183 
L 641.767445 97.529429 
L 646.908722 95.573939 
L 647.42285 95.204978 
L 649.479361 94.503953 
L 649.993489 94.503953 
L 651.021744 94.061201 
L 652.05 93.138799 
L 652.564128 92.696047 
L 654.106511 91.958126 
L 654.620639 91.847438 
L 655.134767 91.589165 
L 655.648894 91.515373 
L 656.163022 91.146413 
L 656.67715 91.035725 
L 657.705405 90.408492 
L 659.247789 89.633675 
L 660.276044 89.227818 
L 660.790172 88.969546 
L 663.360811 88.342313 
L 663.874939 88.084041 
L 665.417322 87.641288 
L 667.473833 86.645095 
L 668.502088 86.165447 
L 669.530344 85.907174 
L 671.586855 84.984773 
L 672.100983 84.837189 
L 672.615111 84.505124 
L 675.699877 83.398243 
L 677.24226 82.475842 
L 677.756388 82.365154 
L 678.784644 81.848609 
L 679.812899 81.479649 
L 680.327027 81.036896 
L 681.355283 80.63104 
L 682.897666 80.003807 
L 683.411794 79.59795 
L 683.925921 79.561054 
L 684.954177 79.265886 
L 685.982432 78.933821 
L 686.49656 78.675549 
L 687.010688 78.601757 
L 688.553071 78.048316 
L 690.095455 77.494876 
L 691.12371 77.089019 
L 691.637838 76.683163 
L 693.180221 76.277306 
L 693.694349 75.982138 
L 694.722604 75.723865 
L 696.264988 74.875256 
L 696.779115 74.83836 
L 698.321499 74.358712 
L 699.349754 74.248023 
L 700.37801 73.842167 
L 703.462776 72.956662 
L 704.491032 72.919766 
L 707.575799 71.923572 
L 708.089926 71.84978 
L 709.63231 71.038067 
L 710.146437 70.595315 
L 711.688821 69.70981 
L 712.202948 69.303953 
L 713.231204 68.898097 
L 714.773587 68.455344 
L 715.287715 68.160176 
L 715.801843 68.049488 
L 716.315971 67.643631 
L 719.400737 66.389165 
L 721.457248 65.835725 
L 722.485504 65.392972 
L 723.513759 64.987116 
L 725.056143 64.359883 
L 726.084398 64.027818 
L 727.626781 63.437482 
L 728.655037 62.773353 
L 730.19742 62.367496 
L 731.739803 61.334407 
L 732.253931 61.260615 
L 734.82457 60.227526 
L 736.366953 59.858565 
L 736.881081 59.784773 
L 737.395209 59.563397 
L 737.909337 59.526501 
L 738.937592 59.15754 
L 739.45172 59.120644 
L 740.994103 58.530307 
L 743.050614 57.939971 
L 744.07887 57.128258 
L 746.135381 55.947584 
L 746.649509 55.8 
L 747.163636 55.8 
L 747.163636 55.8 
" clip-path="url(#pddb179f8fd)" style="fill: none; stroke: #1f77b4; stroke-width: 1.5; stroke-linecap: square"/>
   </g>
   <g id="line2d_40">
    <path d="M 138.950491 307.8 
L 143.577641 307.689312 
L 147.690663 307.504832 
L 149.747174 307.504832 
L 150.261302 307.357247 
L 152.831941 307.246559 
L 155.916708 306.914495 
L 159.001474 306.803807 
L 160.02973 306.693119 
L 163.628624 306.545534 
L 167.227518 306.434846 
L 169.798157 306.361054 
L 176.481818 306.250366 
L 179.052457 306.176574 
L 182.651351 306.065886 
L 185.22199 305.992094 
L 190.877396 305.881406 
L 192.933907 305.696925 
L 194.990418 305.660029 
L 198.075184 305.549341 
L 200.131695 305.512445 
L 202.702334 305.438653 
L 204.758845 305.254173 
L 209.385995 305.143485 
L 210.414251 305.069693 
L 212.470762 304.959004 
L 215.555528 304.848316 
L 217.612039 304.737628 
L 226.866339 304.184187 
L 230.465233 304.073499 
L 232.007617 303.925915 
L 234.578256 303.815227 
L 239.719533 303.556955 
L 244.860811 303.483163 
L 246.917322 303.261786 
L 248.973833 303.151098 
L 254.629238 302.634553 
L 258.228133 302.228697 
L 259.770516 302.154905 
L 264.397666 301.601464 
L 266.968305 301.527672 
L 268.510688 301.380088 
L 270.053071 301.2694 
L 275.194349 300.789751 
L 276.736732 300.642167 
L 279.821499 300.531479 
L 284.448649 300.162518 
L 285.476904 299.978038 
L 288.561671 299.86735 
L 296.787715 299.387701 
L 300.386609 299.277013 
L 302.44312 299.055637 
L 305.013759 298.944949 
L 308.098526 298.834261 
L 310.669165 298.723572 
L 312.725676 298.686676 
L 315.296314 298.612884 
L 316.32457 298.4653 
L 323.522359 298.354612 
L 324.550614 298.243924 
L 330.720147 298.133236 
L 335.347297 297.911859 
L 338.946192 297.801171 
L 341.002703 297.579795 
L 344.601597 297.469107 
L 345.629853 297.284627 
L 348.200491 297.210835 
L 353.341769 297.137042 
L 355.912408 296.87877 
L 358.997174 296.768082 
L 361.053686 296.583602 
L 366.194963 296.325329 
L 371.336241 296.214641 
L 375.963391 295.993265 
L 377.505774 295.956369 
L 378.534029 295.808785 
L 381.104668 295.698097 
L 382.132924 295.624305 
L 383.161179 295.550512 
L 384.189435 295.47672 
L 388.816585 295.402928 
L 390.358968 295.29224 
L 404.240418 294.406735 
L 406.811057 294.296047 
L 409.381695 294.222255 
L 416.579484 294.111567 
L 417.60774 293.963982 
L 424.805528 293.853294 
L 429.946806 293.595022 
L 430.975061 293.558126 
L 432.003317 293.447438 
L 434.573956 293.33675 
L 437.144595 293.262958 
L 439.715233 293.152269 
L 442.285872 293.078477 
L 446.913022 292.967789 
L 449.997789 292.857101 
L 457.195577 292.746413 
L 462.850983 292.451245 
L 464.907494 292.377452 
L 466.449877 292.266764 
L 473.647666 292.156076 
L 476.732432 292.045388 
L 485.986732 291.9347 
L 488.043243 291.897804 
L 494.212776 291.824012 
L 495.241032 291.75022 
L 502.438821 291.639531 
L 504.495332 291.602635 
L 517.862654 291.491947 
L 519.405037 291.344363 
L 542.540786 291.233675 
L 545.111425 291.159883 
L 558.478747 291.049195 
L 559.507002 290.975403 
L 562.077641 290.901611 
L 563.620025 290.754026 
L 566.704791 290.643338 
L 570.303686 290.495754 
L 574.930835 290.385066 
L 577.501474 290.311274 
L 581.100369 290.200586 
L 585.213391 290.016105 
L 587.784029 289.905417 
L 590.868796 289.794729 
L 598.580713 289.684041 
L 601.665479 289.573353 
L 607.320885 289.462665 
L 610.919779 289.315081 
L 614.518673 289.241288 
L 615.546929 289.167496 
L 627.885995 289.056808 
L 634.569656 288.687848 
L 637.140295 288.614056 
L 638.16855 288.503367 
L 639.196806 288.429575 
L 643.309828 288.318887 
L 646.394595 288.208199 
L 651.535872 288.097511 
L 654.106511 287.839239 
L 659.247789 287.728551 
L 660.276044 287.617862 
L 665.417322 287.507174 
L 667.987961 287.433382 
L 673.643366 287.396486 
L 674.671622 287.285798 
L 680.327027 287.17511 
L 681.355283 287.101318 
L 692.666093 286.99063 
L 695.75086 286.879941 
L 703.462776 286.769253 
L 705.519287 286.732357 
L 710.146437 286.658565 
L 711.174693 286.547877 
L 717.344226 286.437189 
L 720.428993 286.326501 
L 729.683292 286.215813 
L 731.225676 286.105124 
L 732.768059 285.994436 
L 734.310442 285.883748 
L 742.022359 285.77306 
L 745.621253 285.625476 
L 747.163636 285.625476 
L 747.163636 285.625476 
" clip-path="url(#pddb179f8fd)" style="fill: none; stroke: #ff7f0e; stroke-width: 1.5; stroke-linecap: square"/>
   </g>
   <g id="patch_3">
    <path d="M 108 320.4 
L 108 43.2 
" style="fill: none; stroke: #a9a9a9; stroke-width: 0.8; stroke-linejoin: miter; stroke-linecap: square"/>
   </g>
   <g id="patch_4">
    <path d="M 777.6 320.4 
L 777.6 43.2 
" style="fill: none"/>
   </g>
   <g id="patch_5">
    <path d="M 108 320.4 
L 777.6 320.4 
" style="fill: none; stroke: #a9a9a9; stroke-width: 0.8; stroke-linejoin: miter; stroke-linecap: square"/>
   </g>
   <g id="patch_6">
    <path d="M 108 43.2 
L 777.6 43.2 
" style="fill: none"/>
   </g>
   <g id="text_20">
    <!-- get_subscribe history -->
    <g style="fill: #a9a9a9" transform="translate(378.6075 37.2) scale(0.12 -0.12)">
     <defs>
      <path id="DejaVuSans-67" d="M 2906 1791 
Q 2906 2416 2648 2759 
Q 2391 3103 1925 3103 
Q 1463 3103 1205 2759 
Q 947 2416 947 1791 
Q 947 1169 1205 825 
Q 1463 481 1925 481 
Q 2391 481 2648 825 
Q 2906 1169 2906 1791 
z
M 3481 434 
Q 3481 -459 3084 -895 
Q 2688 -1331 1869 -1331 
Q 1566 -1331 1297 -1286 
Q 1028 -1241 775 -1147 
L 775 -588 
Q 1028 -725 1275 -790 
Q 1522 -856 1778 -856 
Q 2344 -856 2625 -561 
Q 2906 -266 2906 331 
L 2906 616 
Q 2728 306 2450 153 
Q 2172 0 1784 0 
Q 1141 0 747 490 
Q 353 981 353 1791 
Q 353 2603 747 3093 
Q 1141 3584 1784 3584 
Q 2172 3584 2450 3431 
Q 2728 3278 2906 2969 
L 2906 3500 
L 3481 3500 
L 3481 434 
z
" transform="scale(0.015625)"/>
      <path id="DejaVuSans-65" d="M 3597 1894 
L 3597 1613 
L 953 1613 
Q 991 1019 1311 708 
Q 1631 397 2203 397 
Q 2534 397 2845 478 
Q 3156 559 3463 722 
L 3463 178 
Q 3153 47 2828 -22 
Q 2503 -91 2169 -91 
Q 1331 -91 842 396 
Q 353 884 353 1716 
Q 353 2575 817 3079 
Q 1281 3584 2069 3584 
Q 2775 3584 3186 3129 
Q 3597 2675 3597 1894 
z
M 3022 2063 
Q 3016 2534 2758 2815 
Q 2500 3097 2075 3097 
Q 1594 3097 1305 2825 
Q 1016 2553 972 2059 
L 3022 2063 
z
" transform="scale(0.015625)"/>
      <path id="DejaVuSans-74" d="M 1172 4494 
L 1172 3500 
L 2356 3500 
L 2356 3053 
L 1172 3053 
L 1172 1153 
Q 1172 725 1289 603 
Q 1406 481 1766 481 
L 2356 481 
L 2356 0 
L 1766 0 
Q 1100 0 847 248 
Q 594 497 594 1153 
L 594 3053 
L 172 3053 
L 172 3500 
L 594 3500 
L 594 4494 
L 1172 4494 
z
" transform="scale(0.015625)"/>
      <path id="DejaVuSans-5f" d="M 3263 -1063 
L 3263 -1509 
L -63 -1509 
L -63 -1063 
L 3263 -1063 
z
" transform="scale(0.015625)"/>
      <path id="DejaVuSans-73" d="M 2834 3397 
L 2834 2853 
Q 2591 2978 2328 3040 
Q 2066 3103 1784 3103 
Q 1356 3103 1142 2972 
Q 928 2841 928 2578 
Q 928 2378 1081 2264 
Q 1234 2150 1697 2047 
L 1894 2003 
Q 2506 1872 2764 1633 
Q 3022 1394 3022 966 
Q 3022 478 2636 193 
Q 2250 -91 1575 -91 
Q 1294 -91 989 -36 
Q 684 19 347 128 
L 347 722 
Q 666 556 975 473 
Q 1284 391 1588 391 
Q 1994 391 2212 530 
Q 2431 669 2431 922 
Q 2431 1156 2273 1281 
Q 2116 1406 1581 1522 
L 1381 1569 
Q 847 1681 609 1914 
Q 372 2147 372 2553 
Q 372 3047 722 3315 
Q 1072 3584 1716 3584 
Q 2034 3584 2315 3537 
Q 2597 3491 2834 3397 
z
" transform="scale(0.015625)"/>
      <path id="DejaVuSans-75" d="M 544 1381 
L 544 3500 
L 1119 3500 
L 1119 1403 
Q 1119 906 1312 657 
Q 1506 409 1894 409 
Q 2359 409 2629 706 
Q 2900 1003 2900 1516 
L 2900 3500 
L 3475 3500 
L 3475 0 
L 2900 0 
L 2900 538 
Q 2691 219 2414 64 
Q 2138 -91 1772 -91 
Q 1169 -91 856 284 
Q 544 659 544 1381 
z
M 1991 3584 
L 1991 3584 
z
" transform="scale(0.015625)"/>
      <path id="DejaVuSans-62" d="M 3116 1747 
Q 3116 2381 2855 2742 
Q 2594 3103 2138 3103 
Q 1681 3103 1420 2742 
Q 1159 2381 1159 1747 
Q 1159 1113 1420 752 
Q 1681 391 2138 391 
Q 2594 391 2855 752 
Q 3116 1113 3116 1747 
z
M 1159 2969 
Q 1341 3281 1617 3432 
Q 1894 3584 2278 3584 
Q 2916 3584 3314 3078 
Q 3713 2572 3713 1747 
Q 3713 922 3314 415 
Q 2916 -91 2278 -91 
Q 1894 -91 1617 61 
Q 1341 213 1159 525 
L 1159 0 
L 581 0 
L 581 4863 
L 1159 4863 
L 1159 2969 
z
" transform="scale(0.015625)"/>
      <path id="DejaVuSans-63" d="M 3122 3366 
L 3122 2828 
Q 2878 2963 2633 3030 
Q 2388 3097 2138 3097 
Q 1578 3097 1268 2742 
Q 959 2388 959 1747 
Q 959 1106 1268 751 
Q 1578 397 2138 397 
Q 2388 397 2633 464 
Q 2878 531 3122 666 
L 3122 134 
Q 2881 22 2623 -34 
Q 2366 -91 2075 -91 
Q 1284 -91 818 406 
Q 353 903 353 1747 
Q 353 2603 823 3093 
Q 1294 3584 2113 3584 
Q 2378 3584 2631 3529 
Q 2884 3475 3122 3366 
z
" transform="scale(0.015625)"/>
      <path id="DejaVuSans-72" d="M 2631 2963 
Q 2534 3019 2420 3045 
Q 2306 3072 2169 3072 
Q 1681 3072 1420 2755 
Q 1159 2438 1159 1844 
L 1159 0 
L 581 0 
L 581 3500 
L 1159 3500 
L 1159 2956 
Q 1341 3275 1631 3429 
Q 1922 3584 2338 3584 
Q 2397 3584 2469 3576 
Q 2541 3569 2628 3553 
L 2631 2963 
z
" transform="scale(0.015625)"/>
      <path id="DejaVuSans-69" d="M 603 3500 
L 1178 3500 
L 1178 0 
L 603 0 
L 603 3500 
z
M 603 4863 
L 1178 4863 
L 1178 4134 
L 603 4134 
L 603 4863 
z
" transform="scale(0.015625)"/>
      <path id="DejaVuSans-20" transform="scale(0.015625)"/>
      <path id="DejaVuSans-68" d="M 3513 2113 
L 3513 0 
L 2938 0 
L 2938 2094 
Q 2938 2591 2744 2837 
Q 2550 3084 2163 3084 
Q 1697 3084 1428 2787 
Q 1159 2491 1159 1978 
L 1159 0 
L 581 0 
L 581 4863 
L 1159 4863 
L 1159 2956 
Q 1366 3272 1645 3428 
Q 1925 3584 2291 3584 
Q 2894 3584 3203 3211 
Q 3513 2838 3513 2113 
z
" transform="scale(0.015625)"/>
      <path id="DejaVuSans-6f" d="M 1959 3097 
Q 1497 3097 1228 2736 
Q 959 2375 959 1747 
Q 959 1119 1226 758 
Q 1494 397 1959 397 
Q 2419 397 2687 759 
Q 2956 1122 2956 1747 
Q 2956 2369 2687 2733 
Q 2419 3097 1959 3097 
z
M 1959 3584 
Q 2709 3584 3137 3096 
Q 3566 2609 3566 1747 
Q 3566 888 3137 398 
Q 2709 -91 1959 -91 
Q 1206 -91 779 398 
Q 353 888 353 1747 
Q 353 2609 779 3096 
Q 1206 3584 1959 3584 
z
" transform="scale(0.015625)"/>
      <path id="DejaVuSans-79" d="M 2059 -325 
Q 1816 -950 1584 -1140 
Q 1353 -1331 966 -1331 
L 506 -1331 
L 506 -850 
L 844 -850 
Q 1081 -850 1212 -737 
Q 1344 -625 1503 -206 
L 1606 56 
L 191 3500 
L 800 3500 
L 1894 763 
L 2988 3500 
L 3597 3500 
L 2059 -325 
z
" transform="scale(0.015625)"/>
     </defs>
     <use xlink:href="#DejaVuSans-67"/>
     <use xlink:href="#DejaVuSans-65" x="63.476562"/>
     <use xlink:href="#DejaVuSans-74" x="125"/>
     <use xlink:href="#DejaVuSans-5f" x="164.208984"/>
     <use xlink:href="#DejaVuSans-73" x="214.208984"/>
     <use xlink:href="#DejaVuSans-75" x="266.308594"/>
     <use xlink:href="#DejaVuSans-62" x="329.6875"/>
     <use xlink:href="#DejaVuSans-73" x="393.164062"/>
     <use xlink:href="#DejaVuSans-63" x="445.263672"/>
     <use xlink:href="#DejaVuSans-72" x="500.244141"/>
     <use xlink:href="#DejaVuSans-69" x="541.357422"/>
     <use xlink:href="#DejaVuSans-62" x="569.140625"/>
     <use xlink:href="#DejaVuSans-65" x="632.617188"/>
     <use xlink:href="#DejaVuSans-20" x="694.140625"/>
     <use xlink:href="#DejaVuSans-68" x="725.927734"/>
     <use xlink:href="#DejaVuSans-69" x="789.306641"/>
     <use xlink:href="#DejaVuSans-73" x="817.089844"/>
     <use xlink:href="#DejaVuSans-74" x="869.189453"/>
     <use xlink:href="#DejaVuSans-6f" x="908.398438"/>
     <use xlink:href="#DejaVuSans-72" x="969.580078"/>
     <use xlink:href="#DejaVuSans-79" x="1010.693359"/>
    </g>
   </g>
   <g id="legend_1">
    <g id="line2d_41">
     <path d="M 815.08 328.498438 
L 825.08 328.498438 
L 835.08 328.498438 
" style="fill: none; stroke: #1f77b4; stroke-width: 1.5; stroke-linecap: square"/>
    </g>
    <g id="text_21">
     <!-- star -->
     <g style="fill: #a9a9a9" transform="translate(843.08 331.998438) scale(0.1 -0.1)">
      <defs>
       <path id="DejaVuSans-61" d="M 2194 1759 
Q 1497 1759 1228 1600 
Q 959 1441 959 1056 
Q 959 750 1161 570 
Q 1363 391 1709 391 
Q 2188 391 2477 730 
Q 2766 1069 2766 1631 
L 2766 1759 
L 2194 1759 
z
M 3341 1997 
L 3341 0 
L 2766 0 
L 2766 531 
Q 2569 213 2275 61 
Q 1981 -91 1556 -91 
Q 1019 -91 701 211 
Q 384 513 384 1019 
Q 384 1609 779 1909 
Q 1175 2209 1959 2209 
L 2766 2209 
L 2766 2266 
Q 2766 2663 2505 2880 
Q 2244 3097 1772 3097 
Q 1472 3097 1187 3025 
Q 903 2953 641 2809 
L 641 3341 
Q 956 3463 1253 3523 
Q 1550 3584 1831 3584 
Q 2591 3584 2966 3190 
Q 3341 2797 3341 1997 
z
" transform="scale(0.015625)"/>
      </defs>
      <use xlink:href="#DejaVuSans-73"/>
      <use xlink:href="#DejaVuSans-74" x="52.099609"/>
      <use xlink:href="#DejaVuSans-61" x="91.308594"/>
      <use xlink:href="#DejaVuSans-72" x="152.587891"/>
     </g>
    </g>
    <g id="line2d_42">
     <path d="M 815.08 343.176562 
L 825.08 343.176562 
L 835.08 343.176562 
" style="fill: none; stroke: #ff7f0e; stroke-width: 1.5; stroke-linecap: square"/>
    </g>
    <g id="text_22">
     <!-- fork -->
     <g style="fill: #a9a9a9" transform="translate(843.08 346.676562) scale(0.1 -0.1)">
      <defs>
       <path id="DejaVuSans-66" d="M 2375 4863 
L 2375 4384 
L 1825 4384 
Q 1516 4384 1395 4259 
Q 1275 4134 1275 3809 
L 1275 3500 
L 2222 3500 
L 2222 3053 
L 1275 3053 
L 1275 0 
L 697 0 
L 697 3053 
L 147 3053 
L 147 3500 
L 697 3500 
L 697 3744 
Q 697 4328 969 4595 
Q 1241 4863 1831 4863 
L 2375 4863 
z
" transform="scale(0.015625)"/>
       <path id="DejaVuSans-6b" d="M 581 4863 
L 1159 4863 
L 1159 1991 
L 2875 3500 
L 3609 3500 
L 1753 1863 
L 3688 0 
L 2938 0 
L 1159 1709 
L 1159 0 
L 581 0 
L 581 4863 
z
" transform="scale(0.015625)"/>
      </defs>
      <use xlink:href="#DejaVuSans-66"/>
      <use xlink:href="#DejaVuSans-6f" x="35.205078"/>
      <use xlink:href="#DejaVuSans-72" x="96.386719"/>
      <use xlink:href="#DejaVuSans-6b" x="137.5"/>
     </g>
    </g>
   </g>
  </g>
 </g>
 <defs>
  <clipPath id="pddb179f8fd">
   <rect x="108" y="43.2" width="669.6" height="277.2"/>
  </clipPath>
 </defs>
</svg>
